<?xml version="1.0" standalone="no"?><!DOCTYPE svg PUBLIC "-//W3C//DTD SVG 1.1//EN" "http://www.w3.org/Graphics/SVG/1.1/DTD/svg11.dtd" ><svg xmlns="http://www.w3.org/2000/svg"><metadata></metadata><defs><font id="HarmonyOS Sans SC Version 1.0" horiz-adv-x="1000"><font-face font-family="HarmonyOS Sans SC" font-weight="400" font-stretch="normal" units-per-em="1000" panose-1="0 0 5 0 0 0 0 0 0 0" ascent="928" descent="-244" x-height="0" bbox="-119 -244 985 867" underline-thickness="50" underline-position="-75" unicode-range="U+0020-ff1f" /><missing-glyph horiz-adv-x="1000"  /><glyph glyph-name="A" unicode="A" d="M363 732 l294 -732 l-99 0 l-81 210 l-303 0 l-77 -210 l-90 0 l281 732 l75 0 ZM446 290 l-124 323 l-118 -323 l242 0 Z" /><glyph glyph-name="B" unicode="B" d="M477 384 q137 -39 137 -177 q0 -98 -67 -152.5 q-67 -54.5 -198 -54.5 l-262 0 l0 732 l231 0 q77 0 134 -24 q57 -24 88 -69 q31 -45 31 -105 q0 -105 -94 -150 ZM176 653 l0 -240 l127 0 q83 0 128.5 32 q45.5 32 45.5 89 q0 55 -46 87 q-46 32 -128 32 l-127 0 ZM333 78 q94 0 140.5 34 q46.5 34 46.5 95 q0 62 -46.5 97 q-46.5 35 -140.5 35 l-157 0 l0 -261 l157 0 Z" /><glyph glyph-name="C" unicode="C" d="M381 71 q120 0 176 111 l72 -42 q-31 -71 -96 -111 q-65 -40 -150 -40 q-93 0 -169 48 q-76 48 -120 134 q-44 86 -44 196 q0 110 44 196 q44 86 120 133.5 q76 47.5 169 47.5 q85 0 150 -40 q65 -40 96 -111 l-72 -42 q-56 111 -176 111 q-70 0 -124 -37 q-54 -37 -83.5 -104 q-29.5 -67 -29.5 -154 q0 -87 29.5 -154.5 q29.5 -67.5 83.5 -104.5 q54 -37 124 -37 Z" /><glyph glyph-name="D" unicode="D" d="M287 732 q107 0 192.5 -43 q85.5 -43 134.5 -125.5 q49 -82.5 49 -196.5 q0 -115 -48.5 -197.5 q-48.5 -82.5 -134 -126 q-85.5 -43.5 -193.5 -43.5 l-200 0 l0 732 l200 0 ZM275 79 q138 0 216 75 q78 75 78 213 q0 136 -78.5 211.5 q-78.5 75.5 -215.5 75.5 l-99 0 l0 -575 l99 0 Z" /><glyph glyph-name="E" unicode="E" d="M498 339 l-322 0 l0 -260 l371 0 l0 -79 l-460 0 l0 733 l449 0 l0 -79 l-360 0 l0 -236 l322 0 l0 -79 Z" /><glyph glyph-name="F" unicode="F" d="M87 732 l449 0 l0 -79 l-360 0 l0 -247 l322 0 l0 -79 l-322 0 l0 -327 l-89 0 l0 732 Z" /><glyph glyph-name="G" unicode="G" d="M409 303 l0 80 l244 0 l0 -285 q-32 -47 -99 -78 q-67 -31 -151 -31 q-101 0 -181.5 47.5 q-80.5 47.5 -126 134 q-45.5 86.5 -45.5 197.5 q0 110 45.5 195.5 q45.5 85.5 125 133 q79.5 47.5 176.5 47.5 q86 0 153.5 -37 q67.5 -37 98.5 -103 l-72 -42 q-24 45 -72 72.5 q-48 27.5 -112 27.5 q-73 0 -129.5 -37 q-56.5 -37 -88 -103.5 q-31.5 -66.5 -31.5 -153.5 q0 -88 33 -155.5 q33 -67.5 93 -104.5 q60 -37 139 -37 q102 0 155 56 l0 176 l-155 0 Z" /><glyph glyph-name="H" unicode="H" d="M176 420 l393 0 l0 312 l89 0 l0 -732 l-89 0 l0 340 l-393 0 l0 -340 l-89 0 l0 732 l89 0 l0 -312 Z" /><glyph glyph-name="I" unicode="I" d="M176 0 l-89 0 l0 732 l89 0 l0 -732 Z" /><glyph glyph-name="J" unicode="J" d="M180 -11 q-66 0 -115 32 q-49 32 -65 98 l70 41 q25 -89 110 -89 q57 0 82.5 40 q25.5 40 25.5 117 l0 504 l89 0 l0 -513 q0 -119 -55 -174.5 q-55 -55.5 -142 -55.5 Z" /><glyph glyph-name="K" unicode="K" d="M353 420 l322 -420 l-114 0 l-270 354 l-115 -121 l0 -233 l-89 0 l0 732 l89 0 l0 -389 l358 389 l116 0 l-297 -312 Z" /><glyph glyph-name="L" unicode="L" d="M87 732 l89 0 l0 -652 l361 0 l0 -80 l-450 0 l0 732 Z" /><glyph glyph-name="M" unicode="M" d="M704 732 l73 0 l0 -732 l-87 0 l0 558 l-231 -369 l-53 0 l-233 371 l0 -560 l-86 0 l0 732 l78 0 l270 -435 l269 435 Z" /><glyph glyph-name="N" unicode="N" d="M162 732 l407 -573 l0 573 l84 0 l0 -732 l-75 0 l-407 574 l0 -574 l-84 0 l0 732 l75 0 Z" /><glyph glyph-name="O" unicode="O" d="M50 367 q0 113 43 199 q43 86 118.5 132 q75.5 46 169.5 46 q94 0 169.5 -46.5 q75.5 -46.5 118.5 -132 q43 -85.5 43 -198.5 q0 -114 -43.5 -199.5 q-43.5 -85.5 -118.5 -132 q-75 -46.5 -169 -46.5 q-94 0 -169.5 46 q-75.5 46 -118.5 132 q-43 86 -43 200 ZM144 367 q0 -87 28.5 -154 q28.5 -67 82.5 -104.5 q54 -37.5 126 -37.5 q72 0 125.5 37.5 q53.5 37.5 82.5 104.5 q29 67 29 154 q0 88 -29 155 q-29 67 -82.5 104 q-53.5 37 -125.5 37 q-72 0 -125.5 -37 q-53.5 -37 -82.5 -104 q-29 -67 -29 -155 Z" /><glyph glyph-name="P" unicode="P" d="M312 732 q74 0 132.5 -29 q58.5 -29 91.5 -80.5 q33 -51.5 33 -117.5 q0 -66 -32.5 -117.5 q-32.5 -51.5 -91 -80 q-58.5 -28.5 -133.5 -28.5 l-136 0 l0 -279 l-89 0 l0 732 l225 0 ZM301 357 q84 0 129 41.5 q45 41.5 45 106.5 q0 65 -45 107 q-45 42 -129 42 l-125 0 l0 -297 l125 0 Z" /><glyph glyph-name="Q" unicode="Q" d="M770 -152 l-134 0 l-192 147 q-31 -6 -63 -6 q-94 0 -169.5 46 q-75.5 46 -118.5 132 q-43 86 -43 200 q0 113 43 199 q43 86 118.5 132 q75.5 46 169.5 46 q94 0 169.5 -46.5 q75.5 -46.5 118.5 -132 q43 -85.5 43 -198.5 q0 -118 -46.5 -205.5 q-46.5 -87.5 -126.5 -132.5 l231 -181 ZM144 367 q0 -87 28.5 -154 q28.5 -67 82.5 -104.5 q54 -37.5 126 -37.5 q72 0 125.5 37.5 q53.5 37.5 82.5 104.5 q29 67 29 154 q0 88 -29 155 q-29 67 -82.5 104 q-53.5 37 -125.5 37 q-72 0 -125.5 -37 q-53.5 -37 -82.5 -104 q-29 -67 -29 -155 Z" /><glyph glyph-name="R" unicode="R" d="M642 0 l-109 0 l-212 300 l-9 0 l-136 0 l0 -300 l-89 0 l0 732 l225 0 q75 0 133.5 -27 q58.5 -27 91 -76.5 q32.5 -49.5 32.5 -113.5 q0 -72 -41 -124.5 q-41 -52.5 -113 -75.5 l227 -315 ZM176 654 l0 -276 l125 0 q85 0 129.5 37.5 q44.5 37.5 44.5 99.5 q0 62 -44.5 100.5 q-44.5 38.5 -129.5 38.5 l-125 0 Z" /><glyph glyph-name="S" unicode="S" d="M547 203 q0 -63 -29 -111.5 q-29 -48.5 -85 -75.5 q-56 -27 -133 -27 q-107 0 -183 50 q-76 50 -100 133 l72 42 q27 -69 80 -106 q53 -37 132 -37 q72 0 112 32 q40 32 40 89 q0 46 -25 74.5 q-25 28.5 -61.5 44.5 q-36.5 16 -100.5 35 q-71 21 -114.5 40 q-43.5 19 -73.5 57 q-30 38 -30 100 q0 63 32 108.5 q32 45.5 88.5 69 q56.5 23.5 126.5 23.5 q98 0 158.5 -43 q60.5 -43 81.5 -109 l-72 -42 q-23 53 -63.5 83 q-40.5 30 -107.5 30 q-68 0 -109 -30.5 q-41 -30.5 -41 -81.5 q0 -38 22.5 -62 q22.5 -24 56.5 -38 q34 -14 93 -31 q75 -22 121 -43 q46 -21 79 -63 q33 -42 33 -111 Z" /><glyph glyph-name="T" unicode="T" d="M12 732 l544 0 l0 -79 l-228 0 l0 -653 l-89 0 l0 653 l-227 0 l0 79 Z" /><glyph glyph-name="U" unicode="U" d="M562 732 l89 0 l0 -436 q0 -94 -34 -163.5 q-34 -69.5 -98.5 -106.5 q-64.5 -37 -153.5 -37 q-134 0 -209.5 82 q-75.5 82 -75.5 225 l0 436 l89 0 l0 -422 q0 -116 50 -177.5 q50 -61.5 146 -61.5 q96 0 146.5 61.5 q50.5 61.5 50.5 177.5 l0 422 Z" /><glyph glyph-name="V" unicode="V" d="M106 732 l233 -613 l222 613 l90 0 l-278 -732 l-75 0 l-291 732 l99 0 Z" /><glyph glyph-name="W" unicode="W" d="M525 733 l180 -586 l166 585 l86 0 l-221 -732 l-71 0 l-180 567 l-172 -567 l-70 0 l-234 732 l94 0 l180 -585 l167 586 l75 0 Z" /><glyph glyph-name="X" unicode="X" d="M639 732 l-259 -361 l266 -371 l-109 0 l-212 299 l-210 -299 l-103 0 l266 370 l-259 362 l110 0 l204 -291 l203 291 l103 0 Z" /><glyph glyph-name="Y" unicode="Y" d="M319 400 l193 333 l97 0 l-251 -423 l0 -310 l-89 0 l0 313 l-262 420 l106 0 l206 -333 Z" /><glyph glyph-name="Z" unicode="Z" d="M540 732 l0 -43 l-392 -609 l406 0 l0 -80 l-529 0 l0 44 l392 609 l-362 0 l0 79 l485 0 Z" /><glyph glyph-name="a" unicode="a" d="M277 531 q88 0 144 -53.5 q56 -53.5 56 -152.5 l0 -325 l-75 0 q-3 51 -4 66 q-24 -38 -64.5 -57.5 q-40.5 -19.5 -92.5 -19.5 q-50 0 -93.5 18.5 q-43.5 18.5 -69.5 55 q-26 36.5 -26 87.5 q0 77 62.5 121.5 q62.5 44.5 161.5 44.5 q56 0 116 -15 l0 9 q0 73 -29.5 108.5 q-29.5 35.5 -89.5 35.5 q-48 0 -80 -20 q-32 -20 -54 -59 l-65 37 q24 54 78.5 86.5 q54.5 32.5 124.5 32.5 ZM392 230 q-63 16 -115 16 q-65 0 -100.5 -25 q-35.5 -25 -35.5 -70 q0 -42 30 -65.5 q30 -23.5 78 -23.5 q59 0 101 34.5 q42 34.5 42 95.5 l0 38 Z" /><glyph glyph-name="b" unicode="b" d="M332 531 q59 0 111.5 -32.5 q52.5 -32.5 84.5 -94 q32 -61.5 32 -144.5 q0 -84 -32 -145.5 q-32 -61.5 -84.5 -93.5 q-52.5 -32 -111.5 -32 q-52 0 -99 25 q-47 25 -75 75 q-4 -43 -6 -89 l-75 0 l0 761 l85 0 l0 -323 q29 46 74 69.5 q45 23.5 96 23.5 ZM321 69 q68 0 109 50 q41 50 41 141 q0 90 -41 140 q-41 50 -109 50 q-65 0 -112 -46 q-47 -46 -47 -144 q0 -67 23 -110 q23 -43 59 -62 q36 -19 77 -19 Z" /><glyph glyph-name="c" unicode="c" d="M295 69 q76 0 119 68 l67 -39 q-28 -55 -75.5 -82 q-47.5 -27 -108.5 -27 q-70 0 -127 34 q-57 34 -90 95.5 q-33 61.5 -33 141.5 q0 80 33 141.5 q33 61.5 90 95.5 q57 34 127 34 q61 0 108.5 -27 q47.5 -27 75.5 -82 l-67 -39 q-43 68 -119 68 q-70 0 -114 -51 q-44 -51 -44 -140 q0 -89 44 -140 q44 -51 114 -51 Z" /><glyph glyph-name="d" unicode="d" d="M445 761 l85 0 l0 -761 l-75 0 q-2 52 -6 88 q-28 -50 -74.5 -74.5 q-46.5 -24.5 -98.5 -24.5 q-60 0 -112.5 32 q-52.5 32 -84.5 93.5 q-32 61.5 -32 145.5 q0 83 32 144.5 q32 61.5 84.5 94 q52.5 32.5 112.5 32.5 q50 0 95 -23 q45 -23 74 -69 l0 322 ZM286 69 q65 0 112 46 q47 46 47 145 q0 98 -47 144 q-47 46 -112 46 q-68 0 -109 -50 q-41 -50 -41 -140 q0 -91 41 -141 q41 -50 109 -50 Z" /><glyph glyph-name="e" unicode="e" d="M293 531 q67 0 117.5 -31.5 q50.5 -31.5 77.5 -85.5 q27 -54 27 -120 q0 -28 -4 -51 l-374 0 q5 -89 51 -132.5 q46 -43.5 116 -43.5 q87 0 126 70 l65 -37 q-20 -53 -74.5 -82 q-54.5 -29 -121.5 -29 q-70 0 -127.5 32 q-57.5 32 -91 93.5 q-33.5 61.5 -33.5 147.5 q0 83 33.5 144 q33.5 61 89.5 93 q56 32 123 32 ZM290 453 q-56 0 -97.5 -36 q-41.5 -36 -52.5 -105 l283 0 q-3 67 -39 104 q-36 37 -94 37 Z" /><glyph glyph-name="f" unicode="f" d="M280 692 q-42 0 -63.5 -27 q-21.5 -27 -21.5 -95 l0 -50 l135 0 l0 -73 l-135 0 l0 -447 l-85 0 l0 447 l-90 0 l0 73 l90 0 l0 52 q0 104 47 152 q47 48 119 48 q32 0 58.5 -8.5 q26.5 -8.5 42.5 -21.5 l-34 -68 q-28 18 -63 18 Z" /><glyph glyph-name="g" unicode="g" d="M530 520 l0 -487 q0 -151 -72 -214 q-72 -63 -171 -63 q-77 0 -137 33 q-60 33 -82 93 l69 39 q39 -85 151 -85 q73 0 115 44 q42 44 42 155 l0 45 q-29 -46 -73.5 -68.5 q-44.5 -22.5 -95.5 -22.5 q-59 0 -111.5 32.5 q-52.5 32.5 -85 94 q-32.5 61.5 -32.5 144.5 q0 83 32 145 q32 62 85 94 q53 32 112 32 q52 0 98.5 -25 q46.5 -25 74.5 -74 q5 47 6 88 l75 0 ZM286 69 q65 0 112 46 q47 46 47 145 q0 98 -47 144 q-47 46 -112 46 q-68 0 -109 -50 q-41 -50 -41 -140 q0 -91 41 -141 q41 -50 109 -50 Z" /><glyph glyph-name="h" unicode="h" d="M328 531 q81 0 132 -55 q51 -55 51 -156 l0 -320 l-85 0 l0 296 q0 74 -29.5 114 q-29.5 40 -87.5 40 q-38 0 -71.5 -17.5 q-33.5 -17.5 -54.5 -52 q-21 -34.5 -21 -85.5 l0 -295 l-85 0 l0 761 l85 0 l0 -320 q27 44 70 67 q43 23 96 23 Z" /><glyph glyph-name="i" unicode="i" d="M120 612 q-23 0 -39.5 17.5 q-16.5 17.5 -16.5 40.5 q0 23 16.5 40.5 q16.5 17.5 39.5 17.5 q24 0 40.5 -17 q16.5 -17 16.5 -41 q0 -23 -17 -40.5 q-17 -17.5 -40 -17.5 ZM162 0 l-85 0 l0 519 l85 0 l0 -519 Z" /><glyph glyph-name="j" unicode="j" d="M119 612 q-22 0 -39 17.5 q-17 17.5 -17 40.5 q0 23 16.5 40.5 q16.5 17.5 39.5 17.5 q24 0 40.5 -17 q16.5 -17 16.5 -41 q0 -24 -16.5 -41 q-16.5 -17 -40.5 -17 ZM-8 -244 q-32 0 -62 11 q-30 11 -49 33 l51 62 q25 -26 58 -26 q87 0 87 123 l0 560 l85 0 l0 -563 q0 -70 -24.5 -114.5 q-24.5 -44.5 -63 -65 q-38.5 -20.5 -82.5 -20.5 Z" /><glyph glyph-name="k" unicode="k" d="M311 304 l215 -304 l-107 0 l-167 238 l-90 -100 l0 -138 l-85 0 l0 761 l85 0 l0 -514 l238 272 l104 0 l-193 -215 Z" /><glyph glyph-name="l" unicode="l" d="M162 0 l-85 0 l0 761 l85 0 l0 -761 Z" /><glyph glyph-name="m" unicode="m" d="M619 531 q74 0 120 -53.5 q46 -53.5 46 -153.5 l0 -324 l-84 0 l0 296 q0 75 -26 114.5 q-26 39.5 -77 39.5 q-52 0 -88.5 -40 q-36.5 -40 -36.5 -115 l0 -295 l-84 0 l0 296 q0 74 -26 114 q-26 40 -76 40 q-52 0 -88.5 -40.5 q-36.5 -40.5 -36.5 -114.5 l0 -295 l-85 0 l0 519 l75 0 q1 -34 5 -79 q26 45 65.5 68 q39.5 23 86.5 23 q52 0 91.5 -27.5 q39.5 -27.5 57.5 -81.5 q25 55 67.5 82 q42.5 27 93.5 27 Z" /><glyph glyph-name="n" unicode="n" d="M328 531 q83 0 133 -55 q50 -55 50 -156 l0 -320 l-85 0 l0 296 q0 74 -29.5 114 q-29.5 40 -87.5 40 q-38 0 -71.5 -17.5 q-33.5 -17.5 -54.5 -52 q-21 -34.5 -21 -85.5 l0 -295 l-85 0 l0 519 l75 0 q2 -50 6 -86 q26 48 70.5 73 q44.5 25 99.5 25 Z" /><glyph glyph-name="o" unicode="o" d="M47 260 q0 78 34.5 140 q34.5 62 91.5 96.5 q57 34.5 123 34.5 q66 0 123 -34 q57 -34 91 -96 q34 -62 34 -141 q0 -79 -34 -140.5 q-34 -61.5 -91 -96 q-57 -34.5 -123 -34.5 q-66 0 -123.5 34.5 q-57.5 34.5 -91.5 96 q-34 61.5 -34 140.5 ZM137 260 q0 -59 21 -102 q21 -43 57 -66 q36 -23 81 -23 q45 0 81 23 q36 23 56.5 66 q20.5 43 20.5 102 q0 59 -20.5 102 q-20.5 43 -56.5 66 q-36 23 -81 23 q-45 0 -81 -23 q-36 -23 -57 -66 q-21 -43 -21 -102 Z" /><glyph glyph-name="p" unicode="p" d="M332 531 q59 0 111.5 -32.5 q52.5 -32.5 84.5 -94 q32 -61.5 32 -144.5 q0 -84 -32 -145.5 q-32 -61.5 -84.5 -93.5 q-52.5 -32 -111.5 -32 q-50 0 -95.5 23.5 q-45.5 23.5 -74.5 69.5 l0 -314 l-85 0 l0 751 l75 0 q2 -50 6 -88 q28 50 74.5 75 q46.5 25 99.5 25 ZM321 69 q68 0 109 50 q41 50 41 141 q0 91 -41 141 q-41 50 -109 50 q-41 0 -77 -19 q-36 -19 -59 -62 q-23 -43 -23 -110 q0 -67 23 -110 q23 -43 59 -62 q36 -19 77 -19 Z" /><glyph glyph-name="q" unicode="q" d="M530 519 l0 -751 l-85 0 l0 313 q-29 -46 -74.5 -69 q-45.5 -23 -94.5 -23 q-60 0 -112.5 32 q-52.5 32 -84.5 93.5 q-32 61.5 -32 145.5 q0 83 32 144.5 q32 61.5 84.5 94 q52.5 32.5 112.5 32.5 q52 0 98.5 -25 q46.5 -25 74.5 -74 q5 47 6 87 l75 0 ZM286 69 q65 0 112 46 q47 46 47 145 q0 67 -23 110 q-23 43 -59 62 q-36 19 -77 19 q-68 0 -109 -50 q-41 -50 -41 -141 q0 -91 41 -141 q41 -50 109 -50 Z" /><glyph glyph-name="r" unicode="r" d="M295 531 q24 0 44.5 -6.5 q20.5 -6.5 33.5 -16.5 l-31 -69 q-20 12 -48 12 q-58 0 -95 -47.5 q-37 -47.5 -37 -138.5 l0 -265 l-85 0 l0 519 l75 0 q2 -50 6 -85 q44 97 137 97 Z" /><glyph glyph-name="s" unicode="s" d="M427 148 q0 -47 -24.5 -83 q-24.5 -36 -68.5 -56 q-44 -20 -101 -20 q-76 0 -131 34 q-55 34 -72 93 l65 37 q37 -87 138 -87 q49 0 77 20 q28 20 28 55 q0 27 -16.5 44 q-16.5 17 -41 26.5 q-24.5 9.5 -68.5 22.5 q-53 15 -86 29 q-33 14 -56 41.5 q-23 27.5 -23 72.5 q0 47 25.5 82 q25.5 35 69 53.5 q43.5 18.5 95.5 18.5 q68 0 117 -30 q49 -30 66 -82 l-65 -37 q-16 34 -47.5 52.5 q-31.5 18.5 -74.5 18.5 q-44 0 -70.5 -17.5 q-26.5 -17.5 -26.5 -50.5 q0 -24 15.5 -39 q15.5 -15 38.5 -24 q23 -9 65 -21 q55 -15 89 -29.5 q34 -14.5 58.5 -44.5 q24.5 -30 24.5 -79 Z" /><glyph glyph-name="t" unicode="t" d="M359 17 q-41 -28 -105 -28 q-157 0 -157 179 l0 278 l-86 0 l0 74 l86 0 l0 145 l85 0 l0 -145 l151 0 l0 -74 l-151 0 l0 -268 q0 -109 82 -109 q36 0 67 18 l28 -70 Z" /><glyph glyph-name="u" unicode="u" d="M418 520 l85 0 l0 -520 l-75 0 q-2 51 -6 85 q-26 -48 -71 -72 q-45 -24 -98 -24 q-83 0 -133 55 q-50 55 -50 156 l0 320 l85 0 l0 -297 q0 -74 29.5 -114 q29.5 -40 86.5 -40 q38 0 71.5 17.5 q33.5 17.5 54.5 52.5 q21 35 21 86 l0 295 Z" /><glyph glyph-name="v" unicode="v" d="M107 519 l160 -406 l150 406 l88 0 l-209 -519 l-69 0 l-217 519 l97 0 Z" /><glyph glyph-name="w" unicode="w" d="M426 519 l136 -390 l127 390 l80 0 l-184 -519 l-56 0 l-138 380 l-132 -380 l-58 0 l-191 519 l89 0 l136 -390 l125 390 l66 0 Z" /><glyph glyph-name="x" unicode="x" d="M252 327 l137 192 l97 0 l-188 -258 l188 -261 l-104 0 l-134 192 l-138 -192 l-99 0 l190 257 l-190 262 l106 0 l135 -192 Z" /><glyph glyph-name="y" unicode="y" d="M422 519 l88 0 l-243 -613 q-32 -81 -68 -115.5 q-36 -34.5 -101 -34.5 q-61 0 -97 31 l34 69 q11 -9 28.5 -14.5 q17.5 -5.5 34.5 -5.5 q31 0 52.5 21 q21.5 21 46.5 79 l25 58 l-216 525 l98 0 l163 -417 l155 417 Z" /><glyph glyph-name="z" unicode="z" d="M429 519 l0 -45 l-278 -402 l289 0 l0 -72 l-407 0 l0 46 l280 401 l-263 0 l0 72 l379 0 Z" /><glyph glyph-name="uni0437" unicode="&#x437;" d="M299 274 q59 -12 90 -46.5 q31 -34.5 31 -85.5 q0 -69 -54 -111 q-54 -42 -148 -42 q-77 0 -135 31 q-58 31 -80 92 l67 39 q21 -43 57 -62.5 q36 -19.5 86 -19.5 q53 0 85 20 q32 20 32 60 q0 39 -34.5 63 q-34.5 24 -107.5 24 l-46 0 l0 74 l48 0 q62 0 91.5 20 q29.5 20 29.5 52 q0 33 -28 51 q-28 18 -74 18 q-85 0 -120 -66 l-67 39 q19 51 72 79 q53 28 123 28 q83 0 133.5 -38.5 q50.5 -38.5 50.5 -100.5 q0 -43 -26.5 -73.5 q-26.5 -30.5 -75.5 -44.5 Z" /><glyph glyph-name="uni4E00" unicode="&#x4e00;" d="M51 454 l898 0 l0 -86 l-898 0 l0 86 Z" /><glyph glyph-name="uni4E01" unicode="&#x4e01;" d="M940 772 l0 -80 l-382 0 l0 -606 q0 -53 -13.5 -83 q-13.5 -30 -44 -43.5 q-30.5 -13.5 -83.5 -15.5 l-31 -1 q-56 0 -120 8 l-17 86 q88 -11 143 -11 q36 0 51.5 6 q15.5 6 20.5 23.5 q5 17.5 5 58.5 l0 578 l-409 0 l0 80 l880 0 Z" /><glyph glyph-name="uni4E03" unicode="&#x4e03;" d="M817 260 l83 -20 l-8 -156 q-4 -69 -37.5 -97 q-33.5 -28 -110.5 -33 q-52 -4 -119 -4 q-66 0 -119 4 q-56 4 -87.5 19 q-31.5 15 -46 48 q-14.5 33 -14.5 90 l0 308 l-302 -49 l-13 84 l315 51 l0 329 l86 0 l0 -316 l503 81 l12 -83 l-515 -83 l0 -306 q0 -35 5.5 -53.5 q5.5 -18.5 21 -27.5 q15.5 -9 47.5 -12 q70 -4 104 -4 q36 0 104 4 q35 3 51.5 10.5 q16.5 7.5 23 25.5 q6.5 18 9.5 57 l7 133 Z" /><glyph glyph-name="uni4E09" unicode="&#x4e09;" d="M111 755 l777 0 l0 -83 l-777 0 l0 83 ZM158 436 l685 0 l0 -81 l-685 0 l0 81 ZM54 65 l892 0 l0 -80 l-892 0 l0 80 Z" /><glyph glyph-name="uni4E0A" unicode="&#x4e0a;" d="M508 470 l0 -423 l434 0 l0 -78 l-883 0 l0 78 l366 0 l0 792 l83 0 l0 -289 l367 0 l0 -80 l-367 0 Z" /><glyph glyph-name="uni4E0B" unicode="&#x4e0b;" d="M944 689 l-426 0 l0 -146 q278 -156 366 -213 l-46 -77 q-86 57 -320 194 l0 -515 l-85 0 l0 757 l-376 0 l0 80 l887 0 l0 -80 Z" /><glyph glyph-name="uni4E0D" unicode="&#x4e0d;" d="M604 692 q-24 -46 -63 -105 l0 -656 l-82 0 l0 544 q-141 -178 -358 -341 l-52 74 q152 105 268.5 228.5 q116.5 123.5 189.5 255.5 l-423 0 l0 83 l835 0 l0 -83 l-315 0 ZM617 507 q70 -55 171 -143.5 q101 -88.5 160 -147.5 l-62 -70 q-57 61 -151.5 149.5 q-94.5 88.5 -168.5 149.5 l51 62 Z" /><glyph glyph-name="uni4E0E" unicode="&#x4e0e;" d="M913 626 l-610 0 l-11 -149 l572 0 q-3 -181 -25 -368 q-8 -70 -23.5 -104.5 q-15.5 -34.5 -49 -49 q-33.5 -14.5 -99.5 -15.5 l-41 0 q-84 0 -143 5 l-16 80 q82 -8 152 -8 q57 0 82 6.5 q25 6.5 37 28 q12 21.5 19 73.5 q19 133 19 269 l-576 0 l34 434 l84 0 l-9 -123 l604 0 l0 -79 ZM47 261 l656 0 l0 -79 l-656 0 l0 79 Z" /><glyph glyph-name="uni4E13" unicode="&#x4e13;" d="M944 455 l-565 0 q-35 -85 -50 -119 l501 0 l0 -72 q-82 -92 -209 -207 q105 -38 188 -71 l-31 -76 q-121 49 -300.5 114.5 q-179.5 65.5 -304.5 106.5 l26 73 q127 -41 337 -116 q91 77 183 174 l-485 0 l0 63 q34 69 57 130 l-236 0 l0 73 l265 0 l10 29 q22 62 32 93 l-253 0 l0 73 l275 0 q21 73 32 120 l81 -10 q-11 -49 -29 -110 l422 0 l0 -73 l-443 0 q-16 -52 -41 -122 l538 0 l0 -73 Z" /><glyph glyph-name="uni4E14" unicode="&#x4e14;" d="M805 795 l0 -752 l150 0 l0 -75 l-910 0 l0 75 l150 0 l0 752 l610 0 ZM723 549 l0 168 l-447 0 l0 -168 l447 0 ZM276 303 l447 0 l0 170 l-447 0 l0 -170 ZM723 226 l-447 0 l0 -183 l447 0 l0 183 Z" /><glyph glyph-name="uni4E16" unicode="&#x4e16;" d="M797 526 l0 -320 l-372 0 l0 320 l-164 0 l0 -481 l656 0 l0 -79 l-740 0 l0 560 l-129 0 l0 79 l129 0 l0 202 l84 0 l0 -202 l164 0 l0 227 l81 0 l0 -227 l211 0 l0 228 l80 0 l0 -228 l155 0 l0 -79 l-155 0 ZM717 285 l0 241 l-211 0 l0 -241 l211 0 Z" /><glyph glyph-name="uni4E1A" unicode="&#x4e1a;" d="M659 830 l0 -779 l288 0 l0 -76 l-893 0 l0 76 l289 0 l0 779 l86 0 l0 -779 l145 0 l0 779 l85 0 ZM254 218 q-33 89 -86 213 q-53 124 -89 198 l76 35 q33 -67 90.5 -196.5 q57.5 -129.5 89.5 -210.5 l-81 -39 ZM927 625 q-30 -80 -85.5 -204 q-55.5 -124 -98.5 -206 l-77 41 q47 85 99.5 202 q52.5 117 82.5 202 l79 -35 Z" /><glyph glyph-name="uni4E1C" unicode="&#x4e1c;" d="M882 325 l-317 0 l0 -264 q0 -68 -28 -95.5 q-28 -27.5 -92 -27.5 q-54 0 -110 6 l-14 78 q56 -8 107 -8 q30 0 42.5 13.5 q12.5 13.5 12.5 48.5 l0 249 l-345 0 l0 76 q58 86 137 232 l-207 0 l0 77 l247 0 q44 87 67 143 l78 -31 q-19 -46 -52 -112 l515 0 l0 -77 l-555 0 q-81 -152 -134 -233 l249 0 l0 183 l82 0 l0 -183 l317 0 l0 -75 ZM340 218 q-47 -64 -115.5 -137 q-68.5 -73 -130.5 -126 l-56 69 q59 47 124 115.5 q65 68.5 112 133.5 l66 -55 ZM697 271 q50 -43 128 -117 q78 -74 127 -126 l-62 -65 q-48 55 -123 130 q-75 75 -126 119 l56 59 Z" /><glyph glyph-name="uni4E1D" unicode="&#x4e1d;" d="M91 430 l-19 74 q18 5 27 11 q9 6 16 14 q31 35 90.5 137 q59.5 102 92.5 175 l71 -35 q-30 -65 -85 -160.5 q-55 -95.5 -89 -139.5 l156 24 q59 92 93 154 l65 -36 q-51 -95 -134.5 -225 q-83.5 -130 -123.5 -175 l208 36 l-2 -75 l-281 -42 l-50 -7 l-18 77 q22 6 32 11 q10 5 22 16 q35 32 143 195 q-114 -15 -160 -22 l-54 -7 ZM488 501 q19 7 27.5 12.5 q8.5 5.5 16.5 14.5 q28 31 88.5 134.5 q60.5 103.5 93.5 177.5 l69 -36 q-31 -66 -85.5 -160.5 q-54.5 -94.5 -87.5 -138.5 l156 24 q60 93 88 147 l65 -37 q-48 -89 -135 -216 q-87 -127 -133 -176 l264 40 l-2 -74 q-85 -12 -170.5 -23.5 q-85.5 -11.5 -171.5 -22.5 l-50 -7 l-13 75 q22 4 32 9 q10 5 23 15 q24 20 66.5 74 q42.5 54 89.5 125 q-110 -16 -165 -23 l-45 -6 l-21 72 ZM48 -36 l0 76 l903 0 l0 -76 l-903 0 Z" /><glyph glyph-name="uni4E24" unicode="&#x4e24;" d="M937 720 l-288 0 q0 -48 -2 -134 l226 0 l0 -511 q0 -69 -24.5 -96.5 q-24.5 -27.5 -84.5 -27.5 q-50 0 -122 7 l-13 74 q70 -9 115 -9 q29 0 40 17.5 q11 17.5 11 53.5 l0 104 l-56 -50 q-58 74 -130 158 q-42 -131 -150 -259 l-65 39 q88 102 128.5 199 q40.5 97 46.5 227 l-165 0 q-1 -44 -10 -100 q62 -69 112 -128 l-57 -52 q-14 16 -29 35 q-42 50 -47 56 q-20 -60 -53.5 -117.5 q-33.5 -57.5 -84.5 -118.5 l-54 39 l0 -174 l-76 0 l0 634 l225 0 l2 134 l-273 0 l0 74 l878 0 l0 -74 ZM570 586 l2 134 l-163 0 q-2 -74 -2 -134 l163 0 ZM181 145 q74 91 105 169 q31 78 40 198 l-145 0 l0 -367 ZM795 512 l-150 0 q-3 -69 -14 -121 q104 -117 164 -189 l0 310 Z" /><glyph glyph-name="uni4E25" unicode="&#x4e25;" d="M950 786 l0 -72 l-287 0 l0 -261 l271 0 l0 -71 l-711 0 l0 -98 q0 -114 -25 -194 q-25 -80 -95 -174 l-71 38 q46 59 70.5 109 q24.5 50 34 105.5 q9.5 55.5 9.5 134.5 l0 150 l224 0 l0 261 l-298 0 l0 72 l878 0 ZM453 453 l126 0 l0 261 l-126 0 l0 -261 ZM269 469 q-23 35 -70.5 94.5 q-47.5 59.5 -69.5 80.5 l61 50 q21 -21 67.5 -78 q46.5 -57 72.5 -93 l-61 -54 ZM698 521 q34 36 75 88 q41 52 61 85 l64 -44 q-24 -38 -67.5 -93.5 q-43.5 -55.5 -72.5 -83.5 l-60 48 Z" /><glyph glyph-name="uni4E2A" unicode="&#x4e2a;" d="M30 446 q141 85 251.5 185.5 q110.5 100.5 180.5 209.5 l75 0 q78 -115 184.5 -211.5 q106.5 -96.5 248.5 -184.5 l-52 -77 q-284 186 -418 379 q-141 -197 -421 -379 l-49 78 ZM456 519 l86 0 l0 -589 l-86 0 l0 589 Z" /><glyph glyph-name="uni4E2B" unicode="&#x4e2b;" d="M162 843 q62 -50 154.5 -132.5 q92.5 -82.5 150.5 -138.5 l-60 -66 q-116 111 -298 276 l53 61 ZM532 571 q62 44 153 124.5 q91 80.5 149 141.5 l59 -65 q-63 -66 -148.5 -141 q-85.5 -75 -158.5 -129 l-54 69 ZM456 500 l86 0 l0 -569 l-86 0 l0 569 Z" /><glyph glyph-name="uni4E2D" unicode="&#x4e2d;" d="M540 668 l348 0 l0 -434 l-348 0 l0 -308 l-83 0 l0 308 l-346 0 l0 434 l346 0 l0 173 l83 0 l0 -173 ZM193 589 l0 -275 l264 0 l0 275 l-264 0 ZM540 314 l266 0 l0 275 l-266 0 l0 -275 Z" /><glyph glyph-name="uni4E3A" unicode="&#x4e3a;" d="M887 605 q1 -143 -8 -289.5 q-9 -146.5 -25 -233.5 q-10 -51 -26 -79 q-16 -28 -45 -40.5 q-29 -12.5 -79 -13.5 q-92 -1 -178 10 l-18 82 q57 -7 93.5 -10.5 q36.5 -3.5 82.5 -3.5 q31 1 48 7.5 q17 6.5 27 26 q10 19.5 19 60.5 q11 48 18 165.5 q7 117.5 7 206.5 l0 35 l-321 0 q-19 -136 -60 -239 q-41 -103 -116 -191 q-75 -88 -196 -173 l-55 67 q109 72 177.5 150.5 q68.5 78.5 107.5 171 q39 92.5 59 214.5 l-318 0 l0 77 l329 0 l0 4 q6 54 9.5 123.5 q3.5 69.5 2.5 104.5 l83 0 q-3 -136 -13 -230 l0 -2 l395 0 ZM288 630 q-23 28 -67 75.5 q-44 47.5 -66 67.5 l59 50 q25 -21 67 -65.5 q42 -44.5 67 -74.5 l-60 -53 ZM649 194 q-19 33 -67.5 97.5 q-48.5 64.5 -74.5 91.5 l64 47 q26 -27 73.5 -89.5 q47.5 -62.5 69.5 -96.5 l-65 -50 Z" /><glyph glyph-name="uni4E3B" unicode="&#x4e3b;" d="M542 41 l404 0 l0 -78 l-892 0 l0 78 l406 0 l0 258 l-330 0 l0 74 l330 0 l0 215 l-373 0 l0 77 l415 0 q-46 87 -92 156 l71 41 q40 -62 68 -110 l29 -47 l-69 -40 l404 0 l0 -77 l-371 0 l0 -215 l328 0 l0 -74 l-328 0 l0 -258 Z" /><glyph glyph-name="uni4E3D" unicode="&#x4e3d;" d="M52 788 l898 0 l0 -75 l-898 0 l0 75 ZM448 38 q0 -42 -10 -63 q-10 -21 -33.5 -28.5 q-23.5 -7.5 -70.5 -7.5 q-25 0 -63 4 l-15 75 q42 -7 73 -7 q29 0 37.5 12 q8.5 12 8.5 45 l0 466 l-188 0 l0 -594 l-72 0 l0 673 l333 0 l0 -575 ZM887 38 q0 -40 -9.5 -61 q-9.5 -21 -32.5 -30 q-23 -9 -68 -9 q-33 0 -73 5 l-15 75 q42 -7 79 -7 q29 0 37.5 12 q8.5 12 8.5 45 l0 466 l-200 0 l0 -594 l-72 0 l0 673 l345 0 l0 -575 ZM697 431 q22 -41 49.5 -103 q27.5 -62 45.5 -110 l-63 -31 q-16 45 -43 108.5 q-27 63.5 -48 105.5 l59 30 ZM268 430 q18 -37 42.5 -101 q24.5 -64 40.5 -113 l-61 -26 q-17 51 -40.5 115 q-23.5 64 -40.5 102 l59 23 Z" /><glyph glyph-name="uni4E3E" unicode="&#x4e3e;" d="M504 646 q-45 97 -90 178 l71 27 q45 -77 90 -169 l-71 -36 ZM760 294 l-222 0 l0 -123 l374 0 l0 -74 l-374 0 l0 -174 l-79 0 l0 174 l-373 0 l0 74 l373 0 l0 123 l-221 0 l0 63 q-69 -56 -164 -109 l-40 68 q100 51 170.5 108.5 q70.5 57.5 117.5 130.5 l-260 0 l0 77 l586 0 q61 97 122 209 l76 -29 q-48 -84 -110 -180 l202 0 l0 -77 l-258 0 q49 -73 116.5 -127.5 q67.5 -54.5 169.5 -105.5 l-38 -70 q-97 53 -168 111 l0 -69 ZM267 642 q-52 85 -111 165 l68 34 q61 -78 112 -157 l-69 -42 ZM459 369 l0 134 l79 0 l0 -134 l215 0 q-96 80 -161 186 l-182 0 q-58 -101 -158 -186 l207 0 Z" /><glyph glyph-name="uni4E48" unicode="&#x4e48;" d="M520 788 q-75 -125 -187 -256 q-112 -131 -219 -221 l-61 63 q108 86 215.5 212.5 q107.5 126.5 175.5 246.5 l76 -45 ZM863 -63 q-13 24 -46 77 l-13 22 q-114 -13 -319 -31 q-173 -17 -193 -19 q-92 -9 -139 -17 l-23 90 q32 8 51 17 q19 9 38 26 q101 93 241.5 265.5 q140.5 172.5 225.5 314.5 l76 -45 q-92 -146 -228 -314 q-136 -168 -237 -260 q76 7 152 14 q76 7 152 15 q48 5 160 16 q-88 143 -134 214 l68 47 q62 -96 243 -382 l-75 -50 Z" /><glyph glyph-name="uni4E49" unicode="&#x4e49;" d="M524 563 q-90 159 -139 238 l72 42 q69 -109 142 -235 l-75 -45 ZM916 -77 q-130 57 -229 114.5 q-99 57.5 -176 122.5 q-77 -65 -178.5 -121.5 q-101.5 -56.5 -241.5 -115.5 l-49 85 q133 53 229.5 104 q96.5 51 170.5 111 q-92 94 -160.5 215.5 q-68.5 121.5 -127.5 290.5 l79 32 q56 -163 121.5 -278 q65.5 -115 152.5 -201 q86 89 146 210.5 q60 121.5 105 299.5 l84 -31 q-51 -190 -113.5 -318 q-62.5 -128 -152.5 -222 q74 -59 167 -108.5 q93 -49.5 215 -96.5 l-42 -93 Z" /><glyph glyph-name="uni4E4B" unicode="&#x4e4b;" d="M545 55 q121 -7 201 -7 q81 0 200 7 l-17 -79 q-90 -7 -189 -7 q-98 0 -189 7 q-126 9 -188.5 27.5 q-62.5 18.5 -106.5 65.5 q-15 17 -26 28 q-11 11 -19 16 q-15 -9 -41 -41 q-57 -72 -74 -98 l-60 70 q50 69 101 126 q21 23 35.5 31 q14.5 8 32.5 8 q19 0 36 -12 q141 77 281.5 184 q140.5 107 229.5 198 l-621 0 l0 81 l356 0 q-19 47 -42 98.5 q-23 51.5 -33 70.5 l79 22 q12 -21 38.5 -84 q26.5 -63 42.5 -107 l298 0 l0 -81 q-95 -107 -254 -232.5 q-159 -125.5 -312 -211.5 q41 -41 91.5 -57.5 q50.5 -16.5 149.5 -22.5 Z" /><glyph glyph-name="uni4E4C" unicode="&#x4e4c;" d="M266 377 l635 0 q-5 -135 -19 -279 q-6 -59 -26 -92 q-20 -33 -59.5 -46.5 q-39.5 -13.5 -109.5 -13.5 q-56 0 -133 7 l-15 77 q80 -10 143 -10 q44 0 67.5 10 q23.5 10 34 30 q10.5 20 15.5 56 q10 71 16 185 l-630 0 l0 443 l186 0 q25 57 44 111 l85 -19 l-34 -92 l334 0 q-4 -113 -11 -179 q-7 -65 -38 -94 q-31 -29 -104 -29 q-88 0 -159 8 l-14 70 q87 -12 154 -12 q43 0 59 17.5 q16 17.5 22 55.5 q6 39 6 89 l-449 0 l0 -293 ZM63 188 l667 0 l0 -78 l-667 0 l0 78 Z" /><glyph glyph-name="uni4E4E" unicode="&#x4e4e;" d="M955 373 l0 -77 l-408 0 l0 -226 q0 -48 -12 -76.5 q-12 -28.5 -42.5 -43 q-30.5 -14.5 -87.5 -14.5 q-54 0 -129 7 l-17 77 q88 -11 143 -11 q42 0 54.5 18 q12.5 18 12.5 61 l0 208 l-424 0 l0 77 l424 0 l0 319 q-209 -17 -365 -22 l-10 79 q177 5 405 22 q228 17 371 37 l13 -76 q-177 -21 -336 -34 l0 -325 l408 0 ZM633 457 q33 38 81.5 98 q48.5 60 80.5 103 l61 -48 q-108 -138 -161 -202 l-62 49 ZM220 643 q66 -79 146 -184 l-63 -52 q-56 82 -144 189 l61 47 Z" /><glyph glyph-name="uni4E58" unicode="&#x4e58;" d="M537 333 q70 -101 169.5 -169.5 q99.5 -68.5 249.5 -123.5 l-32 -78 q-130 55 -224.5 120.5 q-94.5 65.5 -162.5 149.5 l0 -304 l-76 0 l0 304 q-68 -82 -156 -145 q-88 -63 -220 -125 l-39 75 q166 73 256 135.5 q90 62.5 159 158.5 l0 235 l-398 0 l0 70 l398 0 l0 84 q-234 -8 -314 -9 l-4 66 q148 2 354 12 q206 10 348 22 l9 -69 q-116 -9 -317 -18 l0 -88 l404 0 l0 -70 l-404 0 l0 -233 ZM61 292 q21 4 216 58 l0 59 l-192 0 l0 62 l192 0 l0 65 l70 0 l0 -300 l-70 0 l0 49 q-56 -15 -114.5 -32 q-58.5 -17 -87.5 -26 l-14 65 ZM651 536 l69 0 l0 -95 q101 38 168 78 l28 -59 q-68 -35 -196 -84 l0 -45 q0 -22 10 -30.5 q10 -8.5 34 -10.5 q23 -1 45 0 q33 2 44 11 q11 9 14 37 q2 21 2 64 l62 -13 l-4 -72 q-2 -50 -26.5 -68 q-24.5 -18 -85.5 -20 l-35 -1 l-35 1 q-50 2 -72 23 q-22 21 -22 70 l0 214 Z" /><glyph glyph-name="uni4E5D" unicode="&#x4e5d;" d="M950 227 q-5 -139 -7 -167 q-2 -54 -27.5 -77.5 q-25.5 -23.5 -83.5 -28.5 q-19 -2 -57 -2 q-38 0 -57 2 q-50 4 -74 31.5 q-24 27.5 -24 91.5 l0 473 l-224 0 q-5 -168 -30.5 -269.5 q-25.5 -101.5 -85 -180.5 q-59.5 -79 -179.5 -177 l-62 66 q113 89 167.5 157 q54.5 68 78 158.5 q23.5 90.5 27.5 245.5 l-237 0 l0 85 l238 0 q5 183 6 204 l84 0 l-4 -204 l305 0 l0 -542 q0 -31 7.5 -44.5 q7.5 -13.5 29.5 -16.5 q26 -2 37 -2 q13 0 37 2 q29 3 39.5 16 q10.5 13 12.5 45 q2 31 3.5 64.5 q1.5 33.5 2.5 56.5 l1 29 l76 -16 Z" /><glyph glyph-name="uni4E5F" unicode="&#x4e5f;" d="M943 195 q-8 -105 -10 -125 q-3 -46 -16.5 -71 q-13.5 -25 -42 -37 q-28.5 -12 -79.5 -15 q-106 -7 -228 -7 q-123 0 -229 7 q-82 5 -117 42.5 q-35 37.5 -35 124.5 l0 323 l-127 -32 l-15 80 l142 35 l0 205 l80 0 l0 -186 l199 49 l0 250 l81 0 l0 -230 l315 77 q1 -63 -6.5 -172.5 q-7.5 -109.5 -15.5 -174.5 q-8 -64 -34.5 -90 q-26.5 -26 -88.5 -27 q-56 -2 -101 5 l-16 78 q48 -8 90 -8 q25 0 38 6.5 q13 6.5 20 23 q7 16.5 12 49.5 q14 98 15 209 l-228 -57 l0 -404 l-81 0 l0 384 l-199 -50 l0 -316 q0 -45 8.5 -69 q8.5 -24 30.5 -35 q22 -11 64 -14 q114 -7 195 -7 q80 0 194 7 q43 3 62.5 11 q19.5 8 26.5 26 q7 18 8 56 q5 58 5 99 l83 -20 Z" /><glyph glyph-name="uni4E60" unicode="&#x4e60;" d="M873 773 q0 -138 -7.5 -343.5 q-7.5 -205.5 -19.5 -311.5 q-7 -64 -25 -98.5 q-18 -34.5 -53 -50 q-35 -15.5 -99 -17.5 q-14 -1 -44 -1 q-69 0 -131 7 l-17 82 q75 -10 133 -10 q61 0 89 8 q28 8 40.5 32.5 q12.5 24.5 18.5 80.5 q12 108 19 264.5 q7 156.5 6 272.5 l-681 0 l0 85 l771 0 ZM236 639 q49 -29 123.5 -81.5 q74.5 -52.5 134.5 -98.5 l-53 -74 q-58 48 -132.5 102 q-74.5 54 -126.5 85 l54 67 ZM72 154 q156 55 328 126.5 q172 71.5 281 128.5 l21 -84 q-108 -54 -278.5 -126.5 q-170.5 -72.5 -319.5 -127.5 l-32 83 Z" /><glyph glyph-name="uni4E61" unicode="&#x4e61;" d="M851 515 q-11 -59 -17 -82 q-34 -152 -110 -247.5 q-76 -95.5 -223.5 -157 q-147.5 -61.5 -402.5 -104.5 l-34 80 q181 29 300.5 65 q119.5 36 195 85 q75.5 49 120.5 118 q-222 -19 -400 -40 l-45 -6 q-48 -6 -58 -8 l-24 87 q29 6 43 10.5 q14 4.5 33 16.5 q107 65 247 178 q-141 -15 -224 -26 q-58 -7 -95 -14 l-23 89 q42 9 62 25 q57 44 137 123 q80 79 135 147 l64 -48 q-55 -67 -119.5 -134.5 q-64.5 -67.5 -119.5 -114.5 l252 31 q11 2 29 4 q107 93 182 169 l62 -54 q-105 -108 -231.5 -215.5 q-126.5 -107.5 -237.5 -181.5 q68 8 185 19 l185 18 q20 47 34 108 q10 41 13 75 l85 -15 Z" /><glyph glyph-name="uni4E71" unicode="&#x4e71;" d="M940 230 q-3 -49 -7 -158 q-1 -46 -12.5 -70.5 q-11.5 -24.5 -34 -35 q-22.5 -10.5 -63.5 -13.5 q-19 -2 -57 -2 q-39 0 -58 2 q-43 3 -67 15 q-24 12 -35.5 39 q-11.5 27 -11.5 77 l0 744 l79 0 l0 -727 q0 -28 6 -42.5 q6 -14.5 17 -20 q11 -5.5 31 -7.5 q26 -2 39 -2 q13 0 39 2 q21 2 31.5 7 q10.5 5 15 19 q4.5 14 5.5 43 q1 28 2 72.5 q1 44.5 1 74.5 l80 -17 ZM330 548 l197 0 l0 -76 l-197 0 l0 -145 l150 0 l0 -368 l-380 0 l0 368 l151 0 l0 145 l-209 0 l0 76 l209 0 l0 142 q-100 -11 -183 -17 l-7 76 q110 8 226 22 q116 14 198 31 l14 -76 q-68 -14 -169 -27 l0 -151 ZM177 35 l224 0 l0 213 l-224 0 l0 -213 Z" /><glyph glyph-name="uni4E85" unicode="&#x4e85;" d="M246 34 q67 -14 136 -18 q6 -1 17 -1 q27 0 39.5 9.5 q12.5 9.5 16 27.5 q3.5 18 3.5 53 l0 720 l74 0 l0 -736 q0 -58 -9.5 -89 q-9.5 -31 -37 -45 q-27.5 -14 -83.5 -12 q-47 3 -74.5 5.5 q-27.5 2.5 -65.5 9.5 l-16 76 Z" /><glyph glyph-name="uni4E86" unicode="&#x4e86;" d="M891 772 l0 -84 l-342 -233 l0 -382 q0 -53 -14 -81 q-14 -28 -48 -39.5 q-34 -11.5 -98 -11.5 q-50 0 -113 10 l-17 82 q75 -14 130 -14 q31 0 46 6.5 q15 6.5 21 24 q6 17.5 6 54.5 l0 395 l287 189 l-660 0 l0 84 l802 0 Z" /><glyph glyph-name="uni4E89" unicode="&#x4e89;" d="M948 411 l0 -69 l-114 0 l0 -181 l-310 0 l0 -96 q0 -63 -28 -92 q-28 -29 -89 -29 q-60 0 -120 6 l-16 74 q62 -8 117 -8 q32 0 45 16.5 q13 16.5 13 55.5 l0 73 l-313 0 l0 69 l313 0 l0 112 l-402 0 l0 69 l402 0 l0 110 l-263 0 l0 59 q-32 -27 -77 -60 l-52 62 q84 58 158 131 q74 73 125 148 l79 -28 q-21 -33 -42 -59 l359 0 l0 -72 l-109 -111 l210 0 l0 -180 l114 0 ZM312 701 q-46 -51 -116 -110 l321 0 l109 110 l-314 0 ZM759 521 l-235 0 l0 -110 l235 0 l0 110 ZM524 230 l235 0 l0 112 l-235 0 l0 -112 Z" /><glyph glyph-name="uni4E8B" unicode="&#x4e8b;" d="M949 285 l0 -62 l-89 0 l0 -126 l-324 0 l0 -41 q0 -65 -25 -92.5 q-25 -27.5 -83 -27.5 q-77 0 -132 5 l-15 72 q75 -7 128 -7 q29 0 40.5 15 q11.5 15 11.5 52 l0 24 l-364 0 l0 63 l364 0 l0 63 l-420 0 l0 62 l420 0 l0 63 l-356 0 l0 62 l356 0 l0 59 l-310 0 l0 178 l310 0 l0 60 l-403 0 l0 65 l403 0 l0 73 l75 0 l0 -73 l396 0 l0 -65 l-396 0 l0 -60 l304 0 l0 -178 l-304 0 l0 -59 l324 0 l0 -125 l89 0 ZM226 589 l0 -62 l235 0 l0 62 l-235 0 ZM764 527 l0 62 l-228 0 l0 -62 l228 0 ZM788 348 l-252 0 l0 -63 l252 0 l0 63 ZM536 160 l252 0 l0 63 l-252 0 l0 -63 Z" /><glyph glyph-name="uni4E8C" unicode="&#x4e8c;" d="M136 722 l728 0 l0 -87 l-728 0 l0 87 ZM52 104 l895 0 l0 -84 l-895 0 l0 84 Z" /><glyph glyph-name="uni4E8E" unicode="&#x4e8e;" d="M946 462 l0 -80 l-388 0 l0 -304 q0 -75 -34.5 -104.5 q-34.5 -29.5 -120.5 -29.5 q-51 0 -121 7 l-17 80 q80 -10 121 -10 q37 0 54.5 6.5 q17.5 6.5 23.5 23.5 q6 17 6 52 l0 279 l-419 0 l0 80 l419 0 l0 235 l-347 0 l0 79 l752 0 l0 -79 l-317 0 l0 -235 l388 0 Z" /><glyph glyph-name="uni4E91" unicode="&#x4e91;" d="M141 781 l718 0 l0 -80 l-718 0 l0 80 ZM492 428 q-50 -93 -121.5 -199 q-71.5 -106 -132.5 -171 l49 4 q35 3 180.5 17 q145.5 14 269.5 30 q-66 105 -125 190 l69 42 q48 -66 120 -175 q72 -109 119 -187 l-73 -50 l-63 104 l-530 -47 l-138 -12 l-25 84 q31 11 46 20 q15 9 30 26 q59 68 123 157 q64 89 107 167 l-336 0 l0 81 l877 0 l0 -81 l-446 0 Z" /><glyph glyph-name="uni4E94" unicode="&#x4e94;" d="M796 473 l-15 -422 l168 0 l0 -77 l-898 0 l0 77 l208 0 l59 342 l-204 0 l0 80 l218 0 l40 231 l-278 0 l0 77 l819 0 l0 -77 l-455 0 l-41 -231 l379 0 ZM710 393 l-307 0 l-60 -342 l354 0 l13 342 Z" /><glyph glyph-name="uni4E9B" unicode="&#x4e9b;" d="M942 507 q0 -14 -4 -56 l-3 -32 q-4 -52 -28.5 -74 q-24.5 -22 -78.5 -27 q-39 -4 -87 -4 q-48 0 -87 4 q-45 5 -68 29 q-23 24 -23 79 l0 413 l82 0 l0 -215 q64 30 132.5 68 q68.5 38 107.5 66 l34 -78 q-45 -29 -127 -69.5 q-82 -40.5 -147 -66.5 l0 -90 q0 -34 11 -46 q11 -12 38 -15 q27 -3 55 -3 q27 0 54 3 q32 3 44 14.5 q12 11.5 15 46.5 l3 48 l1 24 l76 -19 ZM52 364 q30 5 78 15 l0 373 l80 0 l0 -357 l101 21 l0 418 l79 0 l0 -170 l131 0 l0 -73 l-131 0 l0 -158 l128 29 l11 -81 l-461 -96 l-16 79 ZM825 235 l0 -77 l-648 0 l0 77 l648 0 ZM934 -25 l-866 0 l0 76 l866 0 l0 -76 Z" /><glyph glyph-name="uni4EA4" unicode="&#x4ea4;" d="M932 727 l0 -80 l-865 0 l0 80 l399 0 q-28 67 -44 98 l82 27 q32 -70 52 -125 l376 0 ZM871 335 q-50 44 -143 115 q-93 71 -153 111 l49 59 q57 -36 149 -104 q92 -68 148 -115 l-50 -66 ZM76 391 q75 47 146.5 106 q71.5 59 128.5 121 l61 -52 q-59 -63 -134 -127 q-75 -64 -154 -118 l-48 70 ZM928 -65 q-149 40 -251 83 q-102 43 -177 100 q-75 -57 -177 -103 q-102 -46 -247 -89 l-37 77 q136 37 232.5 77.5 q96.5 40.5 166.5 90.5 q-82 78 -160 212 l67 41 q73 -126 155 -202 q84 79 145 203 l72 -37 q-70 -134 -155 -216 q71 -50 167 -87 q96 -37 232 -68 l-33 -82 Z" /><glyph glyph-name="uni4EA6" unicode="&#x4ea6;" d="M934 619 l-272 0 l0 -558 q0 -48 -12 -75.5 q-12 -27.5 -43.5 -40 q-31.5 -12.5 -90.5 -12.5 q-45 0 -92 6 l-17 81 q54 -9 108 -9 q28 0 42 7 q14 7 18.5 21.5 q4.5 14.5 4.5 43.5 l0 536 l-147 0 q0 -96 -5 -196 q-7 -139 -29.5 -224 q-22.5 -85 -71 -148.5 q-48.5 -63.5 -141.5 -139.5 l-64 61 q90 67 135 124.5 q45 57.5 64 132 q19 74.5 25 202.5 q5 96 5 188 l-289 0 l0 77 l410 0 q-40 92 -55 120 l84 34 q22 -43 59 -127 l12 -27 l362 0 l0 -77 ZM777 522 q32 -64 84.5 -179.5 q52.5 -115.5 84.5 -193.5 l-78 -34 q-27 67 -76 179.5 q-49 112.5 -87 196.5 l72 31 ZM269 495 q-29 -94 -70 -190.5 q-41 -96.5 -91 -179.5 l-69 39 q99 160 154 354 l76 -23 Z" /><glyph glyph-name="uni4EAB" unicode="&#x4eab;" d="M932 746 l0 -68 l-866 0 l0 68 l408 0 q-19 37 -45 79 l84 23 q30 -50 52 -102 l367 0 ZM820 616 l0 -188 l-641 0 l0 188 l641 0 ZM744 557 l-489 0 l0 -69 l489 0 l0 69 ZM951 194 l0 -68 l-402 0 l0 -81 q0 -60 -22 -86 q-22 -26 -74 -27 q-54 -1 -145 8 l-15 75 q72 -10 126 -10 q28 0 39.5 16.5 q11.5 16.5 11.5 49.5 l0 55 l-422 0 l0 68 l422 0 l0 29 l214 76 l-557 0 l0 67 l718 0 l0 -67 l-285 -105 l391 0 Z" /><glyph glyph-name="uni4EAD" unicode="&#x4ead;" d="M934 749 l0 -68 l-868 0 l0 68 l397 0 q-22 54 -33 79 l81 26 q16 -35 42 -105 l381 0 ZM190 444 l0 176 l621 0 l0 -176 l-621 0 ZM266 501 l470 0 l0 60 l-470 0 l0 -60 ZM168 209 l-74 0 l0 174 l814 0 l0 -176 l-75 0 l0 106 l-665 0 l0 -104 ZM200 170 l0 70 l602 0 l0 -70 l-241 0 l0 -119 q0 -63 -27 -89 q-27 -26 -96 -26 q-68 0 -117 5 l-16 78 q65 -7 112 -7 q38 0 51 14 q13 14 13 49 l0 95 l-281 0 Z" /><glyph glyph-name="uni4EAE" unicode="&#x4eae;" d="M936 750 l0 -67 l-870 0 l0 67 l401 0 q-23 53 -37 77 l81 20 q16 -29 46 -97 l379 0 ZM195 430 l0 190 l614 0 l0 -190 l-614 0 ZM276 490 l452 0 l0 69 l-452 0 l0 -69 ZM173 203 l-80 0 l0 167 l818 0 l0 -168 l-81 0 l0 103 l-657 0 l0 -102 ZM853 151 l76 -16 q-1 -45 -6 -100 q-5 -54 -27 -74 q-22 -20 -71 -24 q-36 -3 -63 -3 q-34 0 -66 4 q-33 3 -51.5 11.5 q-18.5 8.5 -27.5 28 q-9 19.5 -9 56.5 l0 136 l-240 0 l0 -38 q0 -49 -25.5 -86.5 q-25.5 -37.5 -87 -69 q-61.5 -31.5 -169.5 -57.5 l-36 72 q103 23 153.5 47.5 q50.5 24.5 68 56 q17.5 31.5 17.5 84.5 l0 56 l400 0 l0 -176 q0 -27 8 -35.5 q8 -8.5 31 -10.5 q14 -1 36 -1 q23 0 37 1 q27 2 36.5 12 q9.5 10 11.5 42 l4 84 Z" /><glyph glyph-name="uni4EB2" unicode="&#x4eb2;" d="M943 499 l0 -76 l-390 0 l0 -111 l360 0 l0 -74 l-360 0 l0 -183 q0 -44 -10 -68.5 q-10 -24.5 -34.5 -35.5 q-24.5 -11 -70.5 -11 q-62 0 -106 5 l-17 81 q54 -8 103 -8 q32 0 42.5 14 q10.5 14 10.5 55 l0 151 l-384 0 l0 74 l384 0 l0 111 l-417 0 l0 76 l252 0 l-45 161 l-155 0 l0 76 l368 0 q-22 55 -45 101 l83 14 q19 -36 49 -115 l332 0 l0 -76 l-156 0 l-34 -161 l240 0 ZM342 660 l46 -161 l235 0 l36 161 l-317 0 ZM350 159 q-45 -47 -115 -104 q-70 -57 -137 -102 l-45 70 q61 37 127 90 q66 53 115 102 l55 -56 ZM680 208 q50 -30 130.5 -85.5 q80.5 -55.5 127.5 -91.5 l-48 -68 q-50 40 -124.5 92.5 q-74.5 52.5 -131.5 88.5 l46 64 Z" /><glyph glyph-name="uni4EBA" unicode="&#x4eba;" d="M534 628 q29 -195 132 -349 q103 -154 282 -281 l-56 -73 q-153 121 -249 247 q-96 126 -141 270 q-42 -145 -137.5 -269 q-95.5 -124 -252.5 -239 l-58 69 q146 103 232 208.5 q86 105.5 125 230 q39 124.5 41 288.5 q2 32 2 97 l84 0 l-2 -128 q0 -25 -2 -71 Z" /><glyph glyph-name="uni4EC0" unicode="&#x4ec0;" d="M358 821 q-38 -107 -84 -203 l0 -688 l-81 0 l0 538 q-54 -89 -114 -164 l-50 81 q74 86 140.5 212 q66.5 126 110.5 255 l78 -31 ZM693 500 l264 0 l0 -84 l-264 0 l0 -489 l-82 0 l0 489 l-272 0 l0 84 l272 0 l0 339 l82 0 l0 -339 Z" /><glyph glyph-name="uni4EC5" unicode="&#x4ec5;" d="M341 816 q-34 -105 -85 -215 l0 -677 l-80 0 l0 528 q-56 -91 -107 -153 l-38 89 q65 84 128.5 207.5 q63.5 123.5 101.5 243.5 l80 -23 ZM690 223 q104 -117 273 -230 l-50 -73 q-174 120 -277 238 q-108 -120 -284 -237 l-54 73 q180 113 284 229 q-73 98 -118 212.5 q-45 114.5 -70 259.5 l-33 0 l0 77 l527 0 l0 -75 q-30 -148 -77 -262.5 q-47 -114.5 -121 -211.5 ZM475 695 q25 -126 64 -223.5 q39 -97.5 98 -180.5 q62 85 102 184 q40 99 63 220 l-327 0 Z" /><glyph glyph-name="uni4ECA" unicode="&#x4eca;" d="M32 489 q294 151 432 350 l76 0 q71 -105 175.5 -191 q104.5 -86 252.5 -159 l-43 -73 q-136 68 -248.5 159 q-112.5 91 -175.5 189 q-123 -183 -425 -347 l-44 72 ZM446 597 l144 -171 l-63 -55 q-24 34 -65.5 85.5 q-41.5 51.5 -74.5 89.5 l59 51 ZM813 267 q-49 -79 -127 -178 q-78 -99 -145 -168 l-79 46 q63 60 129.5 142 q66.5 82 113.5 156 l-570 0 l0 77 l678 0 l0 -75 Z" /><glyph glyph-name="uni4ECB" unicode="&#x4ecb;" d="M41 447 q145 74 249 171.5 q104 97.5 171 223.5 l76 0 q74 -134 178 -231 q104 -97 249 -167 l-47 -81 q-134 66 -238.5 163 q-104.5 97 -178.5 221 q-78 -121 -178.5 -214 q-100.5 -93 -231.5 -165 l-49 79 ZM622 468 l84 0 l0 -536 l-84 0 l0 536 ZM112 -12 q75 59 113 104.5 q38 45.5 53.5 100.5 q15.5 55 15.5 140 l0 133 l84 0 l0 -125 q0 -104 -18 -174 q-18 -70 -63 -127.5 q-45 -57.5 -129 -118.5 l-56 67 Z" /><glyph glyph-name="uni4ECD" unicode="&#x4ecd;" d="M340 804 q-45 -132 -100 -246 l0 -632 l-78 0 l0 493 q-40 -63 -87 -120 l-41 90 q64 79 125 198.5 q61 119.5 101 244.5 l80 -28 ZM780 474 l139 0 q-3 -110 -9.5 -218.5 q-6.5 -108.5 -14.5 -172.5 q-6 -52 -19.5 -80 q-13.5 -28 -42 -40.5 q-28.5 -12.5 -81.5 -12.5 q-74 0 -128 5 l-17 78 q9 -1 47 -5 q38 -4 71 -4 q36 0 53 7 q17 7 25 25.5 q8 18.5 13 60.5 q17 139 18 280 l-137 0 l0 76 l59 221 l-221 0 q-2 -207 -17 -338.5 q-15 -131.5 -57.5 -237 q-42.5 -105.5 -126.5 -197.5 l-64 54 q81 90 120.5 186 q39.5 96 52.5 215.5 q13 119.5 14 317.5 l-95 0 l0 78 l479 0 l0 -75 l-61 -223 Z" /><glyph glyph-name="uni4ECE" unicode="&#x4ece;" d="M905 -80 q-97 106 -157 217 q-60 111 -91 249 q-31 -126 -95 -237.5 q-64 -111.5 -177 -229.5 l-65 62 q117 119 178.5 222.5 q61.5 103.5 86.5 218.5 q25 115 30 285 q2 42 2 126 l85 0 q0 -27 -1.5 -63.5 q-1.5 -36.5 -3.5 -62.5 q-2 -44 -4 -65 q13 -217 79.5 -372 q66.5 -155 196.5 -287 l-64 -63 ZM427 253 q-71 114 -110 174 q-21 -138 -69 -246.5 q-48 -108.5 -142 -236.5 l-74 50 q87 120 132 213.5 q45 93.5 65 203.5 q20 110 25 279 q1 28 2.5 70.5 q1.5 42.5 1.5 71.5 l84 0 q0 -31 -2 -74.5 q-2 -43.5 -3 -70.5 q-1 -52 -7 -135 q69 -97 163 -244 l-66 -55 Z" /><glyph glyph-name="uni4ED3" unicode="&#x4ed3;" d="M500 760 q-107 -145 -271 -265 l524 0 q1 -71 -7 -195 q-4 -56 -18.5 -84 q-14.5 -28 -47.5 -39 q-33 -11 -97 -11 q-55 0 -111 6 l-15 77 q55 -8 122 -8 q36 0 53.5 6 q17.5 6 24.5 21 q7 15 10 47 q5 58 5 105 l-369 0 l0 -300 q0 -37 6 -56 q6 -19 24 -27.5 q18 -8.5 55 -11.5 q95 -7 156 -7 q63 0 156 7 q39 3 57.5 10 q18.5 7 26.5 23.5 q8 16.5 11 51.5 l2 24 q3 66 3 62 l83 -24 q-1 -33 -9 -100 q-5 -51 -19 -76 q-14 -25 -44 -35.5 q-30 -10.5 -89 -14.5 q-84 -7 -175 -7 q-92 0 -176 7 q-58 4 -88.5 17 q-30.5 13 -44.5 43.5 q-14 30.5 -14 90.5 l0 394 q-78 -56 -149 -96 l-43 82 q138 72 248.5 168.5 q110.5 96.5 177.5 202.5 l82 0 q69 -106 177 -197.5 q108 -91.5 249 -162.5 l-42 -85 q-131 70 -243.5 165 q-112.5 95 -180.5 192 Z" /><glyph glyph-name="uni4ED6" unicode="&#x4ed6;" d="M945 193 q0 -27 -1.5 -63 q-1.5 -36 -3.5 -63 q-4 -65 -33 -94.5 q-29 -29.5 -101 -34.5 q-62 -5 -151 -5 q-88 0 -152 5 q-68 5 -98 40 q-30 35 -30 111 l0 342 l-87 -27 l-5 76 l92 29 l0 226 l75 0 l0 -202 l134 42 l0 261 l75 0 l0 -237 l230 73 q1 -77 -5 -188 q-6 -111 -13 -167 q-7 -57 -28 -80.5 q-21 -23.5 -71 -23.5 q-40 0 -68 5 l-17 76 q32 -8 61 -8 q24 0 34 13 q10 13 14 53 q12 104 13 216 l-150 -47 l0 -399 l-75 0 l0 375 l-134 -42 l0 -342 q0 -41 6 -60.5 q6 -19.5 23 -28.5 q17 -9 52 -12 q62 -6 125 -6 q58 0 116 6 q42 4 60 11 q18 7 24 24 q6 17 8 56 q2 34 2 105 l79 -15 ZM327 808 q-33 -104 -80 -208 l0 -672 l-76 0 l0 528 q-46 -78 -98 -146 l-41 76 q62 78 122 198 q60 120 97 242 l76 -18 Z" /><glyph glyph-name="uni4EE3" unicode="&#x4ee3;" d="M842 106 q16 57 27 119 l69 -32 q-13 -79 -32 -140 q-18 -63 -48 -90 q-30 -27 -70 -27 q-37 0 -70 22 q-33 22 -70 74 q-84 123 -119 415 l-214 -19 l-7 77 l213 20 q-6 56 -9 117 l-10 196 l82 0 l8 -199 q2 -42 8 -107 l336 32 l7 -79 l-334 -30 q17 -137 45.5 -232 q28.5 -95 60.5 -142 q22 -30 38 -40.5 q16 -10.5 35 -10.5 q18 0 30 15 q12 15 24 61 ZM357 809 q-41 -123 -96 -233 l0 -646 l-79 0 l0 503 q-48 -78 -107 -153 l-38 85 q70 85 135 212 q65 127 107 257 l78 -25 ZM816 618 q-27 28 -74.5 71 q-47.5 43 -80.5 69 l46 54 q38 -30 86.5 -71 q48.5 -41 72.5 -64 l-50 -59 Z" /><glyph glyph-name="uni4EE4" unicode="&#x4ee4;" d="M539 841 q141 -218 428 -357 l-46 -85 q-131 67 -243 162.5 q-112 95.5 -178 194.5 q-68 -97 -176.5 -188.5 q-108.5 -91.5 -244.5 -164.5 l-48 82 q138 67 246.5 157.5 q108.5 90.5 184.5 198.5 l77 0 ZM458 615 q29 -31 69.5 -80.5 q40.5 -49.5 65.5 -83.5 l-63 -52 q-27 36 -68.5 86 q-41.5 50 -69.5 78 l66 52 ZM132 297 l0 84 l699 0 l0 -89 q-134 -134 -243 -225 l136 -69 l-42 -79 q-89 48 -233 117.5 q-144 69.5 -238 110.5 l39 76 q104 -44 256 -117 q104 87 208 191 l-582 0 Z" /><glyph glyph-name="uni4EE5" unicode="&#x4ee5;" d="M496 517 q-90 159 -160 272 l65 41 q45 -70 164 -271 l-69 -42 ZM898 -44 q-58 72 -186 215 q-46 -66 -121 -125 q-75 -59 -191 -122 l-51 74 q149 77 228.5 154 q79.5 77 114 173 q34.5 96 46.5 244 q6 71 6 243 l80 0 q2 -72 2 -110 q0 -65 -5 -140 q-8 -101 -22.5 -176 q-14.5 -75 -41.5 -135 q24 -26 49 -55 q93 -101 158 -177 l-66 -63 ZM512 295 q-208 -164 -298 -242 q-38 -32 -74 -67 l-54 67 q20 20 27.5 34 q7.5 14 7.5 31 l0 670 l82 0 l0 -640 l260 216 l49 -69 Z" /><glyph glyph-name="uni4EEC" unicode="&#x4eec;" d="M431 845 q28 -29 68.5 -76 q40.5 -47 65.5 -78 l-57 -53 q-22 31 -63 80 q-41 49 -67 77 l53 50 ZM313 821 q-31 -103 -77 -208 l0 -680 l-75 0 l0 526 q-44 -81 -89 -144 l-41 76 q57 82 115 208.5 q58 126.5 92 242.5 l75 -21 ZM600 775 l307 0 l0 -698 q0 -59 -13.5 -87.5 q-13.5 -28.5 -43.5 -38 q-30 -9.5 -91 -9.5 q-30 0 -90 4 l-14 77 q51 -6 101 -6 q31 0 47 6.5 q16 6.5 22 23.5 q6 17 6 51 l0 600 l-231 0 l0 77 ZM436 -61 l-77 0 l0 715 l77 0 l0 -715 Z" /><glyph glyph-name="uni4EF0" unicode="&#x4ef0;" d="M312 823 q-32 -116 -73 -214 l0 -676 l-77 0 l0 517 q-48 -85 -100 -153 l-31 94 q57 82 113.5 206.5 q56.5 124.5 92.5 251.5 l75 -26 ZM581 748 q-88 -48 -148 -67 l0 -505 l125 74 l5 -89 q-89 -51 -162 -89 l-45 -24 l-27 82 q15 12 20.5 20.5 q5.5 8.5 5.5 19.5 l0 576 q45 12 98.5 33.5 q53.5 21.5 97.5 44.5 l30 -76 ZM612 767 l297 0 l0 -562 q0 -66 -24.5 -91.5 q-24.5 -25.5 -84.5 -25.5 q-20 0 -60 4 l-16 82 q29 -6 57 -6 q29 0 40 15 q11 15 11 53 l0 453 l-143 0 l0 -762 l-77 0 l0 840 Z" /><glyph glyph-name="uni4EF6" unicode="&#x4ef6;" d="M960 318 l0 -76 l-265 0 l0 -318 l-79 0 l0 318 l-303 0 l0 76 l303 0 l0 234 l-165 0 q-31 -95 -61 -163 l-76 29 q37 82 69.5 179.5 q32.5 97.5 53.5 189.5 l72 -18 q-11 -52 -34 -138 l141 0 l0 213 l79 0 l0 -213 l229 0 l0 -79 l-229 0 l0 -234 l265 0 ZM322 818 q-33 -117 -75 -215 l0 -676 l-76 0 l0 521 q-46 -82 -103 -154 l-37 89 q61 85 120.5 212 q59.5 127 92.5 246 l78 -23 Z" /><glyph glyph-name="uni4EFB" unicode="&#x4efb;" d="M337 814 q-38 -116 -82 -208 l0 -674 l-81 0 l0 522 q-50 -81 -104 -148 l-39 83 q64 83 126 203 q62 120 102 245 l78 -23 ZM955 352 l-279 0 l0 -299 l251 0 l0 -80 l-590 0 l0 80 l256 0 l0 299 l-282 0 l0 83 l282 0 l0 239 q-126 -14 -236 -20 l-9 81 q134 7 283.5 25 q149.5 18 263.5 43 l17 -81 q-106 -21 -236 -38 l0 -249 l279 0 l0 -83 Z" /><glyph glyph-name="uni4EFD" unicode="&#x4efd;" d="M718 844 q38 -134 96 -231 q58 -97 149 -177 l-61 -55 q-32 29 -59 59 q-4 -156 -22 -355 q-5 -56 -23.5 -84.5 q-18.5 -28.5 -51.5 -38 q-33 -9.5 -90 -9.5 q-32 0 -92 4 l-16 77 q51 -6 103 -6 q34 0 51 7 q17 7 24.5 24.5 q7.5 17.5 12.5 55.5 q16 136 19 253 l-215 0 l-2 -22 q-8 -102 -28.5 -171 q-20.5 -69 -62 -127 q-41.5 -58 -117.5 -124 l-57 66 q66 51 103.5 98 q37.5 47 56 107.5 q18.5 60.5 25.5 152.5 q0 13 1 20 l-96 0 l0 68 l-43 -47 l-57 53 q162 160 237 375 l78 -27 q-65 -178 -205 -342 l460 0 q-67 76 -115 168 q-48 92 -82 209 l79 19 ZM322 811 q-36 -120 -77 -215 l0 -666 l-77 0 l0 515 q-42 -71 -102 -147 l-38 82 q65 88 122.5 208.5 q57.5 120.5 96.5 247.5 l75 -25 Z" /><glyph glyph-name="uni4EFF" unicode="&#x4eff;" d="M558 613 l-4 -124 q0 -10 -2 -28 l324 0 q-1 -66 -7.5 -180.5 q-6.5 -114.5 -13.5 -186.5 q-6 -56 -20 -85.5 q-14 -29.5 -43.5 -42 q-29.5 -12.5 -84.5 -12.5 q-58 0 -117 6 l-16 78 q9 -1 44.5 -5 q35.5 -4 66.5 -4 q34 0 52 8.5 q18 8.5 26 27.5 q8 19 12 56 q15 134 16 259 l-245 0 q-10 -106 -31 -182 q-21 -76 -58 -141 q-37 -65 -99 -136 l-67 60 q71 79 106.5 143 q35.5 64 51.5 147 q16 83 23 229 q2 26 4 113 l-149 0 l0 81 l273 0 q-33 80 -60 140 l80 19 q4 -8 43 -99 l25 -60 l265 0 l0 -81 l-395 0 ZM333 815 q-41 -121 -86 -217 l0 -665 l-79 0 l0 517 q-47 -78 -101 -146 l-40 82 q66 91 123.5 207 q57.5 116 98.5 244 l84 -22 Z" /><glyph glyph-name="uni4F18" unicode="&#x4f18;" d="M335 816 q-33 -107 -85 -220 l0 -667 l-78 0 l0 518 q-52 -85 -101 -145 l-38 85 q63 77 123.5 200.5 q60.5 123.5 99.5 251.5 l79 -23 ZM938 528 l-352 0 q-7 -132 -31 -230 q-24 -98 -73 -185.5 q-49 -87.5 -132 -182.5 l-67 55 q79 86 124 163.5 q45 77.5 66.5 165.5 q21.5 88 29.5 214 l-193 0 l0 78 l198 0 l0 10 q2 54 3 121.5 q1 67.5 1 101.5 l81 0 l-4 -225 l0 -8 l349 0 l0 -78 ZM823 631 q-28 30 -74.5 74.5 q-46.5 44.5 -74.5 67.5 l50 53 q28 -23 74.5 -66 q46.5 -43 75.5 -73 l-51 -56 ZM941 198 q0 -27 -1.5 -67 q-1.5 -40 -2.5 -65 q-2 -47 -11.5 -68.5 q-9.5 -21.5 -31.5 -30 q-22 -8.5 -71 -12.5 q-16 -2 -50 -2 q-33 0 -50 2 q-36 3 -55.5 13 q-19.5 10 -28 34 q-8.5 24 -8.5 69 l0 417 l78 0 l0 -395 q0 -25 4 -37 q4 -12 13.5 -17 q9.5 -5 29.5 -7 q9 -1 26 -1 q17 0 25 1 q23 3 33.5 7.5 q10.5 4.5 15 16 q4.5 11.5 5.5 35.5 q1 23 2.5 61.5 q1.5 38.5 1.5 61.5 l76 -16 Z" /><glyph glyph-name="uni4F1A" unicode="&#x4f1a;" d="M541 844 q69 -95 175.5 -181 q106.5 -86 243.5 -152 l-36 -76 q-128 64 -241 152 q-113 88 -180 176 q-68 -90 -178.5 -176.5 q-110.5 -86.5 -245.5 -154.5 l-37 75 q139 67 246 153 q107 86 176 184 l77 0 ZM255 461 l0 74 l491 0 l0 -74 l-491 0 ZM87 259 l0 73 l828 0 l0 -73 l-443 0 q-41 -58 -90.5 -119.5 q-49.5 -61.5 -89.5 -104.5 q199 14 417 35 q-60 75 -96 117 l62 42 q113 -127 205 -246 l-62 -53 q-8 10 -19 25.5 q-11 15.5 -27 35.5 q-4 6 -14 18 q-188 -20 -470 -44 q-91 -8 -130 -11 l-18 73 q23 8 36 15 q13 7 29 21 q87 83 169 196 l-287 0 Z" /><glyph glyph-name="uni4F1F" unicode="&#x4f1f;" d="M344 821 q-37 -111 -89 -223 l0 -667 l-78 0 l0 521 q-50 -85 -113 -162 l-34 87 q66 86 129 210.5 q63 124.5 105 253.5 l80 -20 ZM924 635 l-296 0 l0 -117 l262 0 l0 -75 l-262 0 l0 -114 l294 0 q-1 -89 -13 -197 q-5 -45 -20.5 -68.5 q-15.5 -23.5 -43 -32 q-27.5 -8.5 -74.5 -8.5 q-24 0 -76 4 l-15 77 q38 -6 74 -6 q38 0 53 10.5 q15 10.5 20 40.5 q8 44 10 102 l-209 0 l0 -324 l-79 0 l0 324 l-243 0 l0 78 l243 0 l0 114 l-188 0 l0 75 l188 0 l0 117 l-212 0 l0 77 l212 0 l0 129 l79 0 l0 -129 l296 0 l0 -77 Z" /><glyph glyph-name="uni4F20" unicode="&#x4f20;" d="M953 437 l-392 0 q-18 -62 -33 -103 l349 0 l0 -73 q-17 -27 -61 -89.5 q-44 -62.5 -82 -114.5 l146 -69 l-34 -76 q-283 147 -438 213 l29 67 q56 -23 196 -87 l30 -14 q28 36 63.5 86.5 q35.5 50.5 55.5 82.5 l-341 0 l0 67 q17 46 36 110 l-161 0 l0 75 l182 0 q10 37 28 115 l-156 0 l0 74 l173 0 q21 109 26 146 l81 -10 q-14 -85 -25 -136 l291 0 l0 -74 l-307 0 q-18 -78 -28 -115 l372 0 l0 -75 ZM335 820 q-39 -118 -83 -212 l0 -682 l-77 0 l0 537 q-47 -79 -107 -153 l-38 82 q64 85 124.5 203.5 q60.5 118.5 103.5 245.5 l77 -21 Z" /><glyph glyph-name="uni4F24" unicode="&#x4f24;" d="M949 713 l0 -79 l-458 0 q-47 -76 -118 -159 l-61 60 q59 62 109.5 142 q50.5 80 86.5 168 l79 -22 q-22 -55 -50 -110 l412 0 ZM343 817 q-42 -117 -90 -217 l0 -672 l-78 0 l0 526 q-48 -81 -99 -147 l-43 82 q65 83 128.5 207.5 q63.5 124.5 100.5 244.5 l81 -24 ZM619 582 l-6 -139 l295 0 q-3 -211 -22 -364 q-6 -52 -20 -79 q-14 -27 -43.5 -39 q-29.5 -12 -85.5 -12 q-77 0 -132 5 l-16 76 q77 -9 130 -9 q35 0 50.5 5.5 q15.5 5.5 23.5 24.5 q8 19 14 62 q15 120 17 252 l-217 0 q-10 -109 -31.5 -178 q-21.5 -69 -70.5 -131 q-49 -62 -144 -137 l-62 59 q88 65 133.5 117.5 q45.5 52.5 66 113 q20.5 60.5 28.5 156.5 l-181 0 l0 78 l187 0 l5 139 l81 0 Z" /><glyph glyph-name="uni4F26" unicode="&#x4f26;" d="M332 813 q-35 -113 -81 -211 l0 -677 l-80 0 l0 526 q-42 -70 -102 -147 l-41 84 q63 81 124 205 q61 124 99 249 l81 -29 ZM666 831 q45 -93 125.5 -175 q80.5 -82 179.5 -143 l-49 -70 q-97 60 -172 135.5 q-75 75.5 -122 162.5 q-99 -162 -302 -300 l-48 69 q95 62 178 146.5 q83 84.5 132 174.5 l78 0 ZM802 173 l2 48 l85 -20 l-11 -136 q-4 -61 -36.5 -87 q-32.5 -26 -105.5 -32 q-40 -4 -89 -4 q-50 0 -90 4 q-53 4 -83.5 18 q-30.5 14 -45 46 q-14.5 32 -14.5 91 l0 384 l82 0 l0 -174 q74 33 159 78.5 q85 45.5 138 80.5 l41 -78 q-59 -35 -159 -85 q-100 -50 -179 -84 l0 -117 q0 -32 6 -48.5 q6 -16.5 21.5 -24 q15.5 -7.5 46.5 -10.5 q48 -4 71 -4 q24 0 70 4 q39 4 56 11.5 q17 7.5 23.5 23.5 q6.5 16 8.5 51 l3 64 Z" /><glyph glyph-name="uni4F34" unicode="&#x4f34;" d="M677 248 l278 0 l0 -77 l-278 0 l0 -246 l-81 0 l0 246 l-285 0 l0 77 l285 0 l0 138 l-229 0 l0 76 l229 0 l0 381 l81 0 l0 -381 l238 0 l0 -76 l-238 0 l0 -138 ZM338 808 q-38 -116 -83 -210 l0 -667 l-79 0 l0 523 q-45 -73 -105 -148 l-47 77 q73 91 132.5 205 q59.5 114 101.5 242 l80 -22 ZM923 747 q-18 -42 -55 -113 q-37 -71 -65 -120 l-71 34 q30 50 66 119.5 q36 69.5 55 113.5 l70 -34 ZM472 517 q-22 48 -58 115.5 q-36 67.5 -61 109.5 l68 35 q25 -41 60 -108 q35 -67 60 -119 l-69 -33 Z" /><glyph glyph-name="uni4F38" unicode="&#x4f38;" d="M323 821 q-39 -126 -86 -229 l0 -662 l-75 0 l0 521 q-39 -64 -91 -134 l-49 71 q142 186 221 455 l80 -22 ZM665 698 l239 0 l0 -543 l-239 0 l0 -228 l-74 0 l0 228 l-237 0 l0 543 l237 0 l0 143 l74 0 l0 -143 ZM591 466 l0 157 l-164 0 l0 -157 l164 0 ZM830 466 l0 157 l-165 0 l0 -157 l165 0 ZM427 390 l0 -161 l164 0 l0 161 l-164 0 ZM665 390 l0 -161 l165 0 l0 161 l-165 0 Z" /><glyph glyph-name="uni4F3C" unicode="&#x4f3c;" d="M322 816 q-31 -105 -74 -206 l0 -680 l-76 0 l0 523 q-46 -84 -96 -149 l-51 82 q63 83 123.5 206.5 q60.5 123.5 96.5 246.5 l77 -23 ZM636 555 q-27 55 -66 123.5 q-39 68.5 -65 105.5 l61 39 q26 -37 65 -103 q39 -66 67 -120 l-62 -45 ZM905 -48 q-79 114 -149 210 q-39 -63 -101 -120.5 q-62 -57.5 -158 -123.5 l-52 65 q135 90 201.5 164 q66.5 74 94 170.5 q27.5 96.5 34.5 263.5 q2 61 3.5 124 q1.5 63 0.5 103 l76 0 q1 -24 -1 -95.5 q-2 -71.5 -4 -133.5 q-4 -115 -16.5 -196 q-12.5 -81 -38.5 -145 l17 -23 q133 -181 156 -212 l-63 -51 ZM660 303 q-140 -118 -191 -163 q-35 -31 -65 -61 l-55 59 q16 19 22 30 q6 11 6 23 l0 560 l75 0 l0 -520 l170 148 l38 -76 Z" /><glyph glyph-name="uni4F46" unicode="&#x4f46;" d="M329 818 q-41 -126 -83 -217 l0 -679 l-78 0 l0 530 q-50 -83 -103 -148 l-35 90 q64 87 120.5 200 q56.5 113 95.5 240 l83 -16 ZM384 776 l502 0 l0 -576 l-502 0 l0 576 ZM807 526 l0 171 l-345 0 l0 -171 l345 0 ZM462 449 l0 -171 l345 0 l0 171 l-345 0 ZM311 -33 l0 78 l645 0 l0 -78 l-645 0 Z" /><glyph glyph-name="uni4F4D" unicode="&#x4f4d;" d="M326 681 l272 0 q-28 81 -60 148 l82 22 q38 -83 68 -170 l244 0 l0 -78 l-606 0 l0 78 ZM327 822 q-38 -121 -80 -213 l0 -674 l-78 0 l0 525 q-43 -71 -104 -149 l-47 72 q68 88 128 209.5 q60 121.5 99 249.5 l82 -20 ZM951 52 l0 -78 l-654 0 l0 78 l333 0 q30 85 75.5 239 q45.5 154 72.5 260 l79 -24 q-25 -94 -68.5 -233.5 q-43.5 -139.5 -77.5 -241.5 l240 0 ZM502 123 q-17 73 -54 201.5 q-37 128.5 -61 199.5 l76 21 q25 -75 60 -196 q35 -121 56 -205 l-77 -21 Z" /><glyph glyph-name="uni4F4E" unicode="&#x4f4e;" d="M326 824 q-36 -117 -84 -222 l0 -673 l-77 0 l0 527 q-46 -76 -103 -145 l-37 81 q64 82 125 207.5 q61 125.5 98 247.5 l78 -23 ZM955 171 q-2 -18 -11.5 -63 q-9.5 -45 -16.5 -68 q-24 -94 -84 -94 q-33 0 -64 35 q-31 35 -58 108 q-41 113 -61 302 l-205 0 l0 -291 l173 117 l24 -76 l-75 -49 q59 -67 102 -128 l-56 -44 q-47 65 -105 133 l-34 -24 l-17 -12 l-77 -54 l-44 64 q17 17 23.5 29 q6.5 12 6.5 28 l0 661 q120 7 256 24.5 q136 17.5 255 41.5 l19 -78 q-67 -16 -187 -34 q1 -107 10 -229 l212 0 l0 -79 l-205 0 q20 -191 58 -284 q12 -31 26.5 -52 q14.5 -21 21.5 -21 q5 0 13.5 18 q8.5 18 16.5 45 q9 44 17 99 l66 -25 ZM455 470 l198 0 q-6 72 -12 219 q-76 -10 -186 -20 l0 -199 Z" /><glyph glyph-name="uni4F4F" unicode="&#x4f4f;" d="M660 39 l288 0 l0 -76 l-650 0 l0 76 l279 0 l0 257 l-232 0 l0 80 l232 0 l0 216 l-256 0 l0 77 l296 0 q-24 54 -78 153 l71 37 l31 -57 l53 -96 l-72 -37 l303 0 l0 -77 l-265 0 l0 -216 l233 0 l0 -80 l-233 0 l0 -257 ZM326 806 q-38 -111 -84 -215 l0 -660 l-77 0 l0 512 q-43 -74 -93 -137 l-48 77 q64 84 123 204.5 q59 120.5 99 246.5 l80 -28 Z" /><glyph glyph-name="uni4F53" unicode="&#x4f53;" d="M902 77 q-93 105 -159.5 236.5 q-66.5 131.5 -95.5 268.5 l0 -411 l159 0 l0 -71 l-159 0 l0 -175 l-81 0 l0 175 l-153 0 l0 71 l153 0 l0 411 q-32 -138 -94 -258.5 q-62 -120.5 -166 -249.5 l-51 72 q174 198 247 447 l-192 0 l0 76 l256 0 l0 171 l81 0 l0 -171 l277 0 l0 -76 l-215 0 q33 -120 97 -234.5 q64 -114.5 151 -211.5 l-55 -70 ZM321 821 q-36 -122 -83 -229 l0 -660 l-77 0 l0 506 q-44 -78 -88 -134 l-38 90 q58 81 116 201 q58 120 93 240 l77 -14 Z" /><glyph glyph-name="uni4F55" unicode="&#x4f55;" d="M315 817 q-34 -119 -76 -216 l0 -674 l-78 0 l0 518 q-42 -72 -95 -141 l-46 72 q60 81 121.5 211 q61.5 130 96.5 251 l77 -21 ZM955 769 l0 -78 l-87 0 l0 -613 q0 -57 -14 -86.5 q-14 -29.5 -48.5 -41.5 q-34.5 -12 -103.5 -12 q-33 0 -103 4 l-16 79 q60 -6 120 -6 q37 0 54.5 6.5 q17.5 6.5 24.5 24 q7 17.5 7 54.5 l0 591 l-456 0 l0 78 l622 0 ZM357 557 l314 0 l0 -394 l-314 0 l0 394 ZM429 236 l170 0 l0 247 l-170 0 l0 -247 Z" /><glyph glyph-name="uni4F59" unicode="&#x4f59;" d="M916 267 l-367 0 l0 -206 q0 -71 -25.5 -100 q-25.5 -29 -89.5 -29 q-55 0 -117 8 l-18 83 q70 -10 105 -10 q37 0 49 14 q12 14 12 54 l0 186 l-381 0 l0 80 l381 0 l0 119 l-209 0 l0 73 q-84 -54 -175 -98 l-39 77 q142 64 241 139.5 q99 75.5 175 177.5 l84 0 q73 -99 175 -177 q102 -78 246 -145 l-42 -76 q-96 48 -171 99 l0 -70 l-201 0 l0 -119 l367 0 l0 -80 ZM501 759 q-90 -117 -238 -215 l474 0 q-152 104 -236 215 ZM338 183 q-43 -56 -106.5 -119.5 q-63.5 -63.5 -125.5 -115.5 l-52 65 q58 43 117.5 102.5 q59.5 59.5 103.5 119.5 l63 -52 ZM701 232 q45 -34 120 -97 q75 -63 127 -110 l-54 -64 q-60 55 -130.5 116.5 q-70.5 61.5 -112.5 94.5 l50 60 Z" /><glyph glyph-name="uni4F5C" unicode="&#x4f5c;" d="M937 612 l-312 0 l0 -157 l263 0 l0 -81 l-263 0 l0 -157 l284 0 l0 -82 l-284 0 l0 -211 l-79 0 l0 688 l-56 0 q-66 -126 -149 -230 l-55 68 q66 79 120.5 179.5 q54.5 100.5 92.5 212.5 l78 -23 q-24 -70 -49 -126 l409 0 l0 -81 ZM333 803 q-38 -113 -82 -206 l0 -667 l-81 0 l0 520 q-42 -67 -100 -139 l-39 86 q62 78 121 192 q59 114 100 239 l81 -25 Z" /><glyph glyph-name="uni4F60" unicode="&#x4f60;" d="M296 469 q56 77 106.5 177 q50.5 100 77.5 193 l80 -16 q-17 -55 -44 -117 l413 0 l0 -76 l-84 -168 l-75 27 l72 141 l-360 0 q-51 -105 -118 -205 l-68 44 ZM316 812 q-38 -122 -78 -209 l0 -673 l-78 0 l0 521 q-34 -58 -86 -128 l-43 71 q58 81 114.5 200 q56.5 119 89.5 238 l81 -20 ZM593 550 l78 0 l0 -505 q0 -57 -24 -82.5 q-24 -25.5 -81 -25.5 q-57 0 -107 7 l-16 79 q41 -7 93 -10 q31 -2 44 13 q13 15 13 48 l0 476 ZM812 419 q61 -151 144 -368 l-74 -28 l-23 61 q-85 224 -118 308 l71 27 ZM495 388 q-22 -85 -59.5 -185.5 q-37.5 -100.5 -73.5 -176.5 l-76 26 q35 65 73.5 165 q38.5 100 62.5 189 l73 -18 Z" /><glyph glyph-name="uni4F6C" unicode="&#x4f6c;" d="M953 419 l-256 0 q-70 -67 -173 -137 l2 0 l0 -67 q84 24 172 57 q88 33 157 68 l31 -70 q-76 -35 -175 -70.5 q-99 -35.5 -185 -59.5 l0 -52 q0 -40 13.5 -55.5 q13.5 -15.5 51.5 -19.5 q50 -4 74 -4 q26 0 74 4 q36 4 50 18.5 q14 14.5 16 49.5 l2 33 q1 16 2 35 q1 19 1 35 l82 -21 l-1 -22 l-5 -86 q-4 -65 -31.5 -91 q-27.5 -26 -94.5 -31 q-45 -4 -104 -4 q-57 0 -104 4 q-59 5 -84 35 q-25 30 -25 97 l0 166 q-54 -32 -135 -76 l-39 73 q186 94 306 191 l-285 0 l0 75 l221 0 l0 138 l-159 0 l0 72 l159 0 l0 131 l79 0 l0 -131 l167 0 l0 -72 l-167 0 l0 -138 l67 0 q111 116 187 276 l75 -34 q-65 -138 -152 -242 l186 0 l0 -75 ZM321 812 q-35 -109 -76 -203 l0 -684 l-80 0 l0 523 q-48 -83 -99 -148 l-36 83 q60 84 116 202.5 q56 118.5 96 248.5 l79 -22 Z" /><glyph glyph-name="uni4F7F" unicode="&#x4f7f;" d="M303 818 q-29 -112 -74 -222 l0 -674 l-76 0 l0 519 q-42 -73 -82 -127 l-46 70 q57 80 110 200 q53 120 91 254 l77 -20 ZM944 -65 q-124 17 -217 41.5 q-93 24.5 -164 60.5 q-40 -33 -101 -60 q-61 -27 -151 -52 l-39 75 q77 19 129.5 38.5 q52.5 19.5 87.5 43.5 q-79 56 -140 146 l55 45 q58 -87 140 -140 q21 30 29.5 67.5 q8.5 37.5 8.5 89.5 l-244 0 l0 266 l244 0 l0 87 l-277 0 l0 74 l277 0 l0 121 l76 0 l0 -121 l284 0 l0 -74 l-284 0 l0 -87 l246 0 l0 -266 l-246 0 q-1 -64 -11 -111.5 q-10 -47.5 -33 -83.5 q130 -58 352 -79 l-22 -81 ZM582 486 l-170 0 l0 -122 l170 0 l0 122 ZM829 364 l0 122 l-171 0 l0 -122 l171 0 Z" /><glyph glyph-name="uni4F8B" unicode="&#x4f8b;" d="M294 822 q-35 -129 -77 -234 l0 -662 l-72 0 l0 508 q-30 -57 -71 -117 l-48 68 q54 85 106.5 208.5 q52.5 123.5 84.5 243.5 l77 -15 ZM839 827 l73 0 l0 -764 q0 -49 -13 -75.5 q-13 -26.5 -42.5 -37 q-29.5 -10.5 -84.5 -10.5 q-27 0 -83 4 l-14 74 q48 -6 95 -6 q41 0 55 14.5 q14 14.5 14 58.5 l0 742 ZM312 708 l0 75 l339 0 l0 -75 l-172 0 q-11 -64 -32 -142 l170 0 l0 -83 q-24 -133 -60 -228 q-36 -95 -93.5 -173.5 q-57.5 -78.5 -149.5 -157.5 l-52 63 q132 105 202 241 q-53 52 -106 96 q-26 -56 -57 -104 l-53 52 q49 85 92.5 205.5 q43.5 120.5 64.5 230.5 l-93 0 ZM685 722 l72 0 l0 -570 l-72 0 l0 570 ZM424 490 q-17 -52 -36 -98 q60 -49 107 -92 q30 83 48 190 l-119 0 Z" /><glyph glyph-name="uni4F9B" unicode="&#x4f9b;" d="M318 825 q-37 -118 -80 -215 l0 -677 l-80 0 l0 525 q-39 -66 -96 -140 l-38 84 q63 82 119 198.5 q56 116.5 97 248.5 l78 -24 ZM808 572 l0 -250 l147 0 l0 -79 l-661 0 l0 79 l152 0 l0 250 l-115 0 l0 76 l115 0 l0 190 l81 0 l0 -190 l200 0 l0 190 l81 0 l0 -190 l125 0 l0 -76 l-125 0 ZM727 572 l-200 0 l0 -250 l200 0 l0 250 ZM293 -9 q53 39 115.5 100.5 q62.5 61.5 108.5 116.5 l61 -51 q-45 -53 -111 -117 q-66 -64 -121 -110 l-53 61 ZM731 206 q45 -41 109 -104.5 q64 -63.5 107 -109.5 l-57 -59 q-40 46 -103.5 111 q-63.5 65 -109.5 108 l54 54 Z" /><glyph glyph-name="uni4F9D" unicode="&#x4f9d;" d="M724 311 q41 -79 99.5 -141 q58.5 -62 137.5 -113 l-59 -69 q-91 65 -152 135.5 q-61 70.5 -101.5 161.5 q-40.5 91 -71.5 219 q-40 -71 -78 -124 l0 -323 l157 80 l16 -80 q-94 -41 -167 -77 q-45 -23 -83 -47 l-37 65 q35 28 35 59 l0 226 q-41 -45 -104 -103 l-52 68 q102 88 167.5 176 q65.5 88 115.5 197 l-232 0 l0 78 l271 0 q-23 55 -59 125 l72 34 q19 -37 74 -159 l260 0 l0 -78 l-301 0 l-5 -10 q26 -134 65 -232 q71 55 163 143 l51 -59 q-92 -81 -182 -152 ZM313 823 q-38 -123 -81 -219 l0 -669 l-79 0 l0 515 q-41 -71 -89 -134 l-44 79 q65 85 119.5 199 q54.5 114 94.5 247 l79 -18 Z" /><glyph glyph-name="uni4FBF" unicode="&#x4fbf;" d="M312 818 q-30 -116 -77 -228 l0 -666 l-76 0 l0 510 q-35 -62 -82 -125 l-42 80 q54 78 110.5 203 q56.5 125 89.5 247 l77 -21 ZM942 -60 q-129 13 -224 35 q-95 22 -169 57 q-75 -66 -224 -110 l-31 72 q119 34 183 80 q-64 44 -118 104 l52 43 q54 -59 120 -96 q40 51 49 125 l-230 0 l0 386 l235 0 l0 84 l-248 0 l0 71 l600 0 l0 -71 l-277 0 l0 -84 l233 0 l0 -386 l-236 0 q-11 -96 -56 -161 q137 -58 360 -74 l-19 -75 ZM585 476 l0 93 l-159 0 l0 -93 l159 0 ZM817 476 l0 93 l-157 0 l0 -93 l157 0 ZM426 411 l0 -93 l159 0 l0 8 l0 85 l-159 0 ZM660 318 l157 0 l0 93 l-157 0 l0 -92 l0 -1 Z" /><glyph glyph-name="uni4FDD" unicode="&#x4fdd;" d="M318 811 q-34 -112 -78 -213 l0 -672 l-76 0 l0 522 q-39 -67 -90 -133 l-48 70 q60 82 121 208.5 q61 126.5 90 238.5 l81 -21 ZM706 292 q94 -137 255 -237 l-44 -73 q-153 110 -255 262 l0 -314 l-75 0 l0 320 q-52 -81 -117 -147 q-65 -66 -149 -126 l-44 69 q83 56 146 114.5 q63 58.5 114 131.5 l-228 0 l0 73 l278 0 l0 103 l-212 0 l0 318 l500 0 l0 -318 l-213 0 l0 -103 l280 0 l0 -73 l-236 0 ZM796 710 l-342 0 l0 -167 l342 0 l0 167 Z" /><glyph glyph-name="uni4FE1" unicode="&#x4fe1;" d="M960 722 l0 -74 l-650 0 l0 74 l297 0 q-6 14 -10 21 q-31 66 -40 81 l76 23 q11 -21 57 -125 l270 0 ZM311 817 q-32 -116 -73 -214 l0 -677 l-77 0 l0 522 q-38 -64 -82 -124 l-50 72 q62 85 118.5 206 q56.5 121 87.5 236 l76 -21 ZM878 499 l-507 0 l0 69 l507 0 l0 -69 ZM878 348 l-507 0 l0 71 l507 0 l0 -71 ZM451 -71 l-78 0 l0 335 l505 0 l0 -335 l-78 0 l0 55 l-349 0 l0 -55 ZM800 55 l0 136 l-349 0 l0 -136 l349 0 Z" /><glyph glyph-name="uni4FEE" unicode="&#x4fee;" d="M515 637 q-39 -42 -94 -89 l-44 58 q132 110 194 243 l68 -26 q-10 -22 -32 -62 l285 0 l0 -64 q-59 -100 -145 -170 q91 -48 218 -81 l-27 -70 q-157 46 -255 107 q-103 -63 -273 -117 l-30 68 q148 42 240 93 q-58 47 -105 110 ZM295 821 q-35 -131 -80 -239 l0 -656 l-71 0 l0 505 q-38 -68 -68 -113 l-41 77 q48 70 103.5 199 q55.5 129 84.5 244 l72 -17 ZM362 96 l-70 0 l0 603 l70 0 l0 -603 ZM563 695 l-4 -5 q51 -73 123 -123 q71 52 121 128 l-240 0 ZM793 377 q-165 -105 -327 -158 l-31 66 q84 26 168.5 65.5 q84.5 39.5 156.5 84.5 l33 -58 ZM418 134 q116 35 223 85.5 q107 50.5 195 111.5 l38 -55 q-85 -62 -193.5 -114 q-108.5 -52 -228.5 -88 l-34 60 ZM374 -14 q158 38 297.5 99.5 q139.5 61.5 247.5 140.5 l37 -54 q-206 -162 -553 -251 l-29 65 Z" /><glyph glyph-name="uni5012" unicode="&#x5012;" d="M266 817 q-25 -102 -65 -210 l0 -682 l-72 0 l0 521 q-35 -66 -65 -114 l-45 70 q50 80 96 196 q46 116 75 235 l76 -16 ZM829 819 l72 0 l0 -764 q0 -68 -17.5 -94.5 q-17.5 -26.5 -66.5 -26.5 q-61 0 -105 5 l-15 73 q54 -7 93 -7 q21 0 30 17 q9 17 9 55 l0 742 ZM485 428 l0 -124 l133 0 l0 -74 l-133 0 l0 -151 q98 16 134 22 l23 4 l5 -76 l-390 -66 l-7 76 l163 27 l0 164 l-141 0 l0 74 l141 0 l0 114 q-40 -7 -109 -16 l-29 -4 l-19 66 q8 2 16.5 8 q8.5 6 12.5 12 q38 57 100 201 l-107 0 l0 75 l352 0 l0 -75 l-169 0 q-60 -135 -101 -212 q61 8 183 26 q-32 71 -59 115 l59 25 q23 -37 55.5 -105 q32.5 -68 51.5 -118 l-60 -28 l-20 52 l-85 -12 ZM685 710 l68 0 l0 -562 l-68 0 l0 562 Z" /><glyph glyph-name="uni5019" unicode="&#x5019;" d="M291 819 q-31 -114 -72 -221 l0 -670 l-72 0 l0 510 q-39 -75 -71 -125 l-41 82 q47 75 100 202 q53 127 83 241 l73 -19 ZM832 611 l110 0 l0 -69 l-526 0 l0 69 l339 0 l9 107 l-300 0 l0 69 l382 0 l-14 -176 ZM302 693 l71 0 l0 -614 l-71 0 l0 614 ZM717 196 q57 -142 242 -197 l-43 -69 q-89 32 -148.5 79 q-59.5 47 -94.5 112 q-33 -60 -99 -108 q-66 -48 -174 -89 l-43 67 q222 80 265 205 l-211 0 l0 69 l222 0 q1 22 1 108 l-115 0 q-28 -50 -52 -86 l-59 40 q58 80 101 199 l66 -21 l-24 -63 l349 0 l0 -69 l-185 0 l-4 -97 q0 -7 -1 -11 l228 0 l0 -69 l-221 0 Z" /><glyph glyph-name="uni501A" unicode="&#x501a;" d="M310 818 q-26 -96 -72 -205 l0 -686 l-77 0 l0 525 q-43 -78 -89 -142 l-48 69 q57 77 115.5 207.5 q58.5 130.5 90.5 249.5 l80 -18 ZM336 534 q107 33 154.5 61 q47.5 28 66.5 74 l-210 0 l0 71 l225 0 l1 9 l4 87 l80 0 q0 -46 -4 -96 l257 0 l0 -71 l-267 0 l-5 -17 l51 -24 q21 -10 92 -43.5 q71 -33.5 103 -51.5 l-39 -61 q-53 31 -239 124 q-30 -36 -86 -65.5 q-56 -29.5 -151 -60.5 l-33 64 ZM955 464 l0 -73 l-94 0 l0 -333 q0 -69 -24.5 -96.5 q-24.5 -27.5 -86.5 -27.5 q-46 0 -109 7 l-14 73 q59 -9 99 -9 q33 0 45 16 q12 16 12 58 l0 312 l-489 0 l0 73 l661 0 ZM353 313 l312 0 l0 -255 l-312 0 l0 255 ZM420 122 l180 0 l0 129 l-180 0 l0 -129 Z" /><glyph glyph-name="uni503C" unicode="&#x503c;" d="M295 825 q-33 -121 -68 -212 l0 -680 l-78 0 l0 508 q-40 -74 -79 -130 l-43 86 q58 83 105.5 199 q47.5 116 80.5 245 l82 -16 ZM868 596 l0 -562 l88 0 l0 -70 l-683 0 l0 70 l90 0 l0 562 l213 0 l0 89 l-254 0 l0 69 l254 0 l0 85 l80 0 l0 -85 l272 0 l0 -69 l-272 0 l0 -89 l212 0 ZM788 451 l0 77 l-345 0 l0 -77 l345 0 ZM443 311 l345 0 l0 78 l-345 0 l0 -78 ZM788 170 l0 78 l-345 0 l0 -78 l345 0 ZM788 109 l-345 0 l0 -75 l345 0 l0 75 Z" /><glyph glyph-name="uni504F" unicode="&#x504f;" d="M907 417 l0 -410 q0 -38 -13 -53.5 q-13 -15.5 -49 -15.5 q-26 0 -64 4 l-16 67 q30 -4 45 -4 q15 0 21 5.5 q6 5.5 6 19.5 l0 125 l-83 0 l0 -174 l-65 0 l0 174 l-82 0 l0 -173 l-65 0 l0 173 l-82 0 l0 -218 l-68 0 l0 386 q-13 -112 -39 -210.5 q-26 -98.5 -65 -166.5 l-60 49 q55 94 78.5 221.5 q23.5 127.5 23.5 313.5 l0 212 l252 0 l-38 90 l80 18 l43 -108 l227 0 l0 -235 l-491 0 q0 -45 -3 -90 l507 0 ZM293 808 q-37 -130 -71 -218 l0 -659 l-74 0 l0 504 q-28 -49 -69 -109 l-47 68 q58 85 107 201.5 q49 116.5 79 235.5 l75 -23 ZM819 575 l0 99 l-416 0 l0 -99 l416 0 ZM460 352 l0 -132 l82 0 l0 132 l-82 0 ZM607 352 l0 -132 l82 0 l0 132 l-82 0 ZM754 352 l0 -132 l83 0 l0 132 l-83 0 Z" /><glyph glyph-name="uni505A" unicode="&#x505a;" d="M795 190 q63 -103 174 -198 l-50 -67 q-106 96 -166 192 q-62 -93 -175 -195 l-51 64 q125 105 185 204 q-53 111 -76 272 q-26 -44 -40 -65 l-51 59 q48 80 87 186 q39 106 54 203 l73 -13 q-12 -73 -37 -160 l237 0 l0 -76 l-70 0 q-12 -136 -33 -231 q-21 -95 -61 -175 ZM267 818 q-23 -96 -59 -199 l0 -691 l-74 0 l0 517 q-36 -71 -65 -115 l-45 73 q50 89 96 206 q46 117 71 229 l76 -20 ZM289 30 l0 374 l96 0 l0 177 l-128 0 l0 75 l128 0 l0 180 l73 0 l0 -180 l128 0 l0 -75 l-128 0 l0 -177 l95 0 l0 -374 l-264 0 ZM685 566 q14 -172 68 -297 q27 65 43.5 144.5 q16.5 79.5 24.5 182.5 l-125 0 l-11 -30 ZM356 104 l130 0 l0 225 l-130 0 l0 -225 Z" /><glyph glyph-name="uni505C" unicode="&#x505c;" d="M934 746 l0 -69 l-614 0 l0 69 l251 0 q-20 54 -30 78 l79 25 q14 -35 37 -103 l277 0 ZM305 823 q-38 -124 -74 -215 l0 -675 l-74 0 l0 517 q-40 -72 -81 -126 l-41 78 q53 77 105 193.5 q52 116.5 88 243.5 l77 -16 ZM375 442 l0 178 l484 0 l0 -178 l-484 0 ZM450 497 l334 0 l0 66 l-334 0 l0 -66 ZM376 210 l-74 0 l0 173 l627 0 l0 -174 l-75 0 l0 105 l-478 0 l0 -104 ZM396 168 l0 68 l437 0 l0 -68 l-165 0 l0 -125 q0 -59 -24.5 -84 q-24.5 -25 -88.5 -25 q-45 0 -110 7 l-14 74 q72 -10 109 -10 q29 0 40.5 14.5 q11.5 14.5 11.5 44.5 l0 104 l-196 0 Z" /><glyph glyph-name="uni5076" unicode="&#x5076;" d="M311 817 q-36 -116 -81 -222 l0 -668 l-75 0 l0 520 q-45 -77 -96 -140 l-34 85 q64 88 117 201 q53 113 90 242 l79 -18 ZM658 335 l257 0 l0 -297 q0 -54 -16.5 -78.5 q-16.5 -24.5 -62.5 -24.5 q-66 0 -113 5 l-14 69 q51 -7 86 -7 q27 0 36.5 12 q9.5 12 9.5 45 l0 211 l-183 0 l0 -119 l68 6 l-20 63 l58 17 q30 -88 55 -179 l-59 -15 l-14 48 q-242 -20 -291 -26 l-7 72 l93 6 l44 3 l0 124 l-176 0 l0 -332 l-73 0 l0 397 l249 0 l0 81 l-218 0 l0 375 l514 0 l0 -375 l-223 0 l0 -81 ZM585 637 l0 88 l-143 0 l0 -88 l143 0 ZM658 637 l148 0 l0 88 l-148 0 l0 -88 ZM442 571 l0 -88 l143 0 l0 88 l-143 0 ZM658 571 l0 -88 l148 0 l0 88 l-148 0 Z" /><glyph glyph-name="uni50BB" unicode="&#x50bb;" d="M896 770 l0 -343 l-545 0 l0 343 l182 0 q24 55 31 81 l77 -15 q-9 -27 -26 -66 l281 0 ZM312 815 q-32 -114 -80 -223 l0 -667 l-76 0 l0 518 q-38 -67 -77 -121 l-49 67 q58 81 116 204.5 q58 123.5 90 238.5 l76 -17 ZM423 492 l401 0 l0 214 l-401 0 l0 -214 ZM453 562 q48 14 108 37 q-42 20 -93 42 l28 50 l85 -40 l49 -22 q72 31 121 65 l33 -50 q-36 -23 -87 -47 q60 -29 87 -44 l-29 -51 q-49 28 -125 64 q-78 -33 -151 -57 l-26 53 ZM723 422 q176 -68 244 -102 l-27 -63 q-66 35 -249 106 l32 59 ZM533 359 q-88 -46 -250 -101 l-28 68 q152 45 250 93 l28 -60 ZM856 223 q-68 -94 -152 -152 q112 -50 255 -71 l-27 -74 q-183 40 -303 101 q-116 -57 -323 -106 l-28 68 q160 31 276 82 q-56 37 -102 88 q-52 -41 -139 -93 l-41 63 q78 43 148.5 98.5 q70.5 55.5 118.5 112.5 l58 -34 q-22 -28 -20 -26 l279 0 l0 -57 ZM508 207 q49 -55 121 -97 q76 44 126 104 l-240 0 l-7 -7 Z" /><glyph glyph-name="uni50CF" unicode="&#x50cf;" d="M781 268 q34 -76 76 -130 q42 -54 107 -102 l-51 -58 q-63 52 -106 112.5 q-43 60.5 -79 147.5 l-37 -19 q21 -66 21 -146 q0 -77 -34 -106 q-34 -29 -97 -29 q-18 0 -76 6 l-12 67 q9 -1 34 -4 q25 -3 44 -3 q28 0 43 6.5 q15 6.5 21.5 28.5 q6.5 22 4.5 66 q-2 35 -5 52 q-62 -58 -141.5 -105 q-79.5 -47 -181.5 -91 l-34 62 q220 80 341 197 q-7 19 -21 45 q-63 -54 -131.5 -91.5 q-68.5 -37.5 -156.5 -67.5 l-26 59 q174 51 285 149 l-24 32 q-40 -28 -95 -50 q-55 -22 -137 -47 l-28 62 q96 25 155 50.5 q59 25.5 94 60.5 l-190 0 l0 149 l-52 -37 l-35 63 q172 112 250 254 l74 -24 q-14 -25 -33 -52 l242 0 l0 -59 q-32 -48 -78 -89 l190 0 l0 -205 l-285 0 q-14 -22 -23 -32 q47 -59 73 -111 q48 24 98.5 57 q50.5 33 86.5 66 l43 -53 q-50 -42 -114 -81 ZM309 817 q-34 -125 -83 -241 l0 -652 l-75 0 l0 499 q-36 -64 -70 -110 l-44 76 q55 79 107.5 200.5 q52.5 121.5 86.5 246.5 l78 -19 ZM501 713 q-35 -41 -87 -86 l210 0 q47 41 77 86 l-200 0 ZM415 480 l159 0 q16 37 21 89 l-180 0 l0 -89 ZM830 480 l0 89 l-170 0 q-5 -54 -17 -89 l187 0 Z" /><glyph glyph-name="uni5143" unicode="&#x5143;" d="M139 776 l725 0 l0 -82 l-725 0 l0 82 ZM944 432 l-296 0 l0 -315 q0 -43 13.5 -60 q13.5 -17 47.5 -21 q26 -2 38 -2 q14 0 38 2 q29 4 43.5 11 q14.5 7 20.5 22.5 q6 15.5 8 46.5 q4 92 4 118 l82 -18 q0 -29 -1.5 -67.5 q-1.5 -38.5 -3.5 -67.5 q-3 -46 -16.5 -71.5 q-13.5 -25.5 -41.5 -38 q-28 -12.5 -78 -16.5 q-19 -2 -59 -2 q-39 0 -59 2 q-64 5 -93 37 q-29 32 -29 106 l0 334 l-181 0 q0 -75 -1 -98 q-3 -94 -27.5 -161.5 q-24.5 -67.5 -82.5 -127.5 q-58 -60 -164 -126 l-59 71 q100 53 152.5 103.5 q52.5 50.5 72 105.5 q19.5 55 21.5 135 q1 22 1 98 l-236 0 l0 82 l886 0 l0 -82 Z" /><glyph glyph-name="uni5145" unicode="&#x5145;" d="M935 191 q0 -26 -1.5 -60.5 q-1.5 -34.5 -4.5 -62.5 q-4 -64 -33.5 -91 q-29.5 -27 -103.5 -32 q-21 -2 -63 -2 q-42 0 -63 2 q-62 5 -88 31.5 q-26 26.5 -26 94.5 l0 282 q-108 -4 -152 -5 l-3 -46 q-8 -101 -38 -167.5 q-30 -66.5 -93.5 -117.5 q-63.5 -51 -177.5 -104 l-47 74 q101 45 156 86 q55 41 81 94.5 q26 53.5 34 136.5 q2 10 4 40 l-80 -4 q-73 -5 -116 -9 l-20 79 q17 3 36.5 12 q19.5 9 33.5 20 q39 33 91.5 86.5 q52.5 53.5 100.5 107.5 l-301 0 l0 80 l409 0 q-14 34 -31 71 q-17 37 -25 52 l77 26 q13 -25 32 -70 q35 -75 37 -79 l364 0 l0 -80 l-456 0 q-74 -87 -207 -220 l444 20 q-68 78 -106 119 l61 53 q118 -124 233 -256 l-63 -58 l-57 65 q-92 -2 -137 -4 l0 -266 q0 -36 12.5 -49 q12.5 -13 47.5 -17 q28 -2 43 -2 q14 0 42 2 q41 5 55 17 q14 12 16 47 q2 27 3 61 q1 34 1 57 l79 -14 Z" /><glyph glyph-name="uni5148" unicode="&#x5148;" d="M943 344 l-287 0 l0 -244 q0 -37 12 -51 q12 -14 42 -17 q32 -2 49 -2 q16 0 48 2 q29 3 40 16.5 q11 13.5 13 48.5 q3 27 3 63 l1 24 l77 -17 q0 -21 -5 -96 q-3 -47 -14 -70.5 q-11 -23.5 -32.5 -33 q-21.5 -9.5 -64.5 -13.5 q-36 -3 -72 -3 q-37 0 -73 3 q-42 4 -64.5 14 q-22.5 10 -32.5 34.5 q-10 24.5 -10 71.5 l0 270 l-159 0 q-2 -16 -2 -22 q-7 -98 -34.5 -167 q-27.5 -69 -89.5 -126.5 q-62 -57.5 -171 -110.5 l-51 78 q101 44 156.5 90 q55.5 46 78 101.5 q22.5 55.5 27.5 135.5 q0 7 2 21 l-265 0 l0 78 l411 0 l0 180 l-224 0 q-30 -66 -72 -131 l-74 39 q80 111 137 299 l80 -18 q-21 -68 -38 -112 l191 0 l0 162 l81 0 l0 -162 l321 0 l0 -77 l-321 0 l0 -180 l386 0 l0 -78 Z" /><glyph glyph-name="uni5149" unicode="&#x5149;" d="M937 382 l-296 0 l0 -276 q0 -37 12.5 -50 q12.5 -13 47.5 -18 q24 -3 47 -3 q25 0 47 3 q33 5 45.5 18.5 q12.5 13.5 13.5 48.5 q3 73 1 108 l79 -13 q0 -58 -4 -122 q-2 -49 -14.5 -73.5 q-12.5 -24.5 -37 -34.5 q-24.5 -10 -70.5 -14 q-34 -3 -68 -3 q-34 0 -69 3 q-45 4 -69 15 q-24 11 -35 36.5 q-11 25.5 -11 73.5 l0 301 l-162 0 q-2 -20 -2 -26 q-6 -107 -32.5 -181.5 q-26.5 -74.5 -87 -135.5 q-60.5 -61 -168.5 -116 l-66 71 q103 48 160 98 q57 50 81.5 112 q24.5 62 27.5 154 l1 24 l-249 0 l0 77 l397 0 l0 377 l84 0 l0 -377 l397 0 l0 -77 ZM875 728 q-36 -53 -88 -119.5 q-52 -66.5 -93 -111.5 l-65 52 q46 48 96 112 q50 64 82 116 l68 -49 ZM298 499 q-33 49 -87.5 119 q-54.5 70 -89.5 107 l64 49 q37 -40 93.5 -110 q56.5 -70 87.5 -114 l-68 -51 Z" /><glyph glyph-name="uni514B" unicode="&#x514b;" d="M933 661 l-395 0 l0 -100 l288 0 l0 -303 l-187 0 l0 -173 q0 -37 13.5 -52 q13.5 -15 46.5 -20 q23 -3 43 -3 q22 0 43 3 q41 6 54.5 19 q13.5 13 14.5 50 q4 72 4 101 l75 -19 q0 -28 -8 -112 q-3 -42 -15 -65 q-12 -23 -38 -33.5 q-26 -10.5 -74 -15.5 q-31 -3 -64 -3 q-32 0 -65 3 q-58 5 -82 33 q-24 28 -24 92 l0 195 l-148 0 l-8 -58 q-10 -66 -43 -114 q-33 -48 -97 -88 q-64 -40 -171 -80 l-37 77 q99 33 153.5 64 q54.5 31 80.5 69 q26 38 36 97 q3 13 4 33 l-160 0 l0 303 l288 0 l0 100 l-396 0 l0 74 l396 0 l0 104 l77 0 l0 -104 l395 0 l0 -74 ZM248 332 l503 0 l0 154 l-503 0 l0 -154 Z" /><glyph glyph-name="uni514D" unicode="&#x514d;" d="M927 160 q0 -63 -5 -112 q-3 -36 -13.5 -54 q-10.5 -18 -34 -26 q-23.5 -8 -71.5 -12 q-42 -3 -81 -3 q-38 0 -80 3 q-45 3 -68 12.5 q-23 9.5 -33.5 31.5 q-10.5 22 -10.5 66 l0 198 l-26 0 q-26 -78 -75 -135.5 q-49 -57.5 -129 -104 q-80 -46.5 -203 -91.5 l-42 72 q162 54 246 112.5 q84 58.5 120 146.5 l-268 0 l0 255 q-19 -14 -71 -50 l-34 70 q100 67 174.5 142 q74.5 75 129.5 165 l72 -33 q-14 -22 -42 -62 l363 0 l0 -69 l-111 -111 l224 0 l0 -307 l-254 0 l0 -173 q0 -25 5 -36.5 q5 -11.5 17.5 -16 q12.5 -4.5 40.5 -7.5 q30 -3 55 -3 q25 0 55 3 q31 3 45.5 8 q14.5 5 20.5 15.5 q6 10.5 8 33.5 q4 57 3 87 l73 -15 ZM327 680 q-52 -61 -108 -109 l318 0 l109 109 l-319 0 ZM227 334 l217 0 q14 67 19 165 l-236 0 l0 -165 ZM541 499 q-5 -94 -19 -165 l262 0 l0 165 l-243 0 Z" /><glyph glyph-name="uni5165" unicode="&#x5165;" d="M540 698 q24 -218 123.5 -385.5 q99.5 -167.5 294.5 -299.5 l-55 -70 q-163 120 -260.5 254 q-97.5 134 -142.5 315 q-87 -313 -407 -571 l-61 68 q209 156 309 326.5 q100 170.5 122 351.5 q-10 15 -30.5 21.5 q-20.5 6.5 -55.5 6.5 l-142 0 l0 84 l173 0 q64 0 95.5 -23 q31.5 -23 36.5 -78 Z" /><glyph glyph-name="uni5168" unicode="&#x5168;" d="M543 206 l0 -171 l380 0 l0 -76 l-845 0 l0 76 l379 0 l0 171 l-291 0 l0 76 l291 0 l0 148 l-255 0 l0 75 l593 0 q-194 115 -294 246 q-66 -87 -167 -160 q-101 -73 -259 -155 l-40 76 q163 80 263 153.5 q100 73.5 165 170.5 l75 0 q65 -98 169 -175 q104 -77 257 -150 l-42 -74 q-56 27 -121 65 l0 -72 l-258 0 l0 -148 l291 0 l0 -76 l-291 0 Z" /><glyph glyph-name="uni516B" unicode="&#x516b;" d="M665 827 q6 -217 33 -354.5 q27 -137.5 87.5 -245.5 q60.5 -108 174.5 -226 l-72 -63 q-119 132 -181.5 248 q-62.5 116 -91 262.5 q-28.5 146.5 -35.5 378.5 l85 0 ZM37 -3 q111 126 167.5 230 q56.5 104 82 234 q25.5 130 34.5 345 l84 0 q-10 -231 -36.5 -368.5 q-26.5 -137.5 -84.5 -247.5 q-58 -110 -174 -251 l-73 58 Z" /><glyph glyph-name="uni516C" unicode="&#x516c;" d="M639 835 q58 -157 131.5 -255 q73.5 -98 195.5 -182 l-53 -69 q-129 94 -209.5 203 q-80.5 109 -139.5 276 l75 27 ZM429 800 q-53 -143 -132.5 -262.5 q-79.5 -119.5 -190.5 -218.5 l-58 65 q108 94 181 202.5 q73 108.5 119 238.5 l81 -25 ZM650 323 q51 -77 115 -182 q64 -105 107 -182 l-73 -44 q-17 34 -59 107 l-40 -4 q-72 -7 -181 -18 q-109 -11 -254 -27 l-117 -12 l-26 82 q30 6 44.5 13.5 q14.5 7.5 26.5 21.5 q62 74 131 190.5 q69 116.5 122 233.5 l81 -32 q-51 -109 -119 -224.5 q-68 -115.5 -128 -195.5 q105 10 209.5 21 q104.5 11 209.5 22 q-74 124 -118 188 l69 42 Z" /><glyph glyph-name="uni516D" unicode="&#x516d;" d="M463 842 q36 -45 77 -98.5 q41 -53.5 61 -82.5 l-76 -50 q-21 33 -61.5 88 q-40.5 55 -72.5 95 l72 48 ZM54 585 l892 0 l0 -81 l-892 0 l0 81 ZM664 432 q52 -78 133 -212.5 q81 -134.5 139 -236.5 l-79 -46 q-44 84 -125.5 220.5 q-81.5 136.5 -141.5 229.5 l74 45 ZM66 -16 q76 88 144 206 q68 118 109 228 l84 -33 q-48 -119 -119 -241 q-71 -122 -145 -213 l-73 53 Z" /><glyph glyph-name="uni5170" unicode="&#x5170;" d="M901 629 l0 -83 l-804 0 l0 83 l451 0 q45 59 93.5 126 q48.5 67 70.5 103 l75 -50 q-50 -74 -128 -179 l242 0 ZM340 633 q-47 72 -129 167 l63 53 q31 -35 70 -83.5 q39 -48.5 65 -84.5 l-69 -52 ZM839 353 l0 -81 l-680 0 l0 81 l680 0 ZM53 -18 l0 81 l892 0 l0 -81 l-892 0 Z" /><glyph glyph-name="uni5171" unicode="&#x5171;" d="M716 579 l0 -235 l229 0 l0 -82 l-901 0 l0 82 l227 0 l0 235 l-197 0 l0 79 l197 0 l0 186 l85 0 l0 -186 l276 0 l0 186 l84 0 l0 -186 l198 0 l0 -79 l-198 0 ZM632 579 l-276 0 l0 -235 l276 0 l0 235 ZM59 1 q66 35 149 96 q83 61 153 122 l54 -65 q-61 -52 -149.5 -116.5 q-88.5 -64.5 -158.5 -109.5 l-48 73 ZM628 219 q60 -40 153 -106.5 q93 -66.5 150 -110.5 l-55 -70 q-59 47 -147.5 112.5 q-88.5 65.5 -151.5 107.5 l51 67 Z" /><glyph glyph-name="uni5173" unicode="&#x5173;" d="M547 308 q86 -221 396 -302 l-40 -82 q-147 43 -249 120.5 q-102 77.5 -156 186.5 q-89 -187 -406 -310 l-44 79 q186 69 277 145 q91 76 115 163 l-377 0 l0 82 l387 0 l0 175 l-341 0 l0 79 l434 0 q83 102 158 210 l76 -45 q-71 -99 -126 -165 l226 0 l0 -79 l-341 0 l0 -170 l0 -5 l389 0 l0 -82 l-378 0 ZM337 646 q-49 75 -115 159 l69 45 q59 -74 116 -158 l-70 -46 Z" /><glyph glyph-name="uni5174" unicode="&#x5174;" d="M651 463 q36 57 80.5 156.5 q44.5 99.5 80.5 191.5 l75 -37 q-40 -95 -87 -196 q-47 -101 -80 -158 l-69 43 ZM487 807 q19 -53 44.5 -147 q25.5 -94 45.5 -180 l-83 -19 q-15 72 -41 169.5 q-26 97.5 -46 155.5 l80 21 ZM186 781 q33 -58 83 -153 q50 -95 81 -161 l-77 -40 q-34 75 -82 171.5 q-48 96.5 -79 146.5 l74 36 ZM51 386 l896 0 l0 -78 l-896 0 l0 78 ZM66 -1 q67 46 146.5 118 q79.5 72 138.5 139 l62 -60 q-54 -63 -136 -138 q-82 -75 -154 -130 l-57 71 ZM636 256 q60 -47 148 -125 q88 -78 142 -132 l-64 -67 q-59 62 -142.5 138 q-83.5 76 -143.5 122 l60 64 Z" /><glyph glyph-name="uni5176" unicode="&#x5176;" d="M778 660 l0 -426 l178 0 l0 -73 l-913 0 l0 73 l178 0 l0 426 l-147 0 l0 72 l147 0 l0 104 l79 0 l0 -104 l399 0 l0 104 l79 0 l0 -104 l147 0 l0 -72 l-147 0 ZM699 565 l0 95 l-399 0 l0 -95 l399 0 ZM699 493 l-399 0 l0 -94 l399 0 l0 94 ZM699 329 l-399 0 l0 -95 l399 0 l0 95 ZM68 -11 q158 59 311 150 l36 -68 q-171 -93 -316 -154 l-31 72 ZM610 136 q63 -26 161 -71 q98 -45 155 -74 l-35 -70 q-63 34 -154 76 q-91 42 -160 71 l33 68 Z" /><glyph glyph-name="uni5177" unicode="&#x5177;" d="M808 794 l0 -573 l145 0 l0 -72 l-908 0 l0 72 l146 0 l0 573 l617 0 ZM728 650 l0 72 l-458 0 l0 -72 l458 0 ZM270 507 l458 0 l0 74 l-458 0 l0 -74 ZM728 365 l0 74 l-458 0 l0 -74 l458 0 ZM728 297 l-458 0 l0 -76 l458 0 l0 76 ZM630 135 q66 -27 151 -66 q128 -57 150 -66 l-34 -73 q-201 97 -300 137 l33 68 ZM58 -7 q87 30 157 63 q70 33 135 74 l42 -63 q-113 -72 -304 -146 l-30 72 Z" /><glyph glyph-name="uni517C" unicode="&#x517c;" d="M661 228 q52 -64 126 -116.5 q74 -52.5 162 -85.5 l-38 -75 q-82 38 -157 96.5 q-75 58.5 -127 124.5 l0 -250 l-74 0 l0 306 l-142 0 l0 -306 l-74 0 l0 236 q-103 -134 -261 -215 l-45 74 q188 80 283 211 l-203 0 l0 68 l226 0 l0 77 l-291 0 l0 68 l291 0 l0 76 l-217 0 l0 69 l217 0 l0 83 l-274 0 l0 70 l239 0 l-48 75 l72 29 l22 -36 l41 -68 l191 0 q39 50 79 112 l73 -31 q-28 -40 -60 -81 l248 0 l0 -70 l-293 0 l0 -83 l206 0 l0 -145 l110 0 l0 -68 l-110 0 l0 -145 l-172 0 ZM553 669 l-142 0 l0 -83 l142 0 l0 83 ZM553 517 l-142 0 l0 -76 l142 0 l0 76 ZM758 441 l0 76 l-131 0 l0 -76 l131 0 ZM411 373 l0 -77 l142 0 l0 77 l-142 0 ZM627 296 l131 0 l0 77 l-131 0 l0 -77 Z" /><glyph glyph-name="uni5185" unicode="&#x5185;" d="M880 685 l0 -621 q0 -51 -11 -76 q-11 -25 -38 -35 q-27 -10 -81 -10 q-72 0 -123 5 l-15 81 q61 -8 113 -8 q34 0 49 5.5 q15 5.5 20.5 19.5 q5.5 14 5.5 45 l0 515 l-259 0 q-2 -72 -16 -131 q52 -47 131 -124 q79 -77 128 -129 l-58 -64 q-45 51 -110 119.5 q-65 68.5 -118 120.5 q-30 -66 -86.5 -127.5 q-56.5 -61.5 -146.5 -129.5 l-54 70 q96 69 148.5 128 q52.5 59 75 121.5 q22.5 62.5 24.5 145.5 l-259 0 l0 -672 l-80 0 l0 751 l339 0 l0 151 l82 0 l0 -151 l339 0 Z" /><glyph glyph-name="uni518D" unicode="&#x518d;" d="M956 238 l0 -71 l-121 0 l0 -106 q0 -49 -11 -76 q-11 -27 -36.5 -38.5 q-25.5 -11.5 -72.5 -11.5 q-58 0 -115 6 l-14 79 q59 -8 110 -8 q36 0 48 17 q12 17 12 59 l0 79 l-511 0 l0 -235 l-79 0 l0 235 l-122 0 l0 71 l122 0 l0 369 l294 0 l0 100 l-384 0 l0 72 l850 0 l0 -72 l-386 0 l0 -100 l295 0 l0 -369 l121 0 ZM460 423 l0 112 l-215 0 l0 -112 l215 0 ZM756 423 l0 112 l-216 0 l0 -112 l216 0 ZM460 353 l-215 0 l0 -115 l215 0 l0 115 ZM540 353 l0 -115 l216 0 l0 115 l-216 0 Z" /><glyph glyph-name="uni5199" unicode="&#x5199;" d="M105 565 l0 218 l796 0 l0 -214 l-83 0 l0 138 l-632 0 l0 -142 l-81 0 ZM327 496 l-16 -120 l544 0 q-3 -149 -17 -281 q-6 -58 -22.5 -91 q-16.5 -33 -51.5 -48 q-35 -15 -98 -15 q-84 0 -144 5 l-16 75 q77 -8 146 -8 q54 0 76 19 q22 19 30 70 q14 102 16 200 l-554 0 l46 358 l83 0 l-12 -92 l443 0 l0 -72 l-453 0 ZM69 188 l616 0 l0 -74 l-616 0 l0 74 Z" /><glyph glyph-name="uni51AC" unicode="&#x51ac;" d="M577 459 q144 -71 384 -123 l-28 -83 q-137 36 -242 75 q-105 39 -190 87 q-176 -93 -431 -165 l-31 78 q226 58 386 135 q-93 63 -169 145 q-67 -70 -136 -119 l-47 62 q72 51 148 137.5 q76 86.5 122 165.5 l80 -30 q-26 -43 -49 -74 l459 0 l0 -74 q-113 -128 -256 -217 ZM310 667 q85 -100 189 -165 q137 76 222 176 l-402 0 l-9 -11 ZM305 316 l406 -94 l-16 -78 q-79 20 -197.5 48 q-118.5 28 -208.5 48 l16 76 ZM193 136 l157 -33 q333 -69 432 -89 l-21 -80 q-208 49 -585 126 l17 76 Z" /><glyph glyph-name="uni51B0" unicode="&#x51b0;" d="M721 416 q45 -93 105.5 -171.5 q60.5 -78.5 141.5 -148.5 l-61 -71 q-100 100 -166.5 204 q-66.5 104 -109.5 230 l0 -400 q0 -68 -25.5 -95 q-25.5 -27 -92.5 -27 q-55 0 -111 6 l-17 78 q68 -8 101 -8 q39 0 52 14.5 q13 14.5 13 56.5 l0 754 l80 0 l0 -153 q23 -101 57 -191 q95 87 175 178 l61 -67 q-40 -41 -98 -94.5 q-58 -53.5 -105 -94.5 ZM176 482 q-16 53 -50.5 140 q-34.5 87 -56.5 130 l74 26 q23 -50 55.5 -130.5 q32.5 -80.5 51.5 -135.5 l-74 -30 ZM509 600 l0 -79 q-25 -153 -80 -269.5 q-55 -116.5 -159 -234.5 l-71 52 q98 107 153.5 215.5 q55.5 108.5 78.5 236.5 l-149 0 l0 79 l227 0 ZM240 381 q-53 -190 -129 -407 l-76 26 q72 199 128 398 l77 -17 Z" /><glyph glyph-name="uni51B3" unicode="&#x51b3;" d="M615 305 q39 -102 121.5 -175 q82.5 -73 218.5 -131 l-48 -79 q-123 56 -206 131.5 q-83 75.5 -132 178.5 q-35 -88 -112.5 -163 q-77.5 -75 -204.5 -148 l-50 75 q139 75 210.5 148 q71.5 73 93.5 163 l-222 0 l0 78 l233 0 l0 18 l1 203 l-193 0 l0 78 l194 0 l0 159 l84 0 q0 -80 -1 -159 l255 0 l0 -299 l93 0 l0 -78 l-335 0 ZM186 498 q-20 50 -59.5 136 q-39.5 86 -62.5 129 l73 33 q25 -46 65 -128.5 q40 -82.5 63 -135.5 l-79 -34 ZM601 383 l179 0 l0 221 l-178 0 q-1 -96 -1 -197 l0 -24 ZM248 387 q-55 -217 -119 -413 l-83 24 q64 194 119 410 l83 -21 Z" /><glyph glyph-name="uni51B5" unicode="&#x51b5;" d="M200 499 q-30 63 -67.5 138.5 q-37.5 75.5 -67.5 133.5 l69 35 l39 -74 q73 -135 102 -196 l-75 -37 ZM959 209 q0 -31 -1.5 -76 q-1.5 -45 -3.5 -79 q-3 -53 -24.5 -74.5 q-21.5 -21.5 -77.5 -26.5 q-16 -2 -49 -2 q-33 0 -50 2 q-49 5 -70.5 29 q-21.5 24 -21.5 78 l0 316 l-130 0 q0 -24 -2 -46 q-5 -106 -28.5 -173.5 q-23.5 -67.5 -74 -118 q-50.5 -50.5 -143.5 -104.5 l-54 64 q88 47 134 89.5 q46 42.5 66 98.5 q20 56 24 147 l1 43 l-114 0 l0 410 l539 0 l0 -410 l-140 0 l0 -291 q0 -27 8.5 -41.5 q8.5 -14.5 31.5 -16.5 q20 -2 29 -2 q15 0 31 3 q24 4 32.5 16.5 q8.5 12.5 9.5 38.5 q2 60 2 139 l76 -13 ZM800 710 l-380 0 l0 -258 l380 0 l0 258 ZM277 368 q-36 -116 -71.5 -212.5 q-35.5 -96.5 -80.5 -188.5 l-75 41 q93 172 152 393 l75 -33 Z" /><glyph glyph-name="uni51B7" unicode="&#x51b7;" d="M640 841 q102 -203 326 -338 l-46 -73 q-103 64 -185.5 148 q-82.5 84 -133.5 177 q-93 -163 -303 -318 l-52 68 q110 75 186 157.5 q76 82.5 127 178.5 l81 0 ZM190 546 q-41 86 -127 230 l71 36 q75 -120 128 -227 l-72 -39 ZM558 590 q26 -27 61 -68 q35 -41 60 -74 l-61 -51 q-22 30 -59 74.5 q-37 44.5 -60 69.5 l59 49 ZM316 298 l0 75 l545 0 l0 -78 q-90 -105 -208 -221 q70 -44 123 -80 l-44 -72 q-78 53 -191 124 q-113 71 -188 114 l44 67 q70 -39 186 -110 q139 141 171 181 l-438 0 ZM62 17 q24 56 61.5 166.5 q37.5 110.5 57.5 176.5 l77 -22 q-19 -70 -55 -179 q-36 -109 -61 -168 l-80 26 Z" /><glyph glyph-name="uni51BD" unicode="&#x51bd;" d="M839 828 l73 0 l0 -765 q0 -51 -12.5 -76.5 q-12.5 -25.5 -42.5 -35.5 q-30 -10 -88 -10 q-28 0 -88 4 l-14 75 q51 -6 101 -6 q30 0 45 6 q15 6 20.5 21 q5.5 15 5.5 45 l0 742 ZM176 522 q-21 59 -54 138.5 q-33 79.5 -55 126.5 l70 33 q22 -45 56.5 -127 q34.5 -82 55.5 -138 l-73 -33 ZM279 707 l0 76 l362 0 l0 -76 l-172 0 q-11 -66 -32 -141 l176 0 l0 -83 q-23 -131 -60.5 -226.5 q-37.5 -95.5 -97 -176.5 q-59.5 -81 -153.5 -165 l-55 58 q144 126 212 257 q-51 51 -109 102 q-26 -55 -59 -110 l-54 53 q51 86 94.5 204.5 q43.5 118.5 63.5 227.5 l-116 0 ZM675 723 l73 0 l0 -570 l-73 0 l0 570 ZM414 490 q-22 -62 -35 -92 q71 -60 112 -99 q33 83 52 191 l-129 0 ZM242 404 q-57 -215 -126 -412 l-74 25 q66 184 125 409 l75 -22 Z" /><glyph glyph-name="uni51C0" unicode="&#x51c0;" d="M947 413 l0 -68 l-90 0 l0 -180 l-231 0 l0 -107 q0 -60 -24.5 -86 q-24.5 -26 -79.5 -26 q-69 0 -119 5 l-15 75 q65 -7 112 -7 q29 0 39 13.5 q10 13.5 10 48.5 l0 84 l-225 0 l0 71 l225 0 l0 109 l-265 0 l0 68 l265 0 l0 107 l-186 0 l0 67 l-37 -29 l-52 60 q80 59 135.5 115.5 q55.5 56.5 93.5 117.5 l76 -31 q-18 -28 -39 -54 l244 0 l0 -61 l-98 -116 l171 0 l0 -176 l90 0 ZM168 518 q-20 53 -58.5 139.5 q-38.5 86.5 -61.5 127.5 l70 31 q26 -44 65.5 -126 q39.5 -82 62.5 -139 l-78 -33 ZM482 697 q-50 -54 -116 -108 l225 0 l94 108 l-203 0 ZM784 520 l-158 0 l0 -107 l158 0 l0 107 ZM50 18 q70 182 125 390 l76 -22 q-49 -193 -124 -393 l-77 25 ZM626 236 l158 0 l0 109 l-158 0 l0 -109 Z" /><glyph glyph-name="uni51C4" unicode="&#x51c4;" d="M875 331 l-295 0 q-11 -21 -41 -71 l415 0 l0 -60 l-147 0 q-22 -43 -44.5 -74.5 q-22.5 -31.5 -51.5 -56.5 q45 -15 94.5 -31.5 q49.5 -16.5 100.5 -33.5 l37 -13 l-28 -65 q-123 50 -269 99 q-57 -30 -144.5 -54 q-87.5 -24 -223.5 -47 l-26 71 q197 26 300 62 q-107 35 -196 61 q27 35 59 82 l-167 0 l0 60 l206 0 q33 55 41 71 l-168 0 l0 59 l229 0 l0 62 l-291 0 l0 57 l291 0 l0 64 l-225 0 l0 58 l225 0 l0 64 l-260 0 l0 61 l260 0 l0 87 l75 0 l0 -87 l296 0 l0 -61 l-296 0 l0 -64 l244 0 l0 -122 l84 0 l0 -57 l-84 0 l0 -121 ZM132 808 q22 -47 55 -132 q33 -85 49 -137 l-71 -25 q-16 51 -49.5 141 q-33.5 90 -51.5 130 l68 23 ZM804 573 l-173 0 l0 -64 l173 0 l0 64 ZM804 452 l-173 0 l0 -62 l173 0 l0 62 ZM42 0 q65 207 114 420 l74 -17 q-55 -231 -116 -424 l-72 21 ZM501 200 l-37 -55 q66 -16 168 -50 q31 20 52.5 45 q21.5 25 39.5 60 l-223 0 Z" /><glyph glyph-name="uni51C6" unicode="&#x51c6;" d="M950 61 l0 -73 l-512 0 l0 -60 l-80 0 l0 561 q-40 -62 -78 -106 l-55 67 q126 137 209 399 l85 -13 q-22 -76 -56 -152 l177 0 q-23 67 -51 139 l75 19 q42 -104 61 -158 l210 0 l0 -74 l-217 0 l0 -133 l196 0 l0 -71 l-196 0 l0 -134 l196 0 l0 -71 l-196 0 l0 -140 l232 0 ZM192 534 q-20 44 -57.5 115 q-37.5 71 -64.5 120 l71 36 q94 -164 127 -231 l-76 -40 ZM438 477 l202 0 l0 133 l-202 0 l0 -133 ZM438 272 l202 0 l0 134 l-202 0 l0 -134 ZM64 -10 q24 70 68 205.5 q44 135.5 54 171.5 l80 -27 q-24 -72 -60.5 -188.5 q-36.5 -116.5 -58.5 -186.5 l-83 25 ZM640 201 l-202 0 l0 -140 l202 0 l0 140 Z" /><glyph glyph-name="uni51C9" unicode="&#x51c9;" d="M939 735 l0 -75 l-642 0 l0 75 l281 0 q-30 62 -44 89 l76 26 q33 -60 59 -115 l270 0 ZM191 503 q-28 67 -121 260 l71 35 q81 -160 125 -257 l-75 -38 ZM868 276 l-206 0 l0 -235 q0 -58 -25.5 -82.5 q-25.5 -24.5 -87.5 -24.5 q-39 0 -93 7 l-15 75 q54 -9 90 -9 q28 0 38.5 15.5 q10.5 15.5 10.5 47.5 l0 206 l-229 0 l0 286 l517 0 l0 -286 ZM789 487 l-358 0 l0 -136 l358 0 l0 136 ZM273 374 q-43 -109 -150 -395 l-77 30 q25 58 80 201 q55 143 72 195 l75 -31 ZM474 191 q-37 -64 -86 -130.5 q-49 -66.5 -96 -116.5 l-64 51 q48 52 97 116.5 q49 64.5 82 123.5 l67 -44 ZM802 231 q43 -52 92.5 -116 q49.5 -64 80.5 -111 l-64 -50 q-35 52 -86 119 q-51 67 -88 109 l65 49 Z" /><glyph glyph-name="uni51DD" unicode="&#x51dd;" d="M353 519 q-44 2 -62.5 22 q-18.5 20 -18.5 73 l0 225 l71 0 l0 -113 q129 49 173 72 l25 -60 q-31 -16 -87.5 -39 q-56.5 -23 -110.5 -42 l0 -35 q0 -24 8 -32.5 q8 -8.5 30 -9.5 l33 -1 l32 1 q29 1 37 9 q8 8 10 35 q3 27 3 57 l60 -14 q-2 -46 -5 -68 q-3 -32 -12 -48.5 q-9 -16.5 -27.5 -23.5 q-18.5 -7 -54.5 -8 l-52 -1 l-52 1 ZM151 510 q-57 182 -90 273 l65 22 q56 -154 94 -273 l-69 -22 ZM827 32 q46 -2 69 -2 q23 0 69 2 l-15 -73 q-21 -2 -65 -2 q-43 0 -65 2 q-73 5 -119.5 31.5 q-46.5 26.5 -72.5 82.5 q-24 -70 -74 -144 l-64 34 q46 61 68 110 q22 49 30.5 113.5 q8.5 64.5 9.5 177.5 l64 -1 q-2 -110 -9 -168 q9 -47 24.5 -78.5 q15.5 -31.5 40.5 -50.5 l0 372 l-153 0 l0 71 l173 0 q-75 83 -125 133 l46 43 l81 -84 q73 84 102 120 l-260 0 l0 72 l340 0 l0 -77 q-16 -21 -58 -71.5 q-42 -50.5 -78 -91.5 l42 -44 l108 0 l0 -72 l-38 -101 l-59 16 l33 86 l-88 0 l0 -161 l147 0 l0 -71 l-147 0 l0 -168 q20 -5 43 -6 ZM492 13 l-95 85 q-19 -44 -51 -86 q-32 -42 -82 -88 l-59 54 q67 52 101 106.5 q34 54.5 46 115.5 l-122 0 l0 67 l131 0 q4 28 6 100 l-57 0 q-17 -41 -40 -81 l-55 31 q24 43 45.5 95 q21.5 52 33.5 93 l62 -17 q-6 -19 -20 -57 l208 0 l0 -64 l-108 0 q0 -42 -4 -100 l122 0 l0 -67 l-128 0 q-4 -24 -7 -36 q75 -60 115 -97 l-42 -54 ZM216 393 l-103 -407 l-72 21 q13 40 53.5 195 q40.5 155 51.5 206 l70 -15 Z" /><glyph glyph-name="uni51E0" unicode="&#x51e0;" d="M40 -14 q88 74 128 128.5 q40 54.5 55.5 130 q15.5 75.5 15.5 213.5 l0 319 l479 0 l0 -681 q0 -36 8 -48 q8 -12 36 -16 q22 -2 31 -2 q11 0 31 2 q23 3 30 15.5 q7 12.5 9 47.5 q1 33 2.5 85 q1.5 52 1.5 86 l81 -19 q-1 -37 -3 -92 q-2 -55 -4 -93 q-2 -43 -10.5 -65.5 q-8.5 -22.5 -28 -33 q-19.5 -10.5 -55.5 -13.5 q-19 -2 -57 -2 q-39 0 -58 2 q-53 4 -76 29 q-23 25 -23 88 l0 625 l-310 0 l0 -234 q0 -150 -16.5 -235 q-16.5 -85 -60.5 -148.5 q-44 -63.5 -137 -148.5 l-69 60 Z" /><glyph glyph-name="uni51E1" unicode="&#x51e1;" d="M42 -18 q74 69 109 125.5 q35 56.5 47.5 129.5 q12.5 73 12.5 202 l0 340 l516 0 l0 -678 q0 -40 8.5 -53 q8.5 -13 35.5 -17 q8 -1 23 -1 q16 0 23 1 q26 4 35 16.5 q9 12.5 11 45.5 l6 171 l76 -15 l-4 -97 l-3 -94 q-3 -58 -27 -82 q-24 -24 -77 -27 q-30 -2 -46 -2 q-14 0 -46 2 q-52 3 -76.5 30.5 q-24.5 27.5 -24.5 94.5 l0 620 l-346 0 l0 -255 q0 -138 -14.5 -221 q-14.5 -83 -53 -148.5 q-38.5 -65.5 -116.5 -141.5 l-69 54 ZM387 551 q37 -39 108 -123 q71 -84 110 -135 l-63 -58 q-40 54 -107.5 137 q-67.5 83 -106.5 124 l59 55 Z" /><glyph glyph-name="uni51FA" unicode="&#x51fa;" d="M804 53 l0 276 l81 0 l0 -399 l-81 0 l0 46 l-687 0 l0 351 l82 0 l0 -274 l260 0 l0 353 l-313 0 l0 346 l80 0 l0 -268 l233 0 l0 359 l82 0 l0 -359 l234 0 l0 268 l80 0 l0 -346 l-314 0 l0 -353 l263 0 Z" /><glyph glyph-name="uni51FB" unicode="&#x51fb;" d="M948 371 l-408 0 l0 -316 l234 0 l0 238 l80 0 l0 -365 l-80 0 l0 50 l-627 0 l0 312 l80 0 l0 -235 l234 0 l0 316 l-408 0 l0 79 l408 0 l0 165 l-346 0 l0 79 l346 0 l0 151 l79 0 l0 -151 l346 0 l0 -79 l-346 0 l0 -165 l408 0 l0 -79 Z" /><glyph glyph-name="uni51FD" unicode="&#x51fd;" d="M465 585 l213 124 l-510 0 l0 75 l668 0 l0 -67 l-291 -170 l0 -365 q0 -59 -22 -82 q-22 -23 -80 -23 q-56 0 -96 5 l-14 74 q47 -7 82 -7 q30 0 40 12.5 q10 12.5 10 45.5 l0 131 l-73 -58 q-129 -102 -161 -126 l-33 71 q32 20 128.5 94 q96.5 74 138.5 108 l0 158 ZM818 34 l0 590 l78 0 l0 -702 l-78 0 l0 38 l-717 0 l0 664 l79 0 l0 -590 l638 0 ZM786 554 q-62 -78 -152 -174 l-57 52 q35 36 77 83.5 q42 47.5 72 86.5 l60 -48 ZM365 393 q-84 90 -149 149 l52 50 q35 -32 79.5 -74.5 q44.5 -42.5 73.5 -71.5 l-56 -53 ZM768 146 q-114 95 -216 170 l43 56 q133 -98 218 -166 l-45 -60 Z" /><glyph glyph-name="uni5203" unicode="&#x5203;" d="M880 774 l0 -40 q0 -151 -8.5 -333.5 q-8.5 -182.5 -21.5 -279.5 q-8 -62 -25.5 -95.5 q-17.5 -33.5 -52.5 -49 q-35 -15.5 -98 -16.5 l-40 0 q-79 0 -137 5 l-17 82 q98 -8 147 -8 q56 0 81 7.5 q25 7.5 37 31 q12 23.5 19 78.5 q13 99 20.5 225 q7.5 126 7.5 251 l0 58 l-292 0 l-8 -155 q-9 -162 -42.5 -262 q-33.5 -100 -110 -177.5 q-76.5 -77.5 -224.5 -164.5 l-56 72 q129 69 200.5 136.5 q71.5 67.5 105.5 157.5 q34 90 42 231 l6 162 l-317 0 l0 84 l784 0 ZM291 572 q-27 -84 -67 -175 q-40 -91 -77 -154 l-76 42 q40 64 77 148 q37 84 64 169 l79 -30 Z" /><glyph glyph-name="uni5206" unicode="&#x5206;" d="M637 845 q48 -137 122.5 -228 q74.5 -91 206.5 -173 l-46 -75 q-141 91 -222 192 q-81 101 -137 256 l76 28 ZM438 803 q-58 -130 -141.5 -232 q-83.5 -102 -210.5 -196 l-47 69 q217 155 323 390 l76 -31 ZM187 372 l0 80 l594 0 q-3 -75 -11.5 -174.5 q-8.5 -99.5 -20.5 -188.5 q-7 -53 -24 -82.5 q-17 -29.5 -50.5 -42.5 q-33.5 -13 -90.5 -14 l-33 0 q-67 0 -115 5 l-15 78 q69 -9 139 -9 q38 0 59 8 q21 8 31.5 28 q10.5 20 16.5 58 q9 58 16 133.5 q7 75.5 9 120.5 l-283 0 q-3 -43 -4 -56 q-7 -94 -32.5 -159 q-25.5 -65 -84 -122 q-58.5 -57 -167.5 -119 l-55 70 q97 50 149 96.5 q52 46.5 74.5 100 q22.5 53.5 32.5 134.5 q2 16 5 55 l-140 0 Z" /><glyph glyph-name="uni5207" unicode="&#x5207;" d="M428 171 q-70 -42 -184 -118 l-50 -36 l-49 70 q20 17 26 30.5 q6 13.5 6 35.5 l0 322 l-129 -18 l-8 84 l137 18 l0 280 l79 0 l0 -269 l147 19 l3 -82 l-150 -21 l0 -332 l153 104 l19 -87 ZM404 762 l507 0 q0 -151 -8.5 -358 q-8.5 -207 -20.5 -301 q-7 -54 -22 -85 q-15 -31 -46 -46 q-31 -15 -85 -16 q-62 -2 -113 5 l-16 81 q61 -11 99 -11 q38 0 57.5 7.5 q19.5 7.5 29.5 29 q10 21.5 15 67.5 q23 204 23 542 l-203 0 q-2 -96 -5 -153 q-5 -161 -27 -259.5 q-22 -98.5 -73 -176.5 q-51 -78 -150 -174 l-72 59 q102 90 148.5 156.5 q46.5 66.5 65.5 153 q19 86.5 26 249.5 l4 145 l-134 0 l0 85 Z" /><glyph glyph-name="uni5212" unicode="&#x5212;" d="M465 101 q13 65 20 118 l71 -29 q-20 -91 -30 -130 q-16 -62 -43 -90.5 q-27 -28.5 -67 -28.5 q-32 0 -61.5 22.5 q-29.5 22.5 -63.5 76.5 q-23 39 -42 90 q-75 -62 -178 -125 l-41 70 q115 68 195 138 q-27 114 -42 285 l-131 -22 l-11 76 l137 23 q-2 22 -4 64 q-4 75 -8 199 l78 0 q2 -82 9 -206 l2 -44 l290 49 l10 -77 l-295 -49 q12 -140 30 -237 q93 96 157 218 l62 -41 q-83 -152 -197 -264 q21 -67 47 -107 q18 -29 32 -39.5 q14 -10.5 27 -10.5 q16 0 27.5 15.5 q11.5 15.5 19.5 55.5 ZM818 837 l74 0 l0 -780 q0 -50 -9 -74.5 q-9 -24.5 -32.5 -34.5 q-23.5 -10 -71.5 -10 q-64 0 -109 5 l-15 78 q59 -8 111 -8 q23 0 34 4.5 q11 4.5 14.5 17 q3.5 12.5 3.5 38.5 l0 764 ZM427 635 q-27 32 -65.5 71.5 q-38.5 39.5 -68.5 66.5 l45 45 q31 -27 70.5 -65 q39.5 -38 67.5 -69 l-49 -49 ZM623 747 l74 0 l0 -593 l-74 0 l0 593 Z" /><glyph glyph-name="uni5217" unicode="&#x5217;" d="M822 829 l79 0 l0 -767 q0 -47 -12.5 -72 q-12.5 -25 -45 -35.5 q-32.5 -10.5 -94.5 -10.5 q-33 0 -99 4 l-14 80 q56 -6 112 -6 q32 0 47.5 5.5 q15.5 5.5 21 20.5 q5.5 15 5.5 45 l0 736 ZM77 707 l0 77 l497 0 l0 -77 l-249 0 q-17 -68 -42 -140 l243 0 l0 -74 q-30 -131 -79 -229 q-49 -98 -128 -181.5 q-79 -83.5 -202 -169.5 l-53 68 q91 60 153 115.5 q62 55.5 105 115.5 q-55 53 -146 128 q-43 -70 -90 -127 l-54 59 q69 87 127.5 206.5 q58.5 119.5 82.5 228.5 l-165 0 ZM623 738 l81 0 l0 -585 l-81 0 l0 585 ZM253 491 q-19 -47 -40 -84 q74 -59 152 -127 q45 83 78 211 l-190 0 Z" /><glyph glyph-name="uni5219" unicode="&#x5219;" d="M819 822 l76 0 l0 -749 q0 -71 -21.5 -99.5 q-21.5 -28.5 -78.5 -28.5 q-62 0 -124 6 l-16 76 q64 -8 119 -8 q26 0 35.5 17 q9.5 17 9.5 57 l0 729 ZM449 711 l-259 0 l0 -521 l-74 0 l0 599 l407 0 l0 -597 l-74 0 l0 519 ZM640 743 l72 0 l0 -583 l-72 0 l0 583 ZM358 381 q0 -79 -12 -142 q45 -39 110.5 -100 q65.5 -61 112.5 -107 l-57 -61 q-128 133 -189 193 q-28 -67 -83 -122 q-55 -55 -148 -112 l-49 66 q100 60 150 112.5 q50 52.5 69.5 118.5 q19.5 66 19.5 172 l0 250 l76 0 l0 -268 Z" /><glyph glyph-name="uni521A" unicode="&#x521a;" d="M832 830 l75 0 l0 -775 q0 -64 -24.5 -90.5 q-24.5 -26.5 -87.5 -27.5 q-59 -2 -107 5 l-15 76 q53 -7 88 -7 q42 0 56.5 13 q14.5 13 14.5 53 l0 753 ZM85 -64 l0 856 l492 0 l0 -737 q0 -62 -23.5 -87 q-23.5 -25 -80.5 -27 q-57 -2 -102 5 l-15 74 q58 -9 95 -9 q31 0 43.5 15.5 q12.5 15.5 12.5 52.5 l0 639 l-351 0 l0 -782 l-71 0 ZM666 738 l72 0 l0 -592 l-72 0 l0 592 ZM416 96 q-31 76 -77 180 q-49 -104 -103 -191 l-60 44 q64 98 125 233 q-86 189 -119 253 l59 34 q33 -65 96 -202 q47 117 72 216 l61 -26 q-36 -138 -94 -276 q39 -86 100 -227 l-60 -38 Z" /><glyph glyph-name="uni521B" unicode="&#x521b;" d="M325 719 q-73 -105 -181 -203 l359 0 q1 -73 -7 -215 q-3 -53 -15 -79 q-12 -26 -40.5 -36.5 q-28.5 -10.5 -84.5 -10.5 q-32 0 -65 3 l-13 69 q39 -6 79 -6 q30 0 42.5 4.5 q12.5 4.5 17.5 18.5 q5 14 8 48 q6 72 6 130 l-215 0 l0 -330 q0 -35 5 -50 q5 -15 19.5 -21 q14.5 -6 48.5 -8 q44 -2 65 -2 q21 0 65 2 q33 2 48 7.5 q15 5.5 20.5 18.5 q5.5 13 7.5 42 q3 48 3 77 l75 -16 q0 -21 -1.5 -48.5 q-1.5 -27.5 -4.5 -50.5 q-4 -42 -16.5 -63 q-12.5 -21 -39.5 -30 q-27 -9 -82 -12 q-27 -2 -81 -2 q-54 0 -82 2 q-49 3 -76 14.5 q-27 11.5 -39 39 q-12 27.5 -12 78.5 l0 422 q-33 -29 -61 -51 l-48 60 q87 70 163.5 160.5 q76.5 90.5 120.5 174.5 l73 -35 q-14 -26 -22 -39 q51 -41 122.5 -103.5 q71.5 -62.5 119.5 -109.5 l-54 -62 q-47 46 -114 108.5 q-67 62.5 -114 103.5 ZM826 829 l76 0 l0 -770 q0 -47 -12 -71.5 q-12 -24.5 -42 -34.5 q-30 -10 -89 -10 q-43 0 -95 5 l-18 83 q67 -9 111 -9 q42 0 55.5 14 q13.5 14 13.5 57 l0 736 ZM651 752 l76 0 l0 -579 l-76 0 l0 579 Z" /><glyph glyph-name="uni521D" unicode="&#x521d;" d="M387 194 q-42 35 -109 87 q-7 4 -19 14 l0 -366 l-79 0 l0 412 q-56 -62 -120 -120 l-28 78 q75 67 138.5 146 q63.5 79 104.5 155 l-212 0 l0 80 l137 0 q-22 76 -46 144 l75 20 q19 -53 51 -164 l86 0 l0 -74 q-44 -85 -107 -168 l0 -58 l30 -22 q50 59 99 128 l55 -43 l-18 -25 q-56 -76 -79 -103 l84 -63 l-43 -58 ZM917 760 q1 -142 -8.5 -353 q-9.5 -211 -23.5 -313 q-8 -58 -24.5 -89 q-16.5 -31 -51.5 -44.5 q-35 -13.5 -99 -13.5 q-46 0 -94 6 l-16 81 q54 -9 90 -9 q47 0 69 7.5 q22 7.5 32 28.5 q10 21 15 67 q13 107 20 260 q7 153 6 290 l-206 0 q-2 -126 -5 -160 q-9 -155 -30 -248 q-21 -93 -67.5 -170.5 q-46.5 -77.5 -140.5 -180.5 l-69 54 q92 95 136 165 q44 70 63.5 155.5 q19.5 85.5 28.5 234.5 l4 150 l-134 0 l0 82 l505 0 Z" /><glyph glyph-name="uni5224" unicode="&#x5224;" d="M360 414 q0 -63 -3 -114 l215 0 l0 -77 l-223 0 q-15 -100 -57 -166.5 q-42 -66.5 -133 -145.5 l-63 53 q84 69 122 123.5 q38 54.5 52 135.5 l-212 0 l0 77 l221 0 q3 54 3 124 l-197 0 l0 77 l197 0 l0 333 l78 0 l0 -333 l192 0 l0 -77 l-192 0 l0 -10 ZM821 829 l77 0 l0 -768 q0 -65 -25.5 -92.5 q-25.5 -27.5 -94.5 -28.5 q-66 -2 -119 5 l-16 83 q49 -8 111 -8 q29 0 43 5.5 q14 5.5 19 20.5 q5 15 5 47 l0 736 ZM565 750 q-19 -38 -56 -104.5 q-37 -66.5 -62 -106.5 l-63 32 q28 43 64 107.5 q36 64.5 55 103.5 l62 -32 ZM180 543 q-19 40 -52 102 q-33 62 -55 99 l64 33 q22 -36 53.5 -95 q31.5 -59 54.5 -106 l-65 -33 ZM633 745 l79 0 l0 -594 l-79 0 l0 594 Z" /><glyph glyph-name="uni5225" unicode="&#x5225;" d="M812 826 l71 0 l0 -760 q0 -63 -27 -94.5 q-27 -31.5 -93 -31.5 q-58 0 -131 11 l-14 73 q26 -5 62 -9 q36 -4 64 -4 q38 0 53 15.5 q15 15.5 15 51.5 l0 748 ZM262 482 l-4 -123 l256 0 l-1 -35 q-5 -170 -11 -239 q-6 -72 -34.5 -101.5 q-28.5 -29.5 -92.5 -29.5 q-60 0 -121 9 l-14 66 q56 -11 108 -14 q43 -2 60 19 q17 21 22 75 q3 34 6 87.5 q3 53.5 3 91.5 l-185 0 q-5 -87 -19.5 -144.5 q-14.5 -57.5 -45.5 -107.5 q-31 -50 -89 -108 l-60 47 q60 56 89 105 q29 49 40 107.5 q11 58.5 15 158.5 q4 76 5 136 l-83 0 l0 306 l398 0 l0 -306 l-242 0 ZM617 743 l71 0 l0 -576 l-71 0 l0 576 ZM431 719 l-252 0 l0 -167 l252 0 l0 167 Z" /><glyph glyph-name="uni5229" unicode="&#x5229;" d="M820 829 l78 0 l0 -764 q0 -70 -24 -100 q-24 -30 -86 -30 q-69 0 -138 6 l-16 82 q75 -10 134 -10 q29 0 40.5 18.5 q11.5 18.5 11.5 61.5 l0 736 ZM344 423 q101 -88 192 -180 l-52 -67 q-71 85 -140 157 l0 -404 l-80 0 l0 405 q-67 -129 -180 -248 l-49 74 q135 128 218 312 l-192 0 l0 78 l203 0 l0 140 q-81 -12 -181 -24 l-10 76 q100 9 222.5 28 q122.5 19 205.5 39 l15 -75 q-66 -15 -172 -32 l0 -152 l188 0 l0 -78 l-188 0 l0 -49 ZM600 744 l79 0 l0 -598 l-79 0 l0 598 Z" /><glyph glyph-name="uni522B" unicode="&#x522b;" d="M810 826 l74 0 l0 -764 q0 -65 -27.5 -94 q-27.5 -29 -95.5 -30 q-66 -2 -119 5 l-14 78 q53 -8 99 -8 q34 0 50.5 4.5 q16.5 4.5 24.5 20.5 q8 16 8 51 l0 737 ZM291 480 l-4 -120 l232 0 q0 -57 -4 -140.5 q-4 -83.5 -11 -132.5 q-10 -72 -41.5 -101.5 q-31.5 -29.5 -104.5 -29.5 q-31 0 -93 4 l-16 73 q47 -7 82 -7 q37 0 56 7 q19 7 28.5 26.5 q9.5 19.5 14.5 59.5 q10 75 10 166 l-159 0 q-8 -82 -28 -140.5 q-20 -58.5 -54.5 -107.5 q-34.5 -49 -95.5 -113 l-66 51 q56 52 89 95.5 q33 43.5 51.5 94 q18.5 50.5 26.5 120.5 l-151 0 l0 75 l157 0 q0 14 2 46 q2 54 2 74 l-109 0 l0 310 l401 0 l0 -310 l-215 0 ZM615 743 l74 0 l0 -576 l-74 0 l0 576 ZM428 718 l-247 0 l0 -163 l247 0 l0 163 Z" /><glyph glyph-name="uni5230" unicode="&#x5230;" d="M820 825 l78 0 l0 -767 q0 -67 -21 -95 q-21 -28 -73 -29 l-30 0 q-62 0 -106 5 l-16 78 q67 -8 121 -7 q27 1 37 17.5 q10 16.5 10 56.5 l0 741 ZM479 443 q-41 -4 -125 -14 l0 -139 l189 0 l0 -75 l-189 0 l0 -148 q145 20 201 30 l8 -79 q-41 -4 -248 -34.5 q-207 -30.5 -251 -38.5 l-13 77 l224 33 l0 160 l-196 0 l0 75 l196 0 l0 130 l-106 -12 l-86 -10 l-18 70 q22 5 31 16 q29 35 69.5 96.5 q40.5 61.5 73.5 119.5 l-180 0 l0 77 l509 0 l0 -77 l-241 0 q-83 -142 -143 -224 q93 13 131 17 l131 17 q-27 53 -60 109 l62 34 q26 -44 63 -113.5 q37 -69.5 63 -124.5 l-66 -34 q-11 25 -29 62 ZM636 744 l76 0 l0 -597 l-76 0 l0 597 Z" /><glyph glyph-name="uni5236" unicode="&#x5236;" d="M375 627 l0 -118 l222 0 l0 -74 l-222 0 l0 -101 l190 0 l0 -255 q0 -44 -19.5 -66 q-19.5 -22 -62.5 -22 q-24 0 -70 6 l-14 67 q9 -1 28 -3.5 q19 -2.5 34 -2.5 q18 0 25.5 9 q7.5 9 7.5 32 l0 162 l-119 0 l0 -343 l-75 0 l0 343 l-122 0 l0 -276 l-71 0 l0 349 l193 0 l0 101 l-247 0 l0 74 l247 0 l0 118 l-123 0 q-18 -47 -37 -84 l-70 23 q55 119 78 234 l74 -12 q-7 -37 -22 -88 l100 0 l0 133 l75 0 l0 -133 l201 0 l0 -73 l-201 0 ZM832 821 l75 0 l0 -767 q0 -66 -26 -95.5 q-26 -29.5 -92 -29.5 q-47 0 -119 9 l-16 77 q70 -11 113 -11 q35 0 50 20 q15 20 15 60 l0 737 ZM657 739 l75 0 l0 -602 l-75 0 l0 602 Z" /><glyph glyph-name="uni5237" unicode="&#x5237;" d="M833 835 l74 0 l0 -783 q0 -44 -12.5 -69 q-12.5 -25 -41.5 -36.5 q-29 -11.5 -81 -11.5 q-39 0 -93 7 l-15 73 q51 -9 103 -9 q37 0 51.5 15 q14.5 15 14.5 51 l0 763 ZM586 536 l-399 0 l0 -80 q0 -152 -20.5 -269 q-20.5 -117 -68.5 -219 l-68 29 q48 97 67.5 208 q19.5 111 19.5 265 l0 324 l469 0 l0 -258 ZM665 753 l72 0 l0 -597 l-72 0 l0 597 ZM511 604 l0 121 l-324 0 l0 -121 l324 0 ZM435 504 l0 -95 l155 0 l0 -304 q0 -39 -7 -57.5 q-7 -18.5 -24.5 -25 q-17.5 -6.5 -52.5 -6.5 q-28 0 -45 4 l-12 63 q18 -4 40 -4 q18 0 25 9 q7 9 7 38 l0 215 l-89 0 l0 -412 l-68 0 l0 412 l-78 0 l0 -326 l-69 0 l0 394 l145 0 l0 95 l73 0 Z" /><glyph glyph-name="uni523A" unicode="&#x523a;" d="M362 837 l0 -104 l229 0 l0 -73 l-229 0 l0 -97 l191 0 l0 -203 q0 -55 -19 -74.5 q-19 -19.5 -66 -19.5 q-21 0 -63 4 l-14 67 q35 -6 69 -6 q28 0 28 48 l0 114 l-126 0 l0 -242 q107 -71 207 -147 l-40 -68 q-82 73 -167 140 l0 -256 l-73 0 l0 325 q-87 -159 -219 -263 l-37 75 q90 72 153.5 151 q63.5 79 102.5 171 l0 114 l-124 0 l0 -227 l-68 0 l0 297 l192 0 l0 97 l-238 0 l0 73 l238 0 l0 104 l73 0 ZM823 828 l76 0 l0 -766 q0 -66 -22.5 -95.5 q-22.5 -29.5 -75.5 -29.5 q-69 0 -119 5 l-14 78 q65 -7 111 -7 q23 0 33.5 17 q10.5 17 10.5 57 l0 741 ZM643 733 l73 0 l0 -572 l-73 0 l0 572 Z" /><glyph glyph-name="uni523B" unicode="&#x523b;" d="M52 198 q92 48 157.5 97 q65.5 49 117.5 110 l-64 -7 q-78 -11 -109 -12 q-17 -1 -48 -7 l-20 75 q30 8 47 26 q25 28 56 74.5 q31 46.5 55 92.5 l-182 0 l0 72 l241 0 q-2 6 -4.5 14 q-2.5 8 -5.5 17 q-19 57 -25 73 l74 18 q21 -53 42 -122 l212 0 l0 -72 l-268 0 q-24 -47 -56.5 -97.5 q-32.5 -50.5 -63.5 -90.5 q97 10 174 20 q36 54 70 119 l63 -34 q-79 -147 -178 -250.5 q-99 -103.5 -243 -179.5 l-42 64 ZM831 817 l78 0 l0 -767 q0 -65 -24 -92.5 q-24 -27.5 -89 -28.5 q-48 -1 -116 4 l-17 79 q56 -6 114 -6 q33 0 43.5 16 q10.5 16 10.5 58 l0 737 ZM646 729 l75 0 l0 -594 l-75 0 l0 594 ZM578 352 q-74 -118 -153 -199 q83 -70 181 -157 l-53 -66 q-33 35 -87 87.5 q-54 52.5 -92 85.5 q-114 -99 -288 -187 l-46 65 q169 81 277.5 174.5 q108.5 93.5 196.5 232.5 l64 -36 Z" /><glyph glyph-name="uni524D" unicode="&#x524d;" d="M945 713 l0 -73 l-897 0 l0 73 l264 0 q-39 78 -56 108 l77 22 q20 -33 67 -130 l192 0 q29 48 74 129 l78 -23 q-46 -77 -64 -106 l265 0 ZM784 575 l77 0 l0 -518 q0 -46 -10.5 -72 q-10.5 -26 -38 -38 q-27.5 -12 -78.5 -12 q-55 0 -115 6 l-14 76 q61 -8 109 -8 q43 0 56.5 15 q13.5 15 13.5 54 l0 497 ZM121 -67 l0 619 l362 0 l0 -508 q0 -45 -11.5 -68.5 q-11.5 -23.5 -37.5 -32.5 q-26 -9 -73 -9 q-32 0 -64 3 l-16 74 q36 -6 77 -6 q30 0 39 10.5 q9 10.5 9 41.5 l0 85 l-208 0 l0 -209 l-77 0 ZM589 535 l72 0 l0 -428 l-72 0 l0 428 ZM406 381 l0 97 l-208 0 l0 -97 l208 0 ZM198 310 l0 -97 l208 0 l0 97 l-208 0 Z" /><glyph glyph-name="uni529B" unicode="&#x529b;" d="M874 640 q0 -124 -8 -281 q-8 -157 -21 -263 q-7 -57 -25 -90 q-18 -33 -52.5 -48.5 q-34.5 -15.5 -92.5 -16.5 q-71 -1 -160 7 l-18 85 q92 -10 136 -10 q52 0 76.5 8 q24.5 8 35.5 31.5 q11 23.5 18 74.5 q23 186 23 420 l-319 0 q-11 -170 -44 -274 q-33 -104 -101.5 -183.5 q-68.5 -79.5 -200.5 -173.5 l-62 68 q126 87 190 155.5 q64 68.5 95 160.5 q31 92 40 247 l-285 0 l0 83 l289 0 q2 32 4 116 l3 85 l83 0 q0 -38 -7 -201 l403 0 Z" /><glyph glyph-name="uni529D" unicode="&#x529d;" d="M919 640 q-2 -132 -9 -288 q-7 -156 -18 -265 q-6 -55 -23 -84.5 q-17 -29.5 -50.5 -41.5 q-33.5 -12 -93.5 -12 q-52 0 -88 5 l-16 79 q54 -8 102 -8 q34 0 51.5 8 q17.5 8 26 27.5 q8.5 19.5 12.5 58.5 q10 93 16 218.5 q6 125.5 6 222.5 l-197 0 q-9 -188 -26.5 -286 q-17.5 -98 -64.5 -180 q-47 -82 -149 -185 l-67 61 q97 96 140.5 166.5 q43.5 70.5 60.5 160.5 q17 90 25 263 l-104 0 l0 80 l107 0 q2 40 2.5 69.5 q0.5 29.5 0.5 49.5 l2 79 l81 0 q-2 -131 -5 -198 l278 0 ZM352 90 l-70 128 q-71 -134 -187 -269 l-68 62 q136 147 207 291 q-86 151 -155 256 l62 44 q60 -93 131 -211 q42 116 60 262 l-259 0 l0 82 l338 0 l0 -82 q-26 -200 -88 -348 l18 -31 q70 -121 77 -134 l-66 -50 Z" /><glyph glyph-name="uni529E" unicode="&#x529e;" d="M884 171 q-63 143 -121 269 q-8 -207 -23 -350 q-7 -76 -38.5 -113 q-31.5 -37 -104.5 -40 q-12 -1 -37 -1 q-58 0 -111 7 l-16 83 q90 -8 134 -8 q48 0 69.5 23.5 q21.5 23.5 25.5 84.5 q9 99 16 227.5 q7 128.5 8 230.5 l-251 0 q-10 -189 -38 -295.5 q-28 -106.5 -91.5 -186 q-63.5 -79.5 -195.5 -179.5 l-59 67 q117 76 178 151.5 q61 75.5 89 176 q28 100.5 38 266.5 l-249 0 l0 76 l251 0 q2 58 4 110.5 q2 52.5 2 73.5 l82 -2 l-7 -182 l331 0 l-6 -205 l61 30 q25 -47 64.5 -130.5 q39.5 -83.5 67.5 -149.5 l-73 -34 ZM228 460 q-21 -76 -52 -151.5 q-31 -75.5 -65 -138.5 l-74 36 q82 157 117 282 l74 -28 Z" /><glyph glyph-name="uni529F" unicode="&#x529f;" d="M913 661 q1 -106 -6.5 -286.5 q-7.5 -180.5 -16.5 -270.5 q-7 -64 -22 -97 q-15 -33 -47.5 -47 q-32.5 -14 -93.5 -14 q-54 0 -110 6 l-17 77 q63 -10 115 -10 q37 0 55 9 q18 9 26.5 32.5 q8.5 23.5 13.5 74.5 q9 86 13.5 209 q4.5 123 4.5 237 l-198 0 q-5 -194 -24.5 -298.5 q-19.5 -104.5 -70 -184.5 q-50.5 -80 -160.5 -181 l-69 57 q111 100 158.5 171.5 q47.5 71.5 63.5 161.5 q16 90 21 274 l-117 0 l0 80 l119 0 l4 179 l80 0 l-1 -61 l-3 -118 l282 0 ZM429 185 q-29 -6 -187 -52.5 q-158 -46.5 -189 -57.5 l-18 81 q48 15 154 45 l0 463 l-130 0 l0 78 l337 0 l0 -78 l-127 0 l0 -440 q84 24 148 44 l12 -83 Z" /><glyph glyph-name="uni52A0" unicode="&#x52a0;" d="M282 841 q0 -76 -3 -175 l212 0 q0 -127 -6 -303.5 q-6 -176.5 -15 -276.5 q-5 -55 -19 -83.5 q-14 -28.5 -43.5 -40 q-29.5 -11.5 -84.5 -11.5 q-36 0 -72 6 l-18 82 q47 -9 78 -9 q31 0 46 6.5 q15 6.5 22.5 26 q7.5 19.5 11.5 61.5 q19 212 19 462 l-133 0 q-7 -173 -21.5 -279 q-14.5 -106 -46 -194 q-31.5 -88 -92.5 -191 l-73 43 q59 98 90 179.5 q31 81.5 45 181 q14 99.5 20 260.5 l-143 0 l0 80 l145 0 l2 175 l79 0 ZM580 -56 l0 777 l327 0 l0 -777 l-77 0 l0 72 l-171 0 l0 -72 l-79 0 ZM659 641 l0 -545 l171 0 l0 545 l-171 0 Z" /><glyph glyph-name="uni52A1" unicode="&#x52a1;" d="M583 504 q139 -53 371 -92 l-20 -78 q-140 27 -245.5 57.5 q-105.5 30.5 -189.5 70.5 q-175 -80 -428 -141 l-27 77 q215 44 373 108 q-83 50 -165 127 q-62 -58 -137 -106 l-44 56 q73 47 149.5 124 q76.5 77 122.5 146 l73 -30 q-21 -32 -53 -72 l464 0 l0 -66 q-110 -107 -244 -181 ZM305 684 q80 -86 192 -142 q128 63 212 142 l-404 0 ZM475 389 q-1 -6 -4.5 -36.5 q-3.5 -30.5 -8.5 -63.5 l381 0 q-9 -116 -30 -229 q-12 -65 -41.5 -95.5 q-29.5 -30.5 -88.5 -31.5 q-88 -2 -177 9 l-14 73 q78 -13 158 -13 q37 0 53.5 15 q16.5 15 27.5 60 q17 69 22 141 l-305 0 q-19 -69 -57.5 -119 q-38.5 -50 -104.5 -91 q-66 -41 -174 -84 l-46 66 q94 34 152.5 66.5 q58.5 32.5 93 71 q34.5 38.5 51.5 90.5 l-264 0 l0 71 l280 0 q10 66 12 101 l84 -1 Z" /><glyph glyph-name="uni52A8" unicode="&#x52a8;" d="M927 654 q-1 -172 -5 -316 q-4 -144 -15 -261 q-5 -52 -18.5 -78.5 q-13.5 -26.5 -41 -37 q-27.5 -10.5 -79.5 -10.5 q-38 0 -93 5 l-14 80 q58 -9 106 -9 q24 0 36.5 7 q12.5 7 19 26 q6.5 19 10.5 57 q9 96 11.5 201.5 q2.5 105.5 3.5 258.5 l-142 0 q-11 -193 -27.5 -296.5 q-16.5 -103.5 -53.5 -183 q-37 -79.5 -114 -173.5 l-69 51 q73 84 108.5 153 q35.5 69 52.5 168.5 q17 99.5 25 280.5 l-125 0 l0 77 l128 0 q2 60 4 188 l78 0 q0 -31 -1 -47 q0 -69 -3 -141 l218 0 ZM98 767 l364 0 l0 -75 l-364 0 l0 75 ZM436 37 l-21 61 q-103 -26 -289 -68 q-7 -1 -48 -9 l-29 82 q19 8 29.5 17.5 q10.5 9.5 18.5 24.5 q23 42 54.5 126 q31.5 84 54.5 162 l-153 0 l0 77 l440 0 l0 -77 l-206 0 q-24 -79 -58 -172.5 q-34 -93.5 -58 -140.5 q132 27 218 47 q-38 98 -70 160 l70 27 q25 -50 59.5 -132.5 q34.5 -82.5 57.5 -146.5 l-70 -38 Z" /><glyph glyph-name="uni52B1" unicode="&#x52b1;" d="M910 646 q-3 -358 -20 -574 q-4 -46 -15 -71 q-11 -25 -33 -35.5 q-22 -10.5 -61 -10.5 q-41 0 -70 5 l-14 74 q5 -1 25 -5 q20 -4 46 -4 q26 0 37 18 q11 18 16 67 q9 83 12.5 196.5 q3.5 113.5 5.5 264.5 l-108 0 q-7 -172 -22 -281.5 q-15 -109.5 -45.5 -192.5 q-30.5 -83 -85.5 -171 l-67 38 q55 87 84 162 q29 75 43 177 q14 102 19 268 l-91 0 l0 75 l93 0 l3 200 l73 0 l-2 -200 l177 0 ZM173 712 l0 -270 q0 -127 -5 -206 q-5 -79 -21.5 -152 q-16.5 -73 -51.5 -154 l-65 41 q45 98 59 193.5 q14 95.5 14 269.5 l0 353 l455 0 l0 -75 l-385 0 ZM518 411 q1 -66 -4 -166.5 q-5 -100.5 -12 -158.5 q-6 -46 -16 -70 q-10 -24 -29.5 -34.5 q-19.5 -10.5 -56.5 -10.5 q-41 0 -71 5 l-13 64 q40 -8 60 -8 q21 0 32 6 q11 6 17.5 22 q6.5 16 10.5 49 q13 111 13 229 l-117 0 q-14 -250 -115 -409 l-62 42 q61 92 84 200 q23 108 27 243 l3 113 l-66 0 l0 71 l330 0 l0 -71 l-197 0 q0 -80 -1 -116 l183 0 Z" /><glyph glyph-name="uni52BF" unicode="&#x52bf;" d="M59 540 q34 5 85 14 l84 14 l0 90 l-161 0 l0 69 l161 0 l0 109 l72 0 l0 -109 l107 0 l0 -69 l-107 0 l0 -77 q7 2 23 4 l77 16 l7 -71 l-107 -20 l0 -101 q0 -55 -19 -76 q-19 -21 -72 -21 q-45 0 -102 5 l-14 73 q60 -8 92 -8 q25 0 34 11 q9 11 9 39 l0 64 l-65 -12 l-95 -18 l-9 74 ZM965 509 q-17 -77 -30 -118 q-12 -42 -29 -61 q-17 -19 -43 -19 q-28 0 -51.5 23.5 q-23.5 23.5 -38.5 73.5 q-8 25 -14 80.5 q-6 55.5 -6 104.5 l0 60 l-122 0 q-5 -85 -21 -136 q83 -41 122 -62 l-31 -67 q-32 19 -120 65 q-19 -30 -49 -58 q-30 -28 -77 -62 l-61 53 q44 27 72.5 51 q28.5 24 46.5 50 q-50 23 -85 38 l29 61 l85 -37 q12 42 16 104 l-101 0 l0 72 l103 0 q1 14 1 51 l0 60 l75 0 l-2 -111 l191 0 l0 -127 q0 -49 3.5 -97 q3.5 -48 9.5 -71 q11 -36 26 -36 q7 0 14.5 11 q7.5 11 11.5 33 q12 52 19 93 l56 -22 ZM476 315 q-1 -21 -7 -55 l385 0 q-2 -43 -7.5 -98.5 q-5.5 -55.5 -12.5 -94.5 q-9 -47 -23 -72.5 q-14 -25.5 -41.5 -37.5 q-27.5 -12 -76.5 -14 q-14 -1 -41 -1 q-68 0 -125 7 l-14 75 q80 -11 153 -11 q46 0 65 16 q19 16 27 63 q9 50 12 98 l-313 0 q-16 -71 -54 -116.5 q-38 -45.5 -111.5 -79 q-73.5 -33.5 -203.5 -65.5 l-35 75 q116 28 178.5 51.5 q62.5 23.5 94 54.5 q31.5 31 44.5 80 l-266 0 l0 70 l278 0 q4 22 7 55 l87 0 Z" /><glyph glyph-name="uni52C7" unicode="&#x52c7;" d="M692 735 l-559 0 l0 66 l705 0 l0 -68 q-67 -30 -263 -112 l287 0 l0 -361 l-75 0 l0 55 l-249 0 l0 -41 l-76 0 l0 41 l-248 0 l0 -57 l-75 0 l0 363 l261 0 q-61 27 -126 51 l37 51 q99 -42 173 -77 l208 89 ZM462 498 l0 62 l-248 0 l0 -62 l248 0 ZM538 498 l249 0 l0 62 l-249 0 l0 -62 ZM214 436 l0 -61 l248 0 l0 61 l-248 0 ZM538 436 l0 -61 l249 0 l0 61 l-249 0 ZM883 216 q-3 -88 -18 -161 q-12 -62 -37.5 -85.5 q-25.5 -23.5 -75.5 -24.5 l-34 0 q-69 0 -119 5 l-15 67 q72 -7 124 -7 q26 0 39 3 q13 3 21 14 q8 11 16 37 q9 30 13 84 l-344 0 l-1 -2 q-22 -84 -104.5 -136 q-82.5 -52 -252.5 -89 l-33 64 q103 22 164.5 46 q61.5 24 93.5 51.5 q32 27.5 48 65.5 l-275 0 l0 68 l293 0 q5 25 7 50 l80 -1 q-1 -9 -7 -49 l417 0 Z" /><glyph glyph-name="uni5305" unicode="&#x5305;" d="M935 177 q-2 -29 -6 -62.5 q-4 -33.5 -8 -58.5 q-7 -42 -21 -62 q-14 -20 -43.5 -28.5 q-29.5 -8.5 -88.5 -12.5 q-102 -7 -233 -7 q-123 0 -220 7 q-56 4 -87 15 q-31 11 -46 38 q-15 27 -15 78 l0 417 q-30 -35 -57 -62 l-62 64 q73 70 131 158.5 q58 88.5 90 179.5 l86 -27 q-15 -38 -36 -79 l534 0 q1 -31 1 -96 q0 -99 -4 -200 q-4 -101 -10 -172 q-5 -54 -20.5 -83.5 q-15.5 -29.5 -45 -41.5 q-29.5 -12 -78.5 -12 q-16 0 -72 4 q-9 0 -33 2 l-10 78 q70 -7 101 -8 q31 -2 46 5.5 q15 7.5 21.5 25.5 q6.5 18 10.5 56 q14 156 14 300 q0 45 -1 66 l-494 0 q-37 -62 -78 -116 l405 0 l0 -307 l-362 0 l0 -132 q0 -31 8 -45.5 q8 -14.5 26 -20 q18 -5.5 57 -8.5 q92 -7 211 -7 q120 0 211 7 q37 3 53.5 9 q16.5 6 24 20 q7.5 14 11.5 45 q3 20 5.5 49 q2.5 29 2.5 47 l81 -23 ZM529 312 l0 153 l-285 0 l0 -153 l285 0 Z" /><glyph glyph-name="uni5306" unicode="&#x5306;" d="M900 718 q1 -112 -12.5 -310.5 q-13.5 -198.5 -30.5 -296.5 q-11 -62 -29 -96 q-18 -34 -51.5 -49 q-33.5 -15 -92.5 -17 q-72 -2 -129 5 l-17 83 q72 -8 108 -8 q49 0 72 8 q23 8 35.5 31.5 q12.5 23.5 22.5 76.5 q19 96 29 237 q10 141 9 258 l-125 0 q-19 -101 -40.5 -178.5 q-21.5 -77.5 -51.5 -143.5 q84 -44 149 -79 l-39 -76 l-23 13 q-94 52 -124 68 q-47 -80 -115.5 -153 q-68.5 -73 -169.5 -153 l-60 60 q95 70 160.5 139 q65.5 69 111.5 146 l-125 65 q-44 -69 -106 -130.5 q-62 -61.5 -153 -131.5 l-54 63 q80 58 138.5 115.5 q58.5 57.5 101.5 121.5 q-47 25 -96 50 l40 68 l97 -49 q43 84 69 185 l-123 0 q-80 -138 -187 -249 l-50 69 q74 79 140.5 184.5 q66.5 105.5 105.5 202.5 l82 -23 q-26 -63 -49 -106 l582 0 ZM525 355 q53 116 84 285 l-129 0 q-33 -129 -78 -221 l49 -26 q34 -16 74 -38 Z" /><glyph glyph-name="uni5316" unicode="&#x5316;" d="M372 814 q-39 -116 -97 -231 l0 -653 l-82 0 l0 513 q-48 -76 -121 -162 l-37 84 q77 93 146 220.5 q69 127.5 113 255.5 l78 -27 ZM939 249 q-1 -30 -3 -80.5 q-2 -50.5 -5 -91.5 q-5 -64 -33.5 -92.5 q-28.5 -28.5 -96.5 -32.5 q-42 -3 -85 -3 q-41 0 -85 3 q-69 5 -97.5 36 q-28.5 31 -28.5 107 l0 179 q-66 -44 -130 -81 l-43 75 q95 54 173 111 l0 455 l83 0 l0 -392 q139 112 276 268 l61 -62 q-169 -186 -337 -314 l0 -219 q0 -43 13 -61 q13 -18 51 -22 q33 -3 67 -3 q33 0 66 3 q37 4 52.5 20.5 q15.5 16.5 17.5 55.5 q2 37 3.5 85.5 q1.5 48.5 1.5 75.5 l79 -20 Z" /><glyph glyph-name="uni531A" unicode="&#x531a;" d="M119 779 l782 0 l0 -83 l-698 0 l0 -650 l708 0 l0 -82 l-792 0 l0 815 Z" /><glyph glyph-name="uni5321" unicode="&#x5321;" d="M192 710 l0 -668 l736 0 l0 -79 l-818 0 l0 827 l809 0 l0 -80 l-727 0 ZM245 143 l0 73 l278 0 l0 130 l-234 0 l0 71 l234 0 l0 123 l-260 0 l0 72 l600 0 l0 -72 l-259 0 l0 -123 l233 0 l0 -71 l-233 0 l0 -130 l279 0 l0 -73 l-638 0 Z" /><glyph glyph-name="uni533A" unicode="&#x533a;" d="M200 717 l0 -674 l745 0 l0 -79 l-824 0 l0 829 l805 0 l0 -76 l-726 0 ZM253 167 q137 88 267 218 q-135 129 -239 219 l53 55 q97 -84 239 -220 q107 115 188 233 l66 -47 q-97 -131 -199 -239 q109 -104 227 -222 l-60 -61 q-82 94 -220 228 q-134 -138 -271 -233 l-51 69 Z" /><glyph glyph-name="uni5341" unicode="&#x5341;" d="M542 492 l404 0 l0 -85 l-404 0 l0 -477 l-85 0 l0 477 l-403 0 l0 85 l403 0 l0 347 l85 0 l0 -347 Z" /><glyph glyph-name="uni5347" unicode="&#x5347;" d="M952 468 l0 -80 l-209 0 l0 -457 l-82 0 l0 457 l-291 0 q-3 -117 -23.5 -194 q-20.5 -77 -69.5 -139.5 q-49 -62.5 -140 -130.5 l-68 64 q92 65 136.5 117.5 q44.5 52.5 61.5 115 q17 62.5 19 167.5 l-231 0 l0 80 l231 0 l0 214 q-87 -16 -188 -30 l-16 78 q108 13 241 37.5 q133 24.5 225 48.5 l19 -76 q-56 -14 -196 -43 l0 -229 l290 0 l0 367 l82 0 l0 -367 l209 0 Z" /><glyph glyph-name="uni534A" unicode="&#x534a;" d="M540 251 l406 0 l0 -76 l-406 0 l0 -244 l-81 0 l0 244 l-405 0 l0 76 l405 0 l0 146 l-362 0 l0 77 l362 0 l0 365 l81 0 l0 -365 l364 0 l0 -77 l-364 0 l0 -146 ZM303 534 q-34 45 -86 104.5 q-52 59.5 -93 100.5 l60 54 q41 -40 95 -100 q54 -60 89 -104 l-65 -55 ZM874 740 q-70 -90 -184 -206 l-61 52 q48 50 98.5 107 q50.5 57 81.5 99 l65 -52 Z" /><glyph glyph-name="uni534E" unicode="&#x534e;" d="M211 569 q-53 -57 -113 -109 l-40 71 q79 64 144 144.5 q65 80.5 110 170.5 l72 -31 q-49 -89 -94 -150 l0 -356 l-79 0 l0 260 ZM358 546 q73 22 161 56 l0 224 l78 0 l0 -191 q146 65 267 154 l39 -64 q-136 -101 -306 -175 l0 -63 q0 -38 14.5 -52 q14.5 -14 50.5 -17 q36 -2 53 -2 q31 0 61 3 q45 5 61 17.5 q16 12.5 18 50.5 q4 68 4 88 l74 -23 q-3 -50 -7 -93 q-5 -46 -17.5 -68.5 q-12.5 -22.5 -38.5 -31.5 q-26 -9 -79 -14 q-54 -4 -82 -4 q-28 0 -82 4 q-41 4 -63.5 14 q-22.5 10 -33.5 34 q-11 24 -11 68 l0 57 q-78 -30 -127 -46 l-34 74 ZM542 227 l399 0 l0 -79 l-399 0 l0 -229 l-82 0 l0 229 l-397 0 l0 79 l397 0 l0 103 l82 0 l0 -103 Z" /><glyph glyph-name="uni534F" unicode="&#x534f;" d="M891 207 l-17 70 q-8 34 -19.5 80 q-11.5 46 -24.5 97 q-3 -104 -10 -206 q-7 -102 -15 -167 q-7 -55 -21 -84.5 q-14 -29.5 -40.5 -42.5 q-26.5 -13 -72.5 -13 q-59 0 -100 5 l-18 81 q51 -9 102 -9 q25 0 38 7.5 q13 7.5 20 27 q7 19.5 13 60.5 q13 88 19.5 212.5 q6.5 124.5 7.5 255.5 l-161 0 l0 -7 q-6 -171 -28 -278.5 q-22 -107.5 -72 -193 q-50 -85.5 -144 -180.5 l-65 48 q89 87 136 169.5 q47 82.5 67.5 182 q20.5 99.5 28.5 256.5 l0 3 l-147 0 l0 78 l150 0 q2 56 4 182 l76 0 q-2 -124 -4 -182 l240 0 q0 -104 -4 -203 l71 21 q26 -93 62 -249 l-72 -21 ZM328 575 l0 -79 l-109 0 l0 -567 l-78 0 l0 567 l-99 0 l0 79 l99 0 l0 264 l78 0 l0 -264 l109 0 ZM450 468 q-21 -68 -50.5 -143.5 q-29.5 -75.5 -57.5 -131.5 l-72 34 q62 113 108 264 l72 -23 Z" /><glyph glyph-name="uni5355" unicode="&#x5355;" d="M942 173 l0 -76 l-402 0 l0 -172 l-80 0 l0 172 l-402 0 l0 76 l402 0 l0 103 l-309 0 l0 422 l195 0 q-56 74 -87 107 l63 40 q29 -30 95 -119 l-43 -28 l196 0 q36 45 103 147 l73 -32 l-19 -28 q-10 -15 -25.5 -37 q-15.5 -22 -36.5 -50 l184 0 l0 -422 l-309 0 l0 -103 l402 0 ZM460 522 l0 104 l-230 0 l0 -104 l230 0 ZM540 522 l230 0 l0 104 l-230 0 l0 -104 ZM230 451 l0 -105 l230 0 l0 105 l-230 0 ZM540 451 l0 -105 l230 0 l0 105 l-230 0 Z" /><glyph glyph-name="uni5357" unicode="&#x5357;" d="M941 662 l-405 0 l0 -92 l342 0 l0 -512 q0 -47 -9.5 -73 q-9.5 -26 -32 -37 q-22.5 -11 -63.5 -11 q-71 0 -122 5 l-14 75 q63 -7 107 -7 q35 0 45.5 13.5 q10.5 13.5 10.5 52.5 l0 422 l-612 0 l0 -560 l-78 0 l0 632 l345 0 l0 92 l-407 0 l0 75 l407 0 l0 106 l81 0 l0 -106 l405 0 l0 -75 ZM757 134 l-225 0 l0 -175 l-76 0 l0 175 l-219 0 l0 63 l219 0 l0 89 l-198 0 l0 63 l119 0 q-52 70 -71 89 l55 42 q21 -23 50.5 -59 q29.5 -36 42.5 -54 l-24 -18 l93 0 q60 74 97 132 l62 -37 q-30 -44 -71 -95 l124 0 l0 -63 l-203 0 l0 -89 l225 0 l0 -63 Z" /><glyph glyph-name="uni535A" unicode="&#x535a;" d="M604 615 l0 67 l-265 0 l0 65 l265 0 l0 92 l68 0 l0 -92 l131 0 q-14 33 -35 75 l60 19 q21 -43 40 -94 l82 0 l0 -65 l-278 0 l0 -67 l235 0 l0 -360 l-74 0 l0 52 l-161 0 l0 -46 l-68 0 l0 46 l-164 0 l0 -52 l-72 0 l0 360 l236 0 ZM318 594 l0 -72 l-96 0 l0 -592 l-73 0 l0 592 l-103 0 l0 72 l103 0 l0 243 l73 0 l0 -243 l96 0 ZM604 490 l0 65 l-164 0 l0 -65 l164 0 ZM833 490 l0 65 l-161 0 l0 -65 l161 0 ZM440 432 l0 -67 l164 0 l0 67 l-164 0 ZM672 432 l0 -67 l161 0 l0 67 l-161 0 ZM959 207 l0 -66 l-132 0 l0 -94 q0 -63 -18.5 -87.5 q-18.5 -24.5 -68.5 -24.5 q-61 0 -105 5 l-13 69 q56 -7 96 -7 q22 0 29.5 15.5 q7.5 15.5 7.5 52.5 l0 71 l-286 0 q30 -20 68 -49 q38 -29 65 -53 l-45 -56 q-60 57 -138 109 l38 49 l-148 0 l0 66 l446 0 l0 57 l72 0 l0 -57 l132 0 Z" /><glyph glyph-name="uni5360" unicode="&#x5360;" d="M929 692 l0 -81 l-420 0 l0 -184 l342 0 l0 -494 l-83 0 l0 61 l-535 0 l0 -61 l-82 0 l0 494 l273 0 l0 413 l85 0 l0 -148 l420 0 ZM233 73 l535 0 l0 271 l-535 0 l0 -271 Z" /><glyph glyph-name="uni5361" unicode="&#x5361;" d="M945 388 l-435 0 l0 -54 q71 -32 193 -98.5 q122 -66.5 172 -98.5 l-41 -73 q-54 35 -152.5 91.5 q-98.5 56.5 -171.5 92.5 l0 -322 l-82 0 l0 462 l-375 0 l0 79 l375 0 l0 372 l81 0 l0 -130 l342 0 l0 -77 l-342 0 l0 -165 l436 0 l0 -79 Z" /><glyph glyph-name="uni5370" unicode="&#x5370;" d="M477 753 q-66 -26 -142.5 -49.5 q-76.5 -23.5 -136.5 -35.5 l0 -185 l267 0 l0 -82 l-267 0 l0 -266 l267 83 l5 -89 q-131 -37 -273 -82 l-74 -24 l-34 74 q16 11 22.5 21.5 q6.5 10.5 6.5 24.5 l0 592 q69 13 166.5 40.5 q97.5 27.5 166.5 53.5 l26 -76 ZM529 760 l384 0 l0 -575 q0 -71 -25 -99.5 q-25 -28.5 -76 -28.5 q-54 0 -110 6 l-16 80 q51 -8 97 -8 q30 0 40 17.5 q10 17.5 10 64.5 l0 463 l-223 0 l0 -751 l-81 0 l0 831 Z" /><glyph glyph-name="uni5373" unicode="&#x5373;" d="M382 299 q27 -44 68.5 -127 q41.5 -83 72.5 -149 l-71 -32 q-17 40 -52 113 q-147 -63 -226 -100 l-61 -29 l-41 67 q19 16 26.5 28 q7.5 12 7.5 29 l0 700 l366 0 l0 -468 l-294 0 l0 -242 l188 84 q-13 27 -49 96 l65 30 ZM575 789 l323 0 l0 -595 q0 -64 -21 -92 q-21 -28 -70 -28 q-58 0 -101 5 l-15 81 q43 -8 83 -8 q27 0 37 17.5 q10 17.5 10 54.5 l0 484 l-170 0 l0 -776 l-76 0 l0 857 ZM398 604 l0 124 l-220 0 l0 -124 l220 0 ZM178 534 l0 -132 l220 0 l0 132 l-220 0 Z" /><glyph glyph-name="uni5374" unicode="&#x5374;" d="M436 305 q23 -50 60 -142.5 q37 -92.5 60 -157.5 l-77 -34 q-9 27 -26 74 q-78 -11 -155.5 -22 q-77.5 -11 -155.5 -22 l-71 -11 l-22 82 q26 8 44 30 q23 28 61.5 104 q38.5 76 68.5 150 l-179 0 l0 81 l219 0 l0 164 l-181 0 l0 80 l181 0 l0 163 l80 0 l0 -163 l179 0 l0 -80 l-179 0 l0 -164 l207 0 l0 -81 l-242 0 q-28 -70 -68 -151.5 q-40 -81.5 -71 -131.5 l130 21 q86 14 129 20 q-40 105 -62 158 l70 33 ZM593 763 l337 0 l0 -582 q0 -67 -22.5 -94 q-22.5 -27 -73.5 -27 q-59 0 -100 5 l-17 80 q49 -7 84 -7 q28 0 39.5 17 q11.5 17 11.5 58 l0 467 l-180 0 l0 -756 l-79 0 l0 839 Z" /><glyph glyph-name="uni539A" unicode="&#x539a;" d="M948 795 l0 -69 l-727 0 l0 -196 q0 -180 -9 -278 q-9 -98 -32.5 -166 q-23.5 -68 -74.5 -157 l-74 41 q50 81 73 146.5 q23 65.5 30.5 154 q7.5 88.5 7.5 252.5 l0 272 l806 0 ZM879 672 l0 -277 l-568 0 l0 277 l568 0 ZM801 561 l0 53 l-412 0 l0 -53 l412 0 ZM389 507 l0 -55 l412 0 l0 55 l-412 0 ZM956 185 l0 -63 l-311 0 l0 -79 q0 -45 -10.5 -67.5 q-10.5 -22.5 -36 -31.5 q-25.5 -9 -76.5 -9 q-48 0 -115 7 l-14 67 q59 -9 118 -9 q33 0 44 12.5 q11 12.5 11 44.5 l0 65 l-334 0 l0 63 l334 0 l0 28 l167 65 l-432 0 l0 63 l586 0 l0 -62 l-239 -94 l308 0 Z" /><glyph glyph-name="uni539F" unicode="&#x539f;" d="M866 257 l-227 0 l0 -208 q0 -63 -23.5 -88 q-23.5 -25 -86.5 -25 q-58 0 -115 6 l-15 75 q61 -9 103 -9 q34 0 46.5 17.5 q12.5 17.5 12.5 54.5 l0 177 l-242 0 l0 363 l188 0 l32 96 l-321 0 l0 -256 q0 -139 -9.5 -230.5 q-9.5 -91.5 -32.5 -163.5 q-23 -72 -67 -149 l-73 54 q43 78 64.5 140 q21.5 62 29.5 139.5 q8 77.5 8 206.5 l0 335 l805 0 l0 -76 l-326 0 q-14 -51 -30 -96 l279 0 l0 -363 ZM793 472 l0 82 l-400 0 l0 -82 l400 0 ZM793 406 l-400 0 l0 -83 l400 0 l0 83 ZM451 183 q-30 -51 -80 -116.5 q-50 -65.5 -100 -122.5 l-60 56 q52 53 98.5 112.5 q46.5 59.5 76.5 111.5 l65 -41 ZM764 217 q86 -94 186 -208 l-61 -50 q-48 58 -183 212 l58 46 Z" /><glyph glyph-name="uni53BB" unicode="&#x53bb;" d="M498 332 q-48 -72 -114.5 -156.5 q-66.5 -84.5 -114.5 -133.5 l227 18 q157 12 227 17 q-60 84 -122 164 l64 46 q47 -57 120.5 -157 q73.5 -100 115.5 -163 l-69 -51 q-21 34 -57 86 q-322 -16 -559 -42 q-50 -5 -81 -9 l-27 82 q29 8 43 15.5 q14 7.5 28 18.5 q38 33 101 111.5 q63 78.5 115 153.5 l-347 0 l0 75 l412 0 l0 200 l-346 0 l0 78 l346 0 l0 160 l79 0 l0 -160 l344 0 l0 -78 l-344 0 l0 -200 l410 0 l0 -75 l-451 0 Z" /><glyph glyph-name="uni53C2" unicode="&#x53c2;" d="M679 455 q53 -57 122.5 -101 q69.5 -44 163.5 -76 l-34 -76 q-115 48 -198.5 109 q-83.5 61 -143.5 144 l-178 0 q-62 -78 -137.5 -133 q-75.5 -55 -201.5 -119 l-40 69 q94 40 159.5 82.5 q65.5 42.5 118.5 100.5 l-250 0 l0 70 l306 0 q25 33 55 83 l-146 -6 q-30 -2 -43 -2 l-80 -5 l-18 65 q20 2 33 6 q13 4 25 12 q45 28 116.5 82.5 q71.5 54.5 122.5 98.5 l58 -48 q-106 -88 -202 -151 l407 18 q-62 47 -106 78 l44 55 q52 -37 127.5 -93.5 q75.5 -56.5 123.5 -95.5 l-43 -58 l-70 55 l-254 -7 q-27 -48 -54 -87 l476 0 l0 -70 l-259 0 ZM614 338 q-158 -82 -357 -123 l-24 68 q97 19 190 49.5 q93 30.5 164 67.5 l27 -62 ZM161 132 q322 63 536 173 l31 -64 q-104 -53 -237 -95 q-133 -42 -307 -77 l-23 63 ZM103 -16 q254 36 415.5 84 q161.5 48 301.5 124 l36 -62 q-139 -75 -310.5 -125.5 q-171.5 -50.5 -415.5 -88.5 l-27 68 Z" /><glyph glyph-name="uni53C8" unicode="&#x53c8;" d="M918 -75 q-137 54 -239 109 q-102 55 -179 119 q-74 -59 -172 -112 q-98 -53 -230 -107 l-43 83 q128 54 219 101.5 q91 47.5 157 97.5 q-85 87 -143.5 202 q-58.5 115 -104.5 276 l-71 0 l0 83 l719 0 l0 -83 q-51 -165 -112.5 -279.5 q-61.5 -114.5 -150.5 -202.5 q71 -56 164.5 -104 q93.5 -48 218.5 -93 l-33 -90 ZM271 694 q42 -141 96 -242.5 q54 -101.5 132 -179.5 q83 77 138 175.5 q55 98.5 103 246.5 l-469 0 Z" /><glyph glyph-name="uni53CA" unicode="&#x53ca;" d="M913 -71 q-184 84 -312 185 q-132 -104 -356 -193 l-42 75 q211 80 334 173 q-133 125 -205 293 q-16 -156 -68 -276 q-52 -120 -159 -250 l-70 49 q77 90 123 170.5 q46 80.5 70 171 q24 90.5 31 209.5 l7 170 l-166 0 l0 78 l678 0 l0 -80 l-115 -174 l195 0 l0 -76 q-38 -87 -85.5 -157.5 q-47.5 -70.5 -109.5 -129.5 q119 -87 298 -160 l-48 -78 ZM343 635 q40 -132 102.5 -234 q62.5 -102 152.5 -182 q102 95 170 235 l-210 0 l0 68 l119 184 l-331 0 l-3 -71 Z" /><glyph glyph-name="uni53CB" unicode="&#x53cb;" d="M923 -78 q-110 39 -194 81 q-84 42 -149 91 q-132 -93 -352 -175 l-44 79 q202 68 329 152 q-102 98 -173 247 q-80 -259 -253 -454 l-65 65 q122 134 188.5 289.5 q66.5 155.5 95.5 333.5 l-238 0 l0 79 l249 0 q8 59 13 134 l89 -5 q-4 -64 -12 -129 l544 0 l0 -79 l-556 0 q-12 -75 -26 -129 l474 0 l0 -77 q-38 -86 -85.5 -154 q-47.5 -68 -110.5 -124 q118 -81 311 -140 l-35 -85 ZM411 425 q73 -141 169 -226 q114 93 177 226 l-346 0 Z" /><glyph glyph-name="uni53CC" unicode="&#x53cc;" d="M384 82 l-84 145 q-73 -129 -208 -282 l-60 68 q141 151 217 299 q-106 178 -170 278 l65 42 q75 -118 146 -233 q52 129 76 291 l-302 0 l0 82 l383 0 l0 -82 q-17 -115 -41.5 -206 q-24.5 -91 -61.5 -172 q43 -70 107 -180 l-67 -50 ZM739 229 q41 -62 98 -118 q57 -56 136 -113 l-55 -72 q-149 116 -230 232 q-49 -61 -116.5 -119.5 q-67.5 -58.5 -159.5 -122.5 l-56 71 q98 63 167.5 122 q69.5 59 118.5 122 q-50 90 -81 200 q-31 110 -50 261 l-25 0 l0 80 l407 0 l0 -80 q-27 -156 -62 -265 q-35 -109 -92 -198 ZM590 692 q18 -125 42.5 -217.5 q24.5 -92.5 60.5 -166.5 q42 74 69.5 164.5 q27.5 90.5 49.5 219.5 l-222 0 Z" /><glyph glyph-name="uni53CD" unicode="&#x53cd;" d="M924 -66 q-210 72 -337 166 q-126 -94 -335 -167 l-47 79 q191 59 315 145 q-63 60 -113 135.5 q-50 75.5 -91 173.5 l-60 0 q-1 -136 -12.5 -221.5 q-11.5 -85.5 -41 -155.5 q-29.5 -70 -88.5 -156 l-77 47 q61 85 89 149.5 q28 64.5 38.5 143 q10.5 78.5 10.5 214.5 l0 272 q441 18 708 58 l16 -82 q-278 -35 -643 -52 l0 -142 l603 0 l0 -75 q-42 -98 -92 -174 q-50 -76 -114 -136 q124 -86 313 -139 l-42 -83 ZM400 466 q71 -158 186 -258 q118 105 180 258 l-366 0 Z" /><glyph glyph-name="uni53D1" unicode="&#x53d1;" d="M798 665 q-67 42 -195 115 l42 66 q68 -36 194 -113 l-41 -68 ZM910 -77 q-214 73 -335 156 q-62 -42 -143.5 -79.5 q-81.5 -37.5 -196.5 -77.5 l-34 75 q196 65 306 133 q-93 80 -154 190 q-43 -98 -106.5 -187.5 q-63.5 -89.5 -155.5 -183.5 l-58 68 q121 116 196 246 q75 130 118 294 l-239 0 l0 69 q11 36 26 95 q15 59 22 94 l79 -17 q-24 -111 -41 -165 l171 0 q22 101 35 206 l81 -6 q-18 -126 -33 -200 l489 0 l0 -76 l-505 0 q-15 -61 -33 -117 l422 0 l0 -70 q-39 -77 -82.5 -135.5 q-43.5 -58.5 -97.5 -105.5 q121 -75 305 -126 l-36 -80 ZM411 369 q65 -114 163 -192 q97 76 156 192 l-319 0 Z" /><glyph glyph-name="uni53D6" unicode="&#x53d6;" d="M537 123 l-79 -12 l1 -187 l-75 0 l-1 174 q-126 -21 -336 -58 l-8 79 q32 4 92 14 l0 587 l-64 0 l0 76 l451 0 l0 -76 l-63 0 l3 -530 l75 14 l4 -81 ZM777 224 q69 -115 193 -215 l-53 -67 q-113 96 -185 206 q-71 -106 -184 -206 l-52 64 q124 104 193 218 q-45 89 -72.5 196 q-27.5 107 -45.5 250 l-31 0 l0 79 l367 0 l0 -79 q-24 -146 -53 -251.5 q-29 -105.5 -77 -194.5 ZM381 580 l-1 140 l-172 0 l0 -140 l173 0 ZM646 670 q13 -111 34 -199.5 q21 -88.5 53 -161.5 q32 72 53.5 157.5 q21.5 85.5 40.5 203.5 l-181 0 ZM381 508 l-173 0 l0 -135 l174 0 l-1 135 ZM208 301 l0 -155 l175 31 l-1 124 l-174 0 Z" /><glyph glyph-name="uni53D7" unicode="&#x53d7;" d="M884 743 q-150 -13 -385.5 -26.5 q-235.5 -13.5 -384.5 -18.5 l-11 72 q168 5 398.5 18.5 q230.5 13.5 365.5 28.5 l17 -74 ZM164 470 l0 -131 l-74 0 l0 201 l167 0 q-24 43 -74 126 l65 34 q17 -25 81 -130 l-62 -30 l390 0 q24 37 53 91 q29 54 45 89 l70 -26 q-29 -63 -84 -154 l167 0 l0 -201 l-72 0 l0 131 l-672 0 ZM499 712 q5 -8 10 -18 q5 -10 11 -20 q20 -34 56 -100 l-69 -34 q-18 40 -76 137 l68 35 ZM927 -70 q-254 46 -420 132 q-160 -79 -436 -137 l-28 78 q245 45 383 106 q-113 73 -200 182 l-26 0 l0 72 l589 0 l0 -72 q-85 -111 -201 -184 q156 -67 367 -99 l-28 -78 ZM325 291 q75 -82 180 -143 q100 58 173 143 l-353 0 Z" /><glyph glyph-name="uni53D8" unicode="&#x53d8;" d="M355 398 l0 258 l-284 0 l0 74 l401 0 q-25 57 -48 100 l81 29 q28 -54 56 -129 l369 0 l0 -74 l-284 0 l0 -258 l-75 0 l0 258 l-141 0 l0 -258 l-75 0 ZM310 559 q-40 -48 -103 -104 q-63 -56 -125 -98 l-45 63 q58 40 119 91.5 q61 51.5 103 97.5 l51 -50 ZM739 609 q38 -25 108.5 -79 q70.5 -54 115.5 -93 l-46 -63 q-47 42 -113 94 q-66 52 -112 84 l47 57 ZM816 289 q-47 -65 -101 -115.5 q-54 -50.5 -125 -90.5 q147 -57 367 -87 l-28 -78 q-260 42 -424 121 q-152 -68 -423 -124 l-28 75 q218 38 366 96 q-126 80 -205 201 l-67 0 l0 70 l668 0 l0 -68 ZM302 287 q82 -102 199 -164 q130 66 207 164 l-406 0 Z" /><glyph glyph-name="uni53DB" unicode="&#x53db;" d="M442 224 l-163 0 q-8 -71 -26.5 -122.5 q-18.5 -51.5 -50.5 -97.5 q-32 -46 -88 -105 l-57 61 q49 49 76.5 85 q27.5 36 44.5 78 q17 42 25 101 l-161 0 l0 77 l168 0 q3 50 3 113 l-146 0 l0 74 l146 0 l0 350 l74 0 l0 -350 l134 0 l0 -74 l-134 0 q0 -45 -2 -113 l157 0 l0 -77 ZM777 153 q70 -91 189 -166 l-39 -72 q-120 82 -196 180 q-77 -90 -214 -186 l-50 67 q74 49 127 93.5 q53 44.5 92 90.5 q-80 129 -119 317 l-13 0 q0 -135 -16 -233.5 q-16 -98.5 -51.5 -177 q-35.5 -78.5 -95.5 -152.5 l-64 53 q57 69 90 138 q33 69 48 159 q15 90 15 220 l0 268 q98 6 212 23 q114 17 215 39 l17 -76 q-193 -42 -370 -59 l0 -126 l353 0 l0 -77 q-21 -101 -52.5 -179.5 q-31.5 -78.5 -77.5 -143.5 ZM456 740 q-15 -43 -43 -106.5 q-28 -63.5 -50 -105.5 l-60 34 q23 45 49 105 q26 60 39 101 l65 -28 ZM130 534 q-32 83 -86 203 l59 30 l25 -56 q49 -108 64 -148 l-62 -29 ZM637 477 q37 -158 94 -257 q35 53 59 115.5 q24 62.5 41 141.5 l-194 0 Z" /><glyph glyph-name="uni53E0" unicode="&#x53e0;" d="M105 663 q125 7 229 21 l-163 23 l12 44 q103 -15 314 -43 q120 22 219 52 l-580 0 l0 51 l702 0 l0 -54 q-104 -40 -210 -67 l51 -7 l178 -24 l-10 -48 l-354 50 q-160 -29 -374 -47 l-14 49 ZM61 450 q90 13 123 20 l-69 17 l16 44 l156 -37 q62 19 109 49 l-305 0 l0 50 l394 0 l0 -48 q-44 -37 -121 -69 q90 -20 115 -27 l-18 -47 l-57 14 l-124 31 q-85 -27 -197 -43 l-22 46 ZM896 593 l0 -50 q-46 -34 -124 -67 q127 -27 159 -34 l-14 -48 q-35 10 -225 51 q-88 -30 -170 -48 l-21 45 q52 12 96 24 l-80 17 l15 44 l158 -34 q70 24 117 50 l-289 0 l0 50 l378 0 ZM906 380 l0 -147 l-68 0 l0 96 l-686 0 l0 -96 l-66 0 l0 147 l820 0 ZM800 283 l0 -275 l140 0 l0 -59 l-889 0 l0 59 l140 0 l0 275 l609 0 ZM731 188 l0 45 l-470 0 l0 -45 l470 0 ZM261 98 l470 0 l0 43 l-470 0 l0 -43 ZM731 53 l-470 0 l0 -45 l470 0 l0 45 Z" /><glyph glyph-name="uni53E3" unicode="&#x53e3;" d="M141 -58 l0 804 l717 0 l0 -799 l-83 0 l0 88 l-550 0 l0 -93 l-84 0 ZM225 659 l0 -538 l550 0 l0 538 l-550 0 Z" /><glyph glyph-name="uni53E4" unicode="&#x53e4;" d="M941 670 l0 -77 l-399 0 l0 -194 l282 0 l0 -475 l-80 0 l0 67 l-489 0 l0 -67 l-80 0 l0 475 l283 0 l0 194 l-399 0 l0 77 l399 0 l0 165 l84 0 l0 -165 l399 0 ZM255 69 l489 0 l0 250 l-489 0 l0 -250 Z" /><glyph glyph-name="uni53E5" unicode="&#x53e5;" d="M884 731 l0 -80 q0 -261 -16 -563 q-3 -58 -18.5 -90 q-15.5 -32 -50.5 -46 q-35 -14 -98 -14 q-83 0 -142 5 l-17 85 q69 -8 129 -8 q44 0 66.5 7.5 q22.5 7.5 32 27 q9.5 19.5 12.5 58.5 q16 214 16 445 q0 60 -1 88 l-515 0 q-79 -130 -190 -241 l-59 67 q81 81 146.5 177.5 q65.5 96.5 109.5 196.5 l82 -24 q-22 -52 -42 -91 l555 0 ZM201 510 l411 0 l0 -406 l-411 0 l0 406 ZM282 185 l246 0 l0 243 l-246 0 l0 -243 Z" /><glyph glyph-name="uni53EA" unicode="&#x53ea;" d="M161 780 l676 0 l0 -464 l-676 0 l0 464 ZM242 702 l0 -306 l514 0 l0 306 l-514 0 ZM40 -2 q75 47 157 119.5 q82 72.5 143 142.5 l64 -60 q-57 -69 -140.5 -145 q-83.5 -76 -160.5 -130 l-63 73 ZM656 260 q68 -56 184 -160 l111 -97 l-64 -74 q-60 59 -146 138 q-86 79 -145 128 l60 65 Z" /><glyph glyph-name="uni53EF" unicode="&#x53ef;" d="M955 779 l0 -77 l-132 0 l0 -619 q0 -58 -12 -88 q-12 -30 -44 -42.5 q-32 -12.5 -95 -12.5 q-75 0 -129 5 l-16 78 q74 -8 138 -8 q33 0 49.5 8 q16.5 8 23 27 q6.5 19 6.5 55 l0 597 l-694 0 l0 77 l905 0 ZM161 555 l404 0 l0 -394 l-404 0 l0 394 ZM237 237 l251 0 l0 241 l-251 0 l0 -241 Z" /><glyph glyph-name="uni53F0" unicode="&#x53f0;" d="M674 743 q51 -51 133 -143.5 q82 -92.5 132 -155.5 l-62 -54 q-10 13 -57 71 l-16 19 q-160 -12 -320.5 -24 q-160.5 -12 -320.5 -25 l-69 -5 l-22 83 q37 6 54 11.5 q17 5.5 30 15.5 q57 44 141 143 q84 99 135 176 l73 -42 q-55 -78 -127 -165.5 q-72 -87.5 -124 -133.5 q88 8 245 19 l244 18 q-82 94 -128 140 l59 52 ZM246 -74 l-81 0 l0 418 l667 0 l0 -418 l-81 0 l0 54 l-505 0 l0 -54 ZM751 56 l0 209 l-505 0 l0 -209 l505 0 Z" /><glyph glyph-name="uni53F3" unicode="&#x53f3;" d="M947 624 l-476 0 q-52 -110 -123 -203 l508 0 l0 -486 l-82 0 l0 67 l-444 0 l0 -67 l-81 0 l0 369 q-73 -79 -177 -163 l-43 86 q230 165 343 397 l-304 0 l0 80 l339 0 q26 63 44 137 l93 -15 q-21 -75 -39 -122 l442 0 l0 -80 ZM330 81 l444 0 l0 257 l-444 0 l0 -257 Z" /><glyph glyph-name="uni53F6" unicode="&#x53f6;" d="M720 501 l232 0 l0 -80 l-232 0 l0 -494 l-77 0 l0 494 l-225 0 l0 80 l225 0 l0 338 l77 0 l0 -338 ZM380 41 l-301 0 l0 700 l301 0 l0 -700 ZM304 660 l-148 0 l0 -537 l148 0 l0 537 Z" /><glyph glyph-name="uni53F7" unicode="&#x53f7;" d="M183 794 l633 0 l0 -269 l-633 0 l0 269 ZM263 595 l474 0 l0 129 l-474 0 l0 -129 ZM954 366 l-637 0 l-20 -98 l513 0 q-1 -38 -5.5 -94.5 q-4.5 -56.5 -10.5 -92.5 q-9 -60 -25 -89 q-16 -29 -50 -40.5 q-34 -11.5 -102 -12.5 l-35 0 q-87 0 -173 6 l-15 78 q99 -9 199 -9 q43 0 64 6.5 q21 6.5 31 23.5 q10 17 17 54 q8 47 10 100 l-522 0 l36 168 l-182 0 l0 71 l907 0 l0 -71 Z" /><glyph glyph-name="uni53F9" unicode="&#x53f9;" d="M715 221 q86 -107 252 -223 l-50 -74 q-163 115 -256 230 q-105 -117 -281 -236 l-53 74 q184 120 283 232 q-61 92 -98 203.5 q-37 111.5 -63 264.5 l-35 0 l0 78 l484 0 l0 -77 q-28 -151 -71 -264 q-43 -113 -112 -208 ZM90 754 l284 0 l0 -691 l-284 0 l0 691 ZM530 692 q21 -129 52.5 -225 q31.5 -96 81.5 -175 q57 81 93 177.5 q36 96.5 57 222.5 l-284 0 ZM167 144 l129 0 l0 530 l-129 0 l0 -530 Z" /><glyph glyph-name="uni5404" unicode="&#x5404;" d="M591 494 q143 -57 366 -91 l-27 -82 q-133 25 -236 55.5 q-103 30.5 -188 71.5 q-183 -88 -443 -142 l-31 81 q212 39 386 110 q-86 52 -165 130 q-75 -72 -152 -126 l-47 61 q82 57 161.5 138 q79.5 81 126.5 152 l82 -24 q-22 -33 -48 -66 l460 0 l0 -72 q-104 -114 -245 -196 ZM305 680 q88 -88 196 -145 q141 70 223 155 l-409 0 l-10 -10 ZM260 -69 l-79 0 l0 377 l634 0 l0 -377 l-79 0 l0 57 l-476 0 l0 -57 ZM736 61 l0 174 l-476 0 l0 -174 l476 0 Z" /><glyph glyph-name="uni5408" unicode="&#x5408;" d="M537 838 q68 -105 178 -192 q110 -87 252 -151 l-41 -79 q-96 47 -177 102 l0 -63 l-503 0 l0 60 q-80 -55 -176 -102 l-37 81 q137 63 252 155 q115 92 177 189 l75 0 ZM730 531 q-141 100 -230 221 q-85 -116 -231 -221 l461 0 ZM257 -65 l-83 0 l0 401 l647 0 l0 -402 l-81 0 l0 52 l-483 0 l0 -51 ZM740 61 l0 200 l-483 0 l0 -200 l483 0 Z" /><glyph glyph-name="uni540C" unicode="&#x540c;" d="M887 64 q0 -49 -9.5 -76 q-9.5 -27 -32 -38.5 q-22.5 -11.5 -63.5 -12.5 q-61 -1 -122 6 l-15 75 q49 -8 111 -8 q30 0 40.5 16.5 q10.5 16.5 10.5 58.5 l0 624 l-627 0 l0 -774 l-79 0 l0 849 l786 0 l0 -720 ZM243 600 l502 0 l0 -72 l-502 0 l0 72 ZM302 422 l383 0 l0 -319 l-383 0 l0 319 ZM375 353 l0 -181 l237 0 l0 181 l-237 0 Z" /><glyph glyph-name="uni540D" unicode="&#x540d;" d="M868 661 q-85 -100 -191 -178 q-106 -78 -243 -141 l433 0 l0 -409 l-78 0 l0 56 l-467 0 l0 -56 l-79 0 l0 331 q-89 -31 -174 -56 l-31 74 q259 72 431.5 163.5 q172.5 91.5 288.5 215.5 l-374 0 q-26 -26 -55 -52 q79 -57 133 -102 l-50 -64 q-59 52 -144 114 q-68 -55 -135 -97 l-50 68 q99 59 197.5 149.5 q98.5 90.5 158.5 171.5 l77 -29 q-25 -36 -63 -83 l415 0 l0 -76 ZM322 63 l467 0 l0 206 l-467 0 l0 -206 Z" /><glyph glyph-name="uni540E" unicode="&#x540e;" d="M237 547 l699 0 l0 -74 l-699 0 q-1 -122 -12 -207 q-11 -85 -38.5 -161.5 q-27.5 -76.5 -79.5 -163.5 l-71 50 q52 84 78.5 153.5 q26.5 69.5 36.5 152.5 q10 83 10 215 l0 245 q169 4 360.5 19 q191.5 15 341.5 37 l20 -81 q-129 -17 -310 -31 q-181 -14 -336 -21 l0 -133 ZM386 -70 l-78 0 l0 406 l541 0 l0 -406 l-78 0 l0 66 l-385 0 l0 -66 ZM771 69 l0 194 l-385 0 l0 -194 l385 0 Z" /><glyph glyph-name="uni5411" unicode="&#x5411;" d="M883 701 l0 -645 q0 -61 -24.5 -86.5 q-24.5 -25.5 -83.5 -25.5 q-61 0 -123 6 l-14 80 q62 -8 117 -8 q28 0 38.5 15 q10.5 15 10.5 50 l0 539 l-618 0 l0 -683 l-82 0 l0 758 l263 0 q35 77 60 147 l96 -15 q-23 -62 -56 -132 l416 0 ZM306 501 l374 0 l0 -380 l-374 0 l0 380 ZM386 199 l217 0 l0 224 l-217 0 l0 -224 Z" /><glyph glyph-name="uni541F" unicode="&#x541f;" d="M352 481 q175 141 265 363 l69 0 q80 -203 283 -365 l-51 -65 q-90 72 -158 157.5 q-68 85.5 -108 177.5 q-77 -179 -246 -329 l-54 61 ZM350 76 l-262 0 l0 673 l262 0 l0 -673 ZM161 675 l0 -525 l113 0 l0 525 l-113 0 ZM623 568 q50 -62 115 -163 l-64 -46 q-24 39 -56.5 86.5 q-32.5 47.5 -55.5 76.5 l61 46 ZM878 252 q-35 -68 -95.5 -161 q-60.5 -93 -117.5 -167 l-68 48 q48 60 102.5 140.5 q54.5 80.5 85.5 140.5 l-367 0 l0 76 l460 0 l0 -77 Z" /><glyph glyph-name="uni5426" unicode="&#x5426;" d="M459 366 l0 212 q-151 -123 -372 -219 l-34 82 q272 109 435 269 l-395 0 l0 75 l814 0 l0 -75 l-310 0 q-24 -28 -57 -61 l0 -283 l-81 0 ZM611 626 q73 -36 173.5 -90 q100.5 -54 163.5 -91 l-36 -75 q-67 42 -164.5 96.5 q-97.5 54.5 -172.5 91.5 l36 68 ZM253 -59 l-79 0 l0 388 l653 0 l0 -388 l-80 0 l0 48 l-494 0 l0 -48 ZM747 63 l0 190 l-494 0 l0 -190 l494 0 Z" /><glyph glyph-name="uni5427" unicode="&#x5427;" d="M935 202 q-2 -68 -6 -126 q-3 -45 -16 -69 q-13 -24 -40 -34.5 q-27 -10.5 -77 -14.5 q-73 -5 -133 -5 q-60 0 -133 5 q-48 3 -73.5 16 q-25.5 13 -37 42.5 q-11.5 29.5 -11.5 83.5 l0 682 l480 0 l0 -435 l-403 0 l0 -228 q0 -35 5.5 -52 q5.5 -17 19.5 -23.5 q14 -6.5 45 -9.5 q49 -4 111 -4 q62 0 110 4 q32 3 47 9 q15 6 21.5 20 q6.5 14 9.5 44 q2 24 3.5 55 q1.5 31 1.5 55 l76 -15 ZM335 91 l-247 0 l0 656 l247 0 l0 -656 ZM610 427 l0 278 l-125 0 l0 -278 l125 0 ZM683 427 l129 0 l0 278 l-129 0 l0 -278 ZM264 671 l-104 0 l0 -499 l104 0 l0 499 Z" /><glyph glyph-name="uni542B" unicode="&#x542b;" d="M541 848 q77 -90 180 -159.5 q103 -69.5 239 -121.5 l-34 -76 q-131 51 -242 127 q-111 76 -181 159 q-72 -85 -180.5 -160 q-108.5 -75 -247.5 -133 l-34 76 q145 59 245 127.5 q100 68.5 179 160.5 l76 0 ZM457 677 q74 -57 131 -111 l-51 -56 q-64 64 -127 114 l47 53 ZM782 431 q-39 -44 -131 -138 l179 0 l0 -356 l-80 0 l0 43 l-497 0 l0 -43 l-80 0 l0 356 l376 0 q37 39 129 138 l-479 0 l0 70 l583 0 l0 -70 ZM253 51 l497 0 l0 171 l-497 0 l0 -171 Z" /><glyph glyph-name="uni542C" unicode="&#x542c;" d="M959 492 l0 -79 l-155 0 l0 -482 l-79 0 l0 482 l-182 0 q-1 -128 -14 -208 q-13 -80 -43 -142 q-30 -62 -88 -137 l-67 51 q59 76 85.5 130 q26.5 54 36.5 126.5 q10 72.5 10 205.5 l0 301 q116 10 229 28.5 q113 18.5 199 42.5 l21 -81 q-73 -20 -175.5 -37.5 q-102.5 -17.5 -193.5 -25.5 l0 -175 l416 0 ZM93 742 l268 0 l0 -644 l-268 0 l0 644 ZM167 178 l118 0 l0 487 l-118 0 l0 -487 Z" /><glyph glyph-name="uni542F" unicode="&#x542f;" d="M896 738 l0 -295 l-651 0 q-3 -152 -36 -257 q-33 -105 -116 -229 l-71 50 q57 80 86.5 148.5 q29.5 68.5 42 146.5 q12.5 78 12.5 192 l0 244 l337 0 q-28 64 -43 91 l82 22 q19 -36 51 -113 l306 0 ZM245 517 l568 0 l0 147 l-568 0 l0 -147 ZM367 -77 l-82 0 l0 397 l591 0 l0 -397 l-83 0 l0 56 l-426 0 l0 -56 ZM793 51 l0 195 l-426 0 l0 -195 l426 0 Z" /><glyph glyph-name="uni5439" unicode="&#x5439;" d="M547 618 q-44 -115 -103 -212 l-67 42 q55 89 93.5 185.5 q38.5 96.5 66.5 213.5 l79 -13 q-15 -55 -41 -138 l346 0 l0 -75 l-92 -207 l-72 27 l86 177 l-296 0 ZM93 745 l276 0 l0 -671 l-276 0 l0 671 ZM167 152 l126 0 l0 516 l-126 0 l0 -516 ZM677 434 q11 -136 81.5 -242.5 q70.5 -106.5 204.5 -190.5 l-52 -72 q-201 134 -266 332 q-31 -94 -97.5 -177 q-66.5 -83 -174.5 -162 l-56 67 q148 98 213.5 210.5 q65.5 112.5 68.5 255.5 l1 106 l82 0 l-4 -108 q0 -12 -1 -19 Z" /><glyph glyph-name="uni544A" unicode="&#x544a;" d="M556 476 l390 0 l0 -78 l-890 0 l0 78 l417 0 l0 145 l-233 0 q-34 -62 -72 -113 l-71 46 q52 68 85 129.5 q33 61.5 57 134.5 l75 -27 q-17 -51 -36 -93 l195 0 l0 137 l83 0 l0 -137 l330 0 l0 -77 l-330 0 l0 -145 ZM250 -74 l-82 0 l0 368 l663 0 l0 -368 l-83 0 l0 47 l-498 0 l0 -47 ZM748 50 l0 166 l-498 0 l0 -166 l498 0 Z" /><glyph glyph-name="uni5462" unicode="&#x5462;" d="M913 497 l-404 0 q0 -145 -12.5 -236.5 q-12.5 -91.5 -44.5 -166.5 q-32 -75 -95 -170 l-70 45 q63 90 93.5 158.5 q30.5 68.5 41.5 151 q11 82.5 11 222.5 l0 288 l480 0 l0 -292 ZM90 753 l249 0 l0 -651 l-249 0 l0 651 ZM837 572 l0 143 l-328 0 l0 -143 l328 0 ZM161 182 l108 0 l0 492 l-108 0 l0 -492 ZM943 179 l-1 -28 l-3 -91 q-2 -40 -14 -61.5 q-12 -21.5 -37 -31 q-25 -9.5 -69 -11.5 q-42 -2 -65 -2 q-21 0 -65 2 q-59 3 -84 27.5 q-25 24.5 -25 82.5 l0 386 l74 0 l0 -185 q58 32 128.5 79 q70.5 47 111.5 81 l41 -64 q-51 -38 -135.5 -92.5 q-84.5 -54.5 -145.5 -86.5 l0 -93 q0 -35 10.5 -46.5 q10.5 -11.5 46.5 -13.5 q16 -1 48 -1 q31 0 47 1 q26 2 38.5 7 q12.5 5 17.5 18 q5 13 7 40 q4 64 4 99 l70 -16 Z" /><glyph glyph-name="uni5468" unicode="&#x5468;" d="M146 796 l742 0 l0 -732 q0 -54 -9.5 -81.5 q-9.5 -27.5 -34.5 -39 q-25 -11.5 -73 -11.5 q-46 0 -101 5 l-14 75 q56 -6 107 -6 q22 0 31.5 6 q9.5 6 12.5 20.5 q3 14.5 3 46.5 l0 645 l-586 0 l0 -283 q0 -139 -8 -223 q-8 -84 -30 -151.5 q-22 -67.5 -67 -144.5 l-77 41 q45 74 66.5 137 q21.5 63 29.5 145.5 q8 82.5 8 225.5 l0 325 ZM260 386 l0 66 l216 0 l0 97 l-183 0 l0 64 l183 0 l0 86 l75 0 l0 -86 l184 0 l0 -64 l-184 0 l0 -97 l218 0 l0 -66 l-509 0 ZM324 310 l379 0 l0 -254 l-379 0 l0 254 ZM398 125 l232 0 l0 116 l-232 0 l0 -116 Z" /><glyph glyph-name="uni547C" unicode="&#x547c;" d="M954 355 l0 -72 l-249 0 l0 -219 q0 -48 -10.5 -75.5 q-10.5 -27.5 -37.5 -40.5 q-27 -13 -78 -13 q-60 0 -113 7 l-15 76 q62 -10 111 -10 q29 0 43 8 q14 8 18 23.5 q4 15.5 4 45.5 l0 198 l-256 0 l0 72 l256 0 l0 343 q-118 -14 -222 -20 l-6 77 q130 7 271.5 23 q141.5 16 238.5 35 l10 -75 q-82 -15 -214 -31 l0 -352 l249 0 ZM340 62 l-253 0 l0 691 l253 0 l0 -691 ZM270 677 l-112 0 l0 -536 l112 0 l0 536 ZM474 647 q70 -134 105 -218 l-66 -33 q-20 47 -51 112 q-31 65 -53 106 l65 33 ZM743 429 q27 46 59.5 110.5 q32.5 64.5 49.5 106.5 l68 -27 q-17 -41 -51 -108 q-34 -67 -60 -112 l-66 30 Z" /><glyph glyph-name="uni547D" unicode="&#x547d;" d="M539 845 q73 -79 183 -153 q110 -74 246 -135 l-36 -78 q-95 45 -181 98 l0 -74 l-506 0 l0 74 q-86 -52 -179 -98 l-35 79 q136 61 245.5 135 q109.5 74 181.5 152 l81 0 ZM745 581 q-150 93 -245 190 q-95 -95 -248 -190 l493 0 ZM522 -74 l0 487 l349 0 l0 -259 q0 -71 -25 -99 q-25 -28 -90 -28 q-50 0 -86 5 l-15 78 q42 -7 72 -7 q39 0 53 16 q14 16 14 55 l0 163 l-195 0 l0 -411 l-77 0 ZM431 17 l-300 0 l0 391 l300 0 l0 -391 ZM356 333 l-150 0 l0 -240 l150 0 l0 240 Z" /><glyph glyph-name="uni548C" unicode="&#x548c;" d="M322 433 q83 -73 171 -164 l-50 -62 q-51 61 -121 134 l0 -415 l-78 0 l0 451 q-54 -145 -153 -270 l-47 72 q57 68 104 148 q47 80 76 158 l-165 0 l0 78 l185 0 l0 134 q-91 -14 -151 -19 l-21 73 q93 8 198.5 27 q105.5 19 180.5 43 l21 -74 q-58 -18 -150 -36 l0 -148 l160 0 l0 -78 l-160 0 l0 -52 ZM535 -46 l0 800 l373 0 l0 -794 l-78 0 l0 83 l-217 0 l0 -89 l-78 0 ZM613 675 l0 -556 l217 0 l0 556 l-217 0 Z" /><glyph glyph-name="uni54C0" unicode="&#x54c0;" d="M932 740 l0 -72 l-874 0 l0 72 l413 0 q-33 68 -49 96 l85 14 q17 -30 55 -110 l370 0 ZM715 149 q42 -38 100.5 -67.5 q58.5 -29.5 141.5 -53.5 l-34 -80 q-97 32 -164 72 q-67 40 -116 92 l-1 1 q-37 41 -68 90 q-31 49 -69 122 l-4 0 q-72 -75 -146 -130 l0 -173 l221 60 l1 -79 q-148 -35 -230 -60 q-54 -16 -80 -28 l-28 67 q23 11 30.5 18 q7.5 7 7.5 17 l0 127 q-92 -54 -210 -100 l-31 78 q120 41 203.5 90 q83.5 49 151.5 113 l-224 0 l0 260 l659 0 l0 -260 l-240 0 q43 -77 77 -121 q103 53 190 107 l44 -65 q-77 -44 -182 -97 ZM749 517 l-505 0 l0 -125 l505 0 l0 125 Z" /><glyph glyph-name="uni54C7" unicode="&#x54c7;" d="M698 488 l252 0 l0 -79 l-580 0 l0 79 l247 0 l0 137 l-208 0 l0 75 l208 0 l0 134 l81 0 l0 -134 l207 0 l0 -75 l-207 0 l0 -137 ZM326 24 l-247 0 l0 704 l247 0 l0 -704 ZM252 652 l-98 0 l0 -550 l98 0 l0 550 ZM698 199 l0 -165 l253 0 l0 -75 l-592 0 l0 75 l258 0 l0 165 l-208 0 l0 76 l208 0 l0 103 l81 0 l0 -103 l207 0 l0 -76 l-207 0 Z" /><glyph glyph-name="uni54CD" unicode="&#x54cd;" d="M924 722 l0 -664 q0 -61 -20.5 -86.5 q-20.5 -25.5 -71.5 -25.5 q-62 0 -107 5 l-14 76 q58 -7 99 -7 q24 0 33 14 q9 14 9 49 l0 567 l-387 0 l0 -708 l-74 0 l0 780 l184 0 q12 30 23.5 68.5 q11.5 38.5 17.5 67.5 l81 -14 q-12 -53 -40 -122 l267 0 ZM323 54 l-240 0 l0 690 l240 0 l0 -690 ZM253 669 l-98 0 l0 -541 l98 0 l0 541 ZM545 524 l226 0 l0 -394 l-226 0 l0 394 ZM607 199 l100 0 l0 256 l-100 0 l0 -256 Z" /><glyph glyph-name="uni54ED" unicode="&#x54ed;" d="M119 801 l330 0 l0 -299 l-330 0 l0 299 ZM549 801 l333 0 l0 -299 l-333 0 l0 299 ZM194 572 l180 0 l0 159 l-180 0 l0 -159 ZM625 572 l182 0 l0 159 l-182 0 l0 -159 ZM769 360 q-78 55 -127 86 l43 55 q95 -60 127 -82 l-43 -59 ZM538 274 q45 -91 147.5 -154.5 q102.5 -63.5 271.5 -100.5 l-32 -83 q-312 72 -426 258 q-93 -172 -425 -258 l-30 85 q182 42 278 103.5 q96 61.5 123 149.5 l-373 0 l0 78 l384 0 l0 3 l0 108 l82 0 l0 -108 l0 -3 l390 0 l0 -78 l-390 0 Z" /><glyph glyph-name="uni5524" unicode="&#x5524;" d="M692 214 q64 -142 274 -214 l-33 -76 q-104 39 -174.5 91.5 q-70.5 52.5 -108.5 125.5 q-35 -73 -108.5 -125 q-73.5 -52 -186.5 -91 l-36 73 q126 47 194.5 97 q68.5 50 90.5 119 l-255 0 l0 73 l62 0 l0 226 q-22 -22 -22 -22 l-43 58 q65 61 112.5 132 q47.5 71 90.5 163 l69 -20 q-11 -27 -37 -77 l244 0 l0 -67 l-91 -133 l153 0 l0 -260 l69 0 l0 -73 l-264 0 ZM79 733 l241 0 l0 -688 l-241 0 l0 688 ZM541 677 q-46 -72 -99 -130 l205 0 l90 130 l-196 0 ZM151 121 l98 0 l0 536 l-98 0 l0 -536 ZM482 474 l0 -187 l133 0 l0 4 l0 183 l-133 0 ZM681 287 l135 0 l0 187 l-135 0 l0 -186 l0 -1 Z" /><glyph glyph-name="uni5531" unicode="&#x5531;" d="M437 782 l439 0 l0 -351 l-439 0 l0 351 ZM346 69 l-250 0 l0 668 l250 0 l0 -668 ZM801 640 l0 74 l-290 0 l0 -74 l290 0 ZM271 657 l-101 0 l0 -506 l101 0 l0 506 ZM511 575 l0 -77 l290 0 l0 77 l-290 0 ZM409 -69 l0 417 l497 0 l0 -416 l-76 0 l0 47 l-346 0 l0 -48 l-75 0 ZM830 196 l0 87 l-346 0 l0 -87 l346 0 ZM484 130 l0 -88 l346 0 l0 88 l-346 0 Z" /><glyph glyph-name="uni5546" unicode="&#x5546;" d="M946 670 l-229 0 q-14 -38 -47 -113 l211 0 l0 -503 q0 -50 -12.5 -75 q-12.5 -25 -40.5 -34 q-28 -9 -81 -9 q-40 0 -78 3 l-15 72 q45 -6 102 -6 q27 0 38.5 16 q11.5 16 11.5 54 l0 413 l-609 0 l0 -552 l-74 0 l0 621 l202 0 q-30 82 -42 113 l-228 0 l0 73 l408 0 q-26 58 -40 82 l81 20 q18 -34 49 -102 l393 0 l0 -73 ZM583 557 q23 46 49 113 l-268 0 q33 -85 42 -113 l177 0 ZM454 419 q-62 -66 -196 -173 l-45 57 q49 35 102.5 81.5 q53.5 46.5 87.5 82.5 l51 -48 ZM741 245 q-17 18 -85 78.5 q-68 60.5 -104 91.5 l51 51 q18 -14 95 -81 q77 -67 92 -82 l-49 -58 ZM317 293 l367 0 l0 -249 l-367 0 l0 249 ZM387 115 l227 0 l0 109 l-227 0 l0 -109 Z" /><glyph glyph-name="uni554A" unicode="&#x554a;" d="M564 718 l-57 -242 q62 -118 62 -232 q0 -60 -9.5 -91.5 q-9.5 -31.5 -31 -44 q-21.5 -12.5 -59.5 -12.5 q-19 0 -37 3 l-13 69 q18 -3 36 -3 q23 0 33.5 6 q10.5 6 14.5 22.5 q4 16.5 4 53.5 q0 47 -17 104 q-17 57 -49 111 l59 258 l-92 0 l0 -791 l-66 0 l0 862 l222 0 l0 -73 ZM962 775 l0 -69 l-52 0 l0 -638 q0 -49 -10.5 -76.5 q-10.5 -27.5 -36 -39.5 q-25.5 -12 -73.5 -12 q-57 0 -98 5 l-13 69 q45 -8 105 -8 q26 0 38 6.5 q12 6.5 16.5 22 q4.5 15.5 4.5 47.5 l0 624 l-242 0 l0 69 l361 0 ZM286 67 l-203 0 l0 681 l203 0 l0 -681 ZM218 673 l-68 0 l0 -531 l68 0 l0 531 ZM613 589 l178 0 l0 -417 l-178 0 l0 417 ZM670 244 l64 0 l0 272 l-64 0 l0 -272 Z" /><glyph glyph-name="uni5578" unicode="&#x5578;" d="M885 750 l0 -143 l72 0 l0 -68 l-72 0 l0 -143 l-218 0 l0 -451 l-73 0 l0 451 l-222 0 l0 65 l222 0 l0 78 l-256 0 l0 68 l256 0 l0 77 l-209 0 l0 66 l209 0 l0 90 l73 0 l0 -90 l218 0 ZM85 745 l225 0 l0 -669 l-225 0 l0 669 ZM818 684 l-151 0 l0 -77 l151 0 l0 77 ZM156 151 l85 0 l0 520 l-85 0 l0 -520 ZM667 461 l151 0 l0 78 l-151 0 l0 -78 ZM450 361 l0 -56 q0 -97 -12.5 -163 q-12.5 -66 -39.5 -118.5 q-27 -52.5 -76 -110.5 l-65 40 q54 56 80.5 103 q26.5 47 35.5 104 q9 57 9 152 l0 49 l68 0 ZM896 -69 l-71 0 l0 429 l71 0 l0 -429 ZM748 333 q15 -58 36.5 -146 q21.5 -88 31.5 -134 l-63 -15 l-19 82 q-32 143 -46 197 l60 16 ZM436 49 q24 59 43.5 133 q19.5 74 28.5 143 l60 -7 q-10 -73 -29 -149.5 q-19 -76.5 -42 -138.5 l-61 19 Z" /><glyph glyph-name="uni561B" unicode="&#x561b;" d="M413 666 l0 -237 q0 -119 -8.5 -200 q-8.5 -81 -29 -148.5 q-20.5 -67.5 -57.5 -147.5 l-66 36 q38 79 58 143.5 q20 64.5 27.5 140 q7.5 75.5 7.5 192.5 l0 296 l277 0 l-39 87 l74 19 l48 -106 l240 0 l0 -75 l-532 0 ZM85 737 l205 0 l0 -644 l-205 0 l0 644 ZM151 172 l76 0 l0 487 l-76 0 l0 -487 ZM645 240 l-60 72 l0 -380 l-63 0 l0 390 q-34 -167 -88 -264 l-47 55 q37 70 69.5 162 q32.5 92 48.5 171 l-65 0 l0 73 l82 0 l0 110 l63 0 l0 -110 l79 0 l0 -73 l-79 0 l0 -49 q24 -24 52 -54.5 q28 -30.5 49 -54.5 l-41 -48 ZM920 62 q-32 65 -52.5 142.5 q-20.5 77.5 -35.5 181.5 l0 -454 l-63 0 l0 447 q-29 -195 -97 -333 l-51 38 q87 167 119 362 l-55 0 l0 73 l84 0 l0 110 l63 0 l0 -110 l97 0 l0 -73 l-67 0 q38 -197 109 -337 l-51 -47 Z" /><glyph glyph-name="uni5632" unicode="&#x5632;" d="M631 155 l0 -73 l-119 0 l0 -153 l-65 0 l0 153 l-131 0 l0 73 l131 0 l0 84 l-104 0 l0 345 l104 0 l0 79 l-125 0 l0 72 l125 0 l0 104 l65 0 l0 -104 l126 0 l0 -72 l-126 0 l0 -79 l104 0 l0 -345 l-104 0 l0 -84 l119 0 ZM680 779 l243 0 l0 -727 q0 -63 -21 -87 q-21 -24 -79 -24 q-32 0 -64 3 l-15 79 q37 -5 65 -5 q22 0 31.5 4.5 q9.5 4.5 13 16.5 q3.5 12 3.5 40 l0 153 l-117 0 q-6 -97 -28 -162.5 q-22 -65.5 -75 -149.5 l-59 46 q49 70 69.5 122 q20.5 52 26.5 122.5 q6 70.5 6 216.5 l0 352 ZM280 43 l-201 0 l0 690 l201 0 l0 -690 ZM857 544 l0 157 l-114 0 l0 -157 l114 0 ZM218 655 l-74 0 l0 -534 l74 0 l0 534 ZM554 445 l0 71 l-150 0 l0 -71 l150 0 ZM857 309 l0 159 l-114 0 l0 -80 q0 -55 -1 -79 l115 0 ZM554 378 l-150 0 l0 -72 l150 0 l0 72 Z" /><glyph glyph-name="uni5668" unicode="&#x5668;" d="M118 802 l331 0 l0 -252 l-331 0 l0 252 ZM544 802 l333 0 l0 -252 l-333 0 l0 252 ZM190 616 l188 0 l0 121 l-188 0 l0 -121 ZM615 616 l192 0 l0 121 l-192 0 l0 -121 ZM939 211 q-41 7 -68 13 l0 -287 l-71 0 l0 49 l-186 0 l0 -49 l-71 0 l0 309 l245 0 q-161 50 -259 142 l-68 0 q-36 -42 -97.5 -75.5 q-61.5 -33.5 -166.5 -66.5 l252 0 l0 -309 l-71 0 l0 49 l-180 0 l0 -49 l-72 0 l0 288 l-67 -18 l-22 72 q121 25 196 51 q75 26 119 58 l-283 0 l0 69 l347 0 q16 28 30 72 l84 -11 q-13 -35 -25 -61 l206 0 q-13 21 -38 56 l53 30 q33 -44 61 -86 l140 0 l0 -69 l-292 0 q53 -39 131.5 -65 q78.5 -26 194.5 -42 l-22 -70 ZM378 49 l0 131 l-180 0 l0 -131 l180 0 ZM614 180 l0 -131 l186 0 l0 131 l-186 0 Z" /><glyph glyph-name="uni56DB" unicode="&#x56db;" d="M109 -53 l0 833 l781 0 l0 -833 l-80 0 l0 57 l-622 0 l0 -57 l-79 0 ZM188 82 l622 0 l0 186 l-112 0 q-71 0 -101.5 27 q-30.5 27 -30.5 96 l0 312 l-141 0 l0 -142 q0 -82 -14.5 -139.5 q-14.5 -57.5 -49.5 -107 q-35 -49.5 -100 -103.5 l-61 54 q61 48 92.5 91 q31.5 43 43 90.5 q11.5 47.5 11.5 117.5 l0 139 l-159 0 l0 -621 ZM810 347 l0 356 l-165 0 l0 -281 q0 -31 6 -46.5 q6 -15.5 22 -22 q16 -6.5 48 -6.5 l89 0 Z" /><glyph glyph-name="uni56DE" unicode="&#x56de;" d="M98 -64 l0 855 l790 0 l0 -855 l-81 0 l0 63 l-626 0 l0 -63 l-83 0 ZM181 708 l0 -630 l626 0 l0 630 l-626 0 ZM307 211 l0 365 l372 0 l0 -365 l-372 0 ZM379 284 l228 0 l0 219 l-228 0 l0 -219 Z" /><glyph glyph-name="uni56E0" unicode="&#x56e0;" d="M107 -72 l0 863 l786 0 l0 -863 l-81 0 l0 53 l-623 0 l0 -53 l-82 0 ZM189 711 l0 -653 l623 0 l0 653 l-623 0 ZM521 405 q47 -41 118.5 -111.5 q71.5 -70.5 119.5 -120.5 l-57 -62 q-38 44 -97.5 106 q-59.5 62 -108.5 110 q-28 -60 -83 -113.5 q-55 -53.5 -141 -106.5 l-45 71 q113 64 163.5 126 q50.5 62 59.5 154 l0 4 l-210 0 l0 78 l216 0 q6 105 4 141 l80 0 q0 -53 -5 -141 l223 0 l0 -78 l-229 0 q-2 -10 -4 -32 q-2 -18 -4 -25 Z" /><glyph glyph-name="uni56ED" unicode="&#x56ed;" d="M98 -74 l0 872 l805 0 l0 -872 l-80 0 l0 47 l-643 0 l0 -47 l-82 0 ZM180 722 l0 -675 l643 0 l0 675 l-643 0 ZM272 621 l454 0 l0 -68 l-454 0 l0 68 ZM773 383 l-174 0 l0 -158 q0 -25 6 -34.5 q6 -9.5 24 -11.5 q7 -1 21 -1 q13 0 20 1 q17 2 25.5 13 q8.5 11 9.5 41 q3 30 3 70 l64 -9 l-1 -22 l-3 -65 q-2 -48 -21 -69 q-19 -21 -62 -24 q-14 -1 -42 -1 q-28 0 -42 1 q-36 2 -53 24.5 q-17 22.5 -17 73.5 l0 171 l-108 0 q-2 -82 -20 -134.5 q-18 -52.5 -52.5 -90 q-34.5 -37.5 -97.5 -78.5 l-47 65 q57 33 87 63.5 q30 30.5 43 70.5 q13 40 15 104 l-125 0 l0 67 l547 0 l0 -67 Z" /><glyph glyph-name="uni56F0" unicode="&#x56f0;" d="M105 -76 l0 863 l790 0 l0 -863 l-78 0 l0 54 l-634 0 l0 -54 l-78 0 ZM183 709 l0 -656 l634 0 l0 656 l-634 0 ZM736 182 q-38 35 -96 82.5 q-58 47.5 -102 81.5 l0 -255 l-76 0 l0 299 q-40 -67 -93.5 -131 q-53.5 -64 -112.5 -112 l-51 68 q71 56 132.5 126.5 q61.5 70.5 101.5 142.5 l-196 0 l0 78 l219 0 l0 107 l76 0 l0 -107 l218 0 l0 -78 l-218 0 l0 -54 q65 -43 130.5 -93 q65.5 -50 112.5 -90 l-45 -65 Z" /><glyph glyph-name="uni56F4" unicode="&#x56f4;" d="M106 -77 l0 872 l789 0 l0 -872 l-78 0 l0 52 l-632 0 l0 -52 l-79 0 ZM185 720 l0 -672 l632 0 l0 672 l-632 0 ZM759 558 l-253 0 l0 -79 l228 0 l0 -61 l-228 0 l0 -79 l236 0 q-2 -65 -11 -136 q-5 -38 -16 -56 q-11 -18 -33 -24.5 q-22 -6.5 -65 -6.5 q-32 0 -62 3 l-12 62 q46 -6 73 -6 q22 0 31 6.5 q9 6.5 14 26.5 q6 32 8 68 l-163 0 l0 -200 l-74 0 l0 200 l-202 0 l0 63 l202 0 l0 79 l-168 0 l0 61 l168 0 l0 79 l-196 0 l0 64 l196 0 l0 71 l74 0 l0 -71 l253 0 l0 -64 Z" /><glyph glyph-name="uni56FA" unicode="&#x56fa;" d="M98 -78 l0 870 l801 0 l0 -871 l-78 0 l0 53 l-646 0 l0 -52 l-77 0 ZM175 722 l0 -678 l646 0 l0 678 l-646 0 ZM766 586 l0 -71 l-229 0 l0 -110 l159 0 l0 -266 l-395 0 l0 266 l159 0 l0 110 l-229 0 l0 71 l229 0 l0 100 l77 0 l0 -100 l229 0 ZM371 202 l255 0 l0 141 l-255 0 l0 -141 Z" /><glyph glyph-name="uni56FD" unicode="&#x56fd;" d="M93 -77 l0 875 l814 0 l0 -876 l-80 0 l0 57 l-655 0 l0 -56 l-79 0 ZM172 725 l0 -671 l655 0 l0 671 l-655 0 ZM533 379 l0 -170 l244 0 l0 -72 l-557 0 l0 72 l236 0 l0 170 l-177 0 l0 69 l177 0 l0 121 l-211 0 l0 69 l508 0 l0 -69 l-220 0 l0 -121 l189 0 l0 -69 l-189 0 ZM645 362 q48 -57 81 -103 l-51 -39 q-43 62 -80 104 l50 38 Z" /><glyph glyph-name="uni56FE" unicode="&#x56fe;" d="M98 -77 l0 872 l804 0 l0 -872 l-74 0 l0 52 l-655 0 l0 -52 l-75 0 ZM173 723 l0 -679 l655 0 l0 679 l-655 0 ZM565 441 q85 -36 238 -69 l-27 -65 q-177 48 -276 98 q-105 -53 -276 -105 l-27 62 q137 38 236 81 q-51 33 -102 84 q-43 -43 -87 -77 l-39 48 q54 43 105 102 q51 59 83 112 l61 -23 q-17 -30 -40 -62 l314 0 l0 -57 q-80 -78 -163 -129 ZM371 570 q53 -56 126 -97 q86 47 136 97 l-262 0 ZM371 333 l127 -26 q88 -17 149 -30 l-9 -61 q-55 13 -242 51 q-11 2 -19.5 4 q-8.5 2 -15.5 3 l10 59 ZM281 216 q227 -43 412 -83 l-11 -59 q-299 62 -410 83 l9 59 Z" /><glyph glyph-name="uni5706" unicode="&#x5706;" d="M98 -73 l0 873 l802 0 l0 -873 l-76 0 l0 50 l-650 0 l0 -50 l-76 0 ZM174 731 l0 -687 l650 0 l0 687 l-650 0 ZM292 665 l413 0 l0 -169 l-413 0 l0 169 ZM363 548 l269 0 l0 65 l-269 0 l0 -65 ZM655 381 l-313 0 l0 -158 l-72 0 l0 218 l457 0 l0 -218 l-72 0 l0 158 ZM749 69 q-117 62 -252 124 q-63 -83 -262 -127 l-23 66 q92 21 143.5 43.5 q51.5 22.5 74.5 47 q23 24.5 29 57.5 q6 42 6 75 l71 0 q-1 -26 -4 -57.5 q-3 -31.5 -7 -46.5 l-2 -9 q116 -45 257 -110 l-31 -63 Z" /><glyph glyph-name="uni571F" unicode="&#x571f;" d="M544 459 l0 -409 l400 0 l0 -79 l-888 0 l0 79 l402 0 l0 409 l-344 0 l0 81 l344 0 l0 297 l86 0 l0 -297 l342 0 l0 -81 l-342 0 Z" /><glyph glyph-name="uni5728" unicode="&#x5728;" d="M933 719 l0 -76 l-534 0 q-56 -123 -131 -227 l0 -487 l-80 0 l0 388 q-51 -56 -116 -114 l-49 71 q175 147 285 369 l-257 0 l0 76 l292 0 q26 61 49 134 l80 -19 q-23 -70 -41 -115 l502 0 ZM895 318 l-236 0 l0 -276 l273 0 l0 -77 l-620 0 l0 77 l266 0 l0 276 l-224 0 l0 77 l224 0 l0 178 l81 0 l0 -178 l236 0 l0 -77 Z" /><glyph glyph-name="uni5730" unicode="&#x5730;" d="M949 188 q0 -15 -4 -73 q-1 -13 -2 -26 q-1 -13 -1 -24 q-2 -60 -31 -85.5 q-29 -25.5 -101 -31.5 q-67 -6 -132 -6 q-69 0 -141 6 q-68 5 -96.5 34.5 q-28.5 29.5 -28.5 101.5 l0 335 l-72 -25 l-20 75 l92 31 l0 252 l77 0 l0 -225 l115 39 l0 270 l75 0 l0 -244 l226 77 q0 -73 -6.5 -192.5 q-6.5 -119.5 -12.5 -168.5 q-5 -41 -13.5 -61.5 q-8.5 -20.5 -26 -29.5 q-17.5 -9 -50.5 -11 l-32 -1 l-33 1 l-16 78 q22 -3 48 -3 q26 0 35 12 q9 12 14 49 q10 80 12 219 l-145 -50 l0 -389 l-75 0 l0 363 l-115 -40 l0 -328 q0 -38 4.5 -56.5 q4.5 -18.5 17.5 -26.5 q13 -8 40 -11 q60 -6 117 -6 q53 0 110 6 q37 4 54 11.5 q17 7.5 24 23 q7 15.5 10 48.5 q2 21 4 53 q2 32 1 46 l78 -17 ZM244 157 l105 40 l12 -73 q-55 -20 -152 -57.5 q-97 -37.5 -152 -59.5 l-21 73 q74 27 132 49 l0 354 l-117 0 l0 76 l117 0 l0 258 l76 0 l0 -258 l88 0 l0 -76 l-88 0 l0 -326 Z" /><glyph glyph-name="uni573A" unicode="&#x573a;" d="M356 187 q-160 -63 -303 -101 l-19 78 q57 12 131 34 l0 325 l-113 0 l0 77 l113 0 l0 231 l79 0 l0 -231 l113 0 l0 -77 l-113 0 l0 -300 q49 17 108 40 l4 -76 ZM527 501 l392 0 q-1 -112 -8 -236 q-7 -124 -18 -197 q-8 -52 -21.5 -78.5 q-13.5 -26.5 -40.5 -37.5 q-27 -11 -79 -11 q-49 0 -90 4 l-17 79 q9 -1 36 -4.5 q27 -3.5 55 -3.5 q30 0 45.5 7 q15.5 7 23 23.5 q7.5 16.5 13.5 49.5 q15 92 23 331 l-67 0 q-28 -117 -64 -200.5 q-36 -83.5 -93 -151 q-57 -67.5 -145 -130.5 l-52 59 q80 54 131.5 112.5 q51.5 58.5 85.5 131 q34 72.5 64 179.5 l-95 0 q-29 -116 -98.5 -215.5 q-69.5 -99.5 -186.5 -194.5 l-54 55 q112 87 174 171 q62 84 92 184 l-141 0 l0 67 l314 216 l-306 0 l0 73 l423 0 l0 -76 l-296 -206 Z" /><glyph glyph-name="uni5740" unicode="&#x5740;" d="M725 463 l0 -409 l227 0 l0 -79 l-652 0 l0 79 l121 0 l0 600 l82 0 l0 -600 l139 0 l0 785 l83 0 l0 -294 l194 0 l0 -82 l-194 0 ZM378 131 l-20 -7 q-47 -15 -169 -54 q-122 -39 -141 -44 l-16 82 q33 8 139 42 l0 353 l-114 0 l0 83 l114 0 l0 246 l81 0 l0 -246 l116 0 l0 -83 l-116 0 l0 -327 l110 37 l16 -82 Z" /><glyph glyph-name="uni5747" unicode="&#x5747;" d="M918 702 q0 -347 -20 -622 q-4 -52 -17 -80.5 q-13 -28.5 -44 -42 q-31 -13.5 -88 -14.5 q-71 -1 -143 6 l-17 82 q72 -10 129 -10 q40 0 60 7.5 q20 7.5 28.5 26.5 q8.5 19 11.5 57 q16 198 16 417 l-1 91 l-296 0 q-35 -75 -79 -139 l-68 40 q91 141 147 324 l80 -21 q-17 -57 -44 -122 l345 0 ZM258 179 q48 17 113 41 l4 -82 q-74 -30 -241 -87 l-67 -23 l-20 82 l129 42 l0 341 l-121 0 l0 84 l121 0 l0 248 l82 0 l0 -248 l104 0 l0 -84 l-104 0 l0 -314 ZM637 336 q-28 31 -68.5 70 q-40.5 39 -74.5 68 l46 55 q32 -26 77.5 -67.5 q45.5 -41.5 73.5 -71.5 l-54 -54 ZM785 261 q-185 -99 -349 -175 l-29 80 q185 83 361 174 l17 -79 Z" /><glyph glyph-name="uni5750" unicode="&#x5750;" d="M863 205 l-323 0 l0 -164 l398 0 l0 -75 l-877 0 l0 75 l398 0 l0 164 l-322 0 l0 76 l322 0 l0 548 l81 0 l0 -548 l323 0 l0 -76 ZM734 536 q-41 -87 -112 -180 l-58 52 q62 81 101.5 167 q39.5 86 61.5 191 l77 -15 q-20 -87 -39 -140 q37 -40 90.5 -101.5 q53.5 -61.5 92.5 -108.5 l-62 -56 q-77 101 -152 191 ZM249 535 q-49 -106 -134 -211 l-63 53 q74 92 118 184.5 q44 92.5 65 203.5 l80 -14 q-13 -73 -36 -141 q39 -43 87.5 -104.5 q48.5 -61.5 72.5 -97.5 l-61 -51 q-21 34 -57.5 84.5 q-36.5 50.5 -71.5 93.5 Z" /><glyph glyph-name="uni5751" unicode="&#x5751;" d="M934 695 l0 -78 l-567 0 l0 78 l244 0 q-13 35 -29.5 75.5 q-16.5 40.5 -24.5 57.5 l82 18 l63 -151 l232 0 ZM392 154 l-197 -59 l-141 -42 l-17 83 q109 31 142 41 l0 322 l-124 0 l0 80 l124 0 l0 254 l78 0 l0 -254 l110 0 l0 -80 l-110 0 l0 -299 l124 36 l11 -82 ZM958 186 l-7 -148 q-2 -52 -23 -70.5 q-21 -18.5 -75 -18.5 l-40 0 q-45 0 -67 20.5 q-22 20.5 -22 69.5 l0 377 l-190 0 l0 -87 q0 -114 -12 -178.5 q-12 -64.5 -45.5 -116 q-33.5 -51.5 -104.5 -120.5 l-74 49 q72 63 103 108 q31 45 41 104.5 q10 59.5 10 176.5 l0 144 l353 0 l0 -432 q0 -24 6 -32 q6 -8 22 -8 l23 0 q15 0 20.5 9.5 q5.5 9.5 6.5 35.5 q3 78 3 131 l72 -14 Z" /><glyph glyph-name="uni575A" unicode="&#x575a;" d="M289 828 l72 0 l0 -505 l-72 0 l0 505 ZM404 409 q120 45 206 103 q-40 41 -72 89.5 q-32 48.5 -63 112.5 l-44 0 l0 74 l453 0 l0 -74 q-59 -115 -158 -204 q78 -56 205 -98 l-32 -75 q-144 55 -233 125 q-99 -73 -229 -121 l-33 68 ZM118 786 l72 0 l0 -435 l-72 0 l0 435 ZM555 714 q53 -96 114 -156 q82 70 128 156 l-242 0 ZM539 169 l0 -129 l405 0 l0 -73 l-887 0 l0 73 l406 0 l0 129 l-324 0 l0 74 l324 0 l0 87 l76 0 l0 -87 l323 0 l0 -74 l-323 0 Z" /><glyph glyph-name="uni5782" unicode="&#x5782;" d="M953 344 l-179 0 l0 -125 l148 0 l0 -70 l-384 0 l0 -113 l352 0 l0 -68 l-782 0 l0 68 l352 0 l0 113 l-383 0 l0 70 l148 0 l0 125 l-180 0 l0 72 l180 0 l0 122 l-148 0 l0 70 l383 0 l0 100 q-181 -11 -337 -15 l-9 69 q142 3 368.5 16.5 q226.5 13.5 369.5 27.5 l15 -70 q-96 -9 -329 -24 l0 -104 l384 0 l0 -70 l-148 0 l0 -122 l179 0 l0 -72 ZM460 538 l-158 0 l0 -122 l158 0 l0 122 ZM697 416 l0 122 l-159 0 l0 -122 l159 0 ZM302 344 l0 -125 l158 0 l0 125 l-158 0 ZM538 219 l159 0 l0 125 l-159 0 l0 -125 Z" /><glyph glyph-name="uni578B" unicode="&#x578b;" d="M663 376 q42 -6 83 -6 q27 0 40.5 5 q13.5 5 18.5 19 q5 14 5 43 l0 383 l76 0 l0 -403 q0 -48 -10.5 -72.5 q-10.5 -24.5 -38.5 -35 q-28 -10.5 -83 -10.5 q-25 0 -77 4 l-14 73 ZM69 296 q57 56 81.5 96.5 q24.5 40.5 32.5 92.5 l-124 0 l0 71 l129 0 l0 42 l0 112 l-103 0 l0 73 l482 0 l0 -73 l-104 0 l0 -154 l124 0 l0 -71 l-124 0 l0 -184 l-75 0 l0 184 l-129 0 q-8 -71 -35 -123 q-27 -52 -91 -113 l-64 47 ZM643 770 l75 0 l0 -351 l-75 0 l0 351 ZM264 710 l0 -113 l0 -41 l124 0 l0 154 l-124 0 ZM545 140 l0 -108 l401 0 l0 -74 l-891 0 l0 74 l410 0 l0 108 l-313 0 l0 73 l313 0 l0 73 l80 0 l0 -73 l307 0 l0 -73 l-307 0 Z" /><glyph glyph-name="uni57CB" unicode="&#x57cb;" d="M343 124 q-23 -7 -202 -67 l-89 -30 l-18 80 q46 13 122 38 l0 355 l-104 0 l0 77 l104 0 l0 252 l75 0 l0 -252 l99 0 l0 -77 l-99 0 l0 -330 l100 35 l12 -81 ZM674 145 l0 -108 l277 0 l0 -71 l-622 0 l0 71 l270 0 l0 108 l-206 0 l0 73 l206 0 l0 106 l-212 0 l0 460 l504 0 l0 -460 l-217 0 l0 -106 l236 0 l0 -73 l-236 0 ZM599 590 l0 121 l-137 0 l0 -121 l137 0 ZM674 590 l141 0 l0 121 l-141 0 l0 -121 ZM462 518 l0 -120 l137 0 l0 120 l-137 0 ZM674 518 l0 -120 l141 0 l0 120 l-141 0 Z" /><glyph glyph-name="uni57CE" unicode="&#x57ce;" d="M843 690 q-60 70 -102 112 l49 44 q30 -27 105 -110 l-52 -46 ZM962 171 q-5 -56 -15 -107 q-13 -73 -36.5 -100 q-23.5 -27 -55.5 -27 q-30 0 -56.5 23 q-26.5 23 -52.5 79 q-18 42 -25 63 q-67 -89 -163 -169 l-54 53 q116 92 191 205 q-45 173 -65 418 l-208 0 l0 -140 l175 0 q1 -58 -3.5 -169.5 q-4.5 -111.5 -8.5 -141.5 q-6 -50 -29 -70 q-23 -20 -80 -20 q-17 0 -51 4 l-15 73 q31 -6 63 -6 q23 0 32.5 12.5 q9.5 12.5 12.5 43.5 q3 36 6 99.5 q3 63.5 3 104.5 l-105 0 q0 -111 -12 -187.5 q-12 -76.5 -41 -143 q-29 -66.5 -84 -147.5 l-69 38 q53 76 79.5 138 q26.5 62 36.5 136 q10 74 10 193 l0 254 l282 0 q-11 145 -11 162 l81 0 q0 -14 2.5 -57.5 q2.5 -43.5 6.5 -104.5 l236 0 l0 -71 l-232 0 q14 -189 41 -324 q52 106 90 245 l68 -21 q-57 -200 -132 -327 q15 -51 33 -94 q13 -32 22.5 -46 q9.5 -14 20.5 -14 q12 0 20 15.5 q8 15.5 14 58.5 q6 45 10 89 l68 -20 ZM290 153 q-40 -16 -116.5 -44 q-76.5 -28 -131.5 -46 l-13 81 l80 25 q9 4 29 10 l0 330 l-94 0 l0 76 l94 0 l0 243 l75 0 l0 -243 l84 0 l0 -76 l-84 0 l0 -304 q47 15 77 27 l0 -79 Z" /><glyph glyph-name="uni57DF" unicode="&#x57df;" d="M867 694 q-69 72 -111 111 l45 47 q55 -50 112 -109 l-46 -49 ZM954 172 q-8 -72 -15 -113 q-13 -70 -35.5 -96.5 q-22.5 -26.5 -58.5 -26.5 q-65 0 -108 102 q-9 22 -14 40 q-63 -82 -146 -153 l-58 58 q115 94 180 183 q-37 174 -49 445 l-312 0 l0 74 l310 0 q-2 65 -2 157 l75 1 l1 -108 l1 -50 l224 0 l0 -74 l-223 0 q6 -215 31 -356 q55 106 98 282 l68 -20 q-52 -211 -145 -362 q11 -42 24 -74 q11 -30 22 -41.5 q11 -11.5 23 -11.5 q11 0 18 17 q7 17 14 59 q5 29 11 88 l66 -20 ZM340 142 q-40 -13 -93 -29 q-156 -48 -190 -61 l-17 80 q31 8 124 36 l0 342 l-105 0 l0 77 l105 0 l0 239 l76 0 l0 -239 l90 0 l0 -77 l-90 0 l0 -319 q11 3 100 31 l0 -80 ZM362 226 l0 285 l234 0 l0 -285 l-234 0 ZM427 295 l104 0 l0 147 l-104 0 l0 -147 ZM613 90 q-17 -6 -239 -64 l-72 -19 l-16 78 q28 6 146.5 35.5 q118.5 29.5 180.5 45.5 l0 -76 Z" /><glyph glyph-name="uni57FA" unicode="&#x57fa;" d="M707 306 q48 -55 106.5 -92.5 q58.5 -37.5 148.5 -74.5 l-34 -69 q-108 49 -180.5 103 q-72.5 54 -129.5 133 l-239 0 q-46 -68 -125 -130 q-79 -62 -185 -113 l-34 69 q169 74 255 174 l-241 0 l0 65 l178 0 l0 318 l-145 0 l0 63 l145 0 l0 77 l78 0 l0 -77 l387 0 l0 77 l78 0 l0 -77 l146 0 l0 -63 l-146 0 l0 -318 l180 0 l0 -65 l-243 0 ZM692 624 l0 65 l-387 0 l0 -65 l387 0 ZM692 561 l-387 0 l0 -64 l387 0 l0 64 ZM692 436 l-387 0 l0 -65 l387 0 l0 65 ZM734 110 l-196 0 l0 -80 l370 0 l0 -68 l-820 0 l0 68 l372 0 l0 80 l-200 0 l0 64 l200 0 l0 92 l78 0 l0 -92 l196 0 l0 -64 Z" /><glyph glyph-name="uni5802" unicode="&#x5802;" d="M171 598 l0 -138 l-77 0 l0 211 l185 0 q-64 73 -89 97 l55 52 q46 -45 101 -109 l-42 -40 l157 0 l0 168 l79 0 l0 -168 l154 0 l-44 36 q44 43 102 111 l58 -45 q-56 -66 -92 -102 l189 0 l0 -211 l-77 0 l0 138 l-659 0 ZM541 127 l0 -95 l390 0 l0 -71 l-862 0 l0 71 l393 0 l0 95 l-311 0 l0 70 l311 0 l0 89 l-241 0 l0 224 l559 0 l0 -224 l-239 0 l0 -89 l310 0 l0 -70 l-310 0 ZM702 445 l-404 0 l0 -93 l404 0 l0 93 Z" /><glyph glyph-name="uni582A" unicode="&#x582a;" d="M839 317 l111 0 l0 -70 l-504 0 l0 -217 l476 0 l0 -74 l-549 0 l0 291 l-76 0 l0 70 l123 0 l0 352 l-95 0 l0 71 l95 0 l0 93 l74 0 l0 -93 l271 0 l0 93 l74 0 l0 -93 l95 0 l0 -71 l-95 0 l0 -352 ZM222 162 q43 13 103 33 l6 -77 l-98 -33 q-135 -43 -180 -60 l-16 80 q30 7 111 33 l0 355 l-99 0 l0 75 l99 0 l0 261 l74 0 l0 -261 l103 0 l0 -75 l-103 0 l0 -331 ZM765 599 l0 70 l-271 0 l0 -70 l271 0 ZM765 531 l-271 0 l0 -73 l271 0 l0 73 ZM765 390 l-271 0 l0 -73 l271 0 l0 73 ZM460 88 q79 69 136 150 l53 -41 q-58 -81 -140 -159 l-49 50 ZM826 41 q-61 77 -133 151 l50 44 q89 -91 138 -150 l-55 -45 Z" /><glyph glyph-name="uni586B" unicode="&#x586b;" d="M870 181 l85 0 l0 -68 l-614 0 l0 68 l80 0 l0 452 l186 0 l0 61 l-239 0 l0 67 l239 0 l0 78 l76 0 l0 -78 l239 0 l0 -67 l-239 0 l0 -61 l187 0 l0 -452 ZM332 153 l-43 -18 q-230 -97 -234 -99 l-22 76 q49 17 126 47 l0 351 l-102 0 l0 79 l102 0 l0 237 l75 0 l0 -237 l100 0 l0 -79 l-100 0 l0 -323 q76 29 98 39 l0 -73 ZM797 517 l0 54 l-303 0 l0 -54 l303 0 ZM494 404 l303 0 l0 56 l-303 0 l0 -56 ZM797 291 l0 56 l-303 0 l0 -56 l303 0 ZM797 235 l-303 0 l0 -54 l303 0 l0 54 ZM309 -16 q128 49 230 112 l36 -61 q-105 -63 -235 -115 l-31 64 ZM744 93 q123 -55 219 -105 l-34 -64 q-109 59 -215 107 l30 62 Z" /><glyph glyph-name="uni5883" unicode="&#x5883;" d="M950 599 l0 -64 l-607 0 l0 64 l145 0 q-12 66 -19 99 l-109 0 l0 64 l235 0 q-24 55 -34 73 l77 20 q15 -27 41 -93 l242 0 l0 -64 l-119 0 l-18 -99 l166 0 ZM339 139 q-127 -44 -287 -92 l-16 79 l121 37 l0 344 l-103 0 l0 78 l103 0 l0 258 l76 0 l0 -258 l85 0 l0 -78 l-85 0 l0 -320 q56 18 101 34 l5 -82 ZM541 698 l19 -99 l152 0 l18 99 l-189 0 ZM959 126 q0 -46 -4 -89 q-3 -36 -11.5 -53.5 q-8.5 -17.5 -27 -25.5 q-18.5 -8 -55.5 -10 q-36 -2 -54 -2 q-19 0 -55 2 q-47 2 -64 20.5 q-17 18.5 -17 66.5 l0 134 l-102 0 q-1 -2 -1 -7 q-3 -66 -33.5 -109.5 q-30.5 -43.5 -87 -74 q-56.5 -30.5 -151.5 -61.5 l-34 67 q84 24 133 49.5 q49 25.5 71 56 q22 30.5 26 71.5 q0 5 1 8 l-112 0 l0 300 l498 0 l0 -300 l-135 0 l0 -107 q0 -28 8 -37 q8 -9 34 -12 q10 -1 30 -1 q19 0 29 1 q25 2 33 11 q8 9 10 37 q3 39 3 80 l68 -15 ZM806 348 l0 59 l-352 0 l0 -59 l352 0 ZM806 289 l-352 0 l0 -60 l352 0 l0 60 Z" /><glyph glyph-name="uni5899" unicode="&#x5899;" d="M955 504 l0 -64 l-617 0 l0 64 l264 0 l0 174 l-237 0 l0 65 l237 0 l0 95 l77 0 l0 -95 l241 0 l0 -65 l-241 0 l0 -174 l103 0 l-50 46 q58 64 102 125 l54 -44 q-52 -71 -102 -127 l169 0 ZM225 184 l98 32 l3 -79 q-32 -10 -126 -43.5 q-94 -33.5 -140 -50.5 l-22 81 l111 35 l0 344 l-97 0 l0 78 l97 0 l0 245 l76 0 l0 -245 l90 0 l0 -78 l-90 0 l0 -319 ZM447 676 q46 -49 104 -124 l-52 -47 q-49 68 -101 128 l49 43 ZM459 -72 l-74 0 l0 450 l521 0 l0 -450 l-74 0 l0 42 l-373 0 l0 -42 ZM832 29 l0 289 l-373 0 l0 -289 l373 0 ZM527 260 l237 0 l0 -173 l-237 0 l0 173 ZM583 141 l125 0 l0 66 l-125 0 l0 -66 Z" /><glyph glyph-name="uni589E" unicode="&#x589e;" d="M918 722 l0 -331 l-551 0 l0 331 l144 0 q-28 42 -66 91 l62 40 q44 -55 81 -111 l-31 -20 l133 0 q67 96 86 128 l67 -37 q-29 -47 -61 -91 l136 0 ZM237 178 l104 36 l5 -87 q-17 -5 -127 -41.5 q-110 -36.5 -162 -54.5 l-20 80 l127 42 l0 350 l-109 0 l0 77 l109 0 l0 255 l73 0 l0 -255 l99 0 l0 -77 l-99 0 l0 -325 ZM609 652 l-175 0 l0 -194 l175 0 l0 194 ZM674 458 l176 0 l0 194 l-176 0 l0 -194 ZM509 637 q42 -63 78 -126 l-53 -33 q-51 88 -77 125 l52 34 ZM694 513 q46 64 84 121 l52 -35 q-41 -65 -85 -123 l-51 37 ZM479 -74 l-73 0 l0 396 l472 0 l0 -396 l-73 0 l0 46 l-326 0 l0 -46 ZM805 179 l0 77 l-326 0 l0 -77 l326 0 ZM479 114 l0 -78 l326 0 l0 78 l-326 0 Z" /><glyph glyph-name="uni58C1" unicode="&#x58c1;" d="M939 578 l0 -64 l-194 0 l0 -83 l172 0 l0 -66 l-172 0 l0 -91 l-76 0 l0 91 l-169 0 l0 66 l169 0 l0 83 l-188 0 l0 64 l111 0 q-6 29 -27 109 l-63 0 l0 64 l169 0 l-34 71 l72 25 q20 -43 42 -96 l170 0 l0 -64 l-75 0 q-15 -63 -28 -109 l121 0 ZM166 450 q-25 -67 -85 -142 l-52 54 q48 57 73.5 119 q25.5 62 25.5 158 l0 157 l321 0 l0 -222 l-255 0 q-3 -34 -11 -68 l272 0 l0 -205 l-289 0 l0 149 ZM379 634 l0 99 l-183 0 l0 -99 l183 0 ZM635 687 q17 -72 25 -109 l94 0 q16 58 26 109 l-145 0 ZM388 448 l-155 0 l0 -90 l155 0 l0 90 ZM866 140 l-326 0 l0 -109 l394 0 l0 -68 l-868 0 l0 68 l394 0 l0 109 l-326 0 l0 68 l326 0 l0 62 l80 0 l0 -62 l326 0 l0 -68 Z" /><glyph glyph-name="uni58D1" unicode="&#x58d1;" d="M481 655 l-335 0 l0 -86 l-69 0 l0 138 l189 0 l0 144 l72 0 l0 -53 l175 0 l0 -49 l-175 0 l0 -42 l213 0 l0 -139 l-70 0 l0 87 ZM716 406 q-77 122 -109 301 l-20 0 l0 68 l323 0 l0 -68 q-18 -94 -45 -167.5 q-27 -73.5 -68 -135.5 q64 -78 163 -142 l-42 -60 q-96 67 -162 148 q-68 -79 -167 -145 l-43 56 q106 68 170 145 ZM756 462 q31 50 52 110 q21 60 35 135 l-173 0 q24 -143 86 -245 ZM192 562 l0 50 l243 0 l0 -50 l-243 0 ZM220 518 q-80 -60 -152 -86 l-23 50 q39 13 71 31.5 q32 18.5 73 48.5 l31 -44 ZM563 434 q-105 65 -145 83 l26 45 q51 -24 148 -82 l-29 -46 ZM156 353 q-48 -27 -87 -43 l-27 58 q73 26 144 75 q71 49 127 112 l47 -34 q-16 -19 -17 -20 q138 -73 213 -123 l-33 -48 q-17 12 -50 33 l0 -141 l-317 0 l0 131 ZM305 463 q-52 -49 -98 -79 l233 0 q-77 48 -135 79 ZM223 270 l184 0 l0 66 l-184 0 l0 -66 ZM860 93 l-323 0 l0 -73 l403 0 l0 -64 l-883 0 l0 64 l402 0 l0 73 l-326 0 l0 61 l326 0 l0 53 l78 0 l0 -53 l323 0 l0 -61 Z" /><glyph glyph-name="uni58F0" unicode="&#x58f0;" d="M946 738 l0 -69 l-405 0 l0 -88 l332 0 l0 -68 l-743 0 l0 68 l329 0 l0 88 l-405 0 l0 69 l405 0 l0 110 l82 0 l0 -110 l405 0 ZM155 438 l699 0 l0 -270 l-622 0 q-9 -64 -39 -122.5 q-30 -58.5 -90 -132.5 l-64 49 q47 57 70.5 98 q23.5 41 34 86.5 q10.5 45.5 11.5 112.5 l0 179 ZM236 368 l0 -132 l226 0 l0 132 l-226 0 ZM542 236 l229 0 l0 132 l-229 0 l0 -132 Z" /><glyph glyph-name="uni5904" unicode="&#x5904;" d="M699 40 q76 -3 129 -3 q68 0 123 4 l-20 -81 q-72 -2 -106 -2 q-30 0 -112 2 q-139 4 -239 40 q-100 36 -173 123 q-79 -92 -202 -177 l-48 72 q124 79 202 174 q-52 90 -87 223 q-27 -54 -64 -114 l-51 64 q53 85 101 211 q48 126 76 258 l79 -13 q-13 -58 -37 -140 l239 0 l0 -76 q-21 -128 -58.5 -230 q-37.5 -102 -98.5 -188 q61 -77 145.5 -109.5 q84.5 -32.5 201.5 -37.5 ZM709 97 l-81 0 l0 733 l81 0 l0 -235 l23 -16 q175 -124 226 -167 l-36 -78 q-36 31 -98 79 q-62 48 -115 87 l0 -403 ZM217 530 q32 -166 87 -269 q91 141 124 344 l-183 0 q-8 -25 -28 -75 Z" /><glyph glyph-name="uni5907" unicode="&#x5907;" d="M583 515 q147 -54 379 -86 l-23 -78 q-145 23 -253 53 q-108 30 -191 70 q-186 -79 -435 -124 l-23 73 q210 36 374 98 q-73 46 -143 117 q-75 -76 -162 -136 l-47 62 q88 61 163.5 140.5 q75.5 79.5 120.5 148.5 l84 -20 q-29 -44 -50 -72 l459 0 l0 -76 q-113 -98 -253 -170 ZM314 686 q82 -82 180 -131 q129 58 228 137 l-402 0 l-6 -6 ZM238 -82 l-79 0 l0 436 l679 0 l0 -436 l-80 0 l0 50 l-520 0 l0 -50 ZM461 194 l0 95 l-223 0 l0 -95 l223 0 ZM538 194 l220 0 l0 95 l-220 0 l0 -95 ZM238 130 l0 -92 l223 0 l0 92 l-223 0 ZM538 130 l0 -92 l220 0 l0 92 l-220 0 Z" /><glyph glyph-name="uni590D" unicode="&#x590d;" d="M932 -71 q-246 35 -409 91 q-164 -57 -440 -100 l-23 69 q198 25 362 70 q-97 44 -175 100 q-72 -57 -148 -98 l-38 64 q142 73 248 187 l-119 0 l0 288 q-52 -58 -101 -105 l-51 64 q68 55 129 133.5 q61 78.5 94 154.5 l76 -32 l-33 -58 l604 0 l0 -68 l-649 0 q-29 -41 -52 -69 l620 0 l0 -308 l-420 0 q-20 -23 -61 -64 l490 0 l0 -61 q-97 -76 -213 -129 q147 -37 324 -53 l-15 -76 ZM751 493 l0 65 l-483 0 l0 -65 l483 0 ZM751 439 l-483 0 l0 -67 l483 0 l0 67 ZM317 187 q87 -58 202 -97 q123 43 198 97 l-400 0 Z" /><glyph glyph-name="uni590F" unicode="&#x590f;" d="M934 -71 q-244 28 -415 83 q-164 -53 -438 -93 l-20 70 q206 26 353 63 q-90 37 -172 90 q-72 -50 -153 -85 l-35 60 q70 30 135 73 q65 43 113 93 l-131 0 l0 374 l257 0 q15 40 24 71 l-392 0 l0 64 l882 0 l0 -64 l-401 0 q-13 -40 -24 -71 l315 0 l0 -374 l-432 0 q-25 -30 -54 -57 l484 0 l0 -58 q-87 -68 -205 -117 q142 -35 322 -55 l-13 -67 ZM755 547 l0 56 l-507 0 l0 -56 l507 0 ZM248 443 l507 0 l0 54 l-507 0 l0 -54 ZM755 393 l-507 0 l0 -56 l507 0 l0 56 ZM314 168 q89 -49 204 -86 q110 36 184 86 l-388 0 Z" /><glyph glyph-name="uni5915" unicode="&#x5915;" d="M886 692 l0 -79 q-67 -162 -162 -285 q-95 -123 -235 -223 q-140 -100 -344 -190 l-58 78 q286 119 451.5 266.5 q165.5 147.5 247.5 353.5 l-428 0 q-31 -47 -68 -95 q58 -37 122.5 -81 q64.5 -44 100.5 -73 l-51 -72 q-109 84 -224 163 q-57 -65 -133 -135 l-65 62 q117 104 201 216.5 q84 112.5 145 250.5 l88 -25 q-32 -70 -68 -132 l480 0 Z" /><glyph glyph-name="uni5916" unicode="&#x5916;" d="M333 819 q-22 -82 -41 -137 l239 0 l0 -80 q-26 -149 -72 -261 q-46 -112 -127 -210.5 q-81 -98.5 -212 -196.5 l-61 68 q129 91 205 179.5 q76 88.5 117 186 q41 97.5 69 234.5 l-188 0 q-28 -68 -57 -125 q97 -65 140 -97 l-48 -74 q-47 37 -132 98 q-37 -65 -73 -113 l-58 63 q71 104 128 231 q57 127 89 254 l82 -20 ZM916 288 q-127 104 -219 178 l0 -538 l-79 0 l0 908 l79 0 l0 -275 q163 -124 265 -205 l-46 -68 Z" /><glyph glyph-name="uni591A" unicode="&#x591a;" d="M922 380 l0 -70 q-89 -117 -188 -191 q-99 -74 -245 -119.5 q-146 -45.5 -365 -64.5 l-41 72 q206 15 344 53 q138 38 228 98.5 q90 60.5 158 151.5 l-324 0 q-32 -24 -78 -53 l86 -50 q39 -22 44 -25 l-55 -58 l-145 91 q-80 -44 -181 -88 l-41 67 q143 58 262.5 133.5 q119.5 75.5 194.5 154.5 q-187 -90 -460 -143 l-35 68 q224 38 385.5 105 q161.5 67 281.5 169 l-348 0 q-22 -17 -49 -34 l128 -69 l-53 -54 q-65 39 -144 81 q-71 -40 -134 -67 l-42 61 q110 49 211.5 117.5 q101.5 68.5 171.5 136.5 l69 -30 q-32 -37 -68 -70 l377 0 l0 -72 q-130 -121 -287 -197 l64 -36 q-27 -30 -69 -68 l347 0 Z" /><glyph glyph-name="uni591C" unicode="&#x591c;" d="M939 729 l0 -75 l-872 0 l0 75 l407 0 q-28 60 -50 103 l79 28 q27 -54 60 -131 l376 0 ZM921 -67 q-190 65 -305 144 q-105 -79 -282 -154 l-44 73 q168 66 261 130 q-86 76 -147 187 q-34 -48 -71 -91 l-55 57 q68 78 115.5 163.5 q47.5 85.5 91.5 198.5 l74 -22 q-10 -26 -30 -74 l344 0 l0 -74 q-36 -114 -81.5 -195.5 q-45.5 -81.5 -112.5 -145.5 q106 -66 279 -119 l-37 -78 ZM333 613 q-37 -86 -79 -156 l0 -531 l-77 0 l0 417 q-43 -57 -107 -125 l-37 72 q143 155 226 350 l74 -27 ZM448 381 q64 -124 167 -206 q63 56 105.5 127 q42.5 71 73.5 169 l-299 0 q-27 -56 -47 -90 ZM648 267 q-63 73 -121 133 l47 48 q25 -23 70 -72 l55 -57 l-51 -52 Z" /><glyph glyph-name="uni591F" unicode="&#x591f;" d="M937 369 l0 -71 q-52 -126 -149.5 -213.5 q-97.5 -87.5 -279.5 -163.5 l-47 69 q168 60 260 134 q92 74 140 177 l-177 0 q-32 -38 -50 -56 q42 -33 82 -68 l-49 -51 q-36 36 -81 73 q-31 -27 -66 -54 l-43 54 q79 57 134.5 119 q55.5 62 96.5 136 q-78 -49 -201 -97 l-33 61 q137 50 228 114.5 q91 64.5 145 147.5 l-208 0 q-15 -19 -32 -38 q34 -24 84 -65 l-48 -48 q-36 35 -79 68 q-22 -22 -50 -45 l-41 49 q123 106 190 243 l70 -14 q-24 -49 -47 -84 l240 0 l0 -71 q-73 -126 -201 -210 l52 -24 q-24 -43 -43 -72 l203 0 ZM461 719 l0 -32 q0 -135 -5.5 -299 q-5.5 -164 -13.5 -302 q-4 -61 -16 -89.5 q-12 -28.5 -40 -39 q-28 -10.5 -88 -10.5 q-50 0 -85 5 l-16 75 q53 -7 91 -7 q34 0 49.5 5.5 q15.5 5.5 22.5 23.5 q7 18 10 59 q8 131 13 289 q5 158 4 244 l-211 0 q-33 -56 -83 -125 l217 0 l0 -393 l-222 0 l0 386 l-24 -31 l-43 63 q56 70 101.5 149 q45.5 79 69.5 153 l70 -18 q-22 -60 -44 -106 l243 0 ZM245 451 l-90 0 l0 -264 l90 0 l0 264 Z" /><glyph glyph-name="uni5927" unicode="&#x5927;" d="M538 502 q35 -161 134.5 -280 q99.5 -119 281.5 -215 l-52 -75 q-300 173 -397 423 q-88 -236 -400 -426 l-53 77 q173 94 281 222 q108 128 120 286 l-383 0 l0 81 l385 0 l0 253 l85 0 l0 -253 l389 0 l0 -81 l-390 0 q-1 -4 -1 -12 Z" /><glyph glyph-name="uni5929" unicode="&#x5929;" d="M542 408 q42 -137 141 -233 q99 -96 269 -168 l-43 -79 q-164 80 -261 168.5 q-97 88.5 -144 206.5 q-91 -220 -408 -375 l-46 74 q181 84 280 185 q99 101 119 221 l-375 0 l0 75 l380 0 l0 212 l-335 0 l0 78 l757 0 l0 -78 l-339 0 l0 -212 l384 0 l0 -75 l-379 0 Z" /><glyph glyph-name="uni592A" unicode="&#x592a;" d="M543 540 q19 -95 77 -194 q58 -99 146 -187 q88 -88 196 -149 l-54 -75 q-137 86 -245.5 217 q-108.5 131 -160.5 272 q-45 -136 -148.5 -262.5 q-103.5 -126.5 -263.5 -230.5 l-54 73 q176 103 281.5 243 q105.5 140 129.5 293 l-377 0 l0 81 l383 0 l0 1 l0 215 l85 0 l0 -201 l0 -15 l391 0 l0 -81 l-386 0 ZM433 185 q92 -99 149 -167 l-57 -50 q-39 47 -102 116 q-22 23 -44 49 l54 52 Z" /><glyph glyph-name="uni592E" unicode="&#x592e;" d="M553 286 q43 -99 139.5 -168 q96.5 -69 261.5 -115 l-43 -80 q-157 47 -255.5 120 q-98.5 73 -152.5 174 q-92 -186 -409 -301 l-45 81 q186 64 278 132 q92 68 118 157 l-391 0 l0 75 l103 0 l0 314 l300 0 l0 150 l83 0 l0 -150 l300 0 l0 -314 l103 0 l0 -75 l-390 0 ZM236 599 l0 -238 l221 0 l0 17 l0 221 l-221 0 ZM760 361 l0 238 l-220 0 l0 -227 l0 -11 l220 0 Z" /><glyph glyph-name="uni5931" unicode="&#x5931;" d="M557 328 q44 -113 137 -190.5 q93 -77.5 252 -135.5 l-47 -74 q-147 60 -242.5 138 q-95.5 78 -147.5 187 q-43 -95 -142 -179 q-99 -84 -258 -150 l-49 72 q169 69 264.5 151 q95.5 82 124.5 181 l-380 0 l0 78 l393 0 l0 3 q2 26 4 178 l-218 0 q-33 -77 -67 -137 l-73 40 q38 62 73 147.5 q35 85.5 58 168.5 l80 -20 q-11 -41 -39 -121 l186 0 l2 173 l82 0 l-2 -173 l334 0 l0 -78 l-335 0 l-1 -88 q0 -69 -1 -83 l0 -10 l383 0 l0 -78 l-371 0 Z" /><glyph glyph-name="uni5934" unicode="&#x5934;" d="M904 -63 q-159 90 -371 202 q-57 -67 -161 -115.5 q-104 -48.5 -287 -98.5 l-29 82 q146 37 233 71 q87 34 140 77 q53 43 80 106 l-449 0 l0 76 l472 0 q9 40 14 89 q5 49 8 121 q2 59 3.5 133.5 q1.5 74.5 2.5 127.5 l0 24 l83 0 l0 -24 q-1 -56 -2.5 -133.5 q-1.5 -77.5 -3.5 -139.5 q-5 -118 -19 -198 l323 0 l0 -76 l-342 0 q-14 -40 -23 -57 l89 -46 q134 -68 278 -143 l-39 -78 ZM439 559 q-39 30 -118 82 q-79 52 -137 87 l41 68 q59 -34 135 -82.5 q76 -48.5 125 -84.5 l-46 -70 ZM366 382 q-49 35 -127 85 q-78 50 -129 79 l40 69 q61 -35 135.5 -81.5 q74.5 -46.5 125.5 -82.5 l-45 -69 Z" /><glyph glyph-name="uni5948" unicode="&#x5948;" d="M38 416 q114 53 189 108 q75 55 124 124 l-276 0 l0 76 l323 0 q24 47 47 117 l82 -10 q-17 -57 -40 -107 l435 0 l0 -76 l-277 0 q56 -76 132.5 -128.5 q76.5 -52.5 185.5 -90.5 l-35 -77 q-127 55 -220 128 l0 -61 l-420 0 l0 56 q-86 -69 -211 -128 l-39 69 ZM446 648 q-55 -86 -134 -153 l377 0 q-78 67 -133 153 l-110 0 ZM903 242 l-353 0 l0 -197 q0 -64 -23.5 -89 q-23.5 -25 -86.5 -25 q-56 0 -112 6 l-16 78 q63 -9 105 -9 q31 0 42 16.5 q11 16.5 11 56.5 l0 163 l-374 0 l0 76 l807 0 l0 -76 ZM351 166 q-45 -50 -115 -107 q-70 -57 -139 -102 l-44 68 q66 40 132 92 q66 52 112 101 l54 -52 ZM694 214 q57 -38 128 -87 q71 -49 133 -94 l-47 -67 q-59 46 -135 102 q-76 56 -122 86 l43 60 Z" /><glyph glyph-name="uni5949" unicode="&#x5949;" d="M727 208 l-193 0 l0 -87 l331 0 l0 -67 l-331 0 l0 -135 l-81 0 l0 135 l-329 0 l0 67 l329 0 l0 87 l-192 0 l0 55 q-73 -63 -192 -130 l-40 66 q90 48 155.5 98.5 q65.5 50.5 111.5 106.5 l-238 0 l0 66 l284 0 q21 36 37 74 l-238 0 l0 66 l262 0 q11 37 18 76 l-328 0 l0 66 l341 0 l14 87 l86 -3 l-3 -22 l-9 -62 l370 0 l0 -66 l-383 0 q-10 -42 -21 -76 l367 0 l0 -66 l-390 0 q-12 -32 -35 -74 l496 0 l0 -66 l-246 0 q51 -65 119 -113 q68 -48 158 -83 l-38 -70 q-109 49 -192 118 l0 -48 ZM453 272 l0 89 l81 0 l0 -89 l175 0 q-67 60 -116 132 l-203 0 q-51 -73 -119 -132 l182 0 Z" /><glyph glyph-name="uni594B" unicode="&#x594b;" d="M933 355 q-72 32 -100 46 l0 -473 l-77 0 l0 54 l-513 0 l0 -54 l-78 0 l0 469 q-71 -37 -98 -49 l-33 76 q108 48 187.5 103 q79.5 55 135.5 122 l-284 0 l0 75 l338 0 q36 58 60 128 l84 -11 q-21 -59 -50 -117 l420 0 l0 -75 l-294 0 q55 -68 132 -117.5 q77 -49.5 204 -99.5 l-34 -77 ZM715 468 q-57 38 -100.5 81.5 q-43.5 43.5 -81.5 99.5 l-73 0 q-71 -103 -181 -181 l436 0 ZM243 260 l218 0 l0 136 l-218 0 l0 -136 ZM538 260 l218 0 l0 136 l-218 0 l0 -136 ZM461 191 l-218 0 l0 -139 l218 0 l0 139 ZM538 191 l0 -139 l218 0 l0 139 l-218 0 Z" /><glyph glyph-name="uni594F" unicode="&#x594f;" d="M527 272 l-3 -61 q0 -6 -1 -9 l301 0 l0 -65 l-312 0 q-5 -16 -7 -21 q215 -69 374 -125 l-31 -77 q-77 31 -189.5 73.5 q-112.5 42.5 -192.5 69.5 q-41 -43 -122 -74.5 q-81 -31.5 -223 -62.5 l-21 73 q160 33 231.5 65.5 q71.5 32.5 94.5 78.5 l-272 0 l0 65 l289 0 l1 11 l3 59 l-159 0 l0 38 q-85 -75 -234 -152 l-30 69 q91 47 155 92 q64 45 110 95 l-235 0 l0 64 l285 0 q23 37 38 70 l-248 0 l0 66 l274 0 q13 42 19 70 l-333 0 l0 66 l347 0 l18 94 l78 -4 q-5 -30 -17 -90 l373 0 l0 -66 l-388 0 q-12 -48 -19 -70 l366 0 l0 -66 l-390 0 q-12 -33 -32 -70 l498 0 l0 -64 l-245 0 q105 -114 277 -174 l-33 -72 q-138 56 -236 140 l0 -36 l-159 0 ZM384 414 q-31 -44 -69 -80 l341 0 q-39 38 -71 80 l-201 0 Z" /><glyph glyph-name="uni5954" unicode="&#x5954;" d="M40 471 q113 42 191.5 89.5 q78.5 47.5 129.5 105.5 l-284 0 l0 74 l337 0 q26 47 42 102 l85 -2 q-18 -58 -38 -100 l423 0 l0 -74 l-283 0 q61 -63 144 -111.5 q83 -48.5 181 -75.5 l-34 -79 q-122 40 -219.5 108 q-97.5 68 -166.5 158 l-88 0 q-57 -84 -150.5 -148 q-93.5 -64 -238.5 -122 l-31 75 ZM544 390 l0 -113 l-80 0 l0 113 l-246 0 l0 73 l246 0 l0 128 l80 0 l0 -128 l235 0 l0 -73 l-235 0 ZM752 334 l0 -118 l191 0 l0 -77 l-191 0 l0 -207 l-82 0 l0 207 l-339 0 q-10 -67 -54.5 -118 q-44.5 -51 -144.5 -102 l-53 63 q84 39 120 74 q36 35 46 83 l-187 0 l0 77 l194 0 q1 32 1 118 l83 0 l0 -118 l334 0 l0 118 l82 0 Z" /><glyph glyph-name="uni5973" unicode="&#x5973;" d="M788 558 q-31 -140 -71.5 -231.5 q-40.5 -91.5 -106.5 -157.5 q163 -84 313 -168 l-50 -79 q-155 92 -335 188 q-73 -52 -182 -95.5 q-109 -43.5 -272 -90.5 l-39 83 q139 36 236.5 72 q97.5 36 166.5 78 q-168 87 -260 128 q66 134 115 273 l-254 0 l0 83 l282 0 q33 100 58 209 l88 -17 q-20 -82 -54 -192 l535 0 l0 -83 l-170 0 ZM301 323 q93 -42 224 -110 q67 59 107.5 140.5 q40.5 81.5 69.5 204.5 l-307 0 q-49 -140 -94 -235 Z" /><glyph glyph-name="uni5979" unicode="&#x5979;" d="M953 192 q-2 -73 -7 -131 q-3 -62 -30 -87.5 q-27 -25.5 -96 -31.5 q-65 -6 -125 -6 q-59 0 -125 6 q-65 6 -94 38 q-29 32 -29 106 l0 354 l-55 -18 l-21 72 l76 26 l0 215 l74 0 l0 -190 l101 34 l0 257 l73 0 l0 -232 l205 69 l0 -33 q0 -75 -4.5 -175.5 q-4.5 -100.5 -8.5 -146.5 q-6 -60 -27.5 -82 q-21.5 -22 -74.5 -22 q-17 0 -51 4 l-15 74 q23 -5 43 -5 q28 0 38.5 13 q10.5 13 13.5 51 q10 134 9 211 l-128 -42 l0 -398 l-73 0 l0 375 l-101 -33 l0 -353 q0 -50 16.5 -69.5 q16.5 -19.5 61.5 -24.5 q51 -6 95 -6 q46 0 95 6 q34 4 51.5 13 q17.5 9 24.5 26 q7 17 8 48 q1 21 1 76 l0 30 l79 -18 ZM369 568 q-13 -150 -30 -239 q-17 -89 -51 -158 l40 -38 l68 -64 l-52 -60 q-38 39 -96 94 q-48 -74 -158 -184 l-56 60 q56 53 93.5 94.5 q37.5 41.5 63.5 83.5 q-64 59 -112 100 q36 158 56 311 l-81 0 l0 75 l91 0 q12 112 16 186 l74 -5 q-5 -76 -17 -181 l151 0 l0 -75 ZM159 284 q11 -8 52 -45 l17 -15 q28 63 44.5 143.5 q16.5 80.5 26.5 200.5 l-90 0 q-25 -180 -50 -284 Z" /><glyph glyph-name="uni597D" unicode="&#x597d;" d="M421 583 q-18 -144 -37.5 -234.5 q-19.5 -90.5 -52.5 -158.5 l62 -51 q0 0 77 -63 l-55 -66 q-66 59 -127 108 q-32 -46 -78 -90.5 q-46 -44.5 -114 -97.5 l-56 62 q65 49 109 91.5 q44 42.5 75 87.5 q-76 63 -136 107 q38 139 63 301 l-95 0 l0 81 l107 0 q13 96 20 184 l80 -6 q-9 -93 -22 -178 l180 0 l0 -77 ZM963 423 l0 -80 l-230 0 l0 -281 q0 -67 -26 -94 q-26 -27 -91 -27 q-60 0 -104 5 l-17 81 q51 -9 103 -9 q23 0 34 5.5 q11 5.5 15.5 20.5 q4.5 15 4.5 46 l0 253 l-210 0 l0 80 l210 0 l0 118 l168 157 l-346 0 l0 77 l452 0 l0 -76 l-193 -188 l0 -88 l230 0 ZM191 301 l74 -58 q29 60 47.5 140 q18.5 80 33.5 196 l-117 0 q-29 -168 -55 -265 l17 -13 Z" /><glyph glyph-name="uni5982" unicode="&#x5982;" d="M468 581 q-16 -152 -40 -246.5 q-24 -94.5 -69 -167.5 q46 -37 144 -121 l-50 -72 q-85 77 -143 126 q-68 -80 -209 -183 l-63 59 q75 51 126 92 q51 41 86 82 q-94 76 -152 117 q46 162 71 309 l-112 0 l0 80 l124 0 q13 100 20 188 l81 -9 q-8 -80 -20 -179 l206 0 l0 -75 ZM547 -55 l0 776 l349 0 l0 -770 l-76 0 l0 79 l-196 0 l0 -85 l-77 0 ZM624 642 l0 -530 l196 0 l0 530 l-196 0 ZM188 299 q20 -14 90 -68 l21 -16 q38 64 57.5 146 q19.5 82 33.5 215 l-140 0 q-28 -165 -62 -277 Z" /><glyph glyph-name="uni59A8" unicode="&#x59a8;" d="M341 55 q-38 36 -75 69 q-57 -80 -172 -189 l-64 56 q120 106 176 185 q-67 57 -131 105 q38 138 62 298 l-86 0 l0 79 l98 0 q11 77 20 187 l78 -4 q-7 -84 -20 -183 l173 0 l0 -76 q-14 -138 -33 -225 q-19 -87 -57 -159 q28 -24 84 -74 l-53 -69 ZM613 623 q0 -15 -1 -23 q0 -65 -3 -106 l-2 -26 l287 0 q0 -94 -5.5 -194.5 q-5.5 -100.5 -15.5 -179.5 q-7 -55 -20.5 -84.5 q-13.5 -29.5 -40.5 -42.5 q-27 -13 -77 -13 q-50 0 -101 6 l-17 79 q66 -10 98 -10 q27 0 42 8 q15 8 23.5 27.5 q8.5 19.5 14.5 57.5 q18 119 16 263 l-210 0 q-9 -111 -26 -185 q-17 -74 -51 -138 q-34 -64 -96 -138 l-67 54 q70 78 103 142.5 q33 64.5 45.5 146.5 q12.5 82 20.5 239 q2 22 2 82 q1 12 1 35 l-94 0 l0 78 l224 0 l-46 130 l77 11 q9 -21 39 -105 l13 -36 l211 0 l0 -78 l-344 0 ZM163 318 q53 -41 87 -70 q31 63 48.5 140 q17.5 77 28.5 191 l-111 0 q-22 -136 -53 -261 Z" /><glyph glyph-name="uni59CB" unicode="&#x59cb;" d="M844 468 q-86 -9 -232 -26 l-116 -13 l-76 -9 l-17 75 q20 8 28.5 14.5 q8.5 6.5 17.5 18.5 q39 53 88.5 145 q49.5 92 83.5 173 l75 -27 q-32 -78 -79.5 -167.5 q-47.5 -89.5 -89.5 -147.5 l283 33 q-38 79 -79 152 l66 32 q28 -43 74 -130 q46 -87 80 -160 l-72 -35 l-35 72 ZM368 577 q-13 -143 -30.5 -235 q-17.5 -92 -47.5 -164 q74 -66 122 -112 l-49 -66 q-31 31 -109 105 q-53 -88 -152 -189 l-55 54 q53 53 89.5 97.5 q36.5 44.5 60.5 88.5 q-77 67 -124 102 q36 140 62 319 l-91 0 l0 77 l101 0 q10 88 18 183 l77 -5 q-7 -90 -18 -178 l146 0 l0 -77 ZM157 290 q35 -27 74 -61 q23 62 35.5 139.5 q12.5 77.5 25.5 208.5 l-81 0 q-21 -151 -54 -287 ZM533 -73 l-79 0 l0 411 l439 0 l0 -412 l-79 0 l0 56 l-281 0 l0 -55 ZM814 57 l0 207 l-281 0 l0 -207 l281 0 Z" /><glyph glyph-name="uni59D0" unicode="&#x59d0;" d="M332 40 q-47 45 -70 65 q-29 -45 -70 -90 q-41 -45 -100 -99 l-60 61 q62 54 102.5 97 q40.5 43 69.5 85 q-87 76 -128 110 q30 117 57 297 l-88 0 l0 77 l98 0 q12 91 18 186 l79 -2 q-7 -86 -21 -184 l167 0 l0 -76 q-11 -134 -30 -226 q-19 -92 -53 -164 l83 -76 l-54 -61 ZM868 790 l0 -752 l89 0 l0 -75 l-583 0 l0 75 l85 0 l0 752 l409 0 ZM791 539 l0 174 l-254 0 l0 -174 l254 0 ZM159 300 q60 -50 84 -72 q28 61 43.5 138.5 q15.5 77.5 25.5 199.5 l-104 0 q-25 -159 -49 -266 ZM537 294 l254 0 l0 170 l-254 0 l0 -170 ZM791 219 l-254 0 l0 -181 l254 0 l0 181 Z" /><glyph glyph-name="uni59D1" unicode="&#x59d1;" d="M393 571 q-14 -147 -32.5 -238 q-18.5 -91 -54.5 -163 q77 -68 120 -111 l-50 -67 q-41 42 -111 107 q-53 -78 -165 -184 l-62 53 q59 52 99 95.5 q40 43.5 69 88.5 q-75 66 -135 110 q35 135 61 309 l-86 0 l0 76 l96 0 q12 96 18 189 l79 -5 q-6 -82 -20 -184 l174 0 l0 -76 ZM942 655 l0 -76 l-220 0 l0 -198 l175 0 l0 -457 l-77 0 l0 63 l-273 0 l0 -63 l-78 0 l0 457 l174 0 l0 198 l-206 0 l0 76 l206 0 l0 180 l79 0 l0 -180 l220 0 ZM156 289 q37 -26 88 -67 q28 63 44.5 145 q16.5 82 26.5 204 l-106 0 q-29 -188 -53 -282 ZM547 62 l273 0 l0 245 l-273 0 l0 -245 Z" /><glyph glyph-name="uni5A18" unicode="&#x5a18;" d="M747 154 q37 -42 89 -75 q52 -33 125 -65 l-48 -69 q-139 72 -216.5 157.5 q-77.5 85.5 -117.5 222.5 l-75 0 l0 -289 l147 62 l11 -75 q-122 -46 -178 -71 l-50 -24 l-34 73 q17 11 23.5 20.5 q6.5 9.5 6.5 22.5 l0 696 l186 0 q-15 43 -38 90 l69 25 q27 -62 44 -115 l184 0 l0 -415 l-226 0 q24 -68 56 -117 q106 50 185 104 l33 -62 q-78 -50 -176 -96 ZM284 178 q50 -44 117 -111 l-53 -58 q-29 31 -104 102 q-52 -76 -161 -182 l-56 54 q111 106 161 180 q-72 65 -117 101 q36 133 60 317 l-89 0 l0 76 l98 0 q11 97 14 178 l74 -3 q-5 -89 -15 -175 l157 0 l0 -73 q-11 -148 -30 -240.5 q-19 -92.5 -56 -165.5 ZM802 564 l0 106 l-298 0 l0 -106 l298 0 ZM150 292 q40 -31 76 -62 q30 62 45.5 142.5 q15.5 80.5 25.5 208.5 l-93 0 q-26 -186 -54 -289 ZM802 498 l-298 0 l0 -106 l298 0 l0 106 Z" /><glyph glyph-name="uni5A49" unicode="&#x5a49;" d="M445 662 l0 -95 l-68 0 l0 169 l255 0 q-20 45 -45 94 l70 20 q26 -51 53 -114 l218 0 l0 -169 l-70 0 l0 95 l-413 0 ZM263 185 q62 -58 95 -94 l-50 -53 q-3 4 -51 54 l-27 27 q-50 -85 -144 -182 l-58 51 q101 101 148 183 q-57 55 -99 93 q27 132 47 319 l-81 0 l0 72 l88 0 q10 115 13 186 l69 -5 q-5 -102 -13 -181 l136 0 l0 -72 q-7 -136 -23.5 -229.5 q-16.5 -93.5 -49.5 -168.5 ZM534 599 q-11 -45 -22 -80 l122 0 l0 -66 q-15 -110 -41.5 -191.5 q-26.5 -81.5 -78.5 -161.5 q-52 -80 -143 -176 l-55 54 q69 66 114 123.5 q45 57.5 73 114.5 q-43 38 -89 74 q-13 -26 -38 -67 l-55 45 q57 90 90.5 169 q33.5 79 54.5 174 l68 -12 ZM150 289 q46 -40 59 -53 q27 66 41 147.5 q14 81.5 20 199.5 l-77 0 q-19 -174 -43 -294 ZM951 154 q0 -46 -5 -94 q-4 -39 -14 -59.5 q-10 -20.5 -30 -29.5 q-20 -9 -58 -12 q-30 -2 -44 -2 q-14 0 -44 2 q-51 3 -70.5 25.5 q-19.5 22.5 -19.5 81.5 l0 473 l235 0 q0 -151 -5 -257 q-2 -36 -9 -55.5 q-7 -19.5 -25 -28 q-18 -8.5 -52 -8.5 q-24 0 -49 3 l-14 66 q13 -3 42 -5 q26 -2 34 6 q8 8 10 37 q5 69 5 178 l-109 0 l0 -396 q0 -23 3.5 -34 q3.5 -11 13 -15.5 q9.5 -4.5 28.5 -6.5 q10 -1 28 -1 q19 0 28 1 q22 2 32.5 7 q10.5 5 15.5 16.5 q5 11.5 8 36.5 q2 20 3 44 q1 24 1 41 l61 -14 ZM490 454 q-20 -53 -44 -103 q46 -35 85 -69 q25 74 39 172 l-80 0 Z" /><glyph glyph-name="uni5A9A" unicode="&#x5a9a;" d="M297 52 q-42 46 -65 70 q-48 -83 -147 -184 l-58 51 q103 101 152 187 q-63 63 -103 99 q31 154 49 304 l-81 0 l0 72 l89 0 q11 105 14 188 l70 -5 q-4 -80 -14 -183 l136 0 l0 -72 q-8 -134 -24 -224.5 q-16 -90.5 -47 -163.5 q48 -48 70 -72 l-41 -67 ZM412 789 l505 0 l0 -252 l-434 0 l0 -31 q0 -191 -28 -319 q-28 -128 -94 -256 l-64 36 q63 125 89 245 q26 120 26 296 l0 281 ZM637 724 l-154 0 l0 -121 l154 0 l0 121 ZM703 603 l144 0 l0 121 l-144 0 l0 -121 ZM150 300 q22 -18 63 -56 q25 64 38 142.5 q13 78.5 19 192.5 l-76 0 q-17 -150 -44 -279 ZM580 -73 l-69 0 l0 534 l392 0 l0 -532 l-71 0 l0 51 l-252 0 l0 -53 ZM832 320 l0 79 l-252 0 l0 -79 l252 0 ZM580 260 l0 -79 l252 0 l0 79 l-252 0 ZM580 121 l0 -81 l252 0 l0 81 l-252 0 Z" /><glyph glyph-name="uni5AD6" unicode="&#x5ad6;" d="M288 16 q-42 49 -73 83 q-46 -76 -137 -176 l-56 52 q52 53 86 94 q34 41 58 82 q-47 51 -99 103 q28 141 47 316 l-76 0 l0 74 l83 0 q11 116 13 190 l75 -4 q-5 -80 -17 -186 l131 0 l0 -76 q-9 -143 -25 -233 q-16 -90 -46 -161 q65 -69 96 -105 l-60 -53 ZM384 646 l149 0 l0 81 l-177 0 l0 65 l565 0 l0 -65 l-175 0 l0 -81 l149 0 l0 -221 l-511 0 l0 221 ZM599 646 l82 0 l0 81 l-82 0 l0 -81 ZM533 585 l-81 0 l0 -99 l81 0 l0 99 ZM681 585 l-82 0 l0 -99 l82 0 l0 99 ZM828 486 l0 99 l-82 0 l0 -99 l82 0 ZM140 287 q17 -16 63 -62 q24 62 37.5 142.5 q13.5 80.5 21.5 202.5 l-78 0 q-20 -161 -44 -283 ZM885 359 l0 -62 l-488 0 l0 62 l488 0 ZM938 170 l-256 0 l0 -134 q0 -54 -21.5 -77.5 q-21.5 -23.5 -72.5 -23.5 q-51 0 -87 5 l-14 65 q46 -7 78 -7 q50 0 50 62 l0 110 l-264 0 l0 63 l587 0 l0 -63 ZM527 110 q-34 -39 -80 -86 q-46 -47 -87 -84 l-50 49 q48 41 92.5 85.5 q44.5 44.5 70.5 79.5 l54 -44 ZM791 150 l157 -163 l-55 -47 q-47 56 -152 163 l50 47 Z" /><glyph glyph-name="uni5B50" unicode="&#x5b50;" d="M943 422 l0 -81 l-394 0 l0 -268 q0 -54 -13.5 -81.5 q-13.5 -27.5 -47 -38.5 q-33.5 -11 -97.5 -11 q-52 0 -110 8 l-17 80 q74 -12 128 -12 q32 0 47 7 q15 7 20.5 24 q5.5 17 5.5 53 l0 239 l-407 0 l0 81 l407 0 l0 105 l271 171 l-603 0 l0 79 l745 0 l0 -80 l-329 -207 l0 -68 l394 0 Z" /><glyph glyph-name="uni5B54" unicode="&#x5b54;" d="M944 213 q0 -58 -6 -136 q-2 -48 -14 -75 q-12 -27 -36.5 -39 q-24.5 -12 -68.5 -15 q-20 -2 -62 -2 q-41 0 -62 2 q-41 3 -65 16.5 q-24 13.5 -36 43.5 q-12 30 -12 83 l0 737 l83 0 l0 -721 q0 -45 9.5 -61 q9.5 -16 38.5 -19 q32 -2 47 -2 q16 0 46 2 q23 2 34.5 9 q11.5 7 16.5 22.5 q5 15.5 7 47.5 q3 28 4.5 62.5 q1.5 34.5 1.5 60.5 l74 -16 ZM513 380 q-18 -3 -176 -39 l0 -275 q0 -73 -27.5 -103 q-27.5 -30 -94.5 -30 q-58 0 -120 10 l-16 84 q57 -13 115 -13 q38 0 50.5 16 q12.5 16 12.5 60 l0 232 q-175 -41 -203 -49 l-12 81 q39 8 215 49 l0 126 l143 170 l-321 0 l0 81 l424 0 l0 -79 l-166 -194 l0 -85 l77 19 q78 18 95 23 l4 -84 Z" /><glyph glyph-name="uni5B57" unicode="&#x5b57;" d="M165 652 l0 -142 l-82 0 l0 219 l387 0 q-33 69 -48 93 l84 23 l59 -116 l351 0 l0 -220 l-83 0 l0 143 l-668 0 ZM944 289 l0 -78 l-397 0 l0 -142 q0 -56 -11 -84 q-11 -28 -37.5 -38.5 q-26.5 -10.5 -79.5 -10.5 q-42 0 -124 8 l-16 78 q70 -10 125 -10 q27 0 39 5.5 q12 5.5 16.5 22 q4.5 16.5 4.5 51.5 l0 120 l-411 0 l0 78 l411 0 l0 66 l181 114 l-433 0 l0 77 l574 0 l0 -76 l-239 -147 l0 -34 l397 0 Z" /><glyph glyph-name="uni5B58" unicode="&#x5b58;" d="M402 657 q-50 -110 -122 -209 l0 -521 l-78 0 l0 426 q-54 -60 -132 -128 l-39 81 q171 144 273 351 l-243 0 l0 75 l277 0 q25 62 41 115 l90 -13 q-13 -42 -35 -102 l514 0 l0 -75 l-546 0 ZM954 291 l0 -73 l-261 0 l0 -165 q0 -46 -9 -71.5 q-9 -25.5 -31.5 -37.5 q-22.5 -12 -65.5 -12 q-68 0 -117 5 l-15 76 q61 -7 106 -7 q32 0 43.5 15 q11.5 15 11.5 51 l0 146 l-281 0 l0 73 l281 0 l0 73 l156 105 l-369 0 l0 72 l497 0 l0 -72 l-207 -142 l0 -36 l261 0 Z" /><glyph glyph-name="uni5B5D" unicode="&#x5b5d;" d="M946 495 l-319 0 q-46 -36 -119 -83 l307 0 l0 -62 l-254 -125 l0 -24 l366 0 l0 -71 l-366 0 l0 -85 q0 -45 -9.5 -69.5 q-9.5 -24.5 -32.5 -35.5 q-23 -11 -68 -12 q-76 -2 -153 6 l-15 68 q75 -10 135 -10 q33 0 46 15 q13 15 13 53 l0 70 l-348 0 l0 71 l348 0 l0 54 l179 88 l-265 0 q-135 -74 -319 -144 l-32 72 q95 32 179 72 l-72 0 l0 69 l206 0 q64 36 133 83 l-419 0 l0 71 l314 0 l0 101 l-234 0 l0 72 l234 0 l0 101 l86 0 l0 -101 l221 0 l0 -72 l-221 0 l0 -101 l116 0 q145 113 241 236 l65 -50 q-84 -104 -176 -186 l233 0 l0 -71 Z" /><glyph glyph-name="uni5B66" unicode="&#x5b66;" d="M491 663 q-11 25 -81 154 l71 33 q5 -10 37 -66 q25 -43 47 -85 l-74 -36 ZM159 581 l0 -122 l-80 0 l0 198 l574 0 q26 40 56 94 q30 54 48 92 l78 -33 q-60 -105 -90 -153 l179 0 l0 -198 l-80 0 l0 122 l-685 0 ZM251 658 q1 -2 -32 49 q-49 75 -61 97 l71 36 l29 -43 q50 -72 65 -98 l-72 -41 ZM940 255 l0 -74 l-384 0 l0 -122 q0 -71 -28 -98.5 q-28 -27.5 -100 -27.5 q-70 0 -126 8 l-17 80 q72 -12 125 -12 q36 0 49.5 16 q13.5 16 13.5 59 l0 97 l-414 0 l0 74 l414 0 l0 55 l172 104 l-424 0 l0 71 l558 0 l0 -69 l-223 -138 l0 -23 l384 0 Z" /><glyph glyph-name="uni5B81" unicode="&#x5b81;" d="M189 640 l0 -125 l-83 0 l0 204 l370 0 q-7 20 -15.5 40.5 q-8.5 20.5 -15.5 40.5 q-9 20 -14 34 l85 18 l49 -133 l326 0 l0 -205 l-81 0 l0 126 l-621 0 ZM929 449 l0 -81 l-370 0 l0 -304 q0 -51 -13.5 -79.5 q-13.5 -28.5 -46 -40.5 q-32.5 -12 -92.5 -12 q-49 0 -116 7 l-16 82 q86 -10 130 -10 q30 0 45 6.5 q15 6.5 21 22.5 q6 16 6 48 l0 280 l-408 0 l0 81 l860 0 Z" /><glyph glyph-name="uni5B83" unicode="&#x5b83;" d="M905 728 l0 -215 l-79 0 l0 139 l-648 0 l0 -139 l-79 0 l0 215 l380 0 l-20 52 l-22 55 l84 20 l23 -60 l25 -67 l336 0 ZM795 117 q3 32 5 70 q2 38 2 59 l85 -21 q-1 -26 -4.5 -67 q-3.5 -41 -6.5 -77 q-5 -50 -20.5 -77 q-15.5 -27 -47.5 -39 q-32 -12 -90 -15 q-98 -5 -175 -5 q-76 0 -176 5 q-52 3 -82.5 17 q-30.5 14 -45.5 45.5 q-15 31.5 -15 87.5 l0 445 l83 0 l0 -227 q124 36 250.5 83.5 q126.5 47.5 210.5 90.5 l41 -80 q-91 -41 -234 -90.5 q-143 -49.5 -268 -84.5 l0 -124 q0 -49 16.5 -67 q16.5 -18 57.5 -20 q72 -4 158 -4 q87 0 158 4 q39 2 58.5 9.5 q19.5 7.5 28 26 q8.5 18.5 11.5 55.5 Z" /><glyph glyph-name="uni5B88" unicode="&#x5b88;" d="M184 652 l0 -126 l-82 0 l0 204 l380 0 l-56 102 l85 25 q13 -22 32 -58.5 q19 -36.5 35 -68.5 l323 0 l0 -201 l-81 0 l0 123 l-636 0 ZM940 456 l0 -81 l-202 0 l0 -297 q0 -56 -15 -86 q-15 -30 -49.5 -43 q-34.5 -13 -97.5 -13 q-52 0 -124 7 l-19 84 q79 -11 129 -11 q43 0 61.5 6 q18.5 6 25 23.5 q6.5 17.5 6.5 59.5 l0 270 l-601 0 l0 81 l601 0 l0 135 l83 0 l0 -135 l202 0 ZM261 337 q43 -40 97 -93 q54 -53 89 -91 l-60 -63 q-35 40 -89 95.5 q-54 55.5 -94 92.5 l57 59 Z" /><glyph glyph-name="uni5B89" unicode="&#x5b89;" d="M185 652 l0 -118 l-80 0 l0 195 l363 0 q-23 59 -40 98 l84 16 q7 -14 47 -114 l341 0 l0 -195 l-79 0 l0 118 l-636 0 ZM769 375 q-32 -79 -67.5 -137 q-35.5 -58 -82.5 -103 q171 -75 302 -136 l-45 -75 q-146 72 -330 153 q-75 -48 -184.5 -85 q-109.5 -37 -270.5 -70 l-24 82 q135 23 229.5 50 q94.5 27 160.5 62 q-171 72 -271 111 q47 67 93 148 l-219 0 l0 77 l260 0 q46 88 74 156 l83 -27 q-31 -73 -59 -129 l522 0 l0 -77 l-171 0 ZM308 262 q88 -33 230 -93 q46 38 78.5 88.5 q32.5 50.5 58.5 117.5 l-298 0 q-34 -62 -69 -113 Z" /><glyph glyph-name="uni5B8C" unicode="&#x5b8c;" d="M167 655 l0 -134 l-78 0 l0 209 l370 0 l-24 43 l-31 55 l81 24 l68 -122 l355 0 l0 -208 l-78 0 l0 133 l-663 0 ZM795 534 l0 -73 l-593 0 l0 73 l593 0 ZM930 262 l-284 0 l0 -175 q0 -41 12.5 -55.5 q12.5 -14.5 45.5 -17.5 q28 -2 42 -2 q13 0 41 2 q36 4 48 18 q12 14 14 54 q5 60 5 102 l76 -15 q-3 -81 -6 -117 q-4 -62 -32.5 -87 q-28.5 -25 -97.5 -30 q-19 -2 -56 -2 q-38 0 -57 2 q-61 5 -89 34.5 q-28 29.5 -28 96.5 l0 192 l-166 0 l-1 -20 q-4 -86 -32.5 -146 q-28.5 -60 -91 -104.5 q-62.5 -44.5 -170.5 -80.5 l-39 74 q99 31 150.5 65.5 q51.5 34.5 72 79.5 q20.5 45 25.5 118 l1 14 l-243 0 l0 74 l860 0 l0 -74 Z" /><glyph glyph-name="uni5B98" unicode="&#x5b98;" d="M909 738 l0 -177 l-84 0 l0 102 l-659 0 l0 -102 l-85 0 l0 177 l379 0 l-40 92 l92 23 q7 -19 19 -44 q6 -14 14 -32.5 q8 -18.5 16 -38.5 l348 0 ZM800 325 l-527 0 l0 -94 l554 0 l0 -306 l-81 0 l0 50 l-473 0 l0 -55 l-81 0 l0 647 l608 0 l0 -242 ZM718 395 l0 101 l-445 0 l0 -101 l445 0 ZM746 44 l0 117 l-473 0 l0 -117 l473 0 Z" /><glyph glyph-name="uni5B9A" unicode="&#x5b9a;" d="M176 665 l0 -104 l-78 0 l0 178 l383 0 q-23 65 -39 97 l84 10 q18 -41 41 -107 l340 0 l0 -178 l-77 0 l0 104 l-654 0 ZM573 35 q98 -6 193 -6 q97 0 193 6 l-17 -75 q-93 -6 -187 -6 q-93 0 -188 6 q-114 8 -193 47.5 q-79 39.5 -131 119.5 q-22 -56 -55.5 -105.5 q-33.5 -49.5 -83.5 -100.5 l-66 53 q60 60 94.5 115 q34.5 55 52.5 120 q18 65 26 157 l80 -7 q-9 -90 -21 -144 q37 -69 86.5 -109 q49.5 -40 120.5 -57 l0 400 l-350 0 l0 74 l752 0 l0 -74 l-322 0 l0 -158 l295 0 l0 -73 l-295 0 l0 -182 l16 -1 Z" /><glyph glyph-name="uni5B9C" unicode="&#x5b9c;" d="M174 666 l0 -131 l-83 0 l0 205 l384 0 q-7 16 -14 36 q-21 51 -24 56 l79 23 q17 -35 48 -115 l346 0 l0 -205 l-82 0 l0 131 l-654 0 ZM780 571 l0 -538 l167 0 l0 -73 l-890 0 l0 73 l164 0 l0 538 l559 0 ZM703 392 l0 107 l-403 0 l0 -107 l403 0 ZM300 211 l403 0 l0 111 l-403 0 l0 -111 ZM703 140 l-403 0 l0 -107 l403 0 l0 107 Z" /><glyph glyph-name="uni5B9E" unicode="&#x5b9e;" d="M172 662 l0 -127 l-78 0 l0 201 l381 0 q-31 69 -46 95 l82 24 q9 -15 40 -90 l13 -29 l344 0 l0 -203 l-81 0 l0 129 l-655 0 ZM458 433 q-39 27 -101.5 62 q-62.5 35 -109.5 58 l35 65 q50 -24 110.5 -56.5 q60.5 -32.5 101.5 -59.5 l-36 -69 ZM942 190 l-344 0 q-5 -13 -19 -37 q256 -108 355 -148 l-39 -75 q-84 39 -190 86 q-106 47 -176 76 q-59 -57 -161.5 -96.5 q-102.5 -39.5 -268.5 -72.5 l-29 78 q193 36 293 79 q100 43 144 110 l-450 0 l0 74 l482 0 q17 60 19 160 l5 187 l83 0 q0 -41 -2 -99 q-2 -58 -4 -99 q-3 -88 -17 -149 l319 0 l0 -74 ZM203 476 q52 -25 119 -61 q67 -36 108 -63 l-38 -63 q-46 29 -112.5 67 q-66.5 38 -110.5 58 l34 62 Z" /><glyph glyph-name="uni5BA2" unicode="&#x5ba2;" d="M178 680 l0 -114 l-80 0 l0 187 l369 0 q-26 51 -44 80 l83 26 q27 -53 48 -106 l351 0 l0 -188 l-80 0 l0 115 l-647 0 ZM584 382 q148 -49 371 -74 l-15 -76 q-265 37 -441 110 q-192 -82 -448 -122 l-20 77 q211 28 379 87 q-71 38 -143 92 q-66 -52 -129 -87 l-40 61 q64 32 140.5 94 q76.5 62 119.5 118 l67 -23 q-13 -18 -43 -54 l409 0 l0 -65 q-90 -76 -207 -138 ZM323 518 q77 -59 170 -101 q101 45 175 101 l-345 0 ZM270 -64 l-78 0 l0 296 l619 0 l0 -296 l-78 0 l0 39 l-463 0 l0 -39 ZM733 41 l0 121 l-463 0 l0 -121 l463 0 Z" /><glyph glyph-name="uni5BB0" unicode="&#x5bb0;" d="M172 661 l0 -104 l-80 0 l0 176 l375 0 q-16 40 -41 93 l76 28 q30 -65 50 -121 l356 0 l0 -176 l-81 0 l0 104 l-655 0 ZM949 272 l-408 0 l0 -111 l346 0 l0 -73 l-346 0 l0 -165 l-83 0 l0 165 l-345 0 l0 73 l345 0 l0 111 l-406 0 l0 74 l259 0 q-9 68 -21 131 l-133 0 l0 70 l312 0 q-16 46 -28 75 l76 25 q19 -50 33 -100 l299 0 l0 -70 l-135 0 q-14 -68 -30 -131 l265 0 l0 -74 ZM367 477 q9 -43 23 -131 l212 0 q10 43 26 131 l-261 0 Z" /><glyph glyph-name="uni5BB3" unicode="&#x5bb3;" d="M172 675 l0 -72 l-80 0 l0 139 l385 0 q-16 31 -46 84 l79 27 q10 -20 22 -41 q12 -21 22 -40 l16 -30 l340 0 l0 -139 l-79 0 l0 72 l-659 0 ZM934 344 l0 -65 l-394 0 l0 -73 l290 0 l0 -280 l-78 0 l0 46 l-501 0 l0 -46 l-78 0 l0 280 l289 0 l0 73 l-394 0 l0 65 l394 0 l0 57 l-296 0 l0 62 l296 0 l0 58 l-309 0 l0 64 l309 0 l0 65 l78 0 l0 -65 l310 0 l0 -64 l-310 0 l0 -58 l297 0 l0 -62 l-297 0 l0 -57 l394 0 ZM251 38 l501 0 l0 102 l-501 0 l0 -102 Z" /><glyph glyph-name="uni5BB6" unicode="&#x5bb6;" d="M159 667 l0 -127 l-77 0 l0 198 l390 0 q-27 55 -46 89 l83 31 q38 -78 54 -120 l357 0 l0 -199 l-77 0 l0 128 l-684 0 ZM697 317 q43 -93 99.5 -152 q56.5 -59 151.5 -116 l-51 -62 q-95 61 -157 131 q-62 70 -105 170 q-34 -16 -50 -22 q16 -67 16 -161 q0 -92 -26.5 -130 q-26.5 -38 -92.5 -39 q-69 -2 -124 5 l-13 74 q67 -9 111 -9 q35 0 49.5 24.5 q14.5 24.5 14.5 86.5 q0 40 -3 74 q-80 -66 -199.5 -127 q-119.5 -61 -236.5 -99 l-32 71 q135 39 253.5 97 q118.5 58 201.5 126 q-9 34 -20 56 q-132 -91 -388 -182 l-27 68 q105 32 206.5 76.5 q101.5 44.5 177.5 93.5 q-12 20 -32 45 q-159 -82 -322 -127 l-27 68 q105 29 202 67 q97 38 171 81 l-244 0 l0 67 l595 0 l0 -67 l-230 0 q-41 -30 -81 -53 q51 -58 78 -120 q68 30 139.5 69 q71.5 39 132.5 78 l39 -65 q-83 -51 -177 -97 Z" /><glyph glyph-name="uni5BB9" unicode="&#x5bb9;" d="M173 663 l0 -111 l-78 0 l0 185 l375 0 q-23 53 -44 92 l77 29 q27 -54 51 -121 l348 0 l0 -187 l-79 0 l0 113 l-650 0 ZM605 628 q55 -26 144 -71.5 q89 -45.5 160 -84.5 l-35 -65 q-74 41 -163.5 88.5 q-89.5 47.5 -142.5 71.5 l37 61 ZM96 473 q68 27 144.5 68.5 q76.5 41.5 143.5 85.5 l39 -62 q-137 -92 -293 -162 l-34 70 ZM927 166 q-63 24 -129 56 l0 -295 l-79 0 l0 42 l-440 0 l0 -42 l-79 0 l0 295 q-72 -34 -131 -56 l-31 72 q149 54 252 116 q103 62 173 140 l73 0 q74 -80 177 -142 q103 -62 247 -113 l-33 -73 ZM746 248 q-149 80 -246 180 q-101 -101 -249 -180 l495 0 ZM279 175 l0 -135 l440 0 l0 135 l-440 0 Z" /></font>
</defs>
</svg>
