<?xml version="1.0" standalone="no"?>
<!DOCTYPE svg PUBLIC "-//W3C//DTD SVG 20010904//EN"
 "http://www.w3.org/TR/2001/REC-SVG-20010904/DTD/svg10.dtd">
<svg version="1.0" xmlns="http://www.w3.org/2000/svg"
 width="613.000000pt" height="613.000000pt" viewBox="0 0 613.000000 613.000000"
 preserveAspectRatio="xMidYMid meet">
<metadata>
Created by potrace 1.14, written by Peter Selinger 2001-2017
</metadata>
<g transform="translate(0.000000,613.000000) scale(0.100000,-0.100000)"
fill="#000000" stroke="none">
<path d="M2980 6114 c0 -9 -8 -18 -17 -21 -10 -2 -28 -25 -40 -51 -13 -26 -39
-74 -59 -107 -20 -33 -51 -85 -69 -115 -18 -30 -50 -89 -71 -130 -20 -41 -62
-115 -94 -165 -31 -49 -94 -160 -140 -245 -46 -85 -92 -166 -103 -180 -10 -14
-25 -38 -33 -55 -28 -57 -47 -90 -63 -110 -10 -11 -26 -38 -37 -60 -10 -22
-35 -65 -55 -95 -20 -30 -49 -80 -64 -110 -15 -29 -37 -70 -50 -90 -28 -45
-98 -164 -122 -210 -10 -19 -30 -53 -44 -75 -14 -22 -40 -70 -57 -107 -17 -36
-44 -85 -61 -109 -17 -23 -31 -47 -31 -54 0 -6 -23 -45 -51 -84 -28 -40 -58
-94 -67 -119 -8 -26 -22 -53 -29 -61 -21 -20 -83 -120 -83 -132 0 -6 -8 -23
-19 -37 -10 -15 -35 -58 -56 -97 -21 -38 -46 -79 -56 -90 -10 -11 -30 -45 -44
-75 -14 -30 -40 -75 -57 -98 l-31 -44 -23 29 c-13 15 -23 33 -24 40 0 6 -16
30 -35 53 -19 23 -36 49 -37 58 0 10 -2 22 -3 27 -2 18 -37 78 -57 99 -16 18
-54 83 -133 228 -52 96 -70 125 -91 154 -13 17 -24 34 -24 38 0 4 -16 33 -37
64 -20 31 -46 73 -58 92 -23 36 -96 164 -135 236 -11 21 -41 71 -66 109 -39
62 -78 132 -135 247 -11 20 -23 40 -29 43 -7 4 -10 -527 -10 -1609 l0 -1616
1700 0 c1353 0 1700 -3 1700 -12 0 -7 -16 -33 -35 -57 -19 -24 -35 -47 -35
-52 0 -4 -24 -47 -53 -96 -29 -48 -72 -131 -96 -183 -24 -52 -61 -121 -82
-154 -22 -32 -39 -60 -39 -62 0 -3 -22 -37 -49 -77 -27 -40 -64 -103 -83 -142
-19 -38 -53 -99 -76 -135 -23 -36 -58 -94 -78 -130 -21 -36 -47 -78 -59 -95
-19 -26 -145 -271 -145 -281 0 -14 77 0 118 21 28 14 55 25 61 25 6 0 11 4 11
9 0 5 10 13 23 17 12 3 29 13 38 20 9 8 45 29 80 47 35 19 114 64 174 102 61
37 124 76 140 85 17 10 89 52 162 94 73 42 135 76 137 76 3 0 25 14 49 31 24
16 50 31 58 32 8 2 30 14 49 29 45 34 219 132 259 146 18 6 60 32 93 58 34 26
76 52 93 60 17 7 37 20 45 28 7 9 16 16 21 16 5 0 44 22 87 48 42 27 131 75
197 107 66 32 134 69 152 82 18 14 47 32 65 42 54 28 81 45 111 69 16 12 39
22 51 22 13 0 31 9 41 20 19 21 187 110 209 110 7 0 24 9 37 21 13 12 50 34
82 50 48 25 57 34 57 56 0 15 -11 37 -26 52 -14 14 -36 52 -49 84 -12 31 -37
76 -54 100 -46 61 -77 110 -115 180 -18 34 -69 123 -113 197 -44 74 -97 169
-118 210 -20 40 -59 106 -85 145 -55 80 -82 128 -178 313 -38 74 -77 144 -88
155 -10 12 -31 47 -47 77 -16 30 -39 69 -51 85 -13 17 -38 59 -58 95 -19 36
-44 81 -56 100 -20 34 -57 102 -142 265 -94 182 -159 294 -191 330 -9 11 -49
83 -89 160 -70 136 -131 238 -149 250 -5 3 -12 18 -16 34 -3 16 -13 35 -21 42
-8 6 -14 18 -14 27 0 9 -10 26 -22 39 -12 13 -19 25 -16 28 2 3 406 5 896 5
l892 1 0 34 c0 27 -4 35 -18 35 -9 0 -33 9 -52 20 -19 11 -64 34 -100 51 -36
18 -78 42 -93 55 -16 13 -35 24 -43 24 -8 0 -46 20 -83 44 -37 25 -99 62 -137
82 -38 21 -82 48 -99 60 -29 21 -117 67 -217 115 -27 12 -48 26 -48 30 0 4
-24 20 -52 35 -29 15 -66 34 -83 42 -16 9 -52 30 -80 47 -27 18 -72 44 -100
59 -58 30 -68 36 -155 92 -36 23 -94 57 -129 75 -75 40 -85 46 -131 79 -19 14
-36 24 -37 22 -10 -8 -36 1 -51 19 -9 11 -44 34 -78 50 -33 16 -69 38 -80 47
-10 10 -39 29 -64 42 -25 14 -47 28 -50 31 -3 3 -63 34 -135 70 -71 35 -143
73 -160 84 -16 12 -56 36 -89 55 -32 19 -70 43 -85 52 -33 22 -107 58 -118 58
-5 0 -23 14 -41 30 -18 17 -40 30 -47 30 -8 0 -24 14 -37 30 -24 33 -68 42
-68 14z"/>
</g>
</svg>
