<?xml version="1.0" standalone="no"?>
<!DOCTYPE svg PUBLIC "-//W3C//DTD SVG 20010904//EN"
 "http://www.w3.org/TR/2001/REC-SVG-20010904/DTD/svg10.dtd">
<svg version="1.0" xmlns="http://www.w3.org/2000/svg"
 width="1024.000000pt" height="1024.000000pt" viewBox="0 0 1024.000000 1024.000000"
 preserveAspectRatio="xMidYMid meet">
<metadata>
Created by potrace 1.14, written by Peter Selinger 2001-2017
</metadata>
<g transform="translate(0.000000,1024.000000) scale(0.100000,-0.100000)"
fill="#000000" stroke="none">
<path d="M0 10100 l0 -140 43 0 c23 0 2327 -1 5119 -3 l5078 -2 0 143 0 142
-5120 0 -5120 0 0 -140z"/>
<path d="M203 9931 c25 -9 -105 -51 -161 -51 l-42 0 0 -1362 c0 -760 4 -1358
9 -1352 4 5 13 36 20 69 8 44 18 65 39 82 34 28 52 29 52 4 0 -35 18 -32 24 3
5 24 17 41 39 55 l32 20 7 -57 c4 -31 5 -527 2 -1102 -6 -974 3 -1876 17
-1750 3 30 6 -28 6 -130 1 -106 -2 -174 -7 -160 -5 16 -8 -11 -9 -77 -1 -57
-5 -103 -9 -103 -4 0 -14 16 -21 35 -7 19 -23 48 -37 64 -21 26 -29 28 -64 24
-45 -6 -66 6 -86 52 -11 25 -13 -309 -14 -1942 l0 -1972 38 -4 37 -4 -37 -1
-38 -2 0 -135 0 -135 5120 0 5120 0 0 130 0 130 -443 0 -443 0 -13 82 c-23
156 -33 208 -41 203 -4 -2 -10 -47 -14 -99 -4 -59 -14 -113 -26 -141 l-19 -45
-1149 0 c-632 0 -1151 3 -1155 6 -3 3 10 21 29 40 19 19 34 37 34 40 0 12 85
112 173 205 51 53 108 115 127 137 69 80 173 149 286 190 54 19 124 62 124 76
0 11 -82 -2 -95 -15 -5 -5 -21 -9 -36 -9 -16 0 -34 -8 -41 -17 -7 -10 -20 -19
-28 -21 -51 -11 -180 -103 -180 -129 0 -10 -42 -38 -53 -35 -5 1 -6 -2 -2 -8
3 -5 2 -10 -4 -10 -5 0 -45 -33 -88 -74 -43 -40 -109 -100 -148 -134 -147
-127 -231 -212 -217 -221 10 -6 4 -10 -18 -15 -18 -3 -576 -6 -1240 -6 l-1207
0 -13 59 c-26 124 6 304 82 456 72 142 150 244 333 430 96 99 175 182 175 187
0 4 37 36 83 71 84 65 173 110 307 154 41 14 93 35 115 46 22 11 41 20 42 19
1 -1 18 15 38 35 35 35 36 35 56 17 12 -10 25 -27 30 -37 17 -31 40 -170 30
-180 -5 -5 -11 -5 -15 2 -9 15 -36 2 -36 -18 0 -13 -2 -14 -9 -1 -6 8 -7 19
-3 25 3 5 -1 4 -9 -2 -24 -19 -14 -253 11 -261 7 -3 10 0 6 7 -9 14 7 14 21 0
9 -9 11 -6 7 12 -4 20 -3 21 4 5 8 -19 9 -18 15 4 3 13 9 21 12 18 4 -3 1 -16
-5 -29 -17 -30 -133 -154 -145 -154 -18 -1 -35 -16 -35 -30 0 -25 48 3 125 72
38 35 75 63 82 63 16 0 16 -27 2 -145 -6 -49 -12 -101 -13 -115 -2 -14 -9 -26
-17 -28 -12 -2 -66 -72 -56 -72 2 0 27 21 54 48 46 43 52 53 69 127 22 95 25
292 7 375 -7 30 -20 102 -29 160 -9 58 -28 134 -41 170 -29 75 -36 113 -20
103 6 -4 8 0 4 9 -6 17 36 61 49 50 4 -4 4 -2 1 4 -7 13 45 59 188 169 206
158 425 374 425 419 0 7 -3 8 -8 1 -4 -6 -41 -42 -82 -80 -184 -170 -258 -226
-635 -481 -134 -90 -191 -123 -220 -126 -50 -7 -198 15 -335 48 -58 13 -134
31 -170 39 -36 8 -85 21 -109 29 -24 9 -53 16 -65 16 -26 0 -388 116 -436 141
-19 9 -66 26 -103 38 -142 43 -284 130 -383 233 -121 126 -207 251 -279 405
-62 133 -85 159 -169 199 -76 36 -136 71 -101 58 11 -4 47 -8 80 -9 33 -1 92
-11 130 -23 94 -29 118 -27 30 2 -85 28 -125 46 -125 57 0 5 -26 38 -59 73
-69 76 -183 267 -188 314 l-4 34 31 -22 c30 -21 57 -19 43 3 -3 7 3 3 15 -7
17 -14 22 -16 22 -5 1 8 7 3 15 -11 8 -14 14 -20 15 -14 0 6 -12 29 -27 50
-15 21 -42 62 -61 89 -52 76 -72 129 -72 193 0 61 32 148 50 137 5 -3 7 0 5 7
-8 20 50 71 81 73 23 1 24 0 8 -12 -12 -9 -14 -13 -4 -13 7 0 0 -12 -16 -26
-16 -15 -23 -23 -15 -19 11 6 13 4 8 -9 -4 -10 -7 -20 -7 -22 0 -3 -4 -3 -9 0
-4 3 -6 -7 -3 -22 5 -24 6 -24 13 -7 8 20 8 20 9 0 1 -17 3 -16 16 8 12 23 20
28 39 23 19 -5 27 0 42 24 21 37 41 44 96 35 57 -10 76 -21 88 -53 15 -38 21
-132 9 -132 -6 0 -10 5 -10 10 0 15 -27 12 -62 -6 -39 -20 -99 -6 -116 28 -11
21 -11 21 -6 -7 25 -125 219 -368 339 -425 33 -16 86 -43 117 -61 131 -71 262
-11 288 133 12 63 0 190 -25 274 -16 54 -80 160 -129 213 l-31 34 35 -8 c19
-4 51 -10 70 -14 19 -4 46 -13 58 -20 13 -7 26 -10 29 -7 3 3 -6 11 -20 17
-30 14 -62 70 -45 80 28 17 -36 58 -187 121 -149 62 -330 107 -431 108 -34 0
-76 6 -94 14 -30 12 -32 14 -14 24 34 18 175 34 243 27 36 -3 86 -2 111 4 24
5 47 7 50 3 17 -22 68 -61 88 -67 33 -10 28 14 -12 61 -19 22 -47 64 -64 94
-16 30 -47 85 -69 121 -44 71 -113 201 -113 212 0 16 19 5 25 -14 4 -11 19
-33 35 -47 15 -15 53 -72 84 -127 31 -55 61 -107 66 -115 5 -8 26 -42 47 -75
46 -74 110 -150 168 -199 47 -38 62 -34 22 6 -55 55 -237 314 -237 337 0 6
-38 91 -84 189 -47 97 -105 233 -129 302 -47 133 -154 566 -182 735 -5 27 33
-40 118 -210 160 -320 238 -432 436 -632 80 -82 171 -169 201 -194 71 -59 316
-199 348 -199 7 0 25 -9 39 -20 34 -27 44 -25 33 6 -6 14 -10 28 -10 31 0 5
106 -1 215 -13 49 -5 63 -3 74 10 7 9 28 16 46 16 28 0 32 3 28 19 -3 12 -17
21 -38 25 -88 17 -274 181 -275 243 0 37 9 63 21 63 6 0 5 -10 -2 -22 -11 -22
-10 -22 6 -6 16 15 21 14 74 -21 32 -20 87 -45 122 -55 35 -9 102 -29 149 -43
114 -34 155 -42 218 -43 60 0 65 -10 22 -50 -17 -15 -30 -33 -30 -38 0 -6 -24
-34 -52 -62 -47 -46 -49 -49 -14 -24 22 16 37 23 32 17 -4 -7 -3 -13 1 -13 13
0 97 92 113 122 18 38 60 77 60 56 0 -8 -11 -25 -25 -38 -14 -13 -25 -34 -25
-47 0 -32 -23 -67 -89 -136 -30 -31 -51 -57 -45 -57 6 0 19 9 29 20 10 11 21
17 26 15 4 -3 11 0 15 6 5 8 3 9 -6 4 -8 -5 -11 -4 -6 3 4 6 13 9 20 6 8 -3
16 4 20 20 4 16 11 23 19 20 18 -7 41 22 33 41 -4 11 -2 14 7 9 36 -21 37 -25
15 -67 -24 -48 -60 -149 -54 -154 2 -2 9 10 16 27 7 16 15 30 19 30 3 0 7 12
8 26 0 14 6 31 13 38 8 8 9 4 1 -16 -17 -44 -5 -33 45 42 44 68 55 75 94 60 3
-2 9 -2 13 -1 4 1 3 -7 -3 -18 -5 -11 -10 -26 -10 -33 0 -7 6 -2 13 12 7 13
22 30 35 36 12 6 31 19 43 30 25 22 110 25 147 6 18 -11 22 -21 22 -63 0 -49
-1 -50 -42 -69 -24 -11 -60 -20 -80 -20 -37 0 -38 -1 -38 -40 0 -39 36 -122
110 -253 34 -62 83 -104 161 -141 26 -12 61 -34 78 -49 37 -30 77 -34 177 -17
93 17 111 28 170 106 60 79 75 136 42 157 -24 16 -44 -4 -30 -28 12 -23 -28
-106 -63 -129 -45 -29 -140 -56 -177 -50 -61 10 -160 48 -166 64 -3 8 -17 25
-30 37 l-24 23 31 17 c36 21 40 47 10 79 -26 28 -18 59 21 79 16 8 33 15 37
14 27 -4 35 1 23 16 -7 8 -8 15 -3 15 12 0 39 -29 44 -48 3 -9 13 -6 36 10 24
17 33 31 33 52 l0 30 20 -22 c21 -22 52 -26 100 -13 26 7 90 -8 90 -22 0 -4
-9 -21 -21 -36 -14 -19 -19 -36 -14 -50 8 -26 19 -27 45 -1 11 11 31 20 46 20
36 0 52 46 60 169 6 89 1 156 -22 281 -4 19 -2 22 6 10 9 -13 10 -13 10 0 0
12 2 12 9 2 6 -11 11 -10 24 3 13 12 21 14 37 5 11 -6 20 -15 20 -20 0 -6 6
-9 13 -8 9 2 15 -40 22 -162 8 -128 12 -155 17 -119 4 26 21 89 37 140 17 52
33 113 37 137 4 23 10 42 14 42 13 0 41 -170 43 -255 1 -44 -4 -150 -10 -235
-13 -181 -54 -353 -128 -544 -26 -65 -44 -120 -41 -123 2 -3 10 6 17 19 7 12
27 43 45 67 39 51 84 142 108 222 19 60 142 311 132 269 -6 -28 -23 -127 -61
-370 -35 -226 -45 -268 -115 -478 -58 -177 -71 -208 -107 -262 -11 -17 -5 -13
18 10 42 42 69 84 69 105 0 8 5 15 10 15 6 0 10 6 10 14 0 7 7 20 16 27 15 12
16 11 9 -11 -4 -14 -12 -26 -16 -28 -17 -7 -9 -32 10 -32 43 0 70 22 126 104
32 47 60 84 63 82 2 -3 -3 -35 -11 -73 -43 -193 -49 -266 -38 -428 17 -223 60
-370 138 -468 18 -23 33 -46 33 -50 0 -5 16 -41 35 -80 49 -99 54 -184 25
-372 -12 -77 -24 -156 -27 -175 l-5 -35 26 35 c15 19 49 71 77 114 28 44 86
116 128 160 44 46 87 102 99 128 11 25 32 63 46 84 l26 39 0 -45 c0 -25 4 -72
10 -105 5 -33 14 -107 19 -163 7 -71 15 -110 26 -122 9 -10 17 -28 18 -41 1
-13 11 -37 21 -54 40 -62 51 -82 102 -181 43 -84 183 -310 256 -413 26 -37 29
-21 6 29 -53 117 -170 506 -214 715 -39 183 -39 380 1 575 15 74 34 147 41
162 12 24 19 27 45 21 17 -3 53 -20 79 -37 27 -17 102 -65 167 -106 l118 -74
131 -7 c214 -11 263 -34 409 -191 119 -127 232 -390 255 -591 12 -107 -37
-333 -105 -482 -45 -99 -144 -253 -224 -348 -96 -115 -118 -134 -139 -121 -33
21 -58 33 -127 65 -38 17 -79 36 -90 42 -17 9 -18 8 -10 -4 6 -8 3 -7 -6 2
-20 22 -99 62 -107 54 -7 -6 13 -21 124 -91 45 -28 106 -71 136 -95 51 -42 53
-46 52 -89 -1 -25 -2 -49 -3 -54 0 -5 -22 -29 -48 -53 -44 -40 -46 -43 -23
-43 32 0 85 44 74 62 -4 7 -4 10 1 6 7 -6 90 53 106 76 4 5 12 5 19 1 9 -5 11
-4 6 4 -11 17 1 59 19 63 8 2 84 98 171 213 336 451 334 448 353 618 21 189
14 280 -36 477 -36 140 -126 353 -169 401 -25 28 -15 32 16 6 32 -27 58 -33
195 -43 103 -7 185 -25 374 -83 138 -42 185 -64 179 -84 -2 -7 -28 -24 -58
-39 -30 -15 -48 -28 -39 -28 23 0 109 31 109 39 0 4 12 13 27 20 49 22 365
-14 562 -64 91 -24 176 -46 189 -50 l22 -7 0 1170 0 1171 -50 27 c-51 28 -99
84 -139 162 -12 23 -56 91 -98 152 -43 60 -87 124 -98 140 -113 167 -220 323
-246 360 -56 78 -152 234 -152 248 0 6 -4 12 -8 12 -5 0 -44 53 -87 118 -43
64 -92 137 -109 162 -114 170 -164 254 -178 299 l-7 23 32 -18 c18 -11 53 -39
78 -64 26 -25 40 -36 32 -26 -15 18 -14 19 15 4 17 -9 42 -27 57 -41 15 -14
40 -28 56 -32 16 -3 40 -16 53 -28 13 -12 24 -21 24 -20 1 7 45 -11 45 -18 0
-5 9 -9 19 -9 10 0 22 -7 25 -16 3 -9 13 -14 20 -11 8 3 17 -1 20 -9 3 -8 12
-14 19 -14 8 0 20 -6 26 -14 7 -8 27 -17 46 -20 24 -5 32 -11 28 -21 -3 -8
-15 -15 -27 -15 -35 0 -72 -41 -67 -72 0 -5 -4 -8 -10 -8 -6 0 -9 -7 -6 -14 4
-10 1 -13 -8 -10 -9 4 -19 -4 -26 -20 -9 -20 -17 -25 -32 -20 -12 4 -17 2 -13
-4 3 -6 1 -12 -4 -14 -14 -4 8 -68 23 -68 7 0 31 22 55 50 36 42 53 53 115 72
39 12 78 22 85 21 19 -1 14 47 -5 55 -10 4 -19 13 -21 20 -3 16 184 -78 263
-132 78 -53 106 -68 121 -62 6 2 20 -1 30 -8 11 -7 38 -20 62 -29 l42 -17 0
76 c0 65 -2 75 -16 70 -16 -6 -158 57 -169 75 -4 5 -39 24 -79 43 -85 39 -220
116 -224 128 -2 4 -13 13 -24 19 -16 8 -19 8 -13 -1 6 -9 2 -9 -14 -1 -22 12
-30 27 -8 16 6 -4 3 1 -7 9 -11 9 -26 16 -33 16 -7 0 -30 16 -50 35 -21 20
-43 33 -50 31 -6 -3 -31 8 -55 23 -24 15 -77 47 -118 71 -97 57 -167 108 -262
191 -42 37 -88 75 -102 84 -29 19 -157 168 -205 237 -40 60 -224 438 -216 446
3 3 90 6 193 7 133 1 226 8 322 23 74 11 180 26 235 31 55 6 127 16 160 21 33
5 83 12 110 15 178 19 268 25 344 25 47 0 118 7 158 15 39 8 82 14 95 12 22
-2 23 1 26 86 3 101 -2 105 -78 61 -25 -14 -79 -32 -120 -39 -258 -46 -855
-15 -1100 57 -138 40 -327 133 -415 204 -104 83 -104 83 -58 74 22 -3 46 -11
54 -15 8 -5 34 -13 59 -17 51 -8 165 -32 255 -53 33 -8 112 -19 175 -25 63 -7
135 -17 160 -22 28 -7 241 -12 558 -14 l512 -3 0 115 0 114 -32 0 c-17 0 -45
-4 -62 -9 -48 -15 -273 -40 -461 -51 -93 -5 -251 -15 -350 -21 -99 -6 -259
-13 -355 -16 -165 -5 -182 -4 -275 21 -211 54 -315 95 -400 157 -111 80 -201
176 -281 299 -145 226 -182 279 -268 393 -108 143 -314 367 -399 435 -34 28
-80 69 -102 92 -22 23 -49 46 -60 51 -23 10 -52 29 -74 47 -35 29 -138 89
-182 105 -41 16 -49 23 -64 65 -45 126 -62 160 -109 216 -28 34 -64 72 -80 86
-28 24 -111 72 -148 86 -22 8 -24 34 -3 34 8 0 26 -5 40 -12 14 -6 28 -9 31
-5 8 8 -37 67 -52 67 -6 0 -27 14 -45 31 -32 30 -37 31 -129 33 -82 1 -97 -2
-111 -18 -14 -17 -20 -18 -67 -6 -29 6 -52 16 -52 21 0 23 -41 -15 -47 -42
l-6 -30 -19 21 c-33 35 -90 24 -145 -29 -19 -17 -44 -31 -57 -31 -13 0 -31 -2
-39 -6 -9 -3 -19 6 -27 26 -9 23 -18 30 -31 27 -11 -3 -19 1 -21 12 -2 11 -6
12 -11 4 -4 -6 -2 -17 5 -25 18 -19 20 -36 8 -58 -9 -18 -7 -20 16 -20 35 0
28 -7 -11 -11 -16 -2 -35 -7 -42 -12 -14 -10 -36 0 -28 13 5 8 -18 20 -38 19
-7 0 -3 -4 8 -9 17 -7 15 -9 -12 -9 -17 -1 -33 -6 -35 -12 -4 -13 -119 -25
-145 -15 -15 6 -15 8 -3 16 12 8 11 10 -5 11 -11 1 -23 1 -27 0 -4 0 -5 6 -2
14 4 9 -6 19 -30 29 -20 8 -39 15 -43 15 -3 -1 -9 5 -13 12 -5 7 -35 13 -77
14 -71 2 -89 6 -136 31 -16 7 -35 14 -43 14 -8 0 -14 4 -14 9 0 5 -14 11 -31
15 -17 3 -28 10 -24 16 3 5 -1 10 -9 10 -14 0 -14 -3 -4 -19 10 -16 9 -23 -6
-40 -10 -11 -24 -17 -32 -14 -9 3 -14 -2 -14 -16 0 -24 -28 -29 -36 -6 -3 8
-24 20 -46 26 -46 12 -93 5 -82 -13 5 -8 2 -9 -10 -5 -10 4 -21 7 -26 7 -5 0
-10 10 -12 23 -2 14 -10 22 -24 23 -20 1 -22 -3 -19 -50 4 -64 15 -116 25
-116 4 0 10 -13 12 -29 4 -28 3 -29 -46 -35 -28 -3 -71 -6 -96 -6 -25 0 -112
-16 -195 -36 -82 -20 -198 -47 -257 -59 -256 -57 -458 -136 -783 -310 -96 -52
-141 -81 -385 -246 -370 -251 -644 -491 -923 -810 -186 -211 -310 -389 -303
-434 2 -11 1 -14 -1 -7 -3 8 -22 -13 -46 -50 -23 -34 -46 -67 -53 -73 -15 -13
-80 -128 -137 -242 -49 -98 -118 -293 -162 -458 -14 -55 -34 -129 -44 -165
-17 -60 -35 -128 -81 -305 -10 -38 -31 -121 -46 -184 -31 -131 -73 -238 -137
-348 -24 -43 -61 -112 -82 -153 -123 -246 -353 -520 -531 -635 -70 -45 -78
-60 -29 -51 121 23 221 90 400 270 132 132 199 225 267 373 44 96 58 113 52
66 -6 -46 -5 -658 1 -720 3 -32 14 -157 25 -278 12 -121 27 -281 35 -355 8
-74 17 -180 20 -235 3 -55 15 -152 25 -215 10 -63 31 -205 45 -315 31 -226 47
-301 105 -469 51 -147 80 -205 138 -278 47 -58 71 -72 34 -21 -31 44 -66 118
-115 243 -57 148 -62 164 -87 293 -17 91 -20 148 -20 355 0 242 10 472 30 662
5 52 12 136 16 185 4 58 10 83 14 70 15 -38 80 -270 80 -283 0 -41 161 -497
246 -697 118 -280 145 -356 221 -630 34 -125 100 -308 135 -380 17 -33 56 -98
87 -145 31 -47 59 -93 63 -102 4 -10 12 -18 18 -18 6 0 8 -5 5 -10 -3 -6 -2
-10 4 -10 5 0 13 -9 16 -20 4 -11 11 -18 16 -15 5 4 9 0 9 -8 0 -7 18 -30 41
-50 34 -31 43 -35 59 -24 30 18 33 37 5 37 -28 0 -118 79 -179 159 -54 69
-123 208 -170 338 -33 92 -52 163 -156 588 -23 94 -67 251 -96 351 -52 173
-88 334 -75 334 4 0 25 -37 48 -82 92 -186 299 -432 514 -611 81 -68 120 -97
279 -209 79 -56 93 -72 108 -123 17 -65 35 -265 28 -331 -3 -33 -18 -114 -32
-180 -14 -65 -32 -175 -40 -244 -8 -69 -21 -161 -29 -205 -32 -176 -49 -325
-48 -420 1 -55 -1 -160 -4 -233 -6 -166 -10 -171 -137 -207 -59 -17 -122 -45
-185 -83 -53 -31 -101 -56 -108 -56 -6 1 -14 -9 -17 -22 -5 -20 -9 -22 -29
-13 -32 16 -118 119 -133 159 -19 54 -17 93 6 108 12 7 18 17 15 22 -7 12 -51
-30 -60 -58 -20 -66 39 -193 113 -242 70 -46 77 -68 36 -127 -14 -21 -23 -45
-21 -55 3 -10 1 -16 -4 -13 -4 3 -11 -7 -15 -22 -3 -15 -7 -34 -10 -41 -2 -8
4 -7 21 4 14 9 21 22 18 30 -5 12 2 16 23 13 4 0 11 5 15 13 7 10 9 8 9 -5 0
-23 -38 -79 -50 -72 -4 2 -7 -8 -7 -23 0 -27 0 -27 14 -6 44 67 121 159 135
162 19 4 131 -81 199 -150 26 -27 52 -48 58 -48 21 0 -52 85 -111 129 -71 52
-96 86 -81 110 15 25 260 197 269 189 1 -2 -2 -24 -8 -48 -12 -53 -15 -412 -3
-488 7 -46 5 -55 -13 -75 -11 -12 -25 -34 -31 -49 l-11 -28 -458 0 -458 0 -2
99 c-2 55 -9 130 -17 168 -8 37 -18 101 -21 141 -4 39 -11 72 -15 72 -5 0 -9
5 -9 11 0 5 5 7 10 4 21 -13 9 29 -34 118 -45 93 -223 344 -241 340 -20 -4
-16 -45 8 -86 14 -23 46 -85 73 -137 26 -52 60 -112 77 -132 16 -20 26 -41 23
-46 -3 -6 -1 -12 5 -14 16 -5 25 -113 10 -122 -6 -4 -20 -2 -31 4 -13 7 -20 7
-20 0 0 -5 -5 -10 -11 -10 -7 0 -9 10 -5 26 4 16 3 23 -3 19 -6 -3 -9 0 -6 7
7 19 -157 63 -343 93 -85 14 -161 29 -170 34 -9 5 -68 21 -129 36 -62 15 -111
31 -108 35 6 9 -31 20 -65 19 -23 0 -24 -1 -5 -10 14 -6 6 -7 -25 -3 -25 4
-56 13 -70 20 -14 8 -52 25 -85 38 l-60 24 -3 47 c-2 29 0 45 6 41 5 -3 15 1
22 10 11 12 15 12 21 2 6 -9 9 -4 9 14 0 15 4 30 10 33 5 3 7 19 3 36 -5 26
-1 35 28 59 19 16 39 29 45 30 12 0 54 54 54 69 0 6 7 14 16 19 9 5 14 15 10
21 -8 13 -37 10 -81 -8 -39 -16 -95 -22 -95 -9 0 5 -4 7 -9 3 -20 -12 -40 257
-21 280 9 11 9 27 1 65 -6 28 -11 68 -11 88 1 37 1 37 15 12 7 -14 17 -23 21
-22 4 2 10 -1 13 -7 4 -6 31 -1 76 14 85 29 97 30 93 8 -3 -15 5 -18 47 -19
47 -1 51 2 78 39 16 21 31 36 34 33 5 -5 33 17 33 26 0 2 -25 4 -55 4 -30 -1
-55 -3 -55 -6 0 -3 -9 -11 -21 -18 -16 -10 -27 -10 -53 -1 -32 11 -33 14 -45
99 -14 94 -10 139 17 164 10 8 17 28 16 43 -1 28 -2 28 -65 28 -35 -1 -76 -4
-91 -7 -32 -8 -42 4 -34 35 5 20 12 22 83 23 63 0 85 5 115 23 37 23 43 31 38
61 -4 26 -22 30 -132 30 l-108 0 0 31 c0 16 4 28 9 25 5 -4 12 0 14 6 4 9 8 9
14 3 4 -5 40 -12 80 -14 69 -3 73 -2 102 28 17 18 31 38 31 45 0 18 -55 38
-84 30 -11 -2 -41 2 -65 11 -24 8 -54 15 -67 15 -18 0 -24 7 -28 33 -7 44 -15
237 -9 212 9 -37 34 -55 75 -55 31 0 41 4 45 20 6 24 1 23 54 4 24 -8 66 -14
94 -12 46 2 51 0 59 -24 8 -21 15 -26 45 -26 20 0 39 2 43 5 14 8 -42 102 -70
116 -15 8 -48 17 -74 21 -26 4 -50 11 -53 17 -8 12 -51 12 -74 -1 -21 -11
-129 29 -143 53 -4 8 -8 37 -7 64 0 26 -2 86 -5 133 -3 54 -2 76 3 60 l9 -25
1 27 c1 15 -3 29 -8 32 -4 3 -5 25 -1 48 5 23 6 58 4 78 -3 32 -2 32 8 -8 12
-46 26 -53 46 -22 9 14 9 26 3 39 -6 10 -7 22 -3 26 4 5 1 5 -6 1 -6 -4 -13
-19 -13 -34 -2 -23 -2 -24 -6 -5 -2 12 1 31 7 42 8 16 7 30 -5 58 -20 48 -32
213 -17 239 7 11 12 13 12 6 0 -10 5 -9 17 4 11 11 18 13 21 5 7 -21 19 -2 15
24 -3 13 -8 23 -12 21 -4 -3 -13 9 -20 25 -7 16 -17 27 -21 24 -5 -3 -11 -1
-15 5 -3 5 -6 825 -5 1821 0 1299 -3 1835 -11 1899 -14 106 -9 128 34 157 101
71 257 107 532 123 83 5 152 10 155 10 22 4 -58 22 -119 26 -118 8 -259 33
-336 59 -93 31 -187 55 -216 55 -31 0 -75 24 -71 38 1 7 -2 12 -7 12 -20 0
-21 34 -1 52 11 10 20 14 20 8 0 -6 5 -8 11 -5 7 5 9 28 5 63 -6 67 1 102 21
102 12 0 14 7 9 33 l-6 32 15 -25 c10 -17 14 -20 15 -9 0 9 11 24 25 33 14 9
25 25 25 36 0 11 3 20 8 20 7 0 32 48 32 62 0 5 -12 21 -26 35 -18 18 -24 33
-21 50 3 18 -2 28 -22 41 -58 37 -70 53 -58 73 6 10 14 16 18 13 4 -2 12 11
19 30 9 28 8 42 -5 72 -9 21 -13 35 -9 31 3 -3 13 1 21 9 8 8 18 12 23 9 11
-7 52 64 45 76 -4 5 -23 9 -43 10 -52 1 -83 12 -96 31 -16 26 2 37 69 44 65 7
149 40 140 54 -3 6 1 7 10 3 13 -4 16 -1 13 13 -3 17 -16 20 -111 25 -82 4
-111 9 -124 22 -15 15 -15 19 -3 30 14 13 96 37 180 53 37 7 60 20 60 35 0 13
-88 11 -95 -2 -5 -7 -12 -6 -23 4 -10 8 -27 18 -39 21 -34 11 -53 34 -53 64 0
19 3 23 9 13 6 -9 11 -10 15 -2 4 6 23 18 42 27 38 18 38 19 18 99 -3 11 -5
46 -4 77 1 51 -2 61 -27 85 -15 16 -26 33 -25 40 1 6 -9 20 -24 32 -28 22 -70
117 -53 123 5 2 12 21 15 43 3 22 12 57 21 77 9 20 13 48 11 62 -4 19 0 26 16
29 12 2 -10 5 -49 5 -38 0 -62 -3 -52 -7z m4532 -341 c3 -5 1 -10 -4 -10 -6 0
-11 5 -11 10 0 6 2 10 4 10 3 0 8 -4 11 -10z m1745 -40 c13 -8 13 -10 -2 -10
-9 0 -20 5 -23 10 -8 13 5 13 25 0z m91 -71 c103 -50 146 -88 210 -183 39 -58
57 -102 46 -113 -6 -6 -37 21 -37 32 0 3 -31 44 -70 90 -54 65 -87 93 -150
130 -44 26 -80 51 -80 55 0 8 1 8 -150 17 -150 8 -128 23 30 20 103 -2 107 -3
201 -48z m-431 1 c-18 -12 -60 -13 -60 -2 0 4 17 8 37 9 26 1 33 -1 23 -7z m8
-72 c-2 -6 -10 -14 -16 -16 -7 -2 -10 2 -6 12 7 18 28 22 22 4z m558 -193 c3
-13 3 -29 -1 -35 -9 -15 -27 -1 -21 16 3 8 -1 17 -9 20 -8 4 -15 15 -15 25 0
17 3 18 20 9 11 -6 22 -21 26 -35z m131 -52 c-4 -3 -2 -12 4 -20 18 -21 4 -15
-16 7 -17 19 -17 20 0 20 10 0 15 -3 12 -7z m42 -267 c1 -54 -5 -42 -12 24 -4
36 -3 48 3 35 5 -11 9 -38 9 -59z m-667 -53 c7 -15 36 -43 65 -63 56 -38 71
-59 77 -105 4 -44 20 -68 91 -146 35 -38 72 -88 82 -111 10 -24 28 -62 41 -86
23 -46 28 -77 12 -87 -5 -3 -7 -12 -3 -20 3 -10 -1 -15 -11 -15 -9 0 -16 6
-14 13 4 16 -3 20 -25 11 -21 -8 -62 30 -52 47 4 5 -5 28 -19 49 -27 41 -116
225 -116 240 0 11 -79 128 -92 136 -25 16 9 -73 38 -97 25 -21 47 -71 55 -126
4 -29 21 -81 37 -115 43 -92 44 -95 31 -177 -9 -52 -18 -80 -31 -89 -10 -7
-18 -21 -18 -30 1 -27 36 -62 69 -68 17 -4 31 -10 31 -15 0 -5 7 -9 15 -9 8 0
15 4 15 10 0 5 7 7 15 3 9 -3 25 3 35 12 19 18 20 17 20 -8 0 -14 15 -43 36
-69 61 -72 64 -86 26 -118 -38 -31 -45 -73 -22 -127 13 -29 12 -34 -5 -53 -21
-23 -44 -23 -100 0 -28 12 -35 10 -84 -20 l-53 -33 -35 19 c-20 10 -37 24 -40
31 -3 6 7 31 21 56 14 24 26 57 26 72 0 33 -35 75 -61 75 -19 0 -49 35 -49 57
0 7 11 13 25 13 18 0 28 -7 36 -27 17 -44 31 -12 34 78 3 69 0 90 -16 117 -10
18 -23 56 -28 85 -13 70 -38 168 -45 175 -15 15 -31 -25 -32 -80 -2 -72 -11
-80 -78 -75 -40 4 -54 10 -72 33 -31 37 -39 108 -21 164 25 75 29 122 14 160
-17 44 -22 126 -7 135 6 4 9 19 5 35 -4 20 -2 29 9 33 19 8 21 41 3 59 -8 8
-11 23 -7 38 6 24 9 25 68 22 38 -2 62 1 62 8 0 21 29 9 42 -17z m73 -33 c3
-5 2 -10 -4 -10 -5 0 -13 5 -16 10 -3 6 -2 10 4 10 5 0 13 -4 16 -10z m-347
-145 c-6 -109 -25 -162 -53 -151 -8 3 -16 0 -19 -7 -11 -27 8 91 20 128 8 22
14 50 14 63 0 20 28 71 39 72 2 0 1 -47 -1 -105z m419 73 c-3 -8 -6 -5 -6 6
-1 11 2 17 5 13 3 -3 4 -12 1 -19z m583 -181 c0 -62 -43 62 -53 153 -5 35 1
26 24 -45 16 -49 29 -98 29 -108z m-6633 131 c-3 -8 -6 -5 -6 6 -1 11 2 17 5
13 3 -3 4 -12 1 -19z m3443 -54 c0 -8 -5 -12 -10 -9 -6 4 -8 11 -5 16 9 14 15
11 15 -7z m3596 -22 c-6 -5 -36 23 -36 34 0 4 9 -1 20 -11 11 -10 18 -20 16
-23z m-3616 4 c0 -2 -8 -10 -17 -17 -16 -13 -17 -12 -4 4 13 16 21 21 21 13z
m-46 -94 c-13 -26 -35 -60 -50 -77 -23 -26 -22 -21 11 43 21 39 42 72 47 72 5
0 6 5 2 12 -4 6 -3 8 4 5 7 -5 2 -23 -14 -55z m-634 -22 c0 -5 -9 -10 -21 -10
-11 0 -17 5 -14 10 3 6 13 10 21 10 8 0 14 -4 14 -10z m4423 -33 c6 -22 6 -22
-14 2 -22 27 -26 49 -5 32 8 -6 16 -22 19 -34z m-1597 -25 c-3 -20 -10 -38
-15 -42 -6 -3 -18 -24 -26 -45 l-15 -40 5 52 c7 69 23 110 41 110 13 0 15 -8
10 -35z m809 -29 c31 -47 33 -64 2 -26 -23 27 -41 63 -32 63 2 0 16 -17 30
-37z m56 -80 c13 -16 12 -17 -3 -4 -10 7 -18 15 -18 17 0 8 8 3 21 -13z m-932
-105 c-6 -11 -13 -17 -16 -15 -3 3 -1 12 3 19 5 7 7 24 6 38 l-2 25 10 -23 c7
-16 6 -30 -1 -44z m1026 42 c3 -6 -1 -7 -9 -4 -18 7 -21 14 -7 14 6 0 13 -4
16 -10z m-1049 -200 c-3 -41 -7 -84 -9 -95 -17 -90 -18 -146 -1 -211 10 -38
17 -79 16 -91 -1 -12 3 -25 8 -28 15 -9 12 -73 -5 -108 -8 -18 -20 -50 -27
-71 -17 -50 -40 -66 -63 -43 -9 9 -13 17 -8 17 4 0 2 4 -5 8 -20 13 18 388 59
582 11 52 23 113 27 135 6 38 7 38 10 10 2 -16 1 -64 -2 -105z m1564 49 c0 -6
15 -26 34 -44 19 -18 37 -42 41 -54 3 -11 12 -21 18 -21 7 0 19 -11 28 -23 82
-113 91 -148 18 -67 -28 31 -47 60 -44 68 4 10 0 12 -12 8 -10 -4 -15 -4 -11
-1 3 4 -13 24 -35 45 -23 21 -50 51 -59 67 -16 28 -16 29 3 30 10 1 19 -3 19
-8z m-4748 -51 c-8 -8 -47 -14 -95 -17 -45 -1 -78 1 -74 5 9 9 81 21 142 23
31 1 36 -2 27 -11z m3512 -74 c12 -32 5 -63 -20 -93 -30 -36 -44 -38 -70 -10
-15 16 -16 23 -6 37 7 9 22 32 33 50 22 34 53 42 63 16z m-230 -91 c-5 -51
-36 -123 -51 -123 -9 0 7 68 29 126 11 30 23 54 25 54 2 0 1 -26 -3 -57z
m-2430 12 c7 -20 -2 -42 -21 -49 -11 -5 -13 -15 -8 -47 l7 -41 -31 18 c-31 18
-39 45 -21 67 6 7 19 24 31 40 23 31 34 34 43 12z m-3138 -170 c-30 -26 -38
-29 -49 -19 -15 15 15 44 46 44 l32 0 -29 -25z m2541 -17 c-3 -8 -6 -5 -6 6
-1 11 2 17 5 13 3 -3 4 -12 1 -19z m3256 -33 c19 -8 37 -22 41 -30 11 -29 6
-82 -8 -94 -24 -20 -69 -9 -82 19 -12 27 -7 120 6 120 4 0 23 -7 43 -15z
m-4198 -105 c-3 -5 -1 -10 5 -10 6 0 8 -5 5 -10 -4 -6 -10 -8 -15 -5 -4 3 -6
-5 -2 -17 3 -14 1 -19 -6 -14 -7 4 -10 2 -7 -6 6 -15 -52 -81 -65 -73 -4 3 -6
-4 -3 -16 3 -12 -2 -31 -14 -47 -11 -15 -28 -44 -37 -64 -11 -23 -23 -35 -30
-31 -6 3 -8 3 -4 -2 10 -10 -22 -64 -44 -76 -10 -5 -18 -16 -18 -24 0 -7 -4
-15 -8 -17 -12 -4 -64 -84 -91 -141 -14 -26 -26 -45 -28 -43 -3 2 0 12 6 23 6
10 22 45 35 78 103 255 214 439 291 487 35 21 39 22 30 8z m4717 -68 c7 -11
24 -24 36 -31 13 -7 21 -15 19 -18 -9 -9 -41 7 -77 37 -30 27 -32 30 -13 30
12 0 28 -8 35 -18z m3588 -27 c0 -16 -39 -29 -79 -26 -113 6 -203 18 -191 24
8 4 58 8 110 10 52 1 110 4 128 5 22 1 32 -2 32 -13z m-5155 -60 c11 -4 22 -9
25 -10 55 -21 70 -28 70 -35 0 -5 9 -12 20 -15 11 -3 20 -13 20 -21 0 -8 8
-14 18 -14 33 0 75 -70 47 -77 -6 -2 -10 6 -10 17 0 23 -16 40 -39 44 -10 1
-22 9 -27 17 -5 8 -9 10 -9 4 0 -14 12 -28 34 -41 11 -6 22 -17 25 -25 2 -8
-16 3 -40 23 -24 20 -43 41 -41 47 1 6 -3 10 -8 9 -13 -3 -169 113 -170 126 0
4 15 -3 33 -16 17 -13 41 -28 52 -33z m-135 -136 c24 -17 59 -39 79 -48 20 -9
50 -25 66 -36 17 -12 43 -27 59 -35 41 -21 77 -58 185 -194 64 -81 104 -123
127 -132 66 -28 272 -269 322 -377 94 -202 95 -205 20 -127 -35 36 -92 88
-127 115 -36 28 -73 66 -84 85 -19 34 -69 96 -141 174 -20 21 -36 42 -36 47 0
18 -22 9 -27 -11 -3 -11 -11 -20 -18 -20 -7 0 -15 -7 -18 -14 -4 -9 -1 -13 6
-10 8 2 13 -8 15 -28 1 -18 3 -44 5 -58 3 -35 -24 -32 -42 5 -9 17 -21 40 -28
52 -8 13 -14 25 -16 29 -1 3 -24 28 -50 55 -26 27 -45 54 -42 59 3 5 -4 12
-17 16 -13 3 -61 48 -108 99 -47 51 -95 97 -108 102 -21 8 -24 15 -25 81 -1
40 -7 76 -12 80 -16 11 -65 108 -58 116 12 12 30 6 73 -25z m2042 -225 c33
-73 59 -154 41 -128 -4 6 -18 16 -30 23 -13 6 -23 21 -23 31 0 11 -11 30 -25
42 -14 12 -25 29 -25 37 0 9 -20 57 -45 106 -24 50 -45 99 -45 109 0 30 111
-131 152 -220z m-1647 176 c4 -6 -5 -9 -19 -8 -15 1 -26 6 -26 10 0 12 38 10
45 -2z m2965 -20 c8 -5 11 -12 7 -16 -4 -4 -15 0 -24 9 -18 18 -8 23 17 7z
m-2955 -18 c6 -1 11 -9 13 -19 2 -14 1 -15 -6 -4 -6 7 -14 11 -19 8 -5 -3 -15
3 -21 14 -12 18 -11 19 5 11 10 -6 23 -10 28 -10z m3063 -28 c18 -8 51 -19 75
-23 27 -5 41 -12 39 -21 -2 -7 3 -17 10 -23 9 -6 7 -7 -7 -2 -11 4 -39 12 -62
18 -24 6 -43 14 -43 19 0 5 -5 6 -10 3 -6 -4 -26 -1 -45 5 -24 8 -35 18 -35
31 0 22 15 21 78 -7z m202 -91 c0 -11 -5 -11 -29 1 -16 9 -31 22 -34 30 -5 13
-1 13 28 -1 19 -9 35 -23 35 -30z m113 -18 c31 -4 57 -10 57 -14 0 -4 35 -16
78 -26 53 -13 69 -20 52 -23 -32 -5 -290 58 -290 71 0 5 10 7 23 4 12 -3 48
-9 80 -12z m-3722 -125 c174 -187 205 -222 227 -262 12 -22 22 -52 22 -65 0
-13 9 -44 20 -68 30 -65 35 -123 17 -186 -9 -30 -15 -65 -14 -78 1 -16 -5 -26
-20 -32 -26 -9 -31 8 -13 42 8 14 6 27 -5 49 -9 17 -15 43 -13 58 4 42 -12
113 -28 119 -10 4 -12 17 -7 49 8 61 -18 123 -72 173 -25 23 -48 41 -53 41 -4
0 -16 15 -27 33 -25 42 -89 104 -118 113 -12 4 -27 14 -33 22 -19 26 -44 -12
-44 -68 0 -39 -3 -49 -20 -53 -11 -3 -27 1 -34 9 -8 8 -19 14 -25 14 -16 0
-15 3 24 60 64 95 78 109 111 109 26 1 42 -12 105 -79z m1215 -182 c18 -8 38
-36 64 -88 71 -143 117 -229 128 -243 14 -16 54 -229 57 -300 2 -43 1 -47 -12
-34 -8 8 -18 30 -22 48 -4 20 -13 34 -21 34 -9 0 -28 39 -52 110 -21 61 -51
150 -68 198 -17 49 -43 107 -58 130 -32 47 -52 98 -52 133 0 28 0 28 36 12z
m327 -93 c67 -124 79 -157 79 -203 -1 -50 -8 -64 -18 -36 -18 47 -106 228
-124 254 -27 38 -26 62 3 58 16 -2 33 -22 60 -73z m-1983 45 c-8 -6 -10 -10
-4 -10 5 0 10 -15 10 -34 0 -24 -4 -32 -13 -29 -7 3 -13 0 -13 -6 0 -5 13 -9
29 -8 16 1 27 7 25 12 -2 6 21 27 51 47 l55 37 0 -27 c0 -16 -6 -34 -12 -41
-11 -11 -10 -14 0 -18 10 -4 10 -8 1 -19 -9 -11 -6 -14 17 -15 17 -1 22 -3 12
-6 -27 -7 -5 -40 32 -48 16 -4 32 -11 36 -16 3 -5 31 -28 62 -51 88 -63 152
-129 152 -156 0 -12 11 -34 25 -48 19 -19 24 -31 19 -50 -14 -57 -70 -36 -113
42 -23 43 -30 48 -64 51 -21 1 -50 8 -65 16 -15 8 -45 24 -67 36 -22 12 -77
57 -121 101 -45 44 -87 80 -94 80 -18 0 -5 -41 30 -97 34 -54 36 -65 15 -97
-15 -23 -14 -26 33 -71 42 -41 48 -52 47 -84 -1 -33 -4 -36 -30 -34 -16 1 -32
8 -36 15 -5 7 -12 13 -16 13 -29 2 -100 55 -170 128 -46 47 -83 83 -83 80 0
-7 -42 46 -63 80 -10 15 -14 27 -10 27 4 0 -3 7 -15 16 -12 8 -27 24 -33 35
-10 19 -8 20 13 14 50 -15 108 -46 135 -71 l28 -26 9 34 c19 74 40 107 66 108
18 0 39 17 74 56 26 30 51 52 54 49 4 -3 0 -10 -8 -15z m1928 -89 c19 -35 39
-99 52 -162 14 -70 31 -123 55 -166 l34 -63 -40 38 c-50 46 -73 90 -88 167 -7
33 -18 80 -26 105 -14 46 -28 140 -21 140 2 0 18 -26 34 -59z m-1576 -11 c10
-19 17 -51 18 -71 0 -29 -4 -38 -22 -42 -31 -9 -43 5 -57 68 -10 44 -10 57 1
69 20 23 41 14 60 -24z m191 -22 c9 -12 17 -31 17 -43 0 -11 5 -26 11 -32 7
-7 7 -22 0 -49 -14 -51 -28 -72 -39 -59 -16 19 -64 173 -60 197 5 38 21 49 38
26 8 -10 23 -28 33 -40z m347 47 c0 -8 11 -25 25 -37 14 -12 23 -28 21 -34 -3
-7 0 -15 7 -18 7 -2 -3 -5 -21 -5 l-33 -1 7 -46 c5 -34 4 -45 -5 -40 -6 4 -9
11 -6 16 3 4 -3 7 -13 6 -13 -1 -16 5 -14 24 1 14 3 53 3 88 0 48 3 62 14 62
8 0 15 -7 15 -15z m-1500 -318 c17 -43 28 -83 24 -89 -4 -7 -3 -8 4 -4 7 4 12
1 12 -6 0 -7 3 -24 7 -37 6 -24 6 -24 -13 -4 -34 35 -85 140 -61 127 7 -4 4 1
-5 12 -10 11 -19 37 -22 58 -3 21 -8 41 -12 45 -4 3 -4 -2 -1 -12 4 -10 3 -16
-2 -13 -5 3 -9 22 -9 42 l0 36 24 -38 c13 -22 37 -74 54 -117z m1048 138 c3
-3 1 -10 -4 -15 -7 -7 -16 -4 -28 9 -18 20 -18 20 4 16 13 -2 25 -7 28 -10z
m1639 -27 c-3 -8 -6 -5 -6 6 -1 11 2 17 5 13 3 -3 4 -12 1 -19z m-2385 -198
c71 -102 186 -228 425 -466 l253 -252 -33 -15 c-60 -27 -180 -70 -200 -71 -14
-1 -31 18 -60 64 -129 208 -181 299 -244 420 -38 74 -98 184 -133 245 -34 60
-69 125 -77 145 l-14 35 26 -30 c15 -16 40 -50 57 -75z m886 88 c15 -15 16
-68 1 -68 -16 0 -48 42 -49 63 0 20 30 23 48 5z m-1486 -88 c4 0 8 -8 8 -17 0
-13 -6 -9 -20 12 -11 17 -19 37 -19 45 1 8 6 3 12 -12 6 -16 14 -28 19 -28z
m1269 13 c13 -16 12 -17 -3 -4 -10 7 -18 15 -18 17 0 8 8 3 21 -13z m-231 -45
c0 -6 -7 -5 -15 2 -8 7 -15 17 -15 22 0 6 7 5 15 -2 8 -7 15 -17 15 -22z
m-1370 -18 c6 -11 15 -18 20 -15 15 9 50 -47 50 -81 0 -23 -6 -37 -20 -44 -12
-6 -20 -21 -21 -38 -1 -43 -50 93 -54 151 -4 49 7 61 25 27z m471 -44 c5 3 9
-2 9 -10 0 -8 -4 -17 -9 -20 -9 -6 -22 17 -20 37 0 8 2 8 6 -1 2 -6 9 -10 14
-6z m-52 -40 c-3 -3 -11 5 -18 17 -13 21 -12 21 5 5 10 -10 16 -20 13 -22z
m-953 -144 c-8 -16 -22 -34 -30 -41 -14 -12 -16 -10 -16 10 0 13 3 48 7 77 l6
52 24 -35 c22 -32 23 -37 9 -63z m-732 43 c4 -39 24 -100 26 -80 0 6 5 3 10
-5 9 -13 15 -10 40 18 l30 33 28 -26 c15 -14 23 -25 18 -25 -4 0 -1 -11 7 -24
19 -29 29 -97 16 -117 -7 -12 -9 -12 -10 1 -1 8 -7 -12 -14 -45 -6 -33 -16
-59 -21 -58 -5 1 -9 -18 -9 -42 0 -38 2 -42 17 -34 10 5 23 19 29 30 20 38 19
14 -2 -41 -32 -85 -49 -112 -65 -106 -9 3 -16 -4 -19 -22 -8 -37 -28 -75 -42
-79 -11 -4 -63 139 -63 175 0 11 -9 57 -21 103 -25 100 -23 233 4 288 9 18 19
49 23 67 8 43 11 40 18 -11z m404 -70 l1 -20 -9 20 c-5 11 -8 31 -8 45 l0 25
8 -25 c4 -14 8 -34 8 -45z m-151 -145 c-6 -65 -21 -111 -29 -89 -3 8 -3 68 0
134 l5 119 14 -54 c8 -32 12 -79 10 -110z m120 8 c-2 -13 -4 -3 -4 22 0 25 2
35 4 23 2 -13 2 -33 0 -45z m-523 25 c18 -89 48 -560 35 -545 -7 8 -55 250
-65 327 -9 68 -9 219 0 233 12 20 24 14 30 -15z m483 -25 c-3 -7 -5 -2 -5 12
0 14 2 19 5 13 2 -7 2 -19 0 -25z m-588 -121 c30 -124 41 -234 21 -222 -5 3
-12 -17 -16 -45 -11 -83 -41 -100 -90 -49 -21 22 -24 28 -10 23 13 -5 23 -1
32 11 19 26 18 75 -1 75 -9 0 -15 9 -15 23 -1 24 -45 85 -56 75 -3 -4 -6 -31
-5 -61 0 -48 -3 -57 -24 -71 -13 -8 -26 -26 -28 -38 -2 -13 -5 41 -6 119 l-1
143 46 11 c62 16 114 66 114 109 0 18 2 31 4 29 2 -2 18 -61 35 -132z m5891
53 c22 -12 149 -223 200 -333 92 -199 127 -351 111 -472 -13 -88 -27 -133 -93
-290 -55 -131 -75 -169 -156 -294 -30 -46 -77 -127 -106 -179 -29 -53 -56 -97
-62 -99 -5 -1 -16 1 -24 7 -12 7 -12 16 3 63 9 29 17 61 17 70 0 28 -18 19
-25 -13 -8 -37 -17 -38 -51 -2 -15 15 -24 20 -22 12 3 -8 16 -43 28 -78 21
-58 22 -67 10 -118 -22 -90 -66 -134 -195 -196 -71 -33 -131 -37 -166 -9 -13
10 -34 21 -46 25 -33 11 -30 59 9 156 l33 80 48 0 c43 0 48 2 42 19 -11 37 60
149 149 235 39 38 41 39 108 37 63 -2 68 0 68 19 0 26 -22 35 -51 19 -17 -9
-24 -9 -27 0 -10 30 -112 3 -112 -30 0 -5 -5 -8 -11 -6 -5 1 -16 -15 -23 -35
-13 -36 -61 -87 -82 -88 -27 0 -31 57 -8 103 9 17 29 80 45 139 25 97 61 197
136 388 22 55 32 68 65 83 63 30 115 7 128 -59 5 -21 14 -59 21 -84 6 -25 15
-72 19 -105 7 -57 7 -55 9 37 1 128 -25 205 -91 269 -42 40 -47 50 -53 104 -4
33 -9 67 -11 76 -4 16 46 79 64 79 6 0 20 12 32 28 47 62 74 92 82 92 20 0 88
-74 88 -96 0 -36 26 -91 60 -131 17 -19 33 -48 37 -64 3 -16 10 -32 16 -36 18
-11 -2 77 -33 147 -15 36 -36 90 -45 120 -10 34 -30 69 -52 91 -19 20 -52 74
-74 120 -32 69 -39 95 -39 147 0 66 1 68 30 52z m-6126 -76 c-15 -286 -22
-319 -80 -398 -40 -54 -54 -50 -54 17 0 54 -17 45 -25 -13 -9 -65 -26 -64 -59
2 -38 77 -35 125 18 250 24 56 47 113 51 126 9 31 51 50 105 47 43 -2 45 -3
44 -31z m3691 -29 c35 -30 37 -35 20 -41 -24 -10 -70 17 -69 39 2 29 4 37 7
37 2 0 21 -16 42 -35z m4454 -46 c-19 -12 -29 -11 -29 2 0 5 5 7 10 4 6 -3 10
-1 10 5 0 6 5 8 11 4 8 -4 7 -9 -2 -15z m-4266 -96 c35 -32 81 -70 103 -84 21
-14 91 -60 154 -102 63 -41 149 -100 190 -131 41 -30 137 -90 213 -133 75 -43
137 -82 137 -87 0 -4 -7 -3 -15 4 -8 7 -15 8 -15 2 0 -6 -69 -8 -197 -5 -208
4 -243 8 -243 22 0 10 108 53 178 71 23 6 42 16 42 21 0 7 -7 8 -17 4 -10 -4
-51 -18 -92 -31 -40 -14 -81 -29 -91 -34 -11 -6 -29 -4 -54 8 -29 13 -66 54
-158 177 -67 88 -154 194 -194 236 -41 42 -74 84 -74 92 0 10 12 17 33 20 17
2 33 5 34 5 2 1 31 -24 66 -55z m-349 -96 c29 -29 74 -68 101 -87 28 -19 92
-68 144 -110 51 -41 106 -84 122 -95 38 -27 74 -75 63 -85 -5 -4 -46 -17 -92
-28 -86 -21 -145 -53 -187 -103 -12 -15 -26 -25 -29 -22 -3 4 -6 1 -6 -5 0 -7
-3 -11 -7 -10 -5 2 -25 -7 -46 -20 -35 -20 -38 -25 -32 -52 5 -21 2 -35 -9
-46 -18 -18 -41 -13 -101 22 -44 25 -181 159 -152 148 9 -3 17 -10 17 -15 0
-5 3 -8 8 -7 12 2 54 -17 53 -25 -1 -4 8 -16 19 -27 11 -11 20 -16 20 -12 0 4
-5 13 -12 20 -6 6 -9 15 -5 18 4 4 25 -10 47 -30 25 -22 34 -36 24 -36 -8 0
-12 -4 -9 -10 7 -11 58 -14 68 -4 3 4 -11 27 -32 53 -37 46 -65 89 -151 236
-190 323 -186 311 -105 332 28 8 82 22 120 33 105 28 111 27 169 -33z m-2009
-222 c20 -55 47 -122 59 -150 40 -85 56 -127 51 -135 -2 -4 7 -20 21 -35 25
-27 27 -53 4 -47 -7 1 -18 -2 -25 -8 -8 -7 -29 -9 -52 -5 -85 14 -81 10 -88
73 -6 54 -27 192 -40 257 -4 17 -9 86 -11 155 l-5 125 25 -65 c13 -36 41 -110
61 -165z m2525 -95 c0 -15 -18 -12 -40 7 -30 26 -24 36 10 18 17 -9 30 -20 30
-25z m-3615 -35 c5 -29 4 -37 -5 -29 -6 6 -13 28 -17 50 -8 52 12 33 22 -21z
m3625 -75 c27 -17 -3 -42 -85 -69 -44 -14 -96 -36 -115 -48 -19 -12 -57 -34
-85 -49 -27 -15 -66 -40 -86 -55 -36 -28 -89 -39 -89 -19 0 6 4 10 10 10 15 0
90 71 90 85 0 38 102 104 215 141 48 15 124 17 145 4z m685 -50 c3 -6 -1 -7
-9 -4 -18 7 -21 14 -7 14 6 0 13 -4 16 -10z m-4237 -181 c5 -27 6 -49 1 -49
-10 0 -36 92 -43 155 l-6 50 20 -53 c11 -30 23 -76 28 -103z m2013 34 c13 -16
12 -17 -3 -4 -17 13 -22 21 -14 21 2 0 10 -8 17 -17z m-856 -29 c45 -26 60
-30 50 -14 -3 6 -1 10 4 10 6 0 11 -4 11 -10 0 -5 9 -20 21 -32 11 -13 48 -64
81 -115 33 -51 86 -120 117 -154 72 -79 84 -97 75 -110 -3 -6 -15 -8 -26 -6
-11 3 -30 1 -42 -4 -13 -6 -72 -7 -155 -2 l-135 8 -38 95 c-55 138 -114 333
-104 348 2 4 26 8 52 9 35 1 59 -5 89 -23z m-432 -94 c42 -124 111 -272 175
-374 l60 -95 -31 -20 c-18 -11 -45 -23 -62 -26 -16 -4 -40 -13 -52 -21 -25
-16 -25 -16 -54 91 -30 111 -93 593 -70 540 5 -11 20 -54 34 -95z m1362 80
c-3 -5 -1 -10 6 -10 7 0 10 -2 7 -5 -7 -8 -38 5 -38 16 0 5 7 9 16 9 8 0 12
-4 9 -10z m48 -2 c20 -12 41 -28 103 -78 24 -19 55 -75 47 -84 -14 -14 -35 -4
-78 37 -70 66 -121 137 -100 137 3 0 15 -6 28 -12z m223 -84 c18 -5 22 -10 14
-19 -7 -9 4 -18 41 -36 28 -13 65 -34 82 -46 l31 -23 -28 0 c-33 0 -62 14 -97
47 -15 13 -42 32 -60 41 -35 18 -57 61 -24 48 9 -3 28 -9 41 -12z m251 -140
c-3 -3 -12 -4 -19 -1 -8 3 -5 6 6 6 11 1 17 -2 13 -5z m-1634 -84 c3 -11 1
-18 -4 -14 -5 3 -9 12 -9 20 0 20 7 17 13 -6z m2587 -6 c0 -12 -4 -12 -20 -4
-11 6 -18 15 -15 20 8 13 35 0 35 -16z m-2555 -54 c9 -16 13 -30 11 -30 -3 0
-12 14 -21 30 -9 17 -13 30 -11 30 3 0 12 -13 21 -30z m6949 -116 c3 -8 2 -12
-4 -9 -6 3 -10 10 -10 16 0 14 7 11 14 -7z m-6831 -21 c-7 -2 -19 -2 -25 0 -7
3 -2 5 12 5 14 0 19 -2 13 -5z m3987 -108 c-6 -15 -13 -25 -16 -23 -2 3 1 17
7 32 16 34 23 27 9 -9z m-4278 -75 l-9 -24 -12 23 c-7 12 -10 30 -6 39 5 14 7
14 21 1 11 -11 12 -22 6 -39z m958 -392 c0 -5 4 -7 10 -3 5 3 16 -8 25 -24 8
-17 24 -35 34 -40 14 -8 18 -23 20 -78 1 -37 4 -75 6 -84 7 -20 -36 -59 -83
-76 -47 -16 -95 -16 -147 0 -51 15 -125 74 -118 93 3 8 0 27 -7 43 -23 56 9
79 119 85 42 2 71 20 71 42 0 7 9 22 20 32 21 19 50 25 50 10z m-3740 -576 c0
-48 -8 -57 -32 -35 -21 18 -24 59 -5 66 30 12 37 6 37 -31z m6588 -466 c9 -17
19 -25 28 -22 11 4 14 -8 15 -57 1 -34 4 -73 8 -87 8 -26 3 -60 -8 -60 -12 0
-54 84 -67 134 -27 102 -11 164 24 92z m-3683 -382 c-31 -194 -62 -293 -118
-379 -22 -33 -36 -51 -32 -40 7 20 40 128 72 235 9 30 24 71 34 90 9 19 24 72
34 118 10 45 20 81 22 79 2 -2 -4 -49 -12 -103z m5678 -133 c55 -95 110 -262
137 -419 27 -154 30 -243 10 -267 -14 -17 -15 -16 -21 6 -4 13 -7 43 -8 65 -1
24 -7 47 -16 54 -10 8 -15 30 -15 61 0 86 -84 354 -143 462 -27 49 -33 67 -26
85 6 16 4 33 -7 55 l-16 32 30 -29 c17 -16 51 -63 75 -105z m-8578 -257 c4
-37 3 -70 -2 -74 -4 -5 -26 -10 -48 -12 -31 -2 -40 1 -43 15 -5 25 16 47 43
47 18 0 22 4 18 21 -3 11 -13 25 -23 31 -16 10 -16 13 3 34 29 34 43 16 52
-62z m-30 -214 c0 -9 -11 -16 -27 -18 -20 -2 -28 1 -28 12 0 8 6 17 13 19 21
9 42 2 42 -13z m2786 -34 c13 -59 9 -230 -11 -505 -9 -126 -10 -185 -1 -250
13 -92 4 -175 -23 -216 -16 -24 -122 -119 -172 -153 l-31 -21 -6 82 c-4 45 -7
114 -7 153 0 94 26 343 44 419 8 33 24 105 36 159 27 123 130 385 152 386 4 0
12 -24 19 -54z m2027 -55 c-4 -12 -118 -114 -212 -191 -123 -100 -217 -194
-273 -272 -57 -81 -136 -232 -149 -283 -4 -17 -13 -39 -19 -50 -26 -43 -106
-369 -110 -450 0 -10 -537 -20 -563 -10 -12 4 -12 8 -2 21 17 20 49 88 125
269 35 83 79 187 99 232 49 114 161 337 194 387 37 55 111 103 170 111 60 7
119 18 267 49 111 24 318 97 331 117 3 5 13 9 23 9 10 0 28 12 42 26 31 34 86
58 77 35z m-198 -319 c0 -4 -23 -30 -51 -57 -28 -28 -63 -66 -78 -86 -14 -19
-43 -55 -65 -80 l-38 -44 25 51 c26 52 91 136 110 143 18 7 37 28 30 35 -4 3
1 6 10 6 9 0 21 9 27 20 11 20 30 28 30 12z m-4632 -93 c12 0 13 -2 4 -6 -10
-4 -8 -8 5 -18 24 -18 12 -28 -19 -16 -18 7 -25 16 -23 33 3 31 6 35 12 21 2
-7 12 -13 21 -14z m8533 -218 c-26 -36 -45 -41 -35 -8 10 33 36 59 47 48 6 -6
1 -21 -12 -40z m-7978 -134 c-3 -5 5 -6 18 -2 19 5 21 4 9 -5 -12 -9 -10 -10
12 -6 15 3 30 1 33 -4 4 -6 12 -10 18 -9 25 3 38 -1 32 -11 -3 -5 3 -10 13
-10 23 0 46 -25 37 -40 -3 -5 -14 -10 -24 -10 -11 0 -29 -8 -42 -18 l-22 -19
28 -7 c51 -13 7 -33 -95 -44 -98 -11 -214 -3 -280 19 -19 6 -44 12 -55 14 -11
2 -22 4 -25 4 -3 1 2 6 10 11 13 8 13 10 -1 10 -24 0 -39 73 -23 114 5 14 7
14 21 0 9 -9 19 -12 22 -7 3 4 20 9 36 10 17 1 22 -1 13 -4 -10 -2 -18 -8 -18
-13 0 -5 7 -6 17 -3 9 4 14 2 10 -3 -3 -6 21 -22 54 -36 48 -22 73 -26 127
-25 79 3 99 11 81 34 -10 11 -10 16 0 22 19 12 -13 33 -54 34 -44 1 -27 13 19
13 19 0 32 -4 29 -9z m214 -83 c-3 -3 -12 -4 -19 -1 -8 3 -5 6 6 6 11 1 17 -2
13 -5z m118 -33 c44 -6 97 -13 117 -15 47 -6 61 -14 54 -33 -5 -11 -2 -13 9
-9 9 3 13 2 10 -4 -3 -6 -13 -10 -21 -10 -8 0 -13 -4 -10 -9 6 -9 -40 -21 -83
-21 -15 0 -35 -6 -46 -13 -21 -14 -73 -16 -91 -4 -7 4 -11 1 -10 -6 2 -20 -19
-19 -22 1 -3 17 -8 19 -38 12 -36 -8 -50 8 -14 17 11 3 17 9 14 14 -3 5 0 9 5
9 6 0 11 7 11 15 0 8 -4 15 -10 15 -16 0 1 29 21 35 11 4 16 11 13 17 -4 6 -3
8 2 5 5 -3 45 -10 89 -16z m-615 -377 c0 -2 -7 -4 -15 -4 -8 0 -15 4 -15 10 0
5 7 7 15 4 8 -4 15 -8 15 -10z m203 -1 c-13 -2 -35 -2 -50 0 -16 2 -5 4 22 4
28 0 40 -2 28 -4z m85 0 c-10 -2 -26 -2 -35 0 -10 3 -2 5 17 5 19 0 27 -2 18
-5z m295 0 c-24 -2 -62 -2 -85 0 -24 2 -5 4 42 4 47 0 66 -2 43 -4z"/>
<path d="M6125 8514 c-20 -20 -2 -49 23 -35 8 5 23 6 33 4 22 -6 26 16 7 35
-17 17 -44 15 -63 -4z"/>
<path d="M6432 7906 c-22 -25 -31 -48 -37 -91 -6 -51 -4 -61 19 -96 24 -35 30
-39 70 -39 52 0 76 27 76 87 0 48 -58 172 -81 173 -10 0 -30 -15 -47 -34z"/>
<path d="M6330 6415 c0 -2 6 -19 14 -37 8 -18 17 -42 21 -52 3 -10 8 -16 11
-13 11 10 -19 107 -33 107 -7 0 -13 -2 -13 -5z"/>
<path d="M4467 6563 c-11 -11 -8 -20 7 -20 8 0 12 6 9 14 -6 15 -7 15 -16 6z"/>
<path d="M4456 6476 c8 -33 33 -102 34 -96 9 35 7 51 -7 83 -18 41 -37 50 -27
13z"/>
<path d="M4475 6360 c-9 -15 21 -77 44 -90 19 -10 21 -8 21 15 0 25 -36 85
-51 85 -4 0 -10 -4 -14 -10z"/>
<path d="M3352 6130 c0 -14 2 -19 5 -12 2 6 2 18 0 25 -3 6 -5 1 -5 -13z"/>
<path d="M3331 6124 c0 -11 3 -14 6 -6 3 7 2 16 -1 19 -3 4 -6 -2 -5 -13z"/>
<path d="M3351 6084 c0 -11 3 -14 6 -6 3 7 2 16 -1 19 -3 4 -6 -2 -5 -13z"/>
<path d="M2131 5647 c-6 -16 -11 -36 -11 -46 0 -9 -6 -26 -14 -37 -14 -18 -15
-18 -26 10 -6 16 -13 26 -16 23 -10 -10 6 -93 21 -113 14 -18 14 -17 15 10 0
24 2 27 15 16 18 -15 21 -9 34 75 10 69 -1 108 -18 62z"/>
<path d="M7868 4930 c-4 -14 -8 -45 -7 -70 0 -40 1 -42 10 -20 6 13 9 45 7 70
-3 37 -4 41 -10 20z"/>
<path d="M7786 4591 c-16 -25 -42 -68 -58 -96 l-29 -50 40 45 c41 47 85 124
79 139 -2 5 -16 -12 -32 -38z"/>
<path d="M7426 4130 c-3 -23 -22 -64 -41 -92 -19 -27 -35 -59 -35 -70 0 -16
10 -9 45 29 28 30 44 57 45 74 0 15 10 38 21 53 23 30 23 31 -7 40 -19 6 -22
2 -28 -34z"/>
<path d="M513 9933 c15 -2 37 -2 50 0 12 2 0 4 -28 4 -27 0 -38 -2 -22 -4z"/>
<path d="M1320 9936 c0 -9 39 -13 51 -5 10 6 4 9 -18 9 -18 0 -33 -2 -33 -4z"/>
<path d="M3409 9929 c14 -5 28 -6 33 -1 4 4 -7 9 -25 9 -30 2 -31 2 -8 -8z"/>
<path d="M3568 9933 c7 -3 16 -2 19 1 4 3 -2 6 -13 5 -11 0 -14 -3 -6 -6z"/>
<path d="M4683 9933 c9 -2 25 -2 35 0 9 3 1 5 -18 5 -19 0 -27 -2 -17 -5z"/>
<path d="M4843 9933 c9 -2 25 -2 35 0 9 3 1 5 -18 5 -19 0 -27 -2 -17 -5z"/>
<path d="M5038 9933 c6 -2 18 -2 25 0 6 3 1 5 -13 5 -14 0 -19 -2 -12 -5z"/>
<path d="M5562 9922 c-11 -85 -10 -91 14 -107 21 -14 24 -14 24 0 0 8 4 15 9
15 13 0 11 39 -2 68 -8 18 -8 25 2 31 8 5 2 8 -16 9 -20 0 -29 -5 -31 -16z"/>
<path d="M6022 9930 c14 -9 15 -14 4 -35 -28 -54 11 -137 49 -105 14 12 16 26
12 77 -4 52 -2 63 12 66 9 3 -9 5 -39 6 -40 0 -51 -2 -38 -9z"/>
<path d="M6188 9933 c12 -2 32 -2 45 0 12 2 2 4 -23 4 -25 0 -35 -2 -22 -4z"/>
<path d="M6363 9928 c2 -7 0 -20 -4 -30 -9 -18 7 -77 22 -79 5 -1 14 -3 19 -4
6 -1 18 -3 28 -4 15 -2 14 -3 -3 -10 -16 -7 -11 -9 23 -12 23 -3 42 -1 42 3 0
5 -4 8 -10 8 -5 0 -7 7 -4 15 4 8 1 15 -4 15 -10 0 -9 31 2 49 3 4 -4 17 -15
27 l-21 19 33 6 c24 5 12 7 -39 8 -55 1 -73 -2 -69 -11z"/>
<path d="M6793 9933 c9 -2 23 -2 30 0 6 3 -1 5 -18 5 -16 0 -22 -2 -12 -5z"/>
<path d="M7170 9914 c-13 -32 -13 -74 -1 -74 5 0 12 8 14 18 3 9 3 -1 0 -24
-4 -32 -1 -42 11 -47 13 -5 15 -2 10 17 -4 16 -1 25 10 29 21 8 21 61 0 78
-15 12 -14 14 7 20 21 6 20 7 -9 8 -26 1 -34 -4 -42 -25z"/>
<path d="M7403 9933 c24 -6 21 -16 -13 -41 -36 -27 -37 -47 -10 -122 36 -97
76 -159 165 -255 45 -48 55 -66 55 -99 0 -14 5 -26 10 -26 6 0 10 -6 10 -13 0
-10 -16 -14 -50 -16 -55 -2 -96 -14 -122 -38 -16 -14 -17 -12 -17 28 2 69 -17
121 -56 159 -30 29 -37 32 -45 20 -5 -8 -10 -23 -10 -32 0 -50 -23 -118 -41
-123 -25 -8 -25 -47 1 -63 11 -7 20 -18 20 -25 1 -18 53 -54 58 -39 2 7 8 12
14 12 6 0 18 8 27 18 19 22 55 26 47 5 -4 -9 6 -13 37 -13 50 0 209 -39 219
-54 4 -6 5 -25 2 -42 -3 -18 -1 -34 4 -38 7 -4 5 -22 -3 -50 -11 -37 -11 -47
1 -64 21 -30 63 -37 80 -13 8 11 21 17 32 14 25 -6 42 35 49 122 6 63 10 74
45 114 42 49 48 66 18 58 -28 -7 -44 16 -28 42 7 12 18 19 25 17 22 -9 32 26
16 51 -16 24 -55 32 -51 11 2 -7 -3 -12 -11 -10 -11 2 -13 -7 -9 -43 3 -27 1
-48 -5 -52 -6 -4 -48 -8 -93 -9 -77 -3 -82 -2 -92 20 -9 20 -7 25 12 36 13 6
36 10 51 8 33 -4 57 24 37 44 -9 9 -15 9 -24 0 -20 -20 -47 -14 -54 13 -3 14
-11 25 -18 25 -31 1 -77 68 -73 105 1 11 -3 19 -9 18 -7 -1 -22 26 -34 60 -22
59 -92 200 -125 251 -13 19 -13 25 -3 29 7 3 -3 5 -22 5 -19 0 -27 -2 -17 -5z"/>
<path d="M7665 9930 c-3 -5 1 -10 9 -10 8 0 18 5 21 10 3 6 -1 10 -9 10 -8 0
-18 -4 -21 -10z"/>
<path d="M8520 9936 c0 -2 7 -6 15 -10 8 -3 15 -1 15 4 0 6 -7 10 -15 10 -8 0
-15 -2 -15 -4z"/>
<path d="M4512 9899 c-17 -7 -22 -16 -22 -47 0 -49 19 -75 51 -70 22 3 24 8
27 59 3 62 -10 75 -56 58z"/>
<path d="M4847 9903 c-4 -3 -7 -15 -7 -26 0 -12 -5 -36 -12 -54 -16 -44 1 -66
32 -38 15 13 20 30 19 64 -1 38 -2 42 -9 21 -7 -22 -8 -22 -11 -5 -1 11 -2 26
-2 33 1 14 -1 15 -10 5z"/>
<path d="M7637 9881 c-14 -16 -23 -40 -22 -53 1 -13 3 -29 4 -35 1 -16 51 -17
51 -2 0 5 4 8 10 4 13 -8 37 45 32 70 -11 51 -40 58 -75 16z"/>
<path d="M3734 9885 c-10 -26 2 -41 32 -40 16 1 28 5 27 8 -2 4 -3 16 -3 27 0
15 -7 20 -25 20 -14 0 -28 -7 -31 -15z"/>
<path d="M5350 9892 c-22 -10 -24 -65 -3 -91 16 -19 20 -20 36 -9 21 16 26 70
7 93 -14 16 -17 17 -40 7z"/>
<path d="M6200 9881 c0 -26 16 -35 24 -15 10 25 7 34 -9 34 -8 0 -15 -9 -15
-19z"/>
<path d="M2120 9872 c0 -10 -5 -23 -12 -30 -19 -19 -14 -103 8 -119 16 -12 19
-12 22 1 2 8 10 12 18 9 8 -3 14 -1 15 3 0 5 2 19 5 32 2 13 -3 37 -12 54 -9
16 -11 27 -5 24 16 -10 13 -2 -8 22 -22 27 -31 28 -31 4z"/>
<path d="M3431 9874 c0 -11 3 -14 6 -6 3 7 2 16 -1 19 -3 4 -6 -2 -5 -13z"/>
<path d="M6975 9869 c-4 -12 -4 -41 0 -65 5 -39 9 -44 32 -44 24 0 25 2 18 46
-3 25 -15 54 -25 64 -19 19 -19 19 -25 -1z"/>
<path d="M8533 9857 c-12 -27 -5 -41 13 -29 6 4 8 18 4 31 l-5 24 -12 -26z"/>
<path d="M3405 9850 c-3 -5 -1 -10 4 -10 6 0 11 5 11 10 0 6 -2 10 -4 10 -3 0
-8 -4 -11 -10z"/>
<path d="M1122 9815 c0 -16 2 -22 5 -12 2 9 2 23 0 30 -3 6 -5 -1 -5 -18z"/>
<path d="M4796 9755 c4 -8 11 -15 16 -15 6 0 5 6 -2 15 -7 8 -14 15 -16 15 -2
0 -1 -7 2 -15z"/>
<path d="M1950 9721 c-10 -20 -14 -121 -4 -121 17 0 64 72 64 98 0 39 -42 56
-60 23z"/>
<path d="M7302 9720 c0 -14 2 -19 5 -12 2 6 2 18 0 25 -3 6 -5 1 -5 -13z"/>
<path d="M4996 9721 c-4 -7 -5 -15 -2 -18 9 -9 19 4 14 18 -4 11 -6 11 -12 0z"/>
<path d="M1698 9607 c-3 -44 3 -62 25 -80 37 -30 60 -35 100 -21 20 7 41 13
45 12 4 -1 8 6 10 15 2 10 -3 17 -12 17 -9 0 -16 5 -16 10 0 6 -9 10 -19 10
-11 0 -34 12 -52 28 -18 15 -34 26 -36 25 -2 -2 -4 -3 -5 -2 -28 8 -38 5 -40
-14z"/>
<path d="M4531 9607 c-15 -15 -14 -124 2 -130 6 -2 22 -1 35 4 17 7 22 16 21
41 -3 68 -32 111 -58 85z"/>
<path d="M7214 9595 c27 -20 15 -28 -25 -17 -44 11 -89 -12 -89 -46 0 -30 23
-55 38 -40 7 7 14 3 22 -12 6 -12 18 -19 25 -16 9 3 12 0 8 -10 -9 -25 11 -13
46 27 33 39 64 107 54 122 -2 4 -12 3 -20 -2 -9 -5 -30 -5 -47 0 -29 8 -29 7
-12 -6z"/>
<path d="M8202 9597 c-23 -27 15 -77 58 -77 5 0 40 -18 76 -41 68 -41 114 -47
114 -14 0 24 -19 65 -30 65 -6 0 -21 10 -33 23 -48 49 -159 75 -185 44z"/>
<path d="M1928 9563 c-10 -2 -18 -5 -18 -6 8 -68 32 -164 44 -173 9 -6 13 -14
9 -17 -3 -4 1 -7 10 -7 10 0 17 7 17 16 0 8 4 13 9 9 6 -3 8 23 6 66 -3 57 -8
76 -26 95 -12 13 -25 23 -28 23 -3 -1 -14 -3 -23 -6z"/>
<path d="M1121 9528 c-10 -26 -11 -23 44 -101 22 -31 48 -58 58 -61 20 -5 80
41 71 55 -3 5 2 9 10 9 14 0 14 3 -1 20 -10 11 -20 15 -23 10 -3 -6 -24 7 -46
27 -39 37 -78 63 -95 63 -6 0 -13 -10 -18 -22z"/>
<path d="M8040 9535 c0 -8 -4 -15 -9 -15 -9 0 -17 -35 -25 -110 -3 -24 -10
-46 -15 -48 -7 -2 -6 -10 2 -23 9 -15 8 -24 -5 -46 -32 -54 -58 -136 -51 -162
4 -14 7 -57 7 -96 l1 -70 42 1 c40 1 42 -1 45 -30 7 -72 72 -27 82 57 6 44 3
62 -13 93 -19 37 -19 42 -5 83 8 24 13 45 11 48 -3 2 -21 16 -42 32 -29 21
-38 36 -39 59 -1 28 1 29 15 16 9 -8 32 -17 51 -20 30 -5 38 -2 62 27 23 28
27 39 22 78 -10 98 -14 106 -66 124 -59 21 -70 21 -70 2z"/>
<path d="M1600 9520 c0 -5 -16 -10 -36 -10 -24 0 -46 -8 -66 -25 -20 -17 -42
-25 -68 -25 -36 0 -67 -19 -53 -33 3 -4 1 -7 -6 -7 -9 0 -9 -5 -1 -20 29 -54
110 -65 110 -15 0 13 5 27 10 30 6 4 8 10 5 15 -9 14 42 20 75 9 28 -10 35 -9
52 9 15 15 19 27 13 51 -6 28 -35 45 -35 21z"/>
<path d="M1010 9495 c-19 -14 -46 -25 -61 -25 -39 0 -54 -25 -54 -88 l0 -55
-55 -19 c-30 -10 -58 -25 -62 -33 -5 -8 -15 -12 -23 -9 -24 10 -18 -22 10 -50
14 -14 25 -32 25 -41 0 -12 8 -16 29 -13 37 3 66 -19 50 -38 -9 -11 -7 -14 9
-14 12 0 24 -4 27 -10 3 -5 22 -10 40 -10 26 0 39 -6 52 -26 17 -27 17 -27
-15 -54 -20 -16 -44 -27 -63 -27 -36 0 -58 -24 -31 -34 37 -13 92 -18 86 -7
-4 6 1 6 14 -1 34 -18 64 0 67 40 3 42 21 89 35 89 12 0 24 -45 16 -58 -3 -5
3 -20 13 -33 10 -13 21 -34 25 -46 9 -27 12 -28 51 -7 24 12 34 13 52 3 13 -7
23 -15 23 -18 0 -3 -15 -22 -33 -42 -27 -29 -44 -38 -83 -43 -27 -4 -64 -10
-82 -13 l-32 -5 33 -18 c27 -14 52 -18 115 -15 83 3 107 9 97 26 -3 5 1 6 9 3
16 -6 20 9 19 71 -1 32 -2 35 -16 35 -12 0 -37 60 -37 89 0 29 -43 101 -61
101 -32 0 -128 40 -160 67 -34 29 -33 15 -10 173 17 121 20 136 26 152 11 27
-11 28 -45 3z"/>
<path d="M9112 9478 c-7 -7 -12 -17 -12 -24 0 -7 -6 -14 -12 -17 -9 -3 -10 -8
-3 -15 16 -17 37 2 39 37 1 17 2 31 1 31 -1 0 -6 -5 -13 -12z"/>
<path d="M8460 9402 c0 -4 -16 -16 -35 -26 -31 -17 -49 -53 -27 -57 37 -7 81
-4 76 5 -3 6 7 -2 21 -19 l28 -29 18 23 c24 30 24 73 1 94 -19 17 -82 24 -82
9z"/>
<path d="M2398 9323 c-10 -2 -18 -9 -18 -15 0 -5 7 -8 14 -5 11 4 13 1 9 -10
-4 -11 -2 -14 5 -9 8 5 12 -1 12 -18 0 -22 5 -26 27 -26 21 0 24 3 15 12 -17
17 -15 29 3 22 21 -9 19 19 -3 39 -18 17 -31 19 -64 10z"/>
<path d="M3738 9265 c-15 -15 -147 -34 -177 -25 -22 6 -29 6 -25 -2 5 -7 1 -9
-9 -5 -9 3 -19 2 -22 -3 -3 -5 3 -10 12 -13 38 -9 -38 -27 -97 -23 -54 3 -59
2 -48 -12 11 -14 10 -15 -7 -8 -32 12 -40 12 -38 -1 1 -6 -16 -14 -40 -18 -23
-4 -53 -14 -67 -22 l-25 -14 25 5 c14 2 66 14 115 26 50 12 112 26 139 31 28
5 70 15 95 24 26 8 75 22 111 30 58 14 102 35 74 35 -6 0 -13 -2 -16 -5z"/>
<path d="M8468 9230 c-35 -19 -82 -21 -107 -6 -6 4 -37 -5 -70 -19 -65 -30
-81 -52 -81 -117 l0 -41 41 7 c56 9 79 23 79 47 0 28 43 46 76 30 22 -10 26
-9 30 6 4 15 17 18 64 19 41 1 68 7 92 22 18 12 28 22 21 22 -7 0 -10 6 -8 13
6 15 -39 37 -74 37 -15 -1 -43 -10 -63 -20z"/>
<path d="M2307 9122 c-35 -36 -34 -50 3 -44 37 5 51 22 43 50 -7 29 -14 28
-46 -6z"/>
<path d="M3110 9099 c-55 -16 -58 -18 -22 -14 24 3 58 12 75 19 44 20 24 18
-53 -5z"/>
<path d="M8440 9070 c-24 -24 -25 -39 -5 -66 8 -10 15 -29 15 -41 0 -48 29
-22 50 44 12 39 11 45 -5 63 -23 25 -30 25 -55 0z"/>
<path d="M3001 9064 c-19 -8 -32 -17 -28 -20 5 -6 67 23 67 31 0 6 0 7 -39
-11z"/>
<path d="M2862 9013 c-41 -25 -36 -31 6 -9 15 8 43 19 62 24 l35 10 -33 -1
c-19 -1 -50 -12 -70 -24z"/>
<path d="M8198 8988 c-5 -48 5 -68 33 -68 11 0 28 -5 38 -12 10 -6 25 -8 34
-5 25 10 49 54 42 77 -5 17 -15 20 -57 20 -33 0 -58 6 -69 16 -16 14 -17 12
-21 -28z"/>
<path d="M2748 8973 c6 -2 18 -2 25 0 6 3 1 5 -13 5 -14 0 -19 -2 -12 -5z"/>
<path d="M2702 8958 c-7 -7 -17 -13 -22 -13 -6 0 -10 -4 -9 -9 1 -13 -20 -23
-68 -31 -24 -4 -45 -10 -48 -15 -6 -10 92 12 120 27 25 14 61 53 49 53 -6 0
-16 -6 -22 -12z"/>
<path d="M2499 8859 c-19 -16 -20 -18 -4 -10 34 17 51 31 39 31 -7 0 -22 -9
-35 -21z"/>
<path d="M8917 8838 c-8 -30 -1 -35 12 -9 6 11 7 22 2 25 -5 3 -11 -4 -14 -16z"/>
<path d="M1765 8840 c-3 -5 -1 -10 4 -10 6 0 11 5 11 10 0 6 -2 10 -4 10 -3 0
-8 -4 -11 -10z"/>
<path d="M8033 8814 c-8 -21 13 -64 31 -64 19 0 46 27 46 45 0 30 -66 47 -77
19z"/>
<path d="M1406 8794 c-10 -25 -7 -34 9 -28 8 4 15 15 15 25 0 23 -16 25 -24 3z"/>
<path d="M1430 8731 c0 -31 14 -42 23 -18 3 6 6 3 6 -7 1 -15 4 -17 13 -8 9 9
5 18 -15 38 l-27 27 0 -32z"/>
<path d="M8871 8723 c-10 -26 -10 -27 4 -9 8 11 15 23 15 28 0 15 -7 8 -19
-19z"/>
<path d="M1616 8712 c9 -9 22 -11 36 -6 13 5 28 7 33 5 5 -1 6 1 2 6 -5 4 -26
8 -47 9 -32 0 -36 -2 -24 -14z"/>
<path d="M10014 8055 c0 -121 2 -169 3 -107 2 62 2 161 0 220 -1 59 -3 8 -3
-113z"/>
<path d="M9440 8057 c-28 -41 -31 -47 -26 -47 7 0 49 61 44 65 -2 2 -10 -6
-18 -18z"/>
<path d="M9373 7958 c-15 -20 -25 -38 -20 -38 3 0 12 11 21 25 17 26 16 35 -1
13z"/>
<path d="M10027 6843 c-4 -3 -7 -15 -7 -25 0 -27 -30 -34 -161 -41 -95 -5
-123 -10 -155 -29 -80 -46 -142 -98 -220 -184 -43 -49 -94 -106 -113 -126 -19
-21 -83 -77 -143 -124 -96 -77 -128 -114 -98 -114 6 0 10 6 10 13 0 21 47 60
61 52 8 -5 10 -4 5 3 -4 7 10 20 34 32 42 21 54 30 116 88 19 18 39 30 45 26
5 -3 9 -2 8 3 -4 22 3 33 19 33 14 0 15 2 2 10 -13 8 -12 10 3 10 9 0 17 7 17
15 0 8 5 15 11 15 5 0 7 -4 4 -10 -3 -5 -4 -10 -1 -10 3 0 10 10 17 21 9 17 8
20 -2 14 -8 -6 -10 -4 -5 4 5 7 14 10 22 7 7 -3 22 6 33 19 10 14 24 25 30 25
6 0 34 23 62 50 60 59 90 69 254 79 61 4 118 11 128 16 18 7 18 -13 16 -526
-2 -526 2 -609 25 -609 16 0 43 34 38 48 -2 7 2 12 10 12 10 0 13 48 11 252
-2 258 -2 457 -1 538 1 59 -5 110 -13 110 -3 0 -11 10 -17 23 -10 19 -10 18
-5 -10 3 -21 1 -33 -6 -33 -8 0 -11 -85 -11 -302 0 -166 -2 -299 -5 -297 -2 3
-5 213 -6 467 0 254 -2 462 -3 462 -2 0 -6 -3 -9 -7z m20 -1025 c-3 -8 -6 -5
-6 6 -1 11 2 17 5 13 3 -3 4 -12 1 -19z"/>
<path d="M10060 6759 c0 -5 5 -7 10 -4 6 3 10 8 10 11 0 2 -4 4 -10 4 -5 0
-10 -5 -10 -11z"/>
<path d="M10165 6750 c-11 -17 -2 -117 11 -135 13 -17 15 -17 32 -2 10 10 22
14 25 10 4 -3 7 21 7 53 0 33 -5 65 -12 72 -14 14 -54 16 -63 2z"/>
<path d="M10176 6534 c-9 -38 -6 -132 5 -159 8 -20 10 -14 13 25 1 8 10 15 21
15 17 0 19 6 17 35 -4 40 -21 76 -22 50 -1 -8 -7 3 -14 25 l-12 40 -8 -31z"/>
<path d="M10185 6330 c-3 -5 -1 -10 4 -10 6 0 11 5 11 10 0 6 -2 10 -4 10 -3
0 -8 -4 -11 -10z"/>
<path d="M10176 6269 c-17 -43 -22 -149 -7 -149 6 0 10 -58 9 -137 -1 -131 -2
-141 -30 -200 -25 -52 -29 -70 -23 -109 3 -26 8 -51 11 -56 8 -12 62 -10 69 3
4 6 13 8 20 5 10 -4 13 59 13 315 l0 320 -23 23 -24 24 -15 -39z"/>
<path d="M10033 5195 c0 -22 2 -30 4 -17 2 12 2 30 0 40 -3 9 -5 -1 -4 -23z"/>
<path d="M10024 4850 c1 -216 5 -300 14 -315 11 -17 12 -13 6 25 -4 25 -10
167 -14 315 l-8 270 2 -295z"/>
<path d="M232 4330 c0 -19 2 -27 5 -17 2 9 2 25 0 35 -3 9 -5 1 -5 -18z"/>
<path d="M3745 3228 c-69 -24 -71 -27 -23 -27 30 -1 52 5 62 15 27 27 16 30
-39 12z"/>
<path d="M291 3214 c0 -11 3 -14 6 -6 3 7 2 16 -1 19 -3 4 -6 -2 -5 -13z"/>
<path d="M4553 3154 c-23 -18 -24 -21 -8 -27 9 -4 30 -1 46 7 19 10 31 11 35
4 4 -7 10 -4 16 6 5 9 6 20 3 26 -10 15 -64 6 -92 -16z"/>
<path d="M787 2853 c-20 -23 -22 -66 -4 -81 17 -14 33 -3 46 30 8 21 6 31 -7
48 -17 21 -18 21 -35 3z"/>
<path d="M5504 2830 c-5 -5 -27 -16 -49 -24 l-40 -15 40 2 c34 1 75 24 75 42
0 8 -15 6 -26 -5z"/>
<path d="M5521 2794 c0 -11 3 -14 6 -6 3 7 2 16 -1 19 -3 4 -6 -2 -5 -13z"/>
<path d="M5388 2783 c7 -3 16 -2 19 1 4 3 -2 6 -13 5 -11 0 -14 -3 -6 -6z"/>
<path d="M5338 2773 c6 -2 18 -2 25 0 6 3 1 5 -13 5 -14 0 -19 -2 -12 -5z"/>
<path d="M5532 2750 c0 -14 2 -19 5 -12 2 6 2 18 0 25 -3 6 -5 1 -5 -13z"/>
<path d="M5114 2704 c-18 -14 -18 -14 6 -3 31 14 36 19 24 19 -6 0 -19 -7 -30
-16z"/>
<path d="M5517 2693 c-4 -3 -7 -36 -6 -72 l1 -66 13 35 c7 19 14 46 14 60 1
29 -12 54 -22 43z"/>
<path d="M4973 2642 c-50 -26 -114 -58 -142 -71 -28 -13 -51 -28 -51 -34 0 -5
7 -33 16 -63 18 -64 45 -100 67 -91 17 6 37 65 37 109 0 43 30 95 66 114 19
10 34 22 34 26 0 3 10 10 23 14 29 9 74 44 56 44 -8 -1 -55 -22 -106 -48z"/>
<path d="M358 2669 c-28 -16 -21 -39 14 -53 27 -12 35 -12 55 1 26 18 30 48 7
57 -23 9 -57 7 -76 -5z"/>
<path d="M1016 2349 c-10 -53 -7 -75 15 -103 20 -26 24 -48 28 -165 1 -21 15
-23 16 -3 1 4 6 16 12 28 9 16 7 31 -14 80 -14 32 -29 87 -33 122 -9 74 -15
85 -24 41z m68 -234 c-4 -8 -8 -15 -10 -15 -2 0 -4 7 -4 15 0 8 4 15 10 15 5
0 7 -7 4 -15z"/>
<path d="M2602 2253 c-7 -12 -12 -29 -12 -37 0 -9 -22 -41 -50 -71 -74 -82
-180 -252 -176 -282 4 -28 56 -20 56 9 0 5 -6 6 -12 2 -10 -5 -10 -4 -1 6 6 7
9 20 6 29 -4 13 -3 14 5 1 6 -8 8 -19 6 -25 -19 -39 119 126 144 172 31 59 57
164 50 199 -4 18 -5 18 -16 -3z"/>
<path d="M1099 2037 c-3 -20 -2 -42 2 -48 10 -17 16 12 9 51 l-6 35 -5 -38z"/>
<path d="M2312 1798 c-16 -35 -33 -73 -37 -86 -4 -13 -24 -54 -46 -91 -21 -37
-39 -71 -39 -74 0 -3 -16 -33 -35 -66 -34 -57 -50 -130 -23 -103 7 7 30 12 52
12 49 0 194 27 249 46 67 24 87 49 86 108 0 49 -1 50 -16 29 -8 -13 -24 -23
-34 -23 -11 0 -52 -9 -92 -21 -159 -46 -177 -49 -177 -29 0 10 20 46 44 81 44
66 146 242 146 253 0 4 -5 4 -12 0 -6 -4 -17 1 -24 10 -11 15 -16 10 -42 -46z"/>
<path d="M1048 1818 l-23 -33 32 23 c39 28 49 42 29 42 -8 0 -25 -15 -38 -32z"/>
<path d="M935 1748 c-61 -37 -150 -116 -194 -173 -87 -110 -161 -238 -161
-278 0 -20 3 -19 33 13 18 19 42 51 53 70 10 19 21 37 24 40 3 3 30 38 59 78
30 39 60 72 67 72 7 0 34 26 61 57 26 31 69 77 96 102 45 44 56 61 39 61 -4 0
-38 -19 -77 -42z"/>
<path d="M5729 1664 c17 -37 26 -43 27 -16 1 9 4 24 8 32 5 11 -1 16 -22 17
l-29 2 16 -35z"/>
<path d="M7264 1570 c4 -49 1 -102 -9 -153 -28 -144 -10 -126 24 25 18 78 20
104 12 135 -21 76 -33 73 -27 -7z"/>
<path d="M486 1621 c-10 -15 22 -71 39 -71 19 0 37 34 29 54 -3 9 -12 16 -19
16 -7 0 -20 3 -28 6 -8 3 -18 1 -21 -5z"/>
<path d="M950 1495 c0 -5 5 -17 10 -25 5 -8 10 -10 10 -5 0 6 -5 17 -10 25 -5
8 -10 11 -10 5z"/>
<path d="M1201 1353 c-1 -12 4 -25 9 -28 12 -7 12 2 0 30 -8 19 -9 19 -9 -2z"/>
<path d="M7346 1269 c-23 -27 -15 -35 9 -9 10 11 16 22 14 25 -3 2 -13 -5 -23
-16z"/>
<path d="M5526 1253 c-6 -14 -5 -15 5 -6 7 7 10 15 7 18 -3 3 -9 -2 -12 -12z"/>
<path d="M8896 1235 c-9 -26 -7 -32 5 -12 6 10 9 21 6 23 -2 3 -7 -2 -11 -11z"/>
<path d="M7280 1209 l-35 -30 37 23 c21 13 38 26 38 31 0 10 -2 9 -40 -24z"/>
<path d="M5344 1138 c3 -10 1 -20 -4 -23 -13 -8 -2 -28 66 -130 29 -44 69 -94
87 -112 21 -20 37 -46 41 -68 9 -48 23 -44 27 9 2 24 1 42 -2 40 -13 -7 -94
81 -120 130 -14 28 -32 50 -39 48 -6 -1 -9 2 -6 7 4 5 2 12 -4 16 -5 3 -10 11
-10 16 0 6 5 7 10 4 6 -3 10 -2 10 4 0 5 -5 13 -10 16 -6 4 -8 10 -5 15 3 4
-5 6 -17 2 -12 -3 -19 -1 -15 4 3 6 1 16 -5 24 -8 12 -9 12 -4 -2z"/>
<path d="M8440 1110 c-25 -11 -37 -19 -27 -19 18 -1 77 26 77 34 0 3 -1 5 -2
4 -2 -1 -23 -9 -48 -19z"/>
<path d="M7790 832 c0 -7 5 -12 10 -12 6 0 10 -7 10 -15 0 -8 4 -15 8 -15 5 0
18 -9 30 -20 12 -12 23 -16 27 -10 3 6 1 10 -6 10 -6 0 -27 17 -45 37 -19 20
-34 32 -34 25z"/>
<path d="M9301 794 c0 -11 3 -14 6 -6 3 7 2 16 -1 19 -3 4 -6 -2 -5 -13z"/>
<path d="M5580 783 c0 -23 15 -39 24 -25 3 5 -1 18 -9 28 -14 18 -14 18 -15
-3z"/>
<path d="M5620 745 c0 -2 14 -11 30 -20 17 -9 30 -12 30 -7 0 5 -11 14 -25 20
-28 13 -35 14 -35 7z"/>
<path d="M5520 673 c0 -46 8 -82 30 -138 17 -42 30 -81 30 -88 0 -6 12 -25 26
-42 14 -16 33 -42 42 -57 33 -56 31 -26 -2 35 -32 58 -77 195 -90 278 -4 19
-13 44 -21 55 -13 17 -14 13 -15 -43z"/>
<path d="M9145 700 c-3 -6 1 -7 9 -4 18 7 21 14 7 14 -6 0 -13 -4 -16 -10z"/>
<path d="M5804 691 c7 -11 56 -21 56 -11 0 4 -10 10 -22 14 -32 8 -40 7 -34
-3z"/>
<path d="M1971 562 c-6 -12 -11 -27 -11 -34 1 -7 8 0 16 15 9 16 13 31 11 34
-3 2 -10 -4 -16 -15z"/>
<path d="M1918 465 c-21 -41 -48 -132 -41 -139 14 -14 23 -4 23 25 0 16 9 50
21 75 23 52 20 85 -3 39z"/>
<path d="M8500 460 c-9 -6 -10 -10 -3 -10 6 0 15 5 18 10 8 12 4 12 -15 0z"/>
<path d="M8320 440 c0 -5 5 -10 10 -10 6 0 10 5 10 10 0 6 -4 10 -10 10 -5 0
-10 -4 -10 -10z"/>
<path d="M8508 363 c7 -3 16 -2 19 1 4 3 -2 6 -13 5 -11 0 -14 -3 -6 -6z"/>
</g>
</svg>
