<?xml version="1.0" standalone="no"?>
<!DOCTYPE svg PUBLIC "-//W3C//DTD SVG 20010904//EN"
 "http://www.w3.org/TR/2001/REC-SVG-20010904/DTD/svg10.dtd">
<svg version="1.0" xmlns="http://www.w3.org/2000/svg"
 width="613.000000pt" height="613.000000pt" viewBox="0 0 613.000000 613.000000"
 preserveAspectRatio="xMidYMid meet">
<metadata>
Created by potrace 1.14, written by Peter Selinger 2001-2017
</metadata>
<g transform="translate(0.000000,613.000000) scale(0.100000,-0.100000)"
fill="#000000" stroke="none">
<path d="M2973 6109 c5 -17 -12 -22 -23 -8 -3 4 -12 0 -20 -9 -13 -14 -12 -15
2 -10 9 4 19 1 21 -7 4 -9 -2 -12 -18 -10 -20 2 -23 -1 -15 -16 15 -27 12 -35
-4 -14 -13 18 -14 18 -9 -9 5 -25 3 -28 -12 -22 -15 5 -16 4 -5 -9 14 -17 0
-21 -17 -4 -8 8 -13 8 -18 0 -4 -7 -1 -10 7 -9 7 2 12 -3 10 -11 -2 -8 2 -17
8 -21 8 -5 4 -9 -8 -12 -16 -4 -19 -2 -15 11 4 14 3 14 -6 1 -7 -11 -5 -20 7
-34 9 -11 11 -16 5 -12 -7 4 -13 2 -13 -4 0 -7 -7 -7 -22 1 -22 12 -22 12 -4
-15 17 -27 17 -27 -3 -17 -29 16 -38 13 -15 -5 15 -13 16 -15 2 -10 -12 3 -15
1 -12 -9 3 -8 13 -11 22 -8 15 4 15 3 2 -6 -8 -6 -23 -11 -32 -11 -10 0 -18
-4 -18 -9 0 -6 9 -8 20 -6 12 2 18 0 15 -6 -4 -5 -11 -6 -17 -3 -8 5 -9 1 -5
-10 4 -10 3 -15 -3 -11 -6 3 -10 1 -10 -4 0 -6 -5 -11 -11 -11 -8 0 -8 4 0 14
9 11 9 16 0 22 -7 4 -9 3 -5 -4 3 -6 3 -13 -2 -16 -5 -3 -7 -18 -6 -34 1 -19
-3 -29 -12 -29 -11 0 -11 3 -1 16 11 14 10 14 -5 2 -10 -7 -15 -17 -13 -22 3
-4 -3 -13 -12 -19 -13 -8 -14 -10 -3 -9 8 1 22 1 30 0 12 -1 11 -4 -3 -12 -9
-6 -15 -14 -12 -20 3 -5 -1 -6 -10 -2 -13 5 -14 7 -3 14 8 5 9 9 2 9 -13 0
-41 -30 -28 -30 5 0 0 -7 -10 -15 -11 -8 -15 -15 -9 -15 7 0 18 7 27 15 8 8
17 11 21 6 3 -5 -4 -12 -15 -16 -11 -4 -18 -10 -15 -15 6 -10 -15 -8 -35 5
-13 8 -13 7 -1 -9 16 -19 23 -58 9 -50 -4 3 -8 0 -8 -5 0 -6 -5 -11 -11 -11
-8 0 -8 5 1 15 9 10 9 15 1 15 -6 0 -11 -5 -11 -11 0 -5 -3 -8 -7 -6 -5 3 -8
-5 -8 -18 0 -17 3 -21 12 -14 7 7 14 6 19 -3 4 -7 4 -10 0 -6 -11 10 -34 -14
-29 -30 3 -8 0 -10 -10 -7 -11 5 -14 0 -12 -19 2 -15 -1 -24 -6 -20 -5 3 -7 9
-4 14 3 5 1 11 -4 15 -6 3 -8 -5 -5 -20 2 -14 0 -25 -6 -25 -6 0 -8 -6 -4 -12
5 -9 2 -8 -9 1 -15 12 -17 12 -11 -3 5 -12 2 -15 -12 -10 -18 5 -18 5 -1 -6 9
-6 23 -8 30 -5 6 4 4 0 -5 -8 -10 -8 -14 -18 -10 -22 4 -5 1 -5 -6 -1 -7 4 -9
12 -6 18 4 7 2 8 -5 4 -6 -4 -11 -13 -10 -19 4 -34 -2 -42 -16 -23 -17 23 -20
14 -4 -15 9 -17 7 -19 -16 -15 -15 3 -23 1 -20 -5 4 -5 11 -7 16 -4 5 4 9 2 9
-4 0 -6 8 -8 18 -4 9 3 4 -4 -11 -17 -16 -12 -26 -28 -23 -36 3 -8 0 -11 -10
-7 -10 3 -11 9 -5 17 6 8 6 17 0 26 -8 12 -9 11 -7 -5 2 -11 -2 -20 -9 -20 -6
0 -15 -4 -20 -9 -4 -5 -3 -6 4 -2 14 8 27 -10 13 -19 -6 -4 -7 -12 -3 -18 10
-16 13 -37 5 -36 -36 5 -54 -25 -28 -44 6 -5 -5 -6 -24 -3 -30 5 -32 5 -11 -4
27 -12 25 -18 -10 -23 -13 -2 -22 -8 -19 -13 2 -5 11 -8 20 -6 10 2 11 0 3 -5
-6 -5 -16 -21 -22 -36 -6 -15 -18 -27 -26 -27 -10 0 -13 -5 -9 -12 4 -6 -1
-17 -11 -24 -11 -8 -15 -19 -11 -30 5 -14 4 -15 -8 -5 -11 9 -16 9 -22 0 -4
-7 -3 -9 3 -6 19 12 22 -21 4 -37 -15 -14 -18 -14 -18 -1 0 8 5 11 10 8 6 -3
7 -1 3 5 -14 23 -25 12 -22 -22 1 -19 -1 -33 -6 -30 -4 3 -10 -7 -14 -21 -4
-18 -11 -24 -22 -20 -12 4 -12 3 -3 -9 10 -11 6 -20 -17 -44 -17 -17 -32 -29
-34 -27 -2 2 -5 -5 -5 -17 -2 -19 -1 -19 11 -3 7 10 19 15 27 12 11 -4 10 -6
-2 -6 -18 -1 -33 -27 -24 -41 6 -9 -13 -25 -29 -25 -5 0 -11 -6 -14 -14 -3 -9
0 -11 8 -6 9 5 11 4 6 -4 -4 -6 -11 -9 -16 -6 -13 8 -20 -21 -8 -33 8 -8 5 -9
-10 -5 -12 3 -19 9 -16 14 9 16 -3 10 -17 -8 -8 -10 -9 -14 -2 -10 6 4 14 3
18 -3 3 -5 1 -10 -4 -10 -15 0 -14 -27 2 -34 6 -3 2 -3 -10 0 -16 4 -23 1 -23
-9 0 -9 -5 -17 -12 -19 -7 -3 -5 -7 6 -11 9 -4 15 -3 11 2 -3 5 -1 12 4 15 5
4 8 -2 7 -11 -2 -10 -12 -19 -24 -19 -12 -1 -25 -3 -29 -4 -5 -1 -11 -2 -15
-1 -5 0 -8 -4 -8 -10 0 -6 6 -9 14 -6 16 7 30 -19 15 -28 -5 -4 -6 -11 -3 -17
4 -7 2 -8 -4 -4 -17 10 -34 -28 -19 -43 7 -7 8 -12 2 -11 -23 5 -36 -1 -29
-12 6 -10 4 -10 -8 0 -13 10 -18 10 -24 1 -4 -8 -3 -9 4 -5 7 4 12 1 12 -9 0
-9 4 -13 10 -10 6 3 7 -1 4 -9 -5 -14 -8 -14 -21 -1 -19 20 -19 20 -17 -12 1
-18 -8 -36 -23 -51 -13 -12 -21 -26 -18 -32 8 -13 -24 -72 -35 -65 -9 6 -15
-17 -11 -39 1 -5 -4 -4 -12 2 -11 10 -17 9 -27 -3 -7 -9 -8 -15 -2 -15 6 0 13
6 15 13 3 7 6 5 6 -5 1 -16 -10 -23 -32 -19 -5 1 -6 -3 -2 -9 3 -6 11 -8 16
-5 5 4 9 1 9 -4 0 -14 -16 -14 -43 0 -18 10 -17 7 6 -14 31 -30 34 -39 10 -30
-10 3 -15 3 -11 -2 4 -4 3 -15 -4 -22 -9 -11 -9 -17 3 -24 10 -6 4 -8 -18 -5
-18 2 -32 1 -31 -3 2 -19 -4 -30 -14 -27 -7 1 -10 1 -5 -1 4 -3 5 -9 2 -13 -3
-5 0 -12 6 -16 8 -5 9 -3 4 6 -6 9 -4 11 4 6 7 -5 9 -11 6 -15 -11 -10 -29 -7
-41 8 -9 11 -11 10 -9 -7 1 -12 5 -25 10 -29 4 -5 5 -2 1 4 -5 9 -2 11 9 6 12
-4 13 -8 5 -13 -7 -4 -10 -13 -6 -19 5 -7 1 -9 -8 -5 -9 3 -16 11 -16 17 0 20
-11 0 -16 -29 -3 -21 -2 -25 5 -14 5 8 7 18 4 24 -3 5 -1 6 6 2 9 -6 8 -14 -4
-32 -8 -13 -12 -24 -8 -24 4 0 -6 -13 -21 -29 -20 -21 -24 -30 -14 -34 7 -3
-1 -4 -18 -2 -21 2 -31 -1 -31 -11 0 -11 3 -11 16 -1 12 10 13 9 7 -1 -4 -7
-2 -20 6 -29 9 -12 9 -15 1 -9 -8 4 -13 2 -13 -4 0 -6 -5 -8 -11 -4 -8 4 -7 9
2 16 11 8 11 9 -1 5 -16 -5 -16 -9 -5 -42 7 -17 5 -17 -9 3 -10 12 -23 22 -29
22 -7 0 -6 -4 3 -10 9 -6 10 -10 3 -10 -11 0 -9 -42 3 -62 3 -4 -2 -5 -10 -2
-9 3 -13 10 -10 15 3 5 -2 6 -11 3 -14 -6 -14 -8 2 -20 17 -13 17 -14 -4 -20
-13 -3 -20 -10 -18 -15 3 -4 13 -6 23 -3 15 5 15 5 -1 -6 -9 -6 -21 -9 -25 -6
-4 2 -9 -4 -9 -15 -1 -11 2 -17 6 -15 4 3 8 -1 8 -9 0 -8 -4 -12 -8 -9 -10 6
-59 -17 -59 -28 0 -4 5 -8 10 -8 6 0 10 5 10 10 0 15 17 12 23 -4 4 -10 1 -13
-9 -9 -10 3 -14 -2 -15 -18 0 -23 -1 -23 -9 -4 -8 19 -9 19 -9 1 -1 -16 -3
-17 -18 -5 -14 10 -13 8 2 -10 11 -14 14 -21 6 -16 -11 6 -13 3 -8 -14 4 -18
3 -20 -9 -10 -12 9 -13 9 -9 -3 3 -8 -6 -24 -20 -36 -14 -12 -25 -29 -25 -37
0 -8 -4 -15 -10 -15 -5 0 -10 6 -10 13 0 8 -3 8 -8 2 -4 -6 -13 -10 -19 -9 -7
1 -17 2 -23 3 -5 0 -10 8 -10 16 0 8 -3 15 -7 16 -5 0 -20 2 -34 3 -14 1 -33
9 -43 18 -15 15 -15 17 4 23 11 3 20 11 20 17 0 7 -4 7 -13 -1 -14 -11 -27 -5
-27 11 0 5 5 6 12 2 7 -4 8 -3 4 5 -6 9 -11 9 -21 1 -10 -9 -13 -4 -11 20 1
19 -2 29 -9 26 -6 -2 -12 5 -12 15 -1 10 2 19 8 19 5 0 9 4 9 9 0 5 -10 7 -22
4 -13 -3 -20 -3 -16 2 4 4 1 13 -5 20 -9 10 -15 10 -26 1 -12 -9 -12 -8 -3 11
9 16 9 23 -1 26 -9 4 -9 8 2 15 9 7 10 12 2 16 -6 4 -11 2 -11 -3 0 -6 -4 -11
-10 -11 -14 0 -12 27 3 33 7 3 6 6 -5 6 -9 1 -19 5 -22 10 -9 14 5 42 17 34 6
-3 7 -1 3 6 -6 9 -11 9 -21 1 -9 -8 -14 -6 -19 6 -9 24 -7 31 5 14 9 -13 10
-13 6 0 -2 9 -13 14 -27 12 -13 -2 -20 1 -16 6 3 6 0 13 -6 15 -10 4 -10 6 0
6 6 1 12 6 12 11 0 6 -5 9 -11 8 -6 -2 -14 3 -17 11 -3 9 0 11 9 7 8 -4 1 2
-14 14 -23 19 -26 25 -15 38 7 9 8 13 3 10 -6 -4 -16 2 -23 12 -6 11 -8 22 -3
24 5 3 11 -1 15 -9 3 -8 10 -15 16 -15 24 0 -24 34 -49 35 -16 0 -25 6 -23 14
8 37 9 72 2 76 -5 3 -7 -6 -5 -20 1 -15 -2 -24 -9 -22 -5 2 -11 19 -12 38 -1
19 -3 36 -4 39 -1 3 -2 9 -1 13 1 5 -3 6 -9 2 -5 -3 -10 -1 -10 5 0 6 -4 8
-10 5 -9 -6 -15 16 -10 40 1 6 -4 4 -11 -2 -7 -7 -18 -13 -23 -13 -6 0 -5 4 3
9 12 8 12 12 -3 26 -18 18 -17 51 0 48 6 -1 11 5 11 13 0 10 -4 11 -11 4 -5
-5 -17 -10 -25 -10 -12 0 -9 6 9 21 14 11 19 18 12 14 -24 -12 -61 -15 -67 -5
-4 6 1 7 12 3 10 -3 15 -3 11 2 -4 4 -2 17 4 29 10 19 9 20 -5 8 -14 -12 -16
-11 -14 7 1 12 6 21 12 21 5 0 2 7 -7 14 -10 7 -14 17 -10 21 4 5 1 5 -6 1 -8
-5 -10 -12 -4 -19 5 -7 6 -21 3 -31 -7 -17 -8 -18 -14 -3 -4 10 -2 17 5 17 7
0 6 5 -2 15 -8 9 -9 20 -4 28 5 7 2 5 -7 -5 -15 -15 -18 -16 -23 -2 -3 8 -2
13 3 10 9 -6 22 17 20 37 0 7 -4 4 -8 -6 -7 -18 -8 -18 -21 -1 -8 10 -10 15
-4 11 7 -4 10 2 6 18 -5 28 -21 35 -18 9 0 -9 -5 -18 -12 -20 -7 -1 -8 0 -2 3
5 2 10 9 10 14 0 6 -6 7 -12 3 -9 -5 -9 -2 1 9 7 9 10 17 6 17 -4 0 -2 7 5 14
10 13 7 14 -17 10 -22 -4 -26 -3 -15 7 6 7 12 18 12 24 0 5 -5 3 -10 -5 -6
-10 -10 -11 -10 -2 0 6 -5 11 -12 10 -7 -2 -13 2 -13 7 -4 30 -26 66 -37 60
-7 -4 -5 0 5 8 12 10 14 17 8 22 -6 3 -11 1 -11 -4 0 -6 -5 -11 -11 -11 -6 0
-8 8 -4 19 3 11 -1 25 -9 34 -8 8 -12 17 -9 21 4 3 1 6 -6 6 -7 0 -10 4 -6 10
3 5 13 7 23 4 14 -5 14 -4 2 4 -8 6 -18 8 -23 5 -5 -3 -6 5 -2 18 7 21 6 22
-8 11 -9 -8 -13 -21 -10 -30 3 -9 3 -14 -1 -11 -11 10 -16 50 -5 44 5 -4 9 1
9 10 0 9 4 14 8 11 5 -3 9 1 9 9 0 13 -4 12 -19 -2 -17 -15 -18 -15 -18 0 0
10 5 17 12 17 24 0 -2 12 -31 15 l-31 3 3 -1602 2 -1601 33 1 c17 0 32 -3 32
-8 0 -5 -11 -6 -24 -4 -16 3 -30 -2 -38 -12 -11 -15 -11 -15 4 -4 13 10 17 10
21 0 4 -9 6 -10 6 -1 1 7 8 10 16 7 8 -4 17 1 21 10 3 9 10 13 15 10 5 -3 7
-9 5 -13 -3 -4 4 -7 14 -8 11 -1 22 2 25 8 3 5 -1 6 -9 3 -9 -3 -16 -2 -16 3
0 5 11 9 25 9 20 0 24 -4 20 -20 -3 -12 -2 -15 1 -8 3 6 9 10 14 7 5 -3 14 0
22 7 17 17 38 21 38 8 0 -6 -5 -10 -12 -10 -6 0 -8 -3 -4 -7 4 -5 13 -1 19 8
18 25 25 26 40 5 13 -17 15 -18 23 -3 12 20 21 21 40 2 19 -19 33 -19 40 0 7
17 25 10 20 -8 -1 -7 -1 -8 2 -4 2 4 10 3 16 -2 9 -8 13 -7 13 4 0 8 -4 12 -9
9 -4 -3 -8 -1 -8 5 0 5 9 9 20 8 14 -1 19 -6 15 -17 -4 -13 -4 -13 7 0 14 16
78 22 78 7 0 -5 -8 -6 -17 -2 -15 5 -16 4 -5 -7 11 -11 15 -10 25 2 13 16 77
22 77 7 0 -5 8 -3 17 4 9 8 14 9 10 3 -9 -16 23 -28 37 -14 8 8 6 9 -7 5 -9
-4 -17 -3 -17 2 0 5 11 9 24 9 14 0 22 -4 20 -8 -3 -4 0 -8 5 -8 6 0 11 4 11
8 0 4 9 8 20 9 11 1 20 -3 20 -8 0 -6 -4 -8 -9 -5 -5 3 -14 -1 -20 -8 -9 -10
-9 -16 -1 -21 6 -4 9 -1 8 6 -2 7 3 13 10 14 7 0 16 5 20 10 10 14 32 17 32 5
0 -6 -5 -10 -11 -10 -5 0 -7 -5 -3 -11 5 -8 10 -6 18 7 14 24 60 29 52 5 -5
-13 -4 -13 7 1 16 20 29 14 20 -10 -4 -10 -2 -13 5 -8 7 4 12 13 12 21 0 8 9
13 20 12 11 -1 20 -5 20 -10 0 -5 -8 -6 -17 -2 -15 5 -16 4 -5 -7 11 -11 15
-10 25 2 7 8 22 16 35 16 12 1 20 -1 17 -5 -4 -3 -12 -6 -18 -6 -5 0 -11 -6
-13 -13 -1 -7 0 -8 3 -2 2 5 8 8 13 5 5 -3 14 0 22 7 17 17 38 21 38 8 0 -6
-5 -10 -12 -10 -6 0 -8 -3 -4 -7 4 -5 13 -1 19 7 14 17 57 23 57 7 0 -5 8 -3
17 4 9 8 14 9 10 3 -9 -16 23 -28 37 -14 8 8 6 9 -6 5 -10 -4 -18 -3 -18 2 0
5 11 9 24 9 14 0 22 -4 20 -8 -3 -4 0 -8 5 -8 6 0 11 5 11 11 0 5 5 7 10 4 8
-5 8 -11 0 -20 -8 -10 -8 -15 1 -21 7 -4 9 -3 5 4 -3 6 -2 13 4 17 6 4 8 11 5
16 -4 5 -2 9 3 9 6 0 13 -8 17 -17 6 -16 8 -17 18 -2 18 25 22 25 41 6 21 -21
35 -22 42 -2 7 17 25 10 20 -8 -1 -7 -1 -8 2 -4 2 4 10 3 16 -2 9 -8 13 -7 13
4 0 8 -4 12 -9 9 -4 -3 -8 -1 -8 5 0 5 9 9 20 8 14 -1 19 -6 15 -17 -4 -13 -4
-13 7 0 14 16 78 22 78 7 0 -5 -8 -6 -18 -2 -14 5 -15 4 -4 -7 11 -11 15 -10
25 2 13 16 57 23 57 8 0 -5 -7 -8 -16 -6 -10 2 -18 -3 -20 -10 -1 -7 0 -8 2
-3 3 6 12 7 20 4 7 -3 16 1 19 9 6 15 35 21 35 6 0 -4 -5 -8 -11 -8 -5 0 -7
-5 -4 -11 5 -6 12 -3 21 10 17 23 57 25 49 1 -4 -13 -4 -13 7 0 14 16 78 22
78 7 0 -5 -8 -6 -17 -2 -15 5 -16 4 -5 -7 11 -11 16 -10 26 4 13 18 27 15 22
-5 -2 -7 -1 -9 1 -4 3 4 8 5 13 2 5 -3 14 0 22 7 17 17 38 21 38 8 0 -6 -5
-10 -12 -10 -6 0 -8 -3 -4 -7 4 -5 13 -1 19 7 14 18 37 24 37 10 0 -6 -5 -10
-12 -10 -6 0 -8 -3 -4 -7 4 -5 13 -1 19 7 14 18 37 24 37 10 0 -6 -5 -10 -11
-10 -5 0 -7 -5 -4 -11 5 -6 12 -3 21 10 17 23 57 25 49 1 -4 -13 -4 -13 7 0
14 16 78 22 78 7 0 -5 -8 -6 -17 -2 -15 5 -16 4 -5 -7 11 -11 16 -10 26 4 13
18 27 15 22 -5 -2 -7 -1 -9 1 -4 3 4 8 5 13 2 5 -3 14 0 22 7 17 17 38 21 38
8 0 -6 -5 -10 -12 -10 -6 0 -8 -3 -4 -7 4 -5 14 0 21 10 16 23 23 23 39 1 12
-16 14 -16 24 2 13 23 14 23 36 2 21 -22 35 -23 42 -3 7 17 25 10 20 -8 -1 -7
-1 -8 2 -4 2 4 10 3 16 -2 9 -8 13 -7 13 4 0 8 -4 12 -9 9 -4 -3 -8 -1 -8 5 0
5 9 9 20 8 14 -1 19 -6 15 -17 -4 -13 -4 -13 7 0 14 16 78 22 78 7 0 -5 -8 -6
-17 -2 -15 5 -16 4 -5 -7 11 -11 15 -10 25 2 13 16 77 22 77 7 0 -5 8 -3 17 4
9 8 14 9 10 3 -9 -16 23 -28 37 -14 8 8 6 9 -6 5 -10 -4 -18 -3 -18 2 0 5 11
9 24 9 14 0 22 -4 20 -8 -3 -4 0 -8 5 -8 6 0 11 4 11 8 0 4 9 8 20 9 11 1 20
-3 20 -8 0 -6 -4 -8 -9 -5 -5 3 -14 -1 -20 -8 -9 -10 -9 -16 -1 -21 6 -4 9 -1
8 6 -2 7 3 13 10 14 7 0 16 5 20 10 10 14 32 17 32 5 0 -6 -5 -10 -11 -10 -5
0 -7 -5 -3 -11 5 -8 10 -6 18 7 14 24 60 29 52 5 -5 -13 -4 -13 7 1 16 20 29
14 20 -10 -4 -10 -2 -13 5 -8 7 4 12 13 12 21 0 8 9 13 20 12 11 -1 20 -5 20
-10 0 -5 -8 -6 -17 -2 -15 5 -16 4 -5 -7 11 -11 15 -10 25 2 7 8 22 16 35 16
12 1 20 -1 17 -5 -4 -3 -12 -6 -18 -6 -5 0 -11 -6 -13 -13 -1 -7 0 -8 3 -2 2
5 8 8 13 5 5 -3 14 0 22 7 17 17 38 21 38 8 0 -6 -5 -10 -12 -10 -6 0 -8 -3
-4 -7 4 -5 13 -1 19 7 14 17 57 23 57 7 0 -5 8 -3 17 4 9 8 14 9 10 3 -9 -16
23 -28 37 -14 8 8 6 9 -6 5 -10 -4 -18 -3 -18 2 0 5 11 9 24 9 14 0 22 -4 20
-8 -3 -4 0 -8 5 -8 6 0 11 5 11 11 0 5 5 7 10 4 8 -5 8 -11 0 -20 -8 -10 -8
-15 1 -21 7 -4 9 -3 5 4 -3 6 -2 13 4 17 6 4 8 11 5 16 -4 5 -2 9 3 9 6 0 13
-8 17 -17 6 -17 7 -17 20 0 19 26 25 25 40 -2 12 -23 13 -23 19 -5 9 28 64 26
96 -3 29 -27 32 -43 10 -61 -8 -8 -10 -11 -5 -8 6 2 16 -4 23 -15 10 -15 10
-19 0 -17 -7 2 -13 -7 -14 -20 -1 -12 -5 -26 -9 -30 -4 -4 -5 2 -3 12 1 10 -3
21 -10 23 -8 3 -10 -1 -5 -13 5 -13 3 -15 -8 -9 -11 7 -11 5 1 -10 14 -17 13
-18 -2 -12 -10 3 -20 1 -24 -5 -4 -6 -3 -8 4 -4 6 3 13 2 16 -3 8 -13 -20 -21
-32 -9 -6 6 -12 6 -17 -1 -3 -6 -3 -10 2 -9 8 3 13 -5 13 -23 0 -5 -5 -7 -12
-3 -7 5 -8 3 -3 -6 6 -10 12 -8 26 8 9 12 21 22 25 22 4 0 0 -8 -9 -18 -10
-10 -14 -22 -10 -26 5 -4 4 -7 -2 -5 -5 1 -18 -1 -28 -6 -15 -6 -16 -10 -5
-16 10 -7 11 -9 0 -9 -7 0 -10 -5 -6 -12 5 -7 3 -8 -6 -3 -10 6 -12 2 -8 -18
3 -15 1 -25 -6 -24 -5 1 -10 -4 -11 -11 0 -8 -8 -19 -17 -26 -10 -7 -15 -16
-11 -19 3 -4 0 -7 -8 -7 -19 0 -51 -57 -37 -66 15 -9 -13 -25 -34 -18 -9 2
-20 -1 -24 -7 -4 -8 -3 -9 4 -5 7 4 20 2 29 -3 16 -9 15 -10 -6 -11 -13 0 -22
-3 -19 -6 4 -3 3 -18 -2 -34 -5 -18 -4 -33 3 -41 10 -10 9 -10 -5 0 -10 7 -15
17 -12 22 3 5 -2 6 -10 3 -14 -5 -14 -8 0 -21 13 -14 13 -17 -2 -34 -18 -20
-29 -25 -19 -10 3 5 1 13 -5 16 -6 4 -10 3 -9 -2 5 -27 -3 -73 -12 -73 -5 0
-7 4 -4 10 3 5 0 7 -9 4 -8 -3 -12 -12 -9 -20 3 -8 10 -11 16 -7 7 4 2 -5 -10
-21 -12 -15 -20 -33 -17 -40 3 -8 -2 -16 -11 -20 -9 -3 -13 -10 -10 -16 9 -15
-2 -12 -19 6 -13 12 -16 12 -16 2 0 -8 5 -19 12 -26 9 -9 9 -12 1 -12 -7 0
-15 5 -18 10 -3 6 -11 10 -17 10 -5 0 0 -9 13 -20 13 -11 18 -19 10 -18 -7 2
-16 -3 -19 -11 -3 -8 0 -11 7 -7 6 4 11 2 11 -3 0 -6 -5 -11 -11 -11 -5 0 -7
-5 -3 -12 4 -6 3 -9 -2 -6 -11 7 -29 -12 -29 -29 0 -7 -4 -12 -10 -10 -5 1 -9
13 -8 27 l3 25 -10 -23 c-7 -15 -6 -30 0 -42 14 -25 13 -30 -5 -24 -8 4 -12
11 -8 18 3 6 2 7 -2 3 -13 -11 -15 -38 -3 -31 7 4 8 2 4 -4 -4 -7 -2 -12 5
-12 6 0 0 -9 -15 -21 -14 -11 -24 -24 -21 -29 3 -5 1 -11 -4 -14 -5 -4 -12 -2
-16 4 -3 5 -11 10 -17 10 -6 0 -1 -9 12 -20 13 -11 18 -20 11 -20 -7 0 -10 -4
-7 -9 4 -5 -8 -21 -25 -35 -17 -14 -27 -26 -22 -26 4 -1 -5 -8 -20 -16 -17 -9
-25 -20 -20 -27 13 -21 10 -45 -4 -40 -11 4 -11 8 -1 22 11 14 11 14 -3 4 -9
-7 -20 -9 -25 -5 -4 4 -2 -1 5 -10 9 -12 10 -18 2 -18 -17 0 -13 -21 7 -36 15
-11 12 -12 -18 -8 -33 5 -34 5 -15 -10 18 -14 18 -15 3 -16 -21 0 -23 -11 -5
-29 10 -10 9 -12 -2 -9 -8 2 -17 -6 -19 -17 -2 -11 -10 -27 -16 -35 -7 -8 -13
-27 -14 -42 -2 -26 1 -28 34 -28 28 0 35 3 31 15 -7 18 9 30 19 14 5 -8 3 -9
-6 -4 -9 5 -11 4 -6 -3 5 -8 13 -9 25 -2 10 5 22 6 26 2 5 -4 5 -1 1 6 -4 7
-11 10 -16 7 -5 -3 -12 0 -16 7 -4 7 -4 10 1 6 4 -4 15 -2 23 5 13 9 14 9 8 0
-4 -8 -1 -13 8 -13 9 0 16 -4 16 -10 0 -5 5 -10 11 -10 6 0 0 15 -12 32 -14
20 -17 28 -7 20 13 -11 22 -11 39 -2 12 7 19 8 16 3 -4 -5 0 -10 8 -10 10 0
11 5 4 19 -7 14 -7 18 3 16 7 -2 12 3 11 9 -2 7 0 12 5 12 23 -4 42 2 36 12
-4 8 -1 8 12 1 14 -7 25 -6 39 4 22 16 39 19 30 4 -3 -6 1 -7 9 -4 13 5 12 9
-7 24 -21 18 -21 18 -2 16 23 -4 57 22 48 37 -3 5 0 8 7 5 8 -2 16 -10 18 -18
3 -8 0 -10 -8 -5 -9 6 -11 4 -5 -5 5 -9 4 -11 -3 -6 -8 5 -10 1 -6 -9 10 -25
37 19 29 48 -5 20 -5 20 10 -3 13 -21 15 -22 13 -5 -4 35 10 47 36 30 20 -13
25 -13 42 0 13 11 14 14 4 13 -8 -2 -19 -7 -23 -13 -5 -6 -7 -4 -4 5 2 8 10
15 18 15 8 0 14 7 14 15 1 8 7 14 14 12 18 -4 43 18 37 33 -2 6 2 12 10 12 7
0 11 -4 8 -9 -3 -4 4 -8 16 -8 13 0 19 -4 14 -12 -4 -7 -3 -8 4 -4 6 4 9 13 6
21 -4 8 -11 12 -18 8 -6 -4 -6 0 2 9 8 10 21 14 34 10 13 -3 19 -1 15 5 -5 7
1 9 15 6 19 -4 20 -3 8 7 -12 10 -11 11 8 7 19 -5 21 -3 11 9 -14 17 2 19 20
1 10 -10 11 -9 5 6 -5 13 -2 16 10 11 9 -3 14 -9 11 -13 -2 -4 2 -8 10 -8 8 0
13 3 10 5 -3 3 0 11 6 18 7 8 6 14 -2 20 -8 5 -9 3 -4 -6 6 -9 4 -11 -5 -5 -9
6 -11 4 -5 -6 5 -8 4 -10 0 -6 -17 15 -13 36 6 32 10 -2 21 1 24 6 4 5 11 7
16 3 5 -3 7 -10 3 -15 -3 -5 -9 -7 -14 -4 -4 3 -6 -4 -3 -16 5 -19 7 -18 21
10 8 17 19 31 24 31 5 0 6 -6 2 -12 -6 -10 -5 -10 8 -1 8 7 18 10 21 6 4 -3 7
-1 7 6 0 7 -6 11 -13 8 -19 -7 -17 20 3 38 14 13 17 13 17 0 0 -8 -5 -11 -10
-8 -6 3 -7 1 -3 -5 11 -19 26 -14 26 8 0 11 4 20 10 20 5 0 7 -8 3 -17 -3 -12
1 -10 12 5 9 13 23 21 30 18 16 -6 27 18 14 31 -6 6 -4 10 5 10 8 0 13 -4 10
-9 -3 -4 0 -8 7 -8 8 0 8 -4 -1 -15 -7 -9 -10 -18 -7 -21 8 -9 29 35 22 46 -3
6 -1 10 4 10 6 0 11 -6 11 -12 0 -9 3 -8 10 2 6 9 5 17 -1 21 -6 3 -1 9 11 12
14 4 19 10 14 18 -4 8 -3 10 4 5 7 -4 12 -1 12 6 0 8 5 6 11 -5 5 -9 8 -21 4
-26 -3 -5 0 -13 6 -17 7 -4 10 -3 6 2 -3 5 3 25 14 44 10 19 18 29 19 22 0 -7
5 -10 12 -6 7 4 8 3 4 -5 -4 -6 -13 -8 -19 -5 -7 4 -9 4 -5 -1 4 -4 2 -15 -4
-24 -7 -9 -1 -6 12 5 14 12 31 20 38 18 7 -1 8 0 2 3 -5 2 -10 9 -10 14 0 5
10 4 23 -2 19 -11 20 -10 9 3 -7 9 -10 23 -6 32 6 15 8 14 24 -4 15 -18 19
-18 24 -5 3 9 2 14 -3 11 -5 -3 -11 1 -14 8 -4 11 0 14 16 11 22 -4 22 -4 2
12 -18 14 -18 15 -1 9 10 -3 25 -1 33 6 9 7 30 11 49 9 20 -1 34 2 34 9 0 6
-4 9 -8 6 -4 -2 -14 -1 -22 5 -16 9 -14 10 33 13 13 1 22 8 21 17 -1 12 5 14
24 11 17 -3 23 -1 18 7 -5 7 1 11 14 11 12 0 19 -4 16 -8 -2 -4 0 -14 5 -22 9
-13 10 -13 8 0 -3 24 12 50 28 50 12 0 13 -3 4 -14 -9 -11 -9 -16 0 -22 7 -4
9 -3 5 4 -3 6 -2 13 3 16 5 4 8 19 5 34 l-4 27 15 -25 c8 -14 14 -20 15 -13 0
7 9 10 21 8 16 -3 18 -1 10 9 -6 7 -7 17 -3 21 4 5 1 5 -6 1 -7 -4 -10 -11 -8
-15 3 -4 -1 -8 -9 -8 -10 0 -12 4 -5 12 5 7 7 15 4 18 -4 4 3 4 16 2 16 -3 20
0 16 10 -3 10 0 12 11 8 12 -5 14 -3 8 7 -5 9 -4 11 3 6 9 -5 7 -15 -4 -34
l-16 -27 21 24 c12 14 19 31 16 40 -3 8 -3 12 1 8 4 -4 17 2 29 13 l21 19 2
-24 c1 -14 -3 -25 -8 -25 -5 0 -6 8 -3 18 6 15 5 16 -11 2 -11 -8 -14 -16 -7
-18 6 -2 8 -8 5 -14 -4 -6 1 -6 14 1 11 6 23 22 26 36 6 23 8 24 22 10 8 -8
18 -15 22 -15 3 0 1 5 -6 12 -24 24 -11 31 15 7 24 -21 25 -21 9 -2 -18 22
-16 60 3 49 5 -4 11 -3 14 1 2 5 2 3 1 -4 -2 -7 1 -15 7 -18 5 -4 8 -1 7 7 -2
9 6 12 25 11 28 -2 36 10 15 23 -6 4 -8 3 -4 -4 3 -6 -1 -9 -11 -8 -20 3 -20
21 0 21 6 1 11 7 9 15 -1 9 6 5 18 -9 11 -13 20 -18 20 -11 0 10 3 10 15 0 10
-9 15 -9 15 -1 0 6 -5 11 -11 11 -5 0 -7 5 -4 10 4 6 10 8 14 6 4 -3 7 5 6 17
-3 27 3 39 16 31 6 -4 6 -10 0 -18 -8 -9 -7 -13 4 -13 8 0 12 4 9 9 -3 5 7 6
21 4 15 -3 25 -2 21 1 -3 3 3 12 14 20 11 8 17 20 14 31 -5 13 -4 14 4 3 6 -8
7 -21 4 -30 -4 -10 3 -8 18 7 18 17 26 19 32 10 6 -10 8 -10 8 -1 0 6 -4 15
-10 18 -5 3 -10 11 -10 17 0 6 7 5 17 -3 15 -13 15 -12 4 10 -8 15 -9 21 -2
17 6 -4 11 -1 11 6 0 11 2 11 9 0 11 -19 61 -23 54 -5 -4 11 -8 11 -22 1 -14
-11 -14 -11 -4 3 7 9 10 18 7 22 -3 3 3 3 15 0 12 -3 18 -10 14 -17 -4 -7 -1
-7 8 1 12 10 18 10 28 0 10 -9 11 -8 5 7 -6 15 -4 18 9 13 12 -4 14 -2 10 10
-5 12 -3 14 7 8 9 -6 11 -4 6 4 -6 9 -13 8 -27 -5 -11 -10 -19 -12 -19 -6 0 7
5 12 11 12 5 0 7 6 3 13 -4 6 -4 9 1 5 4 -4 17 -3 28 3 15 9 18 8 12 -3 -7
-11 -5 -11 6 0 12 11 12 14 -1 23 -13 9 -13 10 1 6 21 -7 61 21 53 36 -3 7 6
0 19 -15 20 -22 26 -24 31 -12 3 9 1 12 -4 9 -6 -3 -10 -1 -10 4 0 6 9 11 21
11 13 0 18 -4 13 -12 -6 -10 -5 -10 8 0 8 6 14 23 13 36 -2 18 1 23 12 19 12
-5 12 -7 1 -15 -10 -8 -10 -9 2 -5 10 2 14 14 13 33 -1 16 1 24 5 17 4 -6 16
-13 27 -15 16 -2 19 2 18 20 -2 19 -1 21 11 10 8 -7 11 -17 8 -22 -3 -5 0 -6
6 -2 6 4 9 13 6 21 -5 11 0 12 24 6 18 -5 35 -5 43 1 11 8 10 9 -3 4 -19 -6
-23 10 -9 33 6 9 11 10 15 2 4 -6 2 -11 -5 -11 -7 0 -10 -2 -7 -5 3 -3 13 -2
22 1 13 5 14 9 6 14 -16 10 -4 30 16 30 9 0 12 5 8 12 -4 7 -3 8 4 4 17 -10
15 -15 -10 -26 -22 -8 -22 -9 4 -7 15 1 24 5 22 9 -5 8 10 11 49 11 14 0 15 2
6 14 -9 10 -15 11 -23 3 -13 -13 -26 -13 -26 1 0 5 4 8 9 5 5 -4 11 0 14 6 3
10 9 10 25 1 18 -11 20 -10 16 2 -4 8 -10 15 -14 15 -5 0 -7 11 -4 25 3 17 0
25 -10 25 -7 0 -20 8 -27 17 -10 11 -10 14 -1 9 6 -4 12 -2 12 3 0 6 -7 11
-15 11 -8 0 -12 6 -9 14 3 7 -2 16 -10 19 -19 7 -15 54 4 49 6 -1 9 2 5 8 -5
8 -11 7 -22 -1 -12 -10 -16 -10 -24 2 -5 8 -9 22 -9 32 0 11 -4 15 -12 11 -6
-4 -8 -3 -5 3 3 5 -3 17 -14 27 -13 11 -18 24 -14 36 5 16 2 18 -17 15 -23 -4
-23 -4 2 15 14 11 17 18 8 14 -16 -5 -41 25 -43 51 -1 6 -7 9 -15 7 -12 -3
-13 -1 -2 9 18 19 15 28 -9 24 -17 -3 -19 -1 -9 10 8 10 8 15 -1 21 -8 5 -9 3
-4 -6 6 -9 4 -11 -5 -5 -10 6 -9 11 6 22 18 13 17 14 -8 8 -19 -5 -28 -3 -28
5 0 6 4 9 8 6 4 -2 9 5 9 17 2 16 0 18 -6 8 -7 -10 -10 -8 -16 9 -5 15 -2 26
6 32 10 6 6 7 -11 2 -22 -6 -23 -5 -11 9 7 9 18 14 25 10 6 -3 7 -2 3 2 -10
12 -38 15 -31 4 8 -14 -6 -11 -22 5 -12 13 -12 15 4 19 12 3 10 5 -7 6 -18 1
-22 6 -18 20 3 12 -1 18 -12 17 -9 0 -17 6 -17 14 -1 8 -2 21 -3 28 -1 8 -6
10 -13 6 -10 -6 -10 -4 0 8 9 11 10 18 2 23 -6 3 -7 11 -4 17 5 7 1 9 -9 5
-10 -4 -16 -2 -14 6 1 7 -6 11 -15 9 -13 -2 -18 4 -18 23 0 14 5 25 11 25 5 0
7 5 3 11 -5 8 -9 8 -14 -1 -13 -21 -28 -2 -22 26 4 21 2 26 -10 21 -11 -4 -15
1 -14 16 1 12 8 21 15 19 7 -1 10 2 7 6 -3 5 -17 7 -31 4 -21 -3 -24 -1 -19
13 5 13 9 14 15 3 5 -7 9 -8 9 -3 -1 6 -7 18 -14 28 -12 16 -14 16 -20 2 -4
-11 -2 -14 6 -9 7 5 8 3 4 -5 -5 -7 -11 -9 -15 -6 -6 7 -8 13 -10 46 -1 12 -5
17 -13 13 -8 -5 -9 0 -6 14 4 15 2 22 -9 22 -8 0 -12 4 -8 9 3 5 1 12 -5 16
-5 3 -15 15 -21 27 -6 12 -7 18 -1 14 5 -3 12 0 15 7 3 9 -3 12 -22 9 -22 -3
-27 0 -28 18 -1 12 -10 31 -19 41 -12 14 -13 19 -4 19 7 0 10 3 7 7 -4 3 -1
13 5 22 7 9 2 7 -11 -4 -14 -11 -21 -15 -18 -8 4 6 3 14 -3 18 -5 3 -10 11
-10 17 0 6 7 6 18 -3 9 -7 5 -1 -10 14 -15 15 -35 27 -44 27 -16 0 -16 2 2 16
10 8 13 12 6 9 -9 -5 -15 1 -19 14 -3 11 -9 18 -14 15 -5 -3 -9 5 -9 17 0 12
-7 31 -17 41 -9 10 -12 18 -6 18 5 0 10 6 10 14 0 8 -8 11 -19 8 -10 -2 -18 0
-18 6 0 6 -7 18 -16 26 -8 9 -11 16 -6 16 6 0 12 6 15 14 4 9 -2 12 -19 10
-20 -2 -23 2 -20 19 4 24 -17 50 -30 39 -5 -4 -2 1 5 11 7 9 10 17 6 17 -4 0
-1 8 6 18 13 15 12 16 -4 3 -15 -12 -20 -12 -30 -1 -9 9 -9 11 0 6 6 -3 14 -2
17 3 4 5 -4 8 -17 7 -20 -3 -23 1 -22 26 1 20 -2 27 -11 24 -17 -7 -25 19 -11
34 9 10 9 11 -2 5 -9 -5 -12 -3 -9 6 3 8 11 13 18 11 11 -3 11 0 0 12 -7 9
-18 16 -24 16 -7 0 -6 -3 2 -9 10 -6 10 -10 -3 -21 -8 -7 -18 -10 -22 -6 -3 3
-1 6 5 6 14 0 3 31 -17 48 -9 8 -11 11 -4 8 6 -4 15 -1 19 5 4 7 3 10 -2 6
-16 -9 -49 17 -51 41 -2 15 1 21 9 16 7 -4 8 -3 4 4 -4 7 -14 12 -21 12 -9 0
-12 6 -8 17 4 9 2 14 -3 11 -5 -3 -17 10 -26 30 -9 19 -12 30 -5 23 6 -6 16
-11 22 -11 5 0 2 5 -8 11 -9 6 -15 14 -12 19 3 4 -4 6 -15 3 -11 -3 -20 0 -20
6 0 6 8 11 18 12 11 0 12 2 4 6 -7 3 -20 -1 -29 -9 -12 -9 -15 -9 -9 -1 13 23
15 52 4 59 -7 4 -8 2 -4 -4 4 -7 3 -12 -2 -12 -16 0 -21 13 -12 30 8 15 6 17
-10 13 -21 -6 -28 11 -8 23 7 4 8 3 4 -4 -5 -8 -1 -10 10 -5 15 5 15 7 0 15
-9 5 -21 6 -26 3 -6 -3 -7 1 -4 9 3 9 10 13 15 10 5 -3 6 2 3 10 -5 14 -8 14
-21 1 -8 -8 -17 -15 -20 -15 -4 0 -3 3 0 6 3 4 0 16 -8 26 -7 11 -11 26 -9 33
3 7 0 16 -7 21 -8 4 -10 3 -5 -4 4 -7 2 -12 -4 -12 -7 0 -9 7 -6 16 3 9 6 18
6 21 0 3 8 -1 18 -8 15 -13 16 -12 4 3 -8 9 -20 14 -29 11 -13 -5 -15 -1 -9
23 7 28 7 28 -9 9 -16 -20 -16 -20 -12 3 4 18 3 21 -8 12 -9 -8 -14 -6 -19 5
-3 9 -2 13 3 10 5 -3 12 -1 16 5 4 6 -5 10 -19 10 -14 0 -26 4 -26 10 0 5 8 7
18 3 15 -5 15 -4 2 8 -25 23 -56 63 -42 55 6 -4 12 -3 12 2 0 15 -26 33 -35
24 -5 -4 -5 -2 -2 4 4 7 0 14 -8 18 -8 3 -15 17 -15 31 0 14 -5 25 -11 25 -5
0 -7 5 -4 10 3 6 0 10 -7 10 -10 0 -10 2 0 9 10 6 6 10 -14 15 -15 4 -24 10
-18 14 5 4 10 15 12 26 3 13 -1 17 -12 13 -13 -5 -13 -2 -5 21 10 25 10 26 -9
8 -23 -20 -30 -13 -28 26 1 14 -2 24 -6 22 -4 -3 -8 0 -8 6 0 6 -4 8 -10 5 -6
-3 -7 1 -4 10 4 9 -1 22 -12 31 -11 9 -12 13 -4 9 8 -4 6 1 -5 10 -13 11 -15
15 -5 13 8 -1 15 1 15 7 0 5 -8 10 -18 10 -10 1 -26 10 -35 20 -16 18 -16 18
1 6 15 -12 17 -12 11 3 -3 9 -11 16 -18 16 -6 0 -4 5 4 10 12 8 11 10 -7 10
-14 0 -23 6 -23 16 0 8 4 13 9 9 5 -3 13 0 17 6 4 7 3 9 -3 6 -6 -4 -16 0 -23
8 -7 8 -16 12 -21 9 -5 -3 -6 2 -2 11 5 14 8 14 15 3 7 -9 8 -8 4 5 -3 10 -6
20 -6 23 0 2 -8 1 -17 -3 -10 -3 -15 -3 -11 2 4 4 0 13 -9 20 -13 9 -13 14 -3
20 8 5 11 4 7 -2 -11 -18 17 -22 33 -5 13 14 13 15 0 10 -8 -3 -20 0 -26 7 -9
9 -4 12 22 12 19 0 31 -4 27 -10 -3 -6 -1 -7 6 -3 16 10 3 29 -16 22 -8 -3
-11 -1 -8 4 3 5 25 8 48 6 23 -1 48 2 56 8 11 8 13 8 7 -1 -4 -7 -2 -13 3 -13
6 0 11 -7 11 -15 0 -8 5 -15 10 -15 7 0 7 6 0 19 -12 23 -1 34 20 21 9 -5 19
-5 27 2 10 8 12 7 8 -5 -8 -18 11 -32 21 -16 4 8 3 9 -4 5 -8 -5 -10 -1 -5 10
5 15 7 15 15 0 5 -9 17 -16 26 -15 14 0 13 2 -3 9 -19 8 -19 9 2 9 12 1 24 -5
26 -11 4 -10 6 -10 6 0 1 6 6 12 12 12 5 0 7 -5 3 -12 -5 -7 -3 -8 7 -2 8 5
25 10 37 12 17 2 22 -1 16 -10 -6 -10 -5 -11 7 -1 8 6 24 10 34 9 11 -2 26 1
33 7 9 7 11 6 7 -5 -6 -16 21 -45 32 -34 3 3 1 6 -6 6 -7 0 -9 5 -5 12 5 7 3
8 -7 3 -12 -8 -12 -6 0 8 16 21 16 21 35 1 9 -8 16 -11 16 -5 0 6 16 10 35 9
19 -1 35 -6 35 -12 0 -7 4 -6 8 2 10 14 64 13 74 -3 5 -6 8 -6 8 2 0 16 70 14
70 -1 0 -7 4 -6 8 2 10 15 61 12 56 -3 -3 -7 8 -10 31 -7 19 2 33 7 31 11 -2
3 11 7 30 8 24 1 32 -2 27 -10 -5 -9 -4 -9 8 0 8 6 24 10 34 9 11 -2 26 1 33
7 9 7 11 5 6 -9 -7 -19 -7 -19 14 0 19 17 26 15 24 -5 -1 -3 5 -6 13 -6 8 0
12 4 9 8 -2 4 5 7 16 6 11 -1 20 -5 20 -10 0 -4 5 -5 10 -2 6 4 7 11 4 17 -5
7 -2 8 7 2 8 -5 22 -7 33 -5 13 2 16 -1 10 -11 -6 -10 -5 -11 7 -1 8 6 24 10
34 9 11 -2 26 1 33 7 9 7 11 6 7 -5 -6 -16 21 -45 32 -34 3 3 1 6 -6 6 -7 0
-9 5 -5 12 5 7 3 8 -7 3 -12 -8 -12 -6 0 8 7 9 17 14 22 11 14 -8 11 -16 -3
-8 -7 4 -9 3 -5 -1 10 -12 39 -16 32 -5 -3 5 4 8 15 7 11 -1 20 -5 20 -10 0
-4 5 -5 10 -2 6 4 7 11 4 17 -5 7 -2 8 7 2 8 -5 22 -7 33 -5 13 2 16 -1 10
-11 -6 -11 -5 -11 8 0 17 14 39 13 50 -3 5 -6 8 -5 8 2 0 16 70 14 70 -1 0 -7
3 -7 8 1 4 7 35 11 82 10 62 -1 78 -4 93 -21 12 -14 16 -16 15 -6 -2 8 -7 18
-13 22 -6 4 -2 8 8 8 10 0 17 8 17 20 0 11 -5 20 -11 20 -5 0 -7 5 -4 10 3 6
1 10 -4 10 -6 0 -11 5 -11 11 0 5 4 8 8 5 5 -3 9 1 9 9 0 7 -8 12 -19 10 -10
-2 -22 4 -28 13 -5 9 -10 12 -10 6 0 -5 -6 -19 -14 -29 -13 -17 -14 -16 -30
17 -10 20 -25 39 -33 42 -14 6 -14 3 1 -18 23 -36 20 -41 -8 -11 -15 16 -22
34 -20 48 4 20 4 21 -5 2 -4 -11 -7 -23 -5 -26 2 -3 -3 -6 -11 -6 -8 0 -15 6
-15 13 0 6 -7 15 -16 18 -8 3 -12 2 -9 -3 3 -5 1 -12 -5 -16 -5 -3 -10 3 -10
14 0 12 5 21 12 21 6 0 9 2 6 5 -9 10 -38 -7 -31 -18 3 -5 1 -7 -5 -4 -5 4 -8
17 -4 30 5 22 5 22 -16 3 -21 -18 -21 -18 -9 7 6 14 16 23 22 20 5 -4 6 -2 2
2 -13 15 -39 15 -33 0 6 -17 -9 -29 -24 -20 -8 5 -7 11 0 20 17 20 5 32 -27
30 -15 0 -34 5 -41 11 -7 7 -20 10 -29 7 -12 -5 -14 -3 -8 7 6 10 4 12 -7 7
-9 -3 -21 0 -27 6 -9 9 -14 8 -22 -3 -8 -12 -9 -11 -7 5 2 15 -2 20 -19 19
-13 -1 -20 2 -18 6 6 10 24 7 52 -8 21 -12 44 0 29 15 -3 4 -6 1 -6 -6 0 -9
-5 -9 -20 -1 -12 6 -18 16 -14 23 5 9 4 9 -6 0 -7 -6 -19 -9 -27 -6 -8 3 -19
0 -24 -8 -6 -9 -9 -10 -9 -2 0 7 8 17 18 23 14 9 10 10 -18 6 -33 -5 -34 -5
-12 7 l23 13 -24 11 c-18 9 -28 8 -37 0 -10 -9 -14 -9 -17 1 -3 6 -10 9 -15 6
-7 -4 -8 -2 -4 5 6 8 12 9 20 2 9 -8 13 -7 13 4 0 8 -4 12 -9 9 -4 -3 -8 0 -8
6 0 6 -10 2 -22 -9 -20 -20 -44 -20 -32 0 3 5 9 7 14 4 5 -3 11 -2 13 2 3 5
-8 9 -24 9 -19 1 -26 -2 -22 -10 3 -6 -3 -3 -15 8 -19 16 -22 36 -6 36 3 0 2
-5 -2 -12 -5 -7 -3 -8 6 -3 9 6 11 4 5 -5 -5 -9 -4 -11 4 -6 17 11 -6 37 -25
29 -8 -3 -14 1 -14 11 0 8 -9 20 -20 26 -11 6 -20 8 -20 5 0 -3 -16 2 -36 10
-46 19 -53 19 -28 0 14 -12 10 -11 -19 2 -21 10 -34 19 -28 21 6 2 11 8 11 14
0 6 -6 8 -14 5 -8 -3 -26 3 -39 13 -13 11 -27 17 -30 13 -3 -3 -4 7 -2 23 2
16 2 23 -1 16 -3 -6 -10 -10 -15 -7 -5 3 -18 1 -30 -6 -12 -6 -19 -7 -15 -1 7
12 -22 24 -37 15 -7 -3 -9 -3 -5 2 8 8 -15 35 -30 35 -6 0 -13 7 -16 16 -4 11
5 8 30 -11 24 -19 39 -24 46 -17 7 7 4 10 -8 9 -10 -1 -19 5 -19 13 0 9 -8 14
-20 12 -17 -3 -17 -2 -4 15 13 16 13 17 -3 4 -15 -11 -19 -11 -24 3 -4 9 -14
14 -27 12 -12 -3 -26 -5 -30 -5 -5 -1 -5 -6 -1 -12 5 -8 1 -8 -13 0 -11 6 -24
7 -28 3 -5 -4 -5 -2 -2 4 6 10 -18 29 -33 26 -10 -1 -9 42 0 53 6 7 2 11 -13
12 -12 0 -17 -1 -10 -4 7 -2 9 -11 7 -18 -5 -11 -9 -12 -19 -2 -7 7 -10 16 -7
21 3 5 0 6 -6 2 -6 -3 -15 1 -20 10 -8 15 -10 15 -15 0 -4 -10 -3 -14 2 -11 5
3 12 1 15 -4 4 -5 2 -12 -3 -16 -6 -3 -22 8 -37 24 -15 17 -31 28 -36 25 -5
-3 -7 0 -6 8 2 7 -3 12 -9 11 -7 -2 -13 2 -13 7 0 14 13 13 28 -2 9 -9 12 -9
12 0 0 7 -6 12 -12 12 -9 0 -8 4 2 10 20 13 8 13 -26 0 -29 -11 -64 -5 -64 12
0 7 5 6 14 -2 10 -8 21 -8 32 -2 11 6 13 11 5 16 -6 4 -11 2 -11 -3 0 -16 -14
-13 -37 9 -18 16 -22 17 -27 4 -4 -10 -2 -13 7 -8 8 5 7 2 -2 -9 -18 -23 -19
-22 -17 12 2 25 0 28 -16 20 -13 -7 -20 -4 -28 11 -6 11 -15 18 -20 15 -5 -3
-11 -1 -15 4 -3 6 -13 8 -23 5 -14 -5 -14 -4 -2 4 8 6 18 8 24 5 5 -3 6 -1 3
5 -8 12 -25 11 -46 -2 -10 -6 -12 -5 -7 3 5 8 3 12 -5 10 -8 -1 -23 -1 -34 1
l-20 1 20 9 c11 5 14 9 6 9 -7 1 -11 7 -8 15 4 10 1 13 -8 9 -8 -3 -12 -10 -8
-17 3 -6 -6 0 -20 13 -15 13 -24 28 -21 32 3 5 0 9 -6 9 -6 0 -8 4 -5 10 3 6
-1 7 -9 4 -9 -3 -13 -11 -9 -18 4 -7 2 -7 -8 1 -12 10 -18 10 -29 0 -10 -9
-11 -9 -6 1 4 7 0 14 -11 18 -38 12 -62 27 -57 36 3 4 0 8 -7 8 -6 0 -18 8
-25 18 -13 16 -14 16 -8 -3 5 -18 4 -18 -8 2 -7 12 -16 22 -21 22 -18 -1 -31
9 -24 17 4 5 11 3 15 -3 5 -9 12 -5 21 10 13 20 13 21 -1 9 -13 -10 -17 -10
-21 0 -3 10 -7 10 -17 1 -11 -10 -16 -9 -26 5 -8 9 -13 22 -13 27 0 6 6 1 14
-9 8 -11 15 -15 15 -9 0 6 -7 16 -15 23 -8 7 -15 9 -15 5 0 -5 -10 0 -22 11
-14 12 -18 13 -10 3 6 -9 8 -20 4 -24 -4 -5 -1 -5 6 -1 18 10 15 1 -5 -15 -9
-8 -14 -9 -10 -3 3 5 -3 23 -14 40 -10 16 -19 23 -19 16 0 -7 -4 -10 -10 -7
-6 3 -7 -1 -4 -9 3 -9 1 -16 -5 -16 -6 0 -10 3 -10 8 3 20 -2 33 -11 27 -6 -4
-7 -12 -3 -18 5 -8 2 -8 -9 0 -8 7 -17 11 -20 8 -2 -3 -4 5 -4 18 1 12 7 27
15 33 11 9 12 12 1 19 -7 5 -11 4 -8 -1 3 -5 -6 -18 -20 -28 -14 -11 -22 -15
-19 -9 4 6 -3 13 -14 16 -21 6 -18 27 4 27 7 0 6 -4 -3 -11 -13 -9 -13 -10 2
-6 9 3 19 1 21 -6 3 -7 5 -2 4 9 -1 16 -7 21 -23 19 -11 -1 -26 -5 -33 -9 -6
-4 -14 0 -17 9 -6 14 -8 14 -20 -2 -12 -16 -13 -16 -8 7 5 20 3 22 -5 10 -9
-13 -11 -12 -12 5 -1 11 -1 23 0 28 0 4 -4 7 -9 7 -6 0 -10 -6 -9 -12 4 -34
-1 -42 -15 -23 -9 13 -11 27 -6 41 7 17 5 22 -8 20 -9 -2 -18 -9 -20 -17 -3
-11 -1 -11 7 1 7 9 11 10 11 3 0 -6 -5 -15 -10 -18 -16 -10 -24 23 -10 40 16
19 3 20 -15 1 -8 -7 -11 -17 -7 -22 4 -5 -1 -2 -11 5 -10 8 -16 20 -13 26 2 7
0 18 -6 26 -8 11 -9 10 -4 -3 3 -12 0 -18 -9 -18 -22 0 -30 4 -27 13 1 4 -5 7
-14 7 -11 0 -14 -6 -10 -17 3 -10 -3 -6 -15 10 -11 15 -26 24 -31 21 -7 -4 -8
-2 -4 5 4 6 10 10 14 7 4 -2 16 0 27 5 l20 9 -20 -1 c-11 -1 -27 -1 -35 0 -13
1 -13 2 0 11 8 5 10 10 5 10 -6 0 -16 -5 -22 -11 -7 -7 -12 -6 -17 6 -3 9 -2
13 4 10 6 -3 10 -1 10 4 0 15 -13 14 -29 -1 -10 -9 -12 -9 -7 -1 4 8 -1 11
-14 10 -11 -1 -20 -5 -20 -9 0 -12 -40 25 -51 47 -10 19 -10 19 5 1 15 -18 15
-18 13 1 -1 21 -1 21 -65 26 -38 4 -43 2 -39 -14z m75 -34 c-3 -3 -9 2 -12 12
-6 14 -5 15 5 6 7 -7 10 -15 7 -18z m607 -314 c3 -5 2 -12 -3 -15 -5 -3 -9 1
-9 9 0 17 3 19 12 6z m948 -544 c-2 -4 -3 -13 -4 -19 0 -10 -2 -10 -6 0 -2 6
-8 10 -12 8 -4 -3 -8 1 -8 8 0 8 7 13 16 11 9 -1 15 -5 14 -8z m-2149 -15 c3
-5 -1 -9 -9 -9 -8 0 -12 4 -9 9 3 4 7 8 9 8 2 0 6 -4 9 -8z m2296 -81 c0 -5
-7 -12 -16 -15 -14 -5 -15 -4 -4 9 14 17 20 19 20 6z m-269 -58 c13 -16 12
-17 -3 -4 -17 13 -22 21 -14 21 2 0 10 -8 17 -17z m492 -56 c8 4 7 1 -1 -9 -9
-11 -9 -18 -2 -21 6 -3 6 -5 -1 -3 -7 1 -13 13 -15 27 -1 13 0 18 2 11 3 -6
11 -9 17 -5z m192 -115 c-3 -3 -11 0 -18 7 -9 10 -8 11 6 5 10 -3 15 -9 12
-12z m173 -133 c-3 -8 -7 -3 -11 10 -4 17 -3 21 5 13 5 -5 8 -16 6 -23z m72 1
c0 -9 -42 -32 -48 -26 -3 3 0 6 7 6 7 0 9 5 6 10 -4 6 -11 7 -17 4 -6 -4 -8
-3 -5 2 6 11 57 14 57 4z m-4988 -89 c-4 -10 -7 -11 -10 -3 -2 7 -9 9 -14 6
-6 -4 -8 -3 -5 3 10 16 36 11 29 -6z m5284 -63 c5 4 5 3 1 -3 -5 -5 -10 -8
-11 -5 -2 3 -11 -2 -22 -10 -17 -14 -18 -13 -7 1 7 9 9 20 5 25 -4 4 0 3 9 -4
9 -6 20 -8 25 -4z m-4881 -638 c3 -5 1 -10 -4 -10 -6 0 -11 5 -11 10 0 6 2 10
4 10 3 0 8 -4 11 -10z m715 -351 c0 -11 -4 -18 -10 -14 -5 3 -7 12 -3 20 7 21
13 19 13 -6z m1885 -238 c3 -5 2 -12 -3 -15 -5 -3 -9 1 -9 9 0 17 3 19 12 6z
m-2134 -116 c19 -2 40 2 47 7 8 7 12 7 12 -1 0 -6 -4 -11 -10 -11 -5 0 -20
-10 -32 -22 -17 -17 -20 -18 -15 -4 6 15 3 17 -13 13 -11 -3 -18 -1 -14 4 8
13 -10 11 -26 -3 -12 -11 -12 -10 -3 2 9 11 8 19 -1 32 -7 10 -17 14 -21 10
-5 -4 -5 -1 0 7 6 11 11 9 25 -9 10 -14 30 -23 51 -25z m69 35 c0 -5 -5 -10
-11 -10 -5 0 -7 5 -4 10 3 6 8 10 11 10 2 0 4 -4 4 -10z m-135 -29 c3 -5 2
-12 -3 -15 -5 -3 -9 1 -9 9 0 17 3 19 12 6z m-651 -539 c3 -5 -1 -9 -9 -9 -8
0 -12 4 -9 9 3 4 7 8 9 8 2 0 6 -4 9 -8z m-4 -1236 c0 -3 -4 -8 -10 -11 -5 -3
-10 -1 -10 4 0 6 5 11 10 11 6 0 10 -2 10 -4z m180 -8 c0 -4 -4 -8 -9 -8 -6 0
-12 4 -15 8 -3 5 1 9 9 9 8 0 15 -4 15 -9z m960 0 c0 -4 -4 -8 -9 -8 -6 0 -12
4 -15 8 -3 5 1 9 9 9 8 0 15 -4 15 -9z m460 8 c0 -3 -4 -8 -10 -11 -5 -3 -10
-1 -10 4 0 6 5 11 10 11 6 0 10 -2 10 -4z m320 0 c0 -3 -4 -8 -10 -11 -5 -3
-10 -1 -10 4 0 6 5 11 10 11 6 0 10 -2 10 -4z m180 -8 c0 -4 -4 -8 -9 -8 -6 0
-12 4 -15 8 -3 5 1 9 9 9 8 0 15 -4 15 -9z m1058 3 c-2 -20 4 -22 15 -6 13 17
14 16 12 -6 -1 -13 2 -30 8 -36 5 -7 6 -13 2 -13 -4 0 -3 -6 3 -13 8 -10 6
-13 -8 -14 -15 -1 -19 4 -16 20 2 13 -6 32 -20 48 -18 18 -20 26 -10 26 8 0
15 -3 14 -6z m1762 -82 c0 -5 -4 -9 -8 -9 -5 0 -9 7 -9 15 0 8 4 12 9 9 4 -3
8 -9 8 -15z m-159 -96 c13 -16 12 -17 -3 -4 -10 7 -18 15 -18 17 0 8 8 3 21
-13z m-326 -182 c3 -5 1 -12 -5 -16 -5 -3 -10 1 -10 9 0 18 6 21 15 7z m-75
-39 c0 -13 -12 -22 -22 -16 -10 6 -1 24 13 24 5 0 9 -4 9 -8z m-1360 -33 c0
-5 -4 -7 -10 -4 -9 6 -14 -8 -11 -27 0 -5 -3 -8 -9 -8 -13 0 -13 6 0 31 11 20
30 26 30 8z m1276 -4 c-3 -20 -26 -44 -26 -27 0 7 5 12 10 12 6 0 9 3 9 8 -2
11 1 22 5 22 2 0 3 -7 2 -15z m-1345 -108 c-6 -8 -7 -18 -3 -22 4 -5 2 -5 -5
-1 -14 8 -6 36 9 36 7 0 6 -5 -1 -13z m949 -137 c0 -5 -2 -10 -4 -10 -3 0 -8
5 -11 10 -3 6 -1 10 4 10 6 0 11 -4 11 -10z m-530 -280 c0 -5 -5 -10 -11 -10
-5 0 -7 5 -4 10 3 6 8 10 11 10 2 0 4 -4 4 -10z m-800 -240 c-8 -5 -19 -10
-25 -10 -5 0 -3 5 5 10 8 5 20 10 25 10 6 0 3 -5 -5 -10z m-31 -83 c0 -9 -2
-8 -6 1 -2 6 -10 9 -15 6 -7 -4 -8 -2 -4 5 9 13 26 5 25 -12z m193 -61 c7 4 8
2 4 -5 -9 -13 -26 -5 -25 12 0 9 2 8 6 -1 2 -6 10 -9 15 -6z"/>
<path d="M3150 6091 c0 -6 4 -13 10 -16 6 -3 7 1 4 9 -7 18 -14 21 -14 7z"/>
<path d="M3110 6080 c0 -5 -8 -7 -17 -3 -10 3 -15 3 -12 -1 4 -4 16 -8 27 -11
15 -2 19 0 15 11 -6 16 -13 19 -13 4z"/>
<path d="M3226 5988 c3 -4 11 -5 19 -1 21 7 19 12 -4 10 -11 0 -18 -5 -15 -9z"/>
<path d="M3327 5961 c-4 -17 -3 -21 5 -13 5 5 8 16 6 23 -3 8 -7 3 -11 -10z"/>
<path d="M2820 5931 c0 -10 19 -25 25 -20 1 2 -3 10 -11 17 -8 7 -14 8 -14 3z"/>
<path d="M3473 5879 c9 -6 14 -15 11 -21 -4 -7 -2 -8 5 -4 14 9 -3 36 -23 36
-6 0 -3 -5 7 -11z"/>
<path d="M3585 5799 c-11 -16 -1 -19 13 -3 7 8 8 14 3 14 -5 0 -13 -5 -16 -11z"/>
<path d="M2706 5748 c3 -5 10 -6 15 -3 13 9 11 12 -6 12 -8 0 -12 -4 -9 -9z"/>
<path d="M3795 5690 c-3 -5 -1 -10 4 -10 6 0 11 5 11 10 0 6 -2 10 -4 10 -3 0
-8 -4 -11 -10z"/>
<path d="M3820 5678 c0 -14 61 -69 72 -65 8 4 7 6 -4 6 -17 1 -23 13 -18 36 1
6 -2 7 -6 2 -4 -4 -16 0 -26 10 -10 9 -18 14 -18 11z"/>
<path d="M3910 5611 c0 -6 4 -13 10 -16 6 -3 7 1 4 9 -7 18 -14 21 -14 7z"/>
<path d="M3940 5606 c7 -7 13 -7 20 0 6 6 3 10 -10 10 -13 0 -16 -4 -10 -10z"/>
<path d="M4023 5564 c-4 -12 -7 -13 -14 -3 -4 8 -11 11 -14 8 -3 -4 1 -12 9
-18 12 -10 17 -8 26 8 6 12 8 21 5 21 -3 0 -8 -7 -12 -16z"/>
<path d="M4064 5521 c0 -9 8 -17 17 -17 18 0 15 22 -5 29 -6 3 -12 -3 -12 -12z"/>
<path d="M4142 5507 c14 -11 15 -16 5 -27 -9 -9 -9 -11 0 -6 6 3 18 -3 26 -14
13 -18 16 -19 27 -5 11 13 10 14 -5 8 -14 -5 -17 -3 -12 10 4 12 2 14 -10 10
-11 -4 -14 -2 -9 5 4 6 -3 16 -16 22 -20 10 -21 10 -6 -3z"/>
<path d="M2576 5495 c-3 -8 -1 -15 4 -15 6 0 10 7 10 15 0 8 -2 15 -4 15 -2 0
-6 -7 -10 -15z"/>
<path d="M2535 5430 c-3 -5 -1 -10 4 -10 6 0 11 5 11 10 0 6 -2 10 -4 10 -3 0
-8 -4 -11 -10z"/>
<path d="M4365 5340 c22 -24 25 -25 25 -4 0 8 -4 12 -10 9 -5 -3 -10 -1 -10 4
0 6 -5 11 -12 11 -6 0 -3 -9 7 -20z"/>
<path d="M4487 5286 c-3 -8 1 -20 9 -26 8 -7 14 -9 14 -4 0 4 6 -1 14 -12 12
-16 17 -17 28 -6 11 11 10 12 -7 6 -18 -7 -19 -6 -6 9 12 15 12 17 -2 12 -9
-4 -21 2 -30 15 -12 17 -16 18 -20 6z"/>
<path d="M2380 5170 c0 -5 5 -10 11 -10 5 0 7 5 4 10 -3 6 -8 10 -11 10 -2 0
-4 -4 -4 -10z"/>
<path d="M4708 5153 c7 -3 16 -2 19 1 4 3 -2 6 -13 5 -11 0 -14 -3 -6 -6z"/>
<path d="M4787 5114 c8 -21 40 -36 48 -23 4 6 4 13 1 16 -3 4 -6 1 -6 -5 0 -6
-7 -9 -16 -5 -11 4 -12 8 -4 13 8 5 5 9 -8 12 -15 4 -19 2 -15 -8z"/>
<path d="M2318 5043 c6 -2 9 -10 6 -15 -4 -7 -2 -8 5 -4 13 9 5 26 -12 25 -9
0 -8 -2 1 -6z"/>
<path d="M4990 5026 c0 -2 8 -10 18 -17 15 -13 16 -12 3 4 -13 16 -21 21 -21
13z"/>
<path d="M2290 5010 c0 -5 5 -10 10 -10 6 0 10 5 10 10 0 6 -4 10 -10 10 -5 0
-10 -4 -10 -10z"/>
<path d="M2255 4950 c-3 -5 -1 -10 4 -10 6 0 11 5 11 10 0 6 -2 10 -4 10 -3 0
-8 -4 -11 -10z"/>
<path d="M2196 4847 c3 -10 9 -15 12 -12 3 3 0 11 -7 18 -10 9 -11 8 -5 -6z"/>
<path d="M5306 4832 c-3 -5 1 -9 9 -9 8 0 12 4 9 9 -3 4 -7 8 -9 8 -2 0 -6 -4
-9 -8z"/>
<path d="M2170 4773 c0 -5 -10 -15 -22 -21 -13 -6 -18 -11 -12 -11 16 -1 50
27 41 35 -4 4 -7 3 -7 -3z"/>
<path d="M2112 4661 c2 -7 7 -12 11 -12 12 1 9 15 -3 20 -7 2 -11 -2 -8 -8z"/>
<path d="M5629 4646 c5 -6 11 -20 14 -31 3 -12 5 -8 4 11 -1 18 -6 31 -14 31
-8 0 -9 -4 -4 -11z"/>
<path d="M2078 4643 c7 -3 16 -2 19 1 4 3 -2 6 -13 5 -11 0 -14 -3 -6 -6z"/>
<path d="M495 4570 c3 -5 8 -10 11 -10 2 0 4 5 4 10 0 6 -5 10 -11 10 -5 0 -7
-4 -4 -10z"/>
<path d="M4152 4504 c10 -10 20 -16 22 -13 3 3 -5 11 -17 18 -21 13 -21 12 -5
-5z"/>
<path d="M5017 4513 c-10 -9 -9 -33 1 -33 4 0 8 9 8 20 0 23 0 22 -9 13z"/>
<path d="M4086 4498 c3 -5 10 -6 15 -3 13 9 11 12 -6 12 -8 0 -12 -4 -9 -9z"/>
<path d="M4330 4501 c0 -6 4 -13 10 -16 6 -3 7 1 4 9 -7 18 -14 21 -14 7z"/>
<path d="M4510 4501 c0 -6 4 -13 10 -16 6 -3 7 1 4 9 -7 18 -14 21 -14 7z"/>
<path d="M4590 4501 c0 -6 4 -13 10 -16 6 -3 7 1 4 9 -7 18 -14 21 -14 7z"/>
<path d="M4670 4501 c0 -6 4 -13 10 -16 6 -3 7 1 4 9 -7 18 -14 21 -14 7z"/>
<path d="M4750 4501 c0 -6 4 -13 10 -16 6 -3 7 1 4 9 -7 18 -14 21 -14 7z"/>
<path d="M4890 4501 c0 -6 4 -13 10 -16 6 -3 7 1 4 9 -7 18 -14 21 -14 7z"/>
<path d="M5130 4501 c0 -6 4 -13 10 -16 6 -3 7 1 4 9 -7 18 -14 21 -14 7z"/>
<path d="M5370 4501 c0 -6 4 -13 10 -16 6 -3 7 1 4 9 -7 18 -14 21 -14 7z"/>
<path d="M5470 4501 c0 -6 4 -13 10 -16 6 -3 7 1 4 9 -7 18 -14 21 -14 7z"/>
<path d="M5550 4501 c0 -6 4 -13 10 -16 6 -3 7 1 4 9 -7 18 -14 21 -14 7z"/>
<path d="M5590 4500 c0 -5 5 -10 10 -10 6 0 10 5 10 10 0 6 -4 10 -10 10 -5 0
-10 -4 -10 -10z"/>
<path d="M5637 4491 c-4 -17 -3 -21 5 -13 5 5 8 16 6 23 -3 8 -7 3 -11 -10z"/>
<path d="M5676 4493 c-4 -9 -4 -14 0 -10 4 4 14 1 23 -6 14 -11 15 -10 1 8 -8
11 -15 21 -16 23 -1 2 -5 -5 -8 -15z"/>
<path d="M537 4494 c-3 -4 0 -19 8 -34 8 -15 12 -30 10 -34 -3 -3 0 -2 6 3 8
6 6 16 -5 33 -9 14 -13 28 -9 31 3 4 4 7 1 7 -2 0 -7 -3 -11 -6z"/>
<path d="M4050 4489 c0 -5 5 -7 10 -4 6 3 10 8 10 11 0 2 -4 4 -10 4 -5 0 -10
-5 -10 -11z"/>
<path d="M5066 4492 c-3 -5 1 -9 9 -9 8 0 12 4 9 9 -3 4 -7 8 -9 8 -2 0 -6 -4
-9 -8z"/>
<path d="M5306 4492 c-3 -5 1 -9 9 -9 8 0 12 4 9 9 -3 4 -7 8 -9 8 -2 0 -6 -4
-9 -8z"/>
<path d="M1959 4414 c-16 -20 7 -25 25 -5 14 15 14 18 1 18 -8 0 -20 -6 -26
-13z"/>
<path d="M630 4370 c0 -5 5 -10 11 -10 5 0 7 5 4 10 -3 6 -8 10 -11 10 -2 0
-4 -4 -4 -10z"/>
<path d="M1933 4365 c0 -6 6 -12 12 -12 6 0 12 6 12 12 0 6 -6 12 -12 12 -6 0
-12 -6 -12 -12z"/>
<path d="M1870 4250 c0 -5 7 -7 15 -4 8 4 15 8 15 10 0 2 -7 4 -15 4 -8 0 -15
-4 -15 -10z"/>
<path d="M1836 4179 c2 -4 -3 -12 -12 -17 -15 -8 -15 -10 0 -15 10 -4 15 -3
11 3 -3 6 -2 10 3 10 6 0 12 6 15 13 3 8 -1 14 -9 14 -7 0 -11 -4 -8 -8z"/>
<path d="M720 4170 c-9 -6 -10 -10 -3 -10 6 0 15 5 18 10 8 12 4 12 -15 0z"/>
<path d="M1795 4130 c-3 -5 -1 -10 4 -10 6 0 11 5 11 10 0 6 -2 10 -4 10 -3 0
-8 -4 -11 -10z"/>
<path d="M775 4070 c3 -5 8 -10 11 -10 2 0 4 5 4 10 0 6 -5 10 -11 10 -5 0 -7
-4 -4 -10z"/>
<path d="M4193 4065 c0 -8 4 -12 9 -9 4 3 8 9 8 15 0 5 -4 9 -8 9 -5 0 -9 -7
-9 -15z"/>
<path d="M1726 3984 c-9 -24 -2 -26 12 -4 7 11 8 20 3 20 -5 0 -12 -7 -15 -16z"/>
<path d="M4252 3963 c-9 -3 -2 -13 19 -29 18 -13 35 -24 38 -24 3 0 -6 10 -22
21 -15 11 -25 25 -21 30 6 10 5 10 -14 2z"/>
<path d="M867 3877 c-3 -8 1 -14 8 -14 7 0 11 6 8 14 -3 7 -6 13 -8 13 -2 0
-5 -6 -8 -13z"/>
<path d="M4310 3870 c0 -5 5 -10 11 -10 5 0 7 5 4 10 -3 6 -8 10 -11 10 -2 0
-4 -4 -4 -10z"/>
<path d="M1601 3791 c-10 -6 -10 -10 -1 -16 9 -6 9 -9 -1 -16 -7 -4 -11 -10
-8 -14 3 -3 14 5 25 17 10 12 13 18 5 13 -11 -6 -13 -4 -8 8 7 19 7 20 -12 8z"/>
<path d="M927 3779 c7 -7 15 -10 18 -7 3 3 -2 9 -12 12 -14 6 -15 5 -6 -5z"/>
<path d="M1028 3613 c7 -3 16 -2 19 1 4 3 -2 6 -13 5 -11 0 -14 -3 -6 -6z"/>
<path d="M4565 3430 c3 -5 11 -10 16 -10 6 0 7 5 4 10 -3 6 -11 10 -16 10 -6
0 -7 -4 -4 -10z"/>
<path d="M1358 3383 c7 -3 16 -2 19 1 4 3 -2 6 -13 5 -11 0 -14 -3 -6 -6z"/>
<path d="M1179 3338 c15 -21 31 -23 31 -6 0 6 -3 8 -7 5 -3 -4 -13 -1 -22 6
-14 11 -14 10 -2 -5z"/>
<path d="M1345 3340 c-3 -6 1 -7 9 -4 18 7 21 14 7 14 -6 0 -13 -4 -16 -10z"/>
<path d="M4618 3328 c5 -5 16 -8 23 -6 8 3 3 7 -10 11 -17 4 -21 3 -13 -5z"/>
<path d="M4655 3289 c-3 -4 2 -6 10 -5 21 3 28 13 10 13 -9 0 -18 -4 -20 -8z"/>
<path d="M4793 3045 c0 -8 4 -12 9 -9 5 3 6 10 3 15 -9 13 -12 11 -12 -6z"/>
<path d="M4821 2973 c-1 -17 16 -25 25 -12 4 7 3 9 -4 5 -5 -3 -13 0 -15 6 -4
9 -6 10 -6 1z"/>
<path d="M4870 2915 c0 -5 5 -17 10 -25 5 -8 10 -10 10 -5 0 6 -5 17 -10 25
-5 8 -10 11 -10 5z"/>
<path d="M4930 2815 c0 -5 5 -17 10 -25 5 -8 10 -10 10 -5 0 6 -5 17 -10 25
-5 8 -10 11 -10 5z"/>
<path d="M5005 2651 c-3 -5 -2 -12 3 -15 5 -3 9 1 9 9 0 17 -3 19 -12 6z"/>
<path d="M5045 2591 c-3 -5 -2 -12 3 -15 5 -3 9 1 9 9 0 17 -3 19 -12 6z"/>
<path d="M5070 2569 c0 -5 5 -7 10 -4 6 3 10 8 10 11 0 2 -4 4 -10 4 -5 0 -10
-5 -10 -11z"/>
<path d="M5158 2393 c7 -3 16 -2 19 1 4 3 -2 6 -13 5 -11 0 -14 -3 -6 -6z"/>
<path d="M5210 2300 c-8 -5 -12 -12 -9 -15 4 -3 12 1 19 10 14 17 11 19 -10 5z"/>
<path d="M5440 1887 c0 -2 6 -10 14 -16 11 -9 16 -9 22 1 4 7 4 10 -1 6 -4 -4
-14 -3 -22 3 -7 6 -13 9 -13 6z"/>
<path d="M5512 1764 c15 -15 30 -26 33 -23 2 3 -10 16 -28 29 l-32 23 27 -29z"/>
<path d="M5618 1573 c7 -3 16 -2 19 1 4 3 -2 6 -13 5 -11 0 -14 -3 -6 -6z"/>
<path d="M5644 1532 c4 -3 14 -7 22 -8 9 -1 13 0 10 4 -4 3 -14 7 -22 8 -9 1
-13 0 -10 -4z"/>
<path d="M857 1483 c-4 -3 -7 -11 -7 -17 0 -6 5 -5 12 2 6 6 9 14 7 17 -3 3
-9 2 -12 -2z"/>
<path d="M934 1478 c-3 -5 -3 -12 0 -15 3 -4 6 -1 6 5 0 6 10 9 21 7 12 -3 19
-1 15 2 -11 11 -35 12 -42 1z"/>
<path d="M1195 1480 c-3 -5 -1 -10 4 -10 6 0 11 5 11 10 0 6 -2 10 -4 10 -3 0
-8 -4 -11 -10z"/>
<path d="M1436 1482 c-3 -5 1 -9 9 -9 8 0 12 4 9 9 -3 4 -7 8 -9 8 -2 0 -6 -4
-9 -8z"/>
<path d="M1817 1483 c-4 -3 -7 -11 -7 -17 0 -6 5 -5 12 2 6 6 9 14 7 17 -3 3
-9 2 -12 -2z"/>
<path d="M1995 1480 c-3 -5 -1 -10 4 -10 6 0 11 5 11 10 0 6 -2 10 -4 10 -3 0
-8 -4 -11 -10z"/>
<path d="M2057 1483 c-4 -3 -7 -11 -7 -17 0 -6 5 -5 12 2 6 6 9 14 7 17 -3 3
-9 2 -12 -2z"/>
<path d="M2315 1480 c-3 -5 -1 -10 4 -10 6 0 11 5 11 10 0 6 -2 10 -4 10 -3 0
-8 -4 -11 -10z"/>
<path d="M2377 1483 c-4 -3 -7 -11 -7 -17 0 -6 5 -5 12 2 6 6 9 14 7 17 -3 3
-9 2 -12 -2z"/>
<path d="M2777 1483 c-4 -3 -7 -11 -7 -17 0 -6 5 -5 12 2 6 6 9 14 7 17 -3 3
-9 2 -12 -2z"/>
<path d="M2854 1478 c-3 -5 -3 -12 0 -15 3 -4 6 -1 6 5 0 6 10 9 21 7 12 -3
19 -1 15 2 -11 11 -35 12 -42 1z"/>
<path d="M3115 1480 c-3 -5 -1 -10 4 -10 6 0 11 5 11 10 0 6 -2 10 -4 10 -3 0
-8 -4 -11 -10z"/>
<path d="M3356 1482 c-3 -5 1 -9 9 -9 8 0 12 4 9 9 -3 4 -7 8 -9 8 -2 0 -6 -4
-9 -8z"/>
<path d="M3637 1483 c-10 -9 -9 -23 1 -23 5 0 9 7 9 15 0 17 -1 18 -10 8z"/>
<path d="M633 1465 c0 -8 4 -12 9 -9 5 3 6 10 3 15 -9 13 -12 11 -12 -6z"/>
<path d="M690 1470 c0 -5 5 -10 11 -10 5 0 7 5 4 10 -3 6 -8 10 -11 10 -2 0
-4 -4 -4 -10z"/>
<path d="M1650 1470 c0 -5 5 -10 11 -10 5 0 7 5 4 10 -3 6 -8 10 -11 10 -2 0
-4 -4 -4 -10z"/>
<path d="M2553 1465 c0 -8 4 -12 9 -9 5 3 6 10 3 15 -9 13 -12 11 -12 -6z"/>
<path d="M2610 1470 c0 -5 5 -10 11 -10 5 0 7 5 4 10 -3 6 -8 10 -11 10 -2 0
-4 -4 -4 -10z"/>
<path d="M3559 1463 c-12 -16 -12 -17 2 -6 9 7 20 9 24 5 5 -4 5 -1 1 6 -9 16
-11 15 -27 -5z"/>
<path d="M5473 1365 c0 -8 4 -12 9 -9 4 3 8 9 8 15 0 5 -4 9 -8 9 -5 0 -9 -7
-9 -15z"/>
<path d="M5250 1276 c-9 -12 -8 -15 8 -13 12 0 18 6 15 14 -6 16 -8 16 -23 -1z"/>
<path d="M5216 1232 c-2 -4 4 -8 14 -8 10 0 16 4 14 8 -3 4 -9 8 -14 8 -5 0
-11 -4 -14 -8z"/>
<path d="M3582 1165 c-7 -8 -13 -18 -15 -22 -1 -5 -5 -7 -8 -6 -3 1 -6 -4 -6
-11 0 -18 30 -13 33 5 1 8 5 22 9 32 9 21 4 21 -13 2z"/>
<path d="M4720 971 c0 -6 4 -13 10 -16 6 -3 7 1 4 9 -7 18 -14 21 -14 7z"/>
<path d="M4670 910 c0 -5 5 -10 10 -10 6 0 10 5 10 10 0 6 -4 10 -10 10 -5 0
-10 -4 -10 -10z"/>
<path d="M3428 883 c6 -2 9 -10 6 -15 -4 -7 -2 -8 5 -4 13 9 5 26 -12 25 -9 0
-8 -2 1 -6z"/>
<path d="M4519 803 c-13 -16 -12 -17 4 -4 9 7 17 15 17 17 0 8 -8 3 -21 -13z"/>
<path d="M3359 775 c-1 -3 -2 -8 -3 -12 -1 -5 -5 -15 -10 -23 -6 -9 -1 -8 12
4 12 10 19 23 16 27 -6 10 -13 12 -15 4z"/>
<path d="M4365 750 c-4 -6 -11 -8 -16 -5 -5 3 -6 -1 -2 -11 5 -15 7 -15 15 0
5 9 14 13 20 10 7 -4 8 -2 4 4 -9 15 -13 15 -21 2z"/>
<path d="M3335 710 c-3 -5 -2 -10 4 -10 5 0 13 5 16 10 3 6 2 10 -4 10 -5 0
-13 -4 -16 -10z"/>
<path d="M4270 713 c0 -4 5 -15 10 -23 8 -13 10 -13 10 2 0 9 -4 20 -10 23 -5
3 -10 3 -10 -2z"/>
<path d="M4251 684 c0 -11 3 -14 6 -6 3 7 2 16 -1 19 -3 4 -6 -2 -5 -13z"/>
<path d="M3274 612 c3 -5 0 -12 -6 -15 -7 -2 -10 -7 -7 -11 3 -4 12 0 18 8 9
11 9 16 0 22 -7 4 -9 3 -5 -4z"/>
<path d="M4051 586 c-9 -11 -9 -16 1 -22 7 -4 10 -4 6 1 -4 4 -3 14 3 22 6 7
9 13 6 13 -2 0 -10 -6 -16 -14z"/>
<path d="M3926 492 c-2 -4 4 -8 14 -8 10 0 16 4 14 8 -3 4 -9 8 -14 8 -5 0
-11 -4 -14 -8z"/>
<path d="M3195 481 c3 -6 -3 -14 -12 -20 -10 -5 -15 -13 -11 -16 4 -4 16 2 28
13 18 17 19 20 5 26 -9 3 -13 2 -10 -3z"/>
<path d="M3828 413 c7 -3 16 -2 19 1 4 3 -2 6 -13 5 -11 0 -14 -3 -6 -6z"/>
<path d="M3150 390 c6 -11 6 -21 1 -24 -5 -4 -11 -3 -13 2 -1 4 -11 0 -20 -10
-15 -15 -15 -18 -3 -18 8 0 15 5 15 11 0 5 4 8 9 4 10 -6 24 11 27 32 1 6 -4
14 -12 17 -11 4 -12 2 -4 -14z"/>
<path d="M3695 350 c-3 -5 -1 -10 4 -10 6 0 11 5 11 10 0 6 -2 10 -4 10 -3 0
-8 -4 -11 -10z"/>
<path d="M3651 324 c0 -11 3 -14 6 -6 3 7 2 16 -1 19 -3 4 -6 -2 -5 -13z"/>
<path d="M3558 293 c-6 -8 -16 -12 -23 -9 -6 2 -12 -2 -12 -10 0 -19 11 -18
32 6 10 11 21 17 26 15 4 -3 10 -2 13 3 9 14 -24 10 -36 -5z"/>
<path d="M3559 263 c-13 -17 -13 -17 6 -3 11 8 22 16 24 17 2 2 0 3 -6 3 -6 0
-17 -8 -24 -17z"/>
<path d="M3438 244 c-4 -5 0 -18 8 -29 15 -20 17 -12 5 19 -4 11 -10 15 -13
10z"/>
<path d="M3355 171 c-3 -5 -2 -12 3 -15 5 -3 9 1 9 9 0 17 -3 19 -12 6z"/>
<path d="M2990 128 c0 -10 17 -10 24 0 3 5 -1 9 -9 9 -8 0 -15 -4 -15 -9z"/>
<path d="M2973 107 c20 -16 23 -32 5 -21 -7 4 -10 4 -6 -1 4 -4 0 -13 -9 -20
-17 -13 -10 -35 10 -35 7 0 6 4 -3 10 -13 8 -12 12 8 25 12 9 22 20 22 25 0 5
-10 14 -22 20 -21 10 -21 10 -5 -3z"/>
<path d="M3250 110 c0 -5 5 -10 11 -10 5 0 7 5 4 10 -3 6 -8 10 -11 10 -2 0
-4 -4 -4 -10z"/>
<path d="M3214 95 c-12 -9 -14 -14 -6 -15 7 0 10 -5 6 -12 -5 -7 -3 -8 5 -4 7
5 10 11 7 14 -3 3 -1 11 5 19 15 17 8 17 -17 -2z"/>
<path d="M3150 50 c0 -5 5 -10 10 -10 6 0 10 5 10 10 0 6 -4 10 -10 10 -5 0
-10 -4 -10 -10z"/>
</g>
</svg>
